<svg width="104" height="232" viewBox="0 0 104 232" fill="none" xmlns="http://www.w3.org/2000/svg">
<path d="M19.1884 20.4551C19.1884 20.4551 14.1187 39.4073 13.6607 52.8319L13.5186 57.3014C13.5186 57.3014 24.6925 66.5802 34.0502 67.1487L41.947 47.8253L19.1884 20.4551Z" fill="#263238"/>
<path d="M68.8431 32.0794C66.7031 22.8401 65.8818 12.0847 58.1983 6.05948C52.4968 1.58991 46.0056 0.34221 38.7643 0.650184C35.2029 0.800223 31.1755 2.44276 28.0721 4.19584C23.8157 6.60436 22.0152 11.4925 19.9621 15.9305C15.8479 24.8222 16.369 36.8648 19.1724 40.213L56.2872 59.8365C63.7102 55.975 68.3614 54.443 69.5459 44.5484C70.0318 40.3826 69.7941 36.1642 68.8431 32.0794Z" fill="#263238"/>
<path d="M57.3932 13.4033L33.9793 6.50148C26.4457 5.40383 21.0443 14.5246 20.2705 22.0976C19.4018 30.5077 18.6911 40.813 19.4334 47.1462C20.9496 59.8837 30.5837 61.8737 30.5837 61.8737C30.5837 61.8737 30.5836 62.0632 30.5284 65.8221L30.2836 71.9184C30.1395 74.3871 30.8692 76.8277 32.3446 78.8122C35.7876 83.2818 42.0814 83.882 49.4885 81.1418C53.7844 79.5625 56.7772 76.3484 57.101 71.9973L61.1679 18.0624C61.2317 16.9552 60.8801 15.8641 60.182 15.0024C59.4839 14.1408 58.4895 13.5705 57.3932 13.4033Z" fill="#9F6B5B"/>
<path d="M24.6214 33.6508C24.6017 34.0733 24.7473 34.4869 25.0274 34.8038C25.3075 35.1208 25.7001 35.3162 26.1218 35.3486C26.5374 35.3929 26.9536 35.2707 27.2792 35.0087C27.6049 34.7467 27.8134 34.3663 27.8591 33.9508C27.8752 33.7402 27.8488 33.5285 27.7816 33.3282C27.7144 33.1279 27.6077 32.9431 27.4678 32.7848C27.3279 32.6265 27.1576 32.4979 26.9671 32.4065C26.7766 32.3152 26.5697 32.263 26.3587 32.253C25.9431 32.2087 25.5269 32.331 25.2013 32.593C24.8756 32.8549 24.6671 33.2353 24.6214 33.6508Z" fill="#263238"/>
<path d="M22.2603 29.7577C22.4498 29.9789 23.7133 29.1181 25.4585 29.1892C27.2037 29.2602 28.4514 30.1842 28.6172 29.9789C28.783 29.7735 28.5303 29.4972 27.9854 29.0707C27.2516 28.5155 26.3626 28.2035 25.4427 28.1784C24.5359 28.1364 23.6394 28.3854 22.8841 28.8891C22.355 29.2523 22.1339 29.6314 22.2603 29.7577Z" fill="#263238"/>
<path d="M40.9045 33.4934C40.8827 33.9164 41.0276 34.3311 41.3081 34.6486C41.5886 34.966 41.9824 35.1608 42.4049 35.1912C42.8192 35.2333 43.2333 35.11 43.5572 34.8483C43.8811 34.5865 44.0885 34.2074 44.1343 33.7935C44.1581 33.3783 44.0173 32.9705 43.7423 32.6585C43.4673 32.3466 43.0804 32.1557 42.6655 32.1273C42.251 32.0758 41.8329 32.1907 41.5029 32.4467C41.1729 32.7028 40.9577 33.0791 40.9045 33.4934Z" fill="#263238"/>
<path d="M39.4358 29.9316C39.6332 30.1527 40.8967 29.292 42.6419 29.3631C44.3871 29.4341 45.6347 30.3581 45.8006 30.1527C45.9664 29.9474 45.7058 29.671 45.1688 29.2446C44.4325 28.694 43.545 28.3826 42.6261 28.3523C41.7156 28.3098 40.8156 28.5618 40.0596 29.0709C39.5069 29.4578 39.341 29.8369 39.4358 29.9316Z" fill="#263238"/>
<path d="M32.6366 41.2553C31.7261 40.9323 30.7792 40.7228 29.8174 40.6315C29.3752 40.5683 28.9567 40.4656 28.8935 40.1577C28.8713 39.6953 28.9926 39.2374 29.241 38.8468L30.694 35.4986C32.7155 30.7605 34.2001 26.8121 34.0027 26.7331C33.8053 26.6542 32.0206 30.4525 29.9991 35.2143L28.6013 38.5783C28.2981 39.1062 28.1918 39.7246 28.3013 40.3235C28.3574 40.4836 28.4502 40.6284 28.5723 40.7463C28.6943 40.8642 28.8421 40.952 29.0041 41.0026C29.26 41.083 29.5257 41.1282 29.7938 41.1369C30.7324 41.2974 31.6878 41.3372 32.6366 41.2553Z" fill="#263238"/>
<path d="M30.6151 61.8741C36.571 62.1995 42.5005 60.8654 47.7432 58.0205C47.7432 58.0205 43.2025 66.707 30.5835 65.0328L30.6151 61.8741Z" fill="#774F44"/>
<path d="M38.2746 44.7619C38.0366 44.3635 37.7036 44.0302 37.3054 43.7918C36.9071 43.5535 36.4561 43.4174 35.9925 43.3958C35.3438 43.3223 34.6873 43.4242 34.0914 43.6909C33.4955 43.9575 32.9821 44.3792 32.6048 44.9119C32.3303 45.4105 32.2541 45.9943 32.3915 46.5466C32.5021 46.8308 32.3915 46.6887 32.6206 46.8861C33.317 47.6565 34.1894 48.2471 35.1633 48.6076C35.6917 48.7598 36.2534 48.7509 36.7767 48.5821C37.3 48.4133 37.7611 48.0922 38.1009 47.66C38.3917 47.2388 38.5616 46.7461 38.5922 46.2352C38.6228 45.7243 38.513 45.2148 38.2746 44.7619Z" fill="#774F44"/>
<path d="M38.0382 42.7397C37.7539 42.7397 37.667 44.6113 35.985 45.8985C34.303 47.1856 32.2972 46.8698 32.2656 47.1304C32.2656 47.2488 32.7 47.5173 33.5528 47.5805C34.6618 47.6515 35.7597 47.3238 36.6484 46.6565C37.494 46.0128 38.0595 45.0684 38.2277 44.019C38.362 43.182 38.1724 42.7397 38.0382 42.7397Z" fill="#263238"/>
<path d="M38.7802 23.5348C38.8986 24.0244 40.6596 23.9771 42.6812 24.4193C44.7028 24.8615 46.29 25.5801 46.6296 25.209C46.7717 25.0194 46.5269 24.5456 45.9031 24.0245C45.069 23.3779 44.0988 22.9296 43.0658 22.7134C42.0329 22.4973 40.9643 22.5189 39.941 22.7768C39.1355 22.9742 38.717 23.3058 38.7802 23.5348Z" fill="#263238"/>
<path d="M22.4027 25.0199C22.7976 25.3595 24.0689 24.7593 25.672 24.5066C27.275 24.2539 28.6649 24.3487 28.9176 23.8907C29.0281 23.6696 28.7517 23.3063 28.1279 23.022C27.2524 22.6918 26.3044 22.6018 25.3824 22.7615C24.4604 22.9212 23.5979 23.3247 22.8844 23.9302C22.3553 24.4198 22.2211 24.8541 22.4027 25.0199Z" fill="#263238"/>
<path d="M34.3346 5.13525C34.3346 5.23002 34.2951 5.32477 34.2793 5.41163H34.3188C34.3267 5.33267 34.3267 5.2774 34.3346 5.13525Z" fill="#263238"/>
<path d="M50.6883 66.9832C51.0437 63.6666 49.7091 60.3342 50.0961 57.0175C50.5067 53.5035 52.781 50.4948 53.7207 47.0755C55.2132 41.6109 53.16 35.7989 52.4098 30.1527C49.1814 29.6284 46.2554 27.9436 44.1814 25.4146C41.6386 22.4533 40.1066 18.7892 38.6062 15.1883C38.7095 18.7427 39.9124 22.1776 42.0492 25.0198C41.3363 25.1302 40.6073 25.0712 39.9214 24.8476C39.2354 24.624 38.6118 24.242 38.1009 23.7326C37.0861 22.7105 36.2978 21.4863 35.7871 20.1396C34.4212 16.9327 33.6634 13.4998 33.5523 10.0159C33.0821 15.0045 33.6439 20.0366 35.2027 24.7987C34.2903 24.6307 33.352 24.6657 32.4547 24.9013C32.0046 25.0174 31.5338 25.0279 31.0791 24.932C30.6243 24.8361 30.1978 24.6364 29.8329 24.3485C29.438 23.8648 29.1888 23.2787 29.1143 22.6586C28.2453 18.4202 28.1038 14.0649 28.6958 9.779C27.497 12.0463 26.5262 14.427 25.7977 16.8861C25.0652 19.3681 25.0461 22.0062 25.7424 24.4986C25.6389 24.6027 25.5159 24.6853 25.3804 24.7417C25.2448 24.798 25.0995 24.8271 24.9527 24.8271C24.806 24.8271 24.6606 24.798 24.5251 24.7417C24.3896 24.6853 24.2665 24.6027 24.1631 24.4986C23.7624 24.0639 23.5179 23.5083 23.4681 22.9192C23.2565 20.7733 23.3979 18.6072 23.8867 16.5071C22.6232 18.7497 22.2047 21.3557 21.5176 23.8274C20.8306 26.2991 19.7014 28.8497 17.5692 30.2632C17.2006 27.0275 17.307 23.7552 17.8851 20.5502C18.3115 17.8969 19.5671 15.2673 20.728 12.8429C21.9609 10.1514 23.704 7.72438 25.8609 5.69637C29.5881 2.435 31.1517 3.84062 33.5286 5.08042L33.8129 5.19886C33.8091 5.14102 33.8091 5.08298 33.8129 5.02513L33.9156 4.51974C40.1538 3.12458 46.652 3.42727 52.7336 5.39628C57.219 6.86508 62.7467 11.4768 65.0289 15.6068C65.0684 15.6858 65.1157 15.7648 65.1631 15.8437C70.4539 25.3988 73.9443 36.4701 74.2049 60.4131L50.6883 66.9832Z" fill="#263238"/>
<path d="M60.6546 97.0383C60.6132 96.7238 60.6132 96.4052 60.6546 96.0907C60.7409 95.2241 60.8967 94.3659 61.1205 93.5242C61.8552 90.7298 63.2531 88.1538 65.1955 86.0147C67.138 83.8757 69.5678 82.2367 72.2787 81.2369C73.0922 80.9318 73.9295 80.6941 74.782 80.5262C75.092 80.4492 75.4101 80.4095 75.7296 80.4077C75.7296 80.4867 74.4029 80.692 72.3893 81.5054C69.7615 82.558 67.4072 84.194 65.5044 86.2898C63.6015 88.3855 62.1997 90.8863 61.4048 93.6032C60.8284 95.688 60.7336 97.0541 60.6546 97.0383Z" fill="#263238"/>
<path d="M5.17174 166.372C5.17174 166.372 3.71084 190.963 10.1783 200.581L14.9637 184.377V166.538L5.17174 166.372Z" fill="#E0E0E0"/>
<path d="M55.0634 67.8047C55.0634 67.8047 41.4493 78.0705 34.816 76.9334C29.5015 76.0015 30.4175 67.9231 30.4175 67.9231L27.8353 73.5062L22.2681 95.7909L24.6371 106.286L37.272 98.4758L55.0634 67.8047Z" fill="#64CF83"/>
<path d="M8.57546 112.326C10.0048 97.6146 27.6935 72.1396 27.6935 72.1396L30.489 67.6226L27.7014 80.1153C27.7014 80.1153 24.9297 98.349 24.5427 98.728L40.1389 83.6215L57.6697 65.0562L61.1364 70.0311L76.5272 78.5596L74.9479 126.872L69.4201 141.031C69.4201 141.031 85.6717 185.521 87.7801 201.291L91.2942 231.196L8.32275 231.062C8.32275 231.062 11.2367 184.29 11.5604 174.3C11.8842 164.311 12.6581 142.216 12.6581 142.216C12.6581 142.216 7.13035 127.03 8.57546 112.326Z" fill="#E0E0E0"/>
<path d="M91.31 231.197C91.2838 231.11 91.2679 231.02 91.2626 230.929C91.2626 230.723 91.1916 230.463 91.1442 230.139L90.7414 227.059C90.4098 224.358 89.9517 220.497 89.3437 215.727C89.0515 213.358 88.7356 210.713 88.3961 207.902C88.2276 206.496 88.0539 205.043 87.8749 203.543C87.7012 202.042 87.5274 200.502 87.2353 198.947C85.8225 192.189 84.0672 185.508 81.976 178.928C80.8073 175.106 79.6544 171.387 78.4461 167.873C77.2379 164.359 76.0771 160.939 74.9716 157.733C72.7842 151.313 70.8573 145.659 69.3096 141.103V141.055V141.008L72.9579 131.903L73.9529 129.471L74.2135 128.847C74.2415 128.776 74.2759 128.707 74.3161 128.642C74.3041 128.718 74.2829 128.792 74.253 128.863C74.1898 129.029 74.1187 129.234 74.0239 129.502L73.0921 131.958L69.5623 141.103V141.008C71.1416 145.549 73.1 151.203 75.3269 157.591C76.4325 160.797 77.6012 164.193 78.8252 167.731C80.0492 171.268 81.1942 174.996 82.3708 178.786C84.466 185.379 86.2162 192.077 87.6143 198.852C87.8986 200.431 88.0644 202.011 88.2381 203.479C88.4119 204.948 88.5777 206.433 88.7356 207.838L89.6359 215.672C90.165 220.41 90.5993 224.311 90.8994 227.012C91.0415 228.338 91.1521 229.381 91.2231 230.099L91.3021 230.889C91.3198 230.991 91.3225 231.095 91.31 231.197Z" fill="#263238"/>
<g opacity="0.2">
<path opacity="0.2" d="M78.5484 167.494C78.5484 167.494 67.335 181.976 64.6816 181.518C62.0283 181.06 59.3987 175.99 59.3987 175.99L56.469 174.632L53.6104 169.42L59.7856 163.893L78.5484 167.494Z" fill="black"/>
</g>
<path d="M25.1346 75.8594C25.1346 75.8594 18.5724 78.6469 16.4482 82.0031C14.3239 85.3592 12.8867 99.9129 12.8867 99.9129L23.3026 82.3663L25.1346 75.8594Z" fill="#E0E0E0"/>
<path d="M34.7687 168.315L45.0345 164.493L52.8839 159.202L59.5725 169.91L56.5401 171.726C56.5401 171.726 56.4612 174.317 56.4454 174.632C56.4296 174.948 55.4188 177.507 47.1114 177.341C38.804 177.175 36.8456 172.958 36.8456 172.958C36.8456 172.958 32.526 177.91 30.7335 178.683C28.9409 179.457 27.251 177.104 27.251 177.104L34.7687 168.315Z" fill="#9F6B5B"/>
<path d="M12.468 146.796C12.468 146.796 8.51967 150.918 7.58785 154.14C6.65603 157.362 7.19301 166.435 7.19301 166.435L8.32224 166.475C8.32224 166.475 8.32224 172.413 9.96477 172.61C11.6073 172.808 13.2103 172.855 13.2972 170.17C13.2394 167.693 12.9886 165.225 12.547 162.787L12.468 146.796Z" fill="#9F6B5B"/>
<path d="M20.4124 231.197C20.4024 231.084 20.4024 230.97 20.4124 230.857V229.847C20.4124 228.938 20.3571 227.635 20.3176 225.961C20.2466 222.574 20.1439 217.701 20.0255 211.684C19.8202 199.618 19.5359 182.971 19.2358 164.588C18.6356 146.196 18.533 129.51 19.5438 117.475C19.9224 112.716 20.9069 108.024 22.4735 103.514C22.7577 102.724 23.042 102.021 23.2631 101.429C23.4843 100.837 23.7369 100.324 23.9423 99.9288C24.1476 99.534 24.2897 99.2497 24.4003 99.0286C24.4484 98.9248 24.5038 98.8245 24.5661 98.7285C24.5296 98.8397 24.4847 98.9479 24.4319 99.0523C24.3371 99.2734 24.195 99.5735 24.0212 99.9683C23.8475 100.363 23.6106 100.869 23.3737 101.477C23.1368 102.085 22.8525 102.772 22.584 103.569C21.0677 108.077 20.1207 112.757 19.7649 117.499C18.8331 129.51 18.9752 146.196 19.5753 164.58C19.8359 182.963 20.0807 199.61 20.2545 211.684C20.3176 217.693 20.3729 222.566 20.4124 225.961C20.4124 227.628 20.4124 228.938 20.4124 229.847C20.4124 230.273 20.4124 230.636 20.4124 230.849C20.4245 230.965 20.4245 231.081 20.4124 231.197Z" fill="#263238"/>
<path d="M49.3939 213.579C49.2542 213.549 49.1189 213.501 48.9912 213.437C48.604 213.297 48.2267 213.13 47.862 212.939C46.5065 212.262 45.2476 211.407 44.1189 210.396C42.4345 208.901 40.9885 207.157 39.831 205.224C38.407 202.863 37.3424 200.302 36.6723 197.627C35.6017 192.753 35.2874 187.743 35.7404 182.773C35.8747 180.87 36.0405 179.338 36.1669 178.28C36.23 177.783 36.2774 177.38 36.3169 177.056C36.3296 176.914 36.3587 176.773 36.4038 176.638C36.4244 176.779 36.4244 176.923 36.4038 177.064C36.4038 177.396 36.3564 177.799 36.3248 178.288C36.2458 179.354 36.1274 180.894 36.0326 182.789C35.667 187.728 36.0181 192.694 37.075 197.533C37.7302 200.168 38.7622 202.694 40.1389 205.034C41.2649 206.944 42.6643 208.679 44.2926 210.183C45.829 211.544 47.5456 212.687 49.3939 213.579Z" fill="#263238"/>
<path d="M25.1349 75.8596C25.1489 76.0383 25.1489 76.2178 25.1349 76.3965C25.1349 76.7756 25.0717 77.2889 25.0243 77.9364C24.9058 79.3184 24.7479 81.2767 24.5426 83.7247V83.7879H24.4873L22.7184 84.8066L22.7895 84.6802C23.0817 88.7392 23.4607 93.8958 23.8951 99.7473L23.6424 99.5815L37.6512 94.5197L42.1208 92.9403L41.9945 93.1614C41.7734 91.582 41.5523 90.1211 41.339 88.6444L41.2917 88.3207L41.5996 88.4312L46.9379 90.3265L46.7167 90.3975L57.0615 75.6937L60.0465 71.5084L60.8362 70.395C60.9214 70.2646 61.0193 70.1429 61.1284 70.0317C61.0583 70.1727 60.9764 70.3074 60.8836 70.4345C60.7019 70.7188 60.4492 71.0899 60.1334 71.5716L57.2274 75.8201L47.0089 90.6107L46.9221 90.7292L46.7878 90.6818L41.4496 88.8103L41.7102 88.5892C41.9234 90.058 42.1445 91.5662 42.3735 93.0982V93.2641L42.2156 93.3193L37.7381 94.9382L23.7134 99.9763L23.4765 100.063V99.8105C23.0896 93.9511 22.7421 88.755 22.4736 84.7276V84.6408L22.5447 84.6013L24.3294 83.6063L24.2662 83.709C24.5189 81.2531 24.7163 79.3026 24.8585 77.9285C24.9374 77.281 24.9927 76.7677 25.0322 76.3886C25.0551 76.2103 25.0894 76.0336 25.1349 75.8596Z" fill="#263238"/>
<path d="M12.5471 162.787C12.5338 162.666 12.5338 162.544 12.5471 162.424C12.5471 162.147 12.5471 161.792 12.5471 161.342C12.5471 160.363 12.5076 158.973 12.4839 157.236C12.4839 153.666 12.3971 148.612 12.3418 142.54V142.587C11.41 139.349 10.5808 135.756 9.78322 131.903C9.38838 129.984 8.99354 127.954 8.64608 125.956C8.24428 123.872 8.00403 121.76 7.92747 119.639C7.7562 113.957 8.72833 108.299 10.7861 103.001C12.0123 99.6058 13.4768 96.302 15.1688 93.1138C16.6534 90.2315 18.059 87.7518 19.2435 85.7145C20.4281 83.6771 21.4152 82.082 22.1022 80.9764L22.8919 79.7524C22.9765 79.6069 23.0743 79.4695 23.184 79.3418C23.1108 79.4937 23.0291 79.6413 22.9392 79.784L22.1338 81.087C21.4783 82.1846 20.5544 83.7956 19.3778 85.825C18.2012 87.8545 16.8429 90.3736 15.382 93.2638C13.7243 96.4495 12.2863 99.7449 11.0783 103.127C9.06448 108.378 8.11426 113.978 8.28283 119.6C8.35724 121.705 8.59485 123.801 8.99354 125.87C9.35679 127.907 9.73057 129.886 10.1149 131.808C10.9046 135.654 11.6942 139.247 12.6182 142.469V142.516C12.6182 148.597 12.6182 153.65 12.6182 157.22C12.6182 158.965 12.6182 160.378 12.6182 161.326C12.6182 161.776 12.6182 162.116 12.6182 162.408C12.6057 162.536 12.5819 162.663 12.5471 162.787Z" fill="#263238"/>
<g opacity="0.2">
<path opacity="0.2" d="M74.3155 130.662C65.7317 124.527 60.5909 113.826 60.4487 103.276L74.3155 130.662Z" fill="black"/>
</g>
<path d="M70.4621 75.8037C70.4621 75.8037 77.7904 77.233 80.6806 83.511C83.5708 89.7889 102.72 137.296 103.092 140.636C103.463 143.977 101.891 148.209 97.9429 152.363C93.9945 156.517 64.2948 177.427 64.2948 177.427L51.4072 156.785L77.6482 137.943L60.5438 102.645C60.5438 102.645 61.8073 78.3781 70.4621 75.8037Z" fill="#E0E0E0"/>
<path d="M88.5853 142.619C87.0263 141.533 85.3989 140.549 83.713 139.673C81.967 138.921 80.1763 138.278 78.3511 137.746C78.9168 137.73 79.4817 137.802 80.0252 137.96C81.3585 138.261 82.6538 138.712 83.8867 139.302C85.1223 139.885 86.2879 140.605 87.3613 141.45C87.8319 141.768 88.2457 142.163 88.5853 142.619Z" fill="#263238"/>
<path d="M87.614 135.124C86.0213 135.278 84.4392 135.526 82.8759 135.867C81.349 136.341 79.8535 136.91 78.3984 137.573C81.051 135.616 84.3482 134.741 87.6219 135.124H87.614Z" fill="#263238"/>
<path d="M97.9427 152.363C97.9955 152.291 98.0536 152.222 98.1165 152.158L98.6377 151.566C98.9499 151.253 99.2451 150.923 99.5221 150.579C99.8959 150.127 100.241 149.652 100.557 149.157C101.461 147.837 102.144 146.378 102.578 144.838C102.849 143.879 102.995 142.889 103.012 141.892C103.063 140.781 102.866 139.673 102.436 138.647C99.0009 129.786 94.2708 117.594 89.0115 104.13C86.9741 99.2021 85.0078 94.4483 83.1521 89.9787C82.2361 87.7439 81.3358 85.5802 80.483 83.5033C79.5294 81.5996 78.1385 79.9489 76.424 78.6863L61.6413 70.4105L58.6721 66.4621L57.8824 65.4355C57.7923 65.3221 57.713 65.2005 57.6455 65.0723C57.6455 65.0723 57.7482 65.1828 57.9298 65.4039L58.7195 66.3989L61.7676 70.2999L76.6215 78.4099C78.3905 79.7028 79.8276 81.397 80.8146 83.3533C81.6754 85.4301 82.5756 87.5939 83.5074 89.8208L89.3826 103.988C94.634 117.467 99.2852 129.707 102.665 138.56C103.104 139.622 103.298 140.769 103.234 141.916C103.209 142.933 103.049 143.942 102.76 144.917C102.305 146.475 101.593 147.945 100.651 149.268C100.321 149.755 99.9628 150.221 99.5774 150.665C99.31 151.006 99.0198 151.328 98.7087 151.629L98.1481 152.189C98.0217 152.308 97.9427 152.371 97.9427 152.363Z" fill="#263238"/>
<path d="M79.2433 166.759C79.1643 166.834 79.0798 166.902 78.9906 166.964L78.2009 167.541L75.2396 169.705L64.3579 177.601L64.2315 177.696L64.1447 177.554L51.2413 156.896L51.1387 156.738L51.2887 156.635L63.1339 148.115L77.5613 137.738L77.4981 137.983L64.9501 112.532L61.3571 105.164L60.4095 103.198C60.3147 102.985 60.2358 102.811 60.1726 102.685L60.1015 102.503C60.1417 102.554 60.1762 102.61 60.2042 102.669L60.4726 103.166L61.4676 105.109C62.3442 106.83 63.5919 109.31 65.1633 112.421L77.8535 137.809L77.9245 137.959L77.7903 138.054L63.3787 148.446L51.5335 156.951L51.5809 156.691L64.4368 177.356L64.2157 177.317L75.1765 169.562L78.1851 167.462L78.9748 166.925C79.0588 166.861 79.1487 166.806 79.2433 166.759Z" fill="#263238"/>
<path d="M60.6546 97.0383C60.6132 96.7238 60.6132 96.4052 60.6546 96.0907C60.7409 95.2241 60.8967 94.3659 61.1205 93.5242C61.8552 90.7298 63.2531 88.1538 65.1955 86.0147C67.138 83.8757 69.5678 82.2367 72.2787 81.2369C73.0922 80.9318 73.9295 80.6941 74.782 80.5262C75.092 80.4492 75.4101 80.4095 75.7296 80.4077C75.7296 80.4867 74.4029 80.692 72.3893 81.5054C69.7615 82.558 67.4072 84.194 65.5044 86.2898C63.6015 88.3855 62.1997 90.8863 61.4048 93.6032C60.8284 95.688 60.7336 97.0541 60.6546 97.0383Z" fill="#263238"/>
<path d="M79.2433 166.759C79.1643 166.834 79.0798 166.902 78.9906 166.964L78.2009 167.541L75.2396 169.705L64.3579 177.601L64.2315 177.696L64.1447 177.554L51.2413 156.896L51.1387 156.738L51.2887 156.635L63.1339 148.115L77.5613 137.738L77.4981 137.983L64.9501 112.532L61.3571 105.164L60.4095 103.198C60.3147 102.985 60.2358 102.811 60.1726 102.685L60.1015 102.503C60.1417 102.554 60.1762 102.61 60.2042 102.669L60.4726 103.166L61.4676 105.109C62.3442 106.83 63.5919 109.31 65.1633 112.421L77.8535 137.809L77.9245 137.959L77.7903 138.054L63.3787 148.446L51.5335 156.951L51.5809 156.691L64.4368 177.356L64.2157 177.317L75.1765 169.562L78.1851 167.462L78.9748 166.925C79.0588 166.861 79.1487 166.806 79.2433 166.759Z" fill="#263238"/>
<g opacity="0.2">
<path opacity="0.2" d="M46.8508 90.5L42.476 90.3579L43.392 94.788L23.6816 99.7945L42.168 93.1297L41.5126 88.6206L46.8508 90.5Z" fill="black"/>
</g>
<path d="M8.3384 231.063C8.31923 230.86 8.31923 230.657 8.3384 230.455C8.3384 230.02 8.38578 229.444 8.40947 228.709C8.48844 227.13 8.59899 224.958 8.74113 222.25C9.057 216.722 9.49133 209.125 9.98093 200.549L10.0283 200.692C9.27269 199.648 8.65926 198.509 8.20416 197.304C7.06402 194.155 6.29031 190.885 5.8983 187.559C5.47977 184.401 5.25866 181.455 5.10862 178.754C4.85593 173.361 4.95069 169.026 5.10862 166.356V166.27H5.19549L7.56452 166.396L8.16467 166.443H8.36999H8.16467H7.56452L5.19549 166.396L5.28235 166.317C5.22708 168.978 5.19548 173.313 5.48766 178.691C5.6377 181.384 5.87461 184.337 6.27734 187.457C6.67269 190.772 7.44635 194.031 8.5832 197.17C9.02151 198.338 9.61373 199.443 10.3442 200.455L10.3916 200.518V200.597C9.84669 209.165 9.36498 216.769 9.01752 222.281C8.8201 224.99 8.67006 227.177 8.55951 228.733C8.50423 229.467 8.45686 230.044 8.41737 230.478C8.40531 230.675 8.37891 230.87 8.3384 231.063Z" fill="#263238"/>
<path d="M57.3375 87.8151L56.2715 87.365C56.2715 87.3098 58.6405 81.5846 61.0095 75.5199C61.9414 73.1114 62.273 71.1056 62.0045 69.5499C61.8824 68.9021 61.5328 68.3192 61.0188 67.9065C60.5047 67.4939 59.8601 67.2785 59.2012 67.2993L58.4747 66.2569C59.4995 66.0976 60.5469 66.3267 61.4117 66.8993C62.2764 67.4719 62.8962 68.3468 63.1496 69.3525C63.4496 71.1135 63.0943 73.3009 62.0914 75.9384C59.754 82.0189 57.3612 87.752 57.3375 87.8151Z" fill="#455A64"/>
<path d="M59.0672 101.192L57.5905 100.623C58.7987 97.512 60.4491 92.0001 59.7384 90.4523C59.3936 89.8966 58.9329 89.4219 58.3878 89.0608C57.8426 88.6996 57.2258 88.4604 56.5797 88.3597C55.7887 88.1508 54.9602 88.1277 54.1588 88.2921C53.3575 88.4565 52.6049 88.8039 51.9601 89.3073C50.2702 90.7366 47.7274 95.7747 46.8903 97.591L45.4531 96.9277C45.5795 96.6513 48.6118 90.0417 50.9809 88.0991C51.8121 87.4382 52.7851 86.9788 53.8236 86.7569C54.8621 86.5349 55.9378 86.5565 56.9666 86.8198C57.853 86.9677 58.6952 87.3117 59.4316 87.8268C60.168 88.3419 60.78 89.015 61.223 89.7969C62.4075 92.4028 59.6278 99.7468 59.0672 101.192Z" fill="#455A64"/>
<path d="M43.1549 125.222C41.3308 125.222 39.5461 124.251 37.8325 122.316L38.4169 121.787C40.3121 123.919 42.2547 124.764 44.1894 124.314C52.0862 122.458 58.064 100.568 58.1272 100.347L58.9169 100.552C58.6721 101.476 52.7337 123.121 44.4026 125.08C43.9938 125.176 43.575 125.224 43.1549 125.222Z" fill="#263238"/>
<path d="M39.349 123.216C39.188 123.376 38.9752 123.472 38.7492 123.488C38.5232 123.504 38.2989 123.438 38.1171 123.303L36.4035 122.032C36.2781 121.95 36.1702 121.843 36.0863 121.719C36.0023 121.595 35.9439 121.455 35.9145 121.308C35.8851 121.161 35.8853 121.01 35.915 120.863C35.9447 120.716 36.0034 120.576 36.0877 120.452C36.1801 120.312 36.3027 120.194 36.4465 120.107C36.5903 120.02 36.7517 119.967 36.9189 119.95C37.0861 119.933 37.2549 119.954 37.413 120.011C37.5711 120.068 37.7146 120.159 37.8328 120.279L39.3648 121.858C39.4545 121.947 39.5254 122.054 39.5733 122.171C39.6212 122.288 39.6451 122.414 39.6437 122.541C39.6422 122.667 39.6154 122.792 39.5648 122.908C39.5142 123.024 39.4408 123.129 39.349 123.216Z" fill="#263238"/>
<path d="M46.5034 125.941C44.0712 125.941 42.2628 125.151 41.1257 123.572C36.285 116.781 45.4136 97.9231 45.8085 97.1177L46.5192 97.4651C46.4244 97.6547 37.201 116.702 41.7811 123.114C42.9735 124.78 45.0662 125.483 48.0038 125.08L48.1064 125.87C47.5741 125.927 47.0387 125.951 46.5034 125.941Z" fill="#263238"/>
<path d="M46.3613 125.514C46.3773 125.739 46.4727 125.95 46.6304 126.111C46.7881 126.271 46.9979 126.371 47.2221 126.391L49.3463 126.565C49.4942 126.586 49.6448 126.577 49.7894 126.54C49.9341 126.502 50.0698 126.436 50.1888 126.346C50.3078 126.256 50.4076 126.143 50.4826 126.013C50.5576 125.884 50.6062 125.741 50.6256 125.593C50.6482 125.427 50.6336 125.259 50.583 125.099C50.5323 124.94 50.4469 124.793 50.3327 124.671C50.2186 124.548 50.0787 124.453 49.9231 124.391C49.7675 124.329 49.6002 124.303 49.4332 124.314L47.2221 124.503C46.974 124.524 46.744 124.641 46.5827 124.831C46.4213 125.02 46.3417 125.266 46.3613 125.514Z" fill="#263238"/>
<path d="M10.7377 112.728C13.8901 111.415 15.3813 107.796 14.0685 104.643C12.7556 101.491 9.13577 99.9994 5.98335 101.312C2.83093 102.625 1.33969 106.245 2.65256 109.397C3.96543 112.55 7.58526 114.041 10.7377 112.728Z" fill="#263238"/>
<path d="M10.7377 112.728C13.8901 111.415 15.3813 107.796 14.0685 104.643C12.7556 101.491 9.13577 99.9994 5.98335 101.312C2.83093 102.625 1.33969 106.245 2.65256 109.397C3.96543 112.55 7.58526 114.041 10.7377 112.728Z" fill="#263238"/>
<path d="M12.9418 107.004C12.9418 107.908 12.6737 108.792 12.1713 109.544C11.6689 110.296 10.9548 110.882 10.1193 111.228C9.28385 111.574 8.36453 111.665 7.4776 111.488C6.59068 111.312 5.77598 110.876 5.13654 110.237C4.4971 109.598 4.06164 108.783 3.88522 107.896C3.7088 107.009 3.79934 106.09 4.14541 105.254C4.49147 104.419 5.0775 103.705 5.8294 103.202C6.5813 102.7 7.4653 102.432 8.36961 102.432C8.97033 102.431 9.56535 102.548 10.1205 102.778C10.6757 103.007 11.1802 103.344 11.605 103.768C12.0298 104.193 12.3665 104.698 12.5959 105.253C12.8253 105.808 12.9429 106.403 12.9418 107.004Z" fill="#E0E0E0"/>
<path d="M10.9128 101.429L9.88623 100.9C10.4074 99.889 22.6316 76.1118 23.366 75.0379C23.4924 74.8483 23.6503 74.5799 23.824 74.2877C24.1915 73.6483 24.6003 73.0337 25.048 72.4477C26.2799 70.9236 27.7487 69.518 29.5097 69.2021L28.4831 70.8605C27.5434 71.2237 27.0459 71.816 25.9483 73.1742C25.5357 73.7208 25.1585 74.2931 24.819 74.8878C24.6295 75.2037 24.4637 75.4801 24.3215 75.6775C23.7135 76.5304 14.4506 94.5508 10.9128 101.429Z" fill="#455A64"/>
</svg>
