<svg width="160" height="240" viewBox="0 0 160 240" fill="none" xmlns="http://www.w3.org/2000/svg">
<path d="M115.283 4.88406C114.751 3.86103 113.912 3.03008 112.884 2.50757C111.856 1.98505 110.69 1.79714 109.55 1.97015C108.21 0.933076 106.561 0.374323 104.867 0.38291C103.173 0.391497 101.53 0.966939 100.2 2.01754C99.2054 1.40583 98.0688 1.06294 96.9017 1.02245C95.7345 0.981957 94.5769 1.24525 93.5421 1.78654C92.5073 2.32782 91.6308 3.12856 90.9984 4.11035C90.366 5.09213 89.9993 6.22131 89.9344 7.38733C88.7576 7.16883 87.5418 7.33051 86.4629 7.84896C85.3841 8.36741 84.4982 9.21573 83.9336 10.2711C83.369 11.3265 83.1549 12.5342 83.3222 13.7194C83.4896 14.9046 84.0299 16.0057 84.8647 16.8635C83.5812 17.2609 82.4908 18.1206 81.8048 19.276C81.1188 20.4313 80.8859 21.8001 81.1513 23.1173C81.4167 24.4345 82.1615 25.6064 83.2414 26.4059C84.3213 27.2054 85.6595 27.5757 86.9968 27.4452L114.17 11.2094C114.991 10.4023 115.54 9.359 115.739 8.22502C115.939 7.09104 115.779 5.92302 115.283 4.88406Z" fill="#E0E0E0"/>
<path d="M86.1915 28.1562C86.7422 22.4001 89.4383 17.062 93.7441 13.2025C98.0498 9.34296 103.65 7.24464 109.432 7.32446H110.624C123.456 8.25628 129.837 19.6829 128.542 32.4915L126.062 75.2604L125.92 77.3373L96.1809 82.865L96.3783 71.9596C96.3783 71.9596 84.0515 69.859 84.0831 57.5085C84.1068 51.5464 85.1333 39.2669 86.1915 28.1562Z" fill="#FFBE9D"/>
<path d="M96.2915 71.9514C102.028 72.0352 107.667 70.4732 112.543 67.4502C112.543 67.4502 108.595 76.2788 96.2994 74.9916L96.2915 71.9514Z" fill="#EB996E"/>
<path d="M91.0479 39.5902C91.0369 40.0502 91.2057 40.4963 91.5182 40.8339C91.8308 41.1715 92.2625 41.3741 92.722 41.3986C92.9476 41.4191 93.175 41.3943 93.3908 41.3255C93.6067 41.2568 93.8066 41.1456 93.9788 40.9984C94.151 40.8512 94.292 40.6711 94.3935 40.4685C94.495 40.266 94.5549 40.0453 94.5698 39.8192C94.5787 39.3598 94.4094 38.9148 94.0972 38.5777C93.7851 38.2405 93.3544 38.0373 92.8957 38.0109C92.6701 37.9904 92.4427 38.0152 92.2268 38.0839C92.011 38.1527 91.8111 38.2639 91.6389 38.4111C91.4667 38.5583 91.3257 38.7384 91.2242 38.9409C91.1227 39.1434 91.0627 39.3642 91.0479 39.5902Z" fill="#263238"/>
<path d="M88.7662 34.2367C88.9794 34.4736 90.3456 33.5023 92.225 33.5339C94.1044 33.5655 95.5022 34.5368 95.7075 34.3236C95.8101 34.2209 95.5969 33.8024 94.9968 33.3523C94.184 32.7691 93.2095 32.4544 92.2092 32.452C91.224 32.4331 90.2585 32.7291 89.4532 33.297C88.9005 33.7234 88.6557 34.134 88.7662 34.2367Z" fill="#263238"/>
<path d="M108.705 40.0482C108.692 40.5087 108.86 40.956 109.173 41.294C109.486 41.6321 109.919 41.8341 110.379 41.8566C110.605 41.8771 110.832 41.8522 111.047 41.7834C111.262 41.7146 111.462 41.6032 111.633 41.4559C111.805 41.3087 111.945 41.1285 112.046 40.926C112.146 40.7235 112.205 40.5029 112.219 40.2772C112.23 39.8173 112.062 39.3712 111.749 39.0336C111.436 38.6959 111.005 38.4934 110.545 38.4689C110.32 38.4484 110.093 38.4733 109.878 38.5421C109.662 38.6109 109.463 38.7223 109.291 38.8695C109.12 39.0168 108.979 39.197 108.879 39.3995C108.778 39.6019 108.719 39.8225 108.705 40.0482Z" fill="#263238"/>
<path d="M107.418 34.8599C107.632 35.0968 108.998 34.1255 110.877 34.1571C112.757 34.1887 114.154 35.16 114.367 34.9468C114.47 34.8441 114.249 34.4256 113.649 33.9755C112.833 33.3993 111.86 33.0853 110.861 33.0753C109.877 33.0601 108.912 33.3558 108.105 33.9202C107.513 34.3466 107.308 34.7573 107.418 34.8599Z" fill="#263238"/>
<path d="M100.319 48.8135C99.3229 48.4903 98.2915 48.2888 97.247 48.2134C96.7653 48.1581 96.3073 48.0554 96.2284 47.7238C96.1944 47.2229 96.3157 46.7238 96.5758 46.2944C97.0496 45.1257 97.5392 43.9254 98.0604 42.6224C100.129 37.3948 101.63 33.0989 101.417 33.0121C101.203 32.9252 99.3634 37.1026 97.2944 42.3303C96.7996 43.6148 96.3231 44.8441 95.8651 46.0181C95.5534 46.6006 95.4556 47.274 95.5887 47.9212C95.6565 48.0934 95.763 48.2478 95.8999 48.3724C96.0368 48.497 96.2005 48.5885 96.3784 48.6398C96.6348 48.7168 96.9004 48.7593 97.1681 48.7661C99.1186 48.9241 100.311 48.9478 100.319 48.8135Z" fill="#263238"/>
<path d="M105.886 50.2354C105.578 50.2354 105.547 52.2728 103.762 53.71C101.977 55.1472 99.8135 54.8866 99.7661 55.1788C99.7661 55.3052 100.248 55.5816 101.18 55.621C102.386 55.6557 103.566 55.2643 104.512 54.5155C105.418 53.7937 106.009 52.7495 106.163 51.6016C106.273 50.7408 106.028 50.2275 105.886 50.2354Z" fill="#263238"/>
<path d="M107.063 27.4211C107.244 27.9344 109.14 27.7212 111.367 28.0212C113.593 28.3213 115.378 28.9531 115.686 28.4951C115.82 28.2739 115.512 27.7843 114.794 27.2789C113.83 26.6576 112.738 26.2636 111.6 26.1268C110.461 25.9899 109.307 26.1139 108.224 26.4893C107.371 26.7736 106.952 27.1684 107.063 27.4211Z" fill="#E0E0E0"/>
<path d="M89.5394 28.7562C89.8711 29.1906 91.182 28.7562 92.7534 28.7562C94.3249 28.7562 95.6516 29.0879 95.9674 28.6457C96.1017 28.4246 95.9042 27.9903 95.3278 27.5717C94.556 27.0625 93.6461 26.8033 92.7218 26.8294C91.798 26.8291 90.8975 27.1192 90.1475 27.6586C89.5868 28.1008 89.3973 28.543 89.5394 28.7562Z" fill="#E0E0E0"/>
<path d="M87.4628 22.5092C87.4628 22.5092 90.8347 14.8178 94.5699 13.0726C99.1184 10.9484 100.99 15.9391 105.31 14.7941C109.629 13.6491 113.996 11.6354 118.316 15.0152C123.054 18.7188 120.787 21.2458 121 26.7261C121.885 48.9634 125.849 55.3045 127.16 44.8887C127.302 43.7437 130.5 42.8829 131.037 38.0422C131.74 31.7722 132.095 24.1439 130.761 19.6664C129.632 15.8917 127.523 13.2621 123.725 10.3482C117.731 5.74438 109.4 5.52327 103.73 6.01287C98.0603 6.50247 87.0916 12.8199 87.4628 22.5092Z" fill="#E0E0E0"/>
<path d="M126.402 44.51C126.425 44.0586 126.54 43.6166 126.739 43.2107C126.938 42.8048 127.217 42.4433 127.559 42.1482C127.902 41.853 128.3 41.6303 128.731 41.4933C129.162 41.3564 129.616 41.308 130.066 41.3513C132.372 41.604 134.915 42.9307 134.693 47.7082C134.299 56.142 125.904 54.0256 125.904 53.765C125.904 53.5044 126.204 48.0241 126.402 44.51Z" fill="#FFBE9D"/>
<path d="M127.887 50.662C127.887 50.662 128.029 50.7725 128.273 50.8989C128.617 51.0607 129.009 51.0861 129.371 50.97C130.279 50.6857 131.093 49.3037 131.203 47.8112C131.26 47.0891 131.154 46.3634 130.895 45.687C130.828 45.4185 130.697 45.1704 130.512 44.9641C130.328 44.7577 130.096 44.5993 129.837 44.5025C129.67 44.458 129.493 44.4694 129.334 44.535C129.174 44.6007 129.04 44.7168 128.953 44.8657C128.826 45.0948 128.874 45.2685 128.826 45.2843C128.779 45.3001 128.652 45.1342 128.739 44.7868C128.794 44.5793 128.92 44.3977 129.095 44.2735C129.325 44.1152 129.608 44.0503 129.884 44.0919C130.228 44.178 130.543 44.35 130.802 44.5918C131.06 44.8335 131.252 45.1371 131.361 45.4738C131.683 46.2198 131.821 47.0323 131.764 47.8428C131.63 49.5406 130.682 51.0963 129.45 51.3885C129.221 51.4439 128.981 51.4471 128.751 51.3979C128.52 51.3487 128.303 51.2483 128.116 51.1042C127.894 50.8673 127.855 50.6778 127.887 50.662Z" fill="#EB996E"/>
<path d="M126.473 28.1479C125.422 28.9637 124.184 29.5063 122.872 29.7272C121.553 29.8378 120.053 29.056 119.848 27.7451C119.753 27.1529 119.911 26.4737 119.532 26.0157C119.153 25.5577 118.221 25.6209 117.51 25.6841C116.275 25.7609 115.052 25.4104 114.045 24.6913C113.039 23.9723 112.31 22.9286 111.982 21.7357C111.343 22.6596 109.882 22.5964 108.942 21.9726C108.077 21.2503 107.315 20.4135 106.676 19.4851C106.355 19.0206 105.925 18.6418 105.424 18.3816C104.923 18.1215 104.366 17.9879 103.801 17.9926C103.205 18.188 102.587 18.3125 101.961 18.3638C100.856 18.2532 100.327 16.9423 100.177 15.8447C100.027 14.747 99.9161 13.4756 98.9842 12.8439C98.0524 12.2122 96.9864 12.5754 95.9677 12.7176C94.949 12.8597 93.5986 12.5912 93.3775 11.5883C93.3401 11.3203 93.3564 11.0474 93.4255 10.7857C93.4947 10.5241 93.6153 10.2788 93.7803 10.0642C94.4802 9.05252 95.5014 8.307 96.6783 7.94864C97.8551 7.59028 99.1185 7.6401 100.264 8.09004C100.7 6.68972 101.541 5.45023 102.682 4.52832C103.823 3.60641 105.211 3.0435 106.672 2.91079C108.133 2.77808 109.6 3.08153 110.888 3.78276C112.176 4.48398 113.228 5.55149 113.909 6.85025C114.818 6.04973 115.906 5.48025 117.082 5.19017C118.257 4.90008 119.485 4.89795 120.662 5.18396C121.839 5.46997 122.929 6.03568 123.84 6.83306C124.751 7.63043 125.457 8.63593 125.896 9.76416C126.935 9.50827 128.026 9.5632 129.033 9.9221C130.041 10.281 130.92 10.9281 131.563 11.7829C132.206 12.6377 132.583 13.6625 132.649 14.73C132.714 15.7976 132.464 16.8607 131.93 17.7873C133.43 18.6796 134.709 20.2037 134.717 21.9489C134.725 23.6941 132.996 25.4156 131.314 24.9339C131.632 25.6258 131.678 26.4125 131.442 27.1368C131.206 27.8611 130.705 28.4695 130.04 28.8406C129.374 29.2116 128.594 29.318 127.853 29.1383C127.113 28.9586 126.468 28.5062 126.046 27.8715" fill="#E0E0E0"/>
<path d="M131.922 24.9575C131.951 25.2445 131.917 25.5344 131.823 25.8072C131.729 26.0799 131.577 26.3289 131.377 26.5369C130.949 27.0637 130.342 27.415 129.671 27.524C129.247 27.5823 128.815 27.5467 128.405 27.4198C127.996 27.2929 127.619 27.0778 127.302 26.7896L127.658 26.7422C127.203 27.5228 126.624 28.2243 125.944 28.819C125.482 29.2299 124.946 29.5489 124.365 29.7588C123.82 29.952 123.234 29.9956 122.667 29.8851C122.184 29.8391 121.717 29.6872 121.299 29.4402C120.882 29.1931 120.523 28.857 120.251 28.4558C119.916 27.9161 119.693 27.3145 119.595 26.6869C119.508 26.2526 119.508 26.0078 119.54 26.0078C119.649 26.2057 119.729 26.4185 119.777 26.6395C119.954 27.2049 120.22 27.7382 120.566 28.2189C121.356 29.4429 123.946 30.0983 125.636 28.4163C126.274 27.8499 126.825 27.1927 127.271 26.4658L127.421 26.2131L127.626 26.4105C127.895 26.6635 128.216 26.8552 128.566 26.9725C128.917 27.0897 129.288 27.1297 129.656 27.0897C130.248 27.0227 130.795 26.7419 131.195 26.3C131.52 25.9024 131.767 25.4468 131.922 24.9575Z" fill="white"/>
<path d="M116.247 5.43715C116.247 5.43715 116.026 5.49242 115.647 5.65036C115.104 5.87085 114.642 6.25087 114.32 6.74012L114.217 6.90594L114.107 6.74012C113.065 5.29856 111.677 4.14183 110.072 3.37609C109.032 2.8877 107.903 2.61887 106.755 2.58642C105.49 2.5701 104.246 2.90644 103.162 3.55772C102.312 4.05971 101.578 4.73506 101.006 5.5398C100.483 6.29365 100.153 7.16385 100.043 8.07467V8.34316L99.7822 8.26419C98.6058 7.93256 97.3467 8.06837 96.2681 8.64324C95.4213 9.09865 94.739 9.80856 94.3176 10.6727C93.9625 11.4576 93.7717 12.3068 93.7569 13.1681C93.6746 12.9513 93.6344 12.7208 93.6385 12.489C93.6442 11.6441 93.871 10.8154 94.2963 10.0853C94.7216 9.35518 95.3306 8.74912 96.0628 8.32736C97.2246 7.672 98.5981 7.50173 99.8848 7.85356L99.6005 8.04308C99.7125 7.05562 100.062 6.11 100.619 5.28711C101.31 4.29993 102.232 3.49627 103.304 2.94583C104.376 2.39539 105.566 2.11481 106.771 2.1284C107.971 2.17677 109.147 2.47816 110.222 3.01284C111.876 3.82622 113.281 5.07007 114.289 6.61376H114.067C114.435 6.09768 114.962 5.71736 115.568 5.53191C115.782 5.44099 116.016 5.4083 116.247 5.43715Z" fill="white"/>
<path d="M108.776 51.5066C108.634 51.5066 108.595 50.6143 107.892 49.872C107.189 49.1297 106.312 48.9797 106.312 48.8454C106.312 48.7112 106.549 48.7191 106.936 48.7901C107.435 48.8953 107.886 49.1584 108.224 49.5403C108.569 49.9148 108.792 50.386 108.863 50.8907C108.918 51.2776 108.832 51.5145 108.776 51.5066Z" fill="#EB996E"/>
<path d="M109.558 49.1851C109.44 49.2562 109.14 48.9561 108.689 48.7508C108.239 48.5455 107.829 48.4823 107.813 48.3401C107.797 48.198 108.31 48.0243 108.903 48.3401C109.495 48.656 109.676 49.1298 109.558 49.1851Z" fill="#EB996E"/>
<path d="M119.358 69.085C119.358 69.085 119.477 69.0297 119.579 68.8718C119.656 68.7542 119.696 68.617 119.696 68.4769C119.696 68.3368 119.656 68.1997 119.579 68.0821C119.453 67.7662 119.074 67.474 118.79 66.9292C118.712 66.7762 118.672 66.6071 118.672 66.4356C118.672 66.2641 118.712 66.095 118.79 65.9421C118.956 65.6914 119.14 65.4538 119.342 65.2314C119.998 64.3943 118.095 63.802 118.347 62.7281C118.36 62.5543 118.408 62.3849 118.488 62.2302C118.568 62.0754 118.679 61.9386 118.813 61.8278C119.003 61.6857 119.137 61.6699 119.153 61.6936C118.884 61.9814 118.72 62.3514 118.687 62.7439C118.687 63.0992 118.892 63.3993 119.303 63.7468C119.537 63.939 119.728 64.1785 119.864 64.4496C119.94 64.621 119.968 64.8098 119.946 64.996C119.924 65.1823 119.852 65.3591 119.737 65.5077C119.532 65.792 119.311 65.9737 119.2 66.1711C119.153 66.2627 119.129 66.3642 119.129 66.4672C119.129 66.5702 119.153 66.6717 119.2 66.7633C119.358 67.174 119.729 67.553 119.872 67.9558C119.942 68.1248 119.96 68.3113 119.922 68.4905C119.884 68.6697 119.792 68.833 119.658 68.9586C119.508 69.1718 119.35 69.1087 119.358 69.085Z" fill="#EB996E"/>
<path d="M121.972 68.7216C121.972 68.7216 121.972 68.5952 121.869 68.4136C121.748 68.1559 121.591 67.9166 121.403 67.7029C121.268 67.5323 121.149 67.3499 121.048 67.158C120.923 66.9149 120.881 66.6374 120.929 66.3683C121.079 65.7603 121.585 65.3891 121.821 64.9548C122.058 64.5205 121.821 64.1651 121.498 63.7861C121.319 63.6004 121.167 63.3904 121.048 63.1622C120.955 62.9455 120.912 62.7108 120.921 62.4752C121.008 61.5908 121.6 61.3381 121.6 61.4013C121.399 61.7246 121.285 62.0946 121.269 62.4752C121.286 62.6717 121.344 62.8624 121.439 63.0352C121.534 63.2079 121.664 63.3588 121.821 63.4781C122.04 63.6752 122.218 63.9142 122.343 64.1809C122.404 64.3457 122.427 64.5221 122.411 64.6972C122.394 64.8722 122.339 65.0412 122.248 65.1917C121.908 65.7445 121.458 66.0841 121.371 66.4789C121.284 66.8737 121.506 67.2686 121.687 67.545C121.87 67.8048 121.994 68.1012 122.05 68.4136C122.066 68.611 121.995 68.7295 121.972 68.7216Z" fill="#EB996E"/>
<path d="M32.3672 106.105C32.3672 106.105 34.2545 113.733 35.5259 115.826C36.2572 116.995 36.7435 118.301 36.9552 119.664L37.7449 131.88L27.7476 141.751L8.35307 127.284C8.35307 127.284 1.40391 120.493 3.28334 117.918C3.28334 117.918 4.20726 116.663 5.8261 117.918C5.8261 117.918 -1.42314 112.304 0.250976 110.101C1.92509 107.897 4.42837 111.088 7.0501 113.315C9.67183 115.541 10.5326 116.165 10.5326 116.165L2.99116 108.877C2.99116 108.877 0.866925 106.997 2.75425 105.473C4.64158 103.949 7.42915 107.771 8.74791 108.569C10.0667 109.366 17.4896 116.465 17.4896 116.465C17.4896 116.465 12.3488 109.919 11.9619 109.564C11.575 109.208 6.93955 105.718 8.67684 103.704C10.4141 101.69 14.8521 106.586 16.3209 107.7C17.7897 108.813 23.3096 115.415 24.5415 116.086C25.7734 116.758 28.0002 118.684 29.3743 118.068C30.7483 117.452 27.9371 112.343 28.3793 110.503C28.8215 108.663 29.5954 105.157 32.3672 106.105Z" fill="#FFBE9D"/>
<path d="M27.6214 129.708C27.3317 129.131 27.0964 128.528 26.9186 127.908C26.6327 126.375 26.82 124.791 27.4556 123.367C28.1189 121.646 29.0349 120.208 29.5324 119.079C29.7479 118.624 29.8662 118.129 29.8799 117.626C29.8799 117.271 29.793 117.081 29.7693 117.089C29.6938 117.732 29.5011 118.356 29.2008 118.929C28.3615 120.292 27.6174 121.712 26.9739 123.178C26.2948 124.69 26.15 126.389 26.5632 127.995C26.6998 128.674 27.0752 129.282 27.6214 129.708Z" fill="#EB996E"/>
<path d="M14.1176 125.736C14.1729 125.736 13.8728 125.026 12.9252 124.394C11.9776 123.762 10.5088 123.273 9.4427 122.128C8.96751 121.53 8.55224 120.887 8.2029 120.209C7.89244 119.634 7.50743 119.103 7.05787 118.629C6.26819 117.84 5.47852 117.745 5.47852 117.84C5.95735 118.121 6.39346 118.469 6.77359 118.874C7.16482 119.361 7.49869 119.891 7.76858 120.453C8.11281 121.177 8.53943 121.858 9.03996 122.483C9.60937 123.062 10.2886 123.521 11.0378 123.833C11.6854 124.157 12.2697 124.418 12.7357 124.678C13.2215 124.997 13.6834 125.35 14.1176 125.736Z" fill="#EB996E"/>
<path d="M69.4189 238.976H131.432V216.525L69.4189 209.576V238.976Z" fill="#263238"/>
<path d="M96.315 76.3811L100.792 79.2003L126.575 68.1211L127.744 73.8226L104.417 122.198L103.027 214.448L77.7812 212.379L93.3853 87.792L96.315 76.3811Z" fill="#64CF83"/>
<path d="M120.44 78.8218C120.16 79.0365 119.858 79.2217 119.54 79.3745L117.021 80.7802C114.896 81.9568 111.975 83.6072 108.761 85.463L104.71 87.832L104.536 87.9268L104.449 87.7609C103.186 85.4946 102.451 83.4256 101.804 82.0279C101.488 81.3172 101.235 80.7644 101.014 80.3853C100.901 80.1985 100.816 79.9963 100.761 79.7852C100.905 79.9498 101.029 80.1299 101.132 80.3222C101.346 80.6854 101.646 81.2303 101.985 81.9015C102.696 83.2835 103.486 85.3366 104.749 87.5398L104.481 87.4766C105.72 86.7264 107.087 85.8973 108.524 85.1076C111.738 83.2519 114.691 81.6409 116.855 80.5196C117.937 79.9589 118.821 79.5246 119.437 79.2324C119.756 79.0613 120.092 78.9236 120.44 78.8218Z" fill="#263238"/>
<path d="M91.0405 83.3463L77.845 88.3923C76.1687 89.0322 74.6767 90.0766 73.5018 91.4326C70.6273 94.7335 65.5339 101.864 62.4463 113.544C58.3162 129.337 53.9099 141.277 53.9099 141.277L39.2455 130.38L18.8008 150.564C18.8008 150.564 53.2149 180.524 64.1441 180.39L56.7369 239.055H77.845L95.3048 83.3463L96.2997 76.3813C95.9523 76.5235 92.0592 81.9802 91.0405 83.3463Z" fill="#EBEBEB"/>
<path d="M71.5275 102.962C71.5397 103.032 71.5397 103.105 71.5275 103.175C71.5275 103.341 71.5275 103.546 71.4722 103.807C71.4091 104.391 71.3143 105.197 71.2037 106.223C70.9589 108.348 70.6194 111.372 70.1929 115.091C69.3401 122.585 68.2503 132.946 67.1685 144.404C66.0866 155.862 65.1943 166.239 64.5468 173.757C64.223 177.484 63.9545 180.516 63.7571 182.648C63.6623 183.675 63.5833 184.48 63.5281 185.065C63.5281 185.325 63.4807 185.531 63.457 185.696C63.4654 185.767 63.4654 185.839 63.457 185.91C63.4486 185.836 63.4486 185.762 63.457 185.689C63.457 185.523 63.457 185.317 63.457 185.065C63.457 184.472 63.5439 183.667 63.607 182.64C63.765 180.5 63.9861 177.468 64.2546 173.733C64.831 166.207 65.676 155.823 66.7578 144.365C67.8397 132.906 68.9768 122.546 69.9166 115.06C70.3746 111.317 70.7694 108.292 71.0616 106.2C71.2037 105.181 71.3222 104.375 71.409 103.831L71.5038 103.207C71.4989 103.124 71.5069 103.042 71.5275 102.962Z" fill="#263238"/>
<path d="M134.647 161.833C133.299 160.736 131.853 159.766 130.327 158.935C128.739 158.23 127.089 157.672 125.399 157.269C125.928 157.209 126.463 157.247 126.979 157.379C129.459 157.848 131.764 158.987 133.644 160.672C134.045 160.995 134.385 161.388 134.647 161.833Z" fill="#263238"/>
<path d="M153.322 93.3593C153.322 93.3593 148.079 89.2688 142.796 85.0124C137.513 80.7561 128.724 74.4307 128.724 74.4307L127.144 69.1162C127.144 69.1162 122.493 74.0122 118.458 82.8724C112.599 95.602 105.823 114.175 104.465 122.198L96.3154 238.976H156.742L142.685 155.965L153.322 93.3593Z" fill="#EBEBEB"/>
<path d="M104.046 129.685C104.126 129.487 104.218 129.294 104.322 129.108L105.191 127.529L108.429 121.677C111.224 116.726 115.046 109.943 119.263 102.449L119.839 101.438V101.596C119.392 100.053 118.95 98.5476 118.513 97.0788L118.473 96.9446L118.592 96.8577L121.829 94.5756L121.758 94.6703C123.756 88.803 125.478 83.7491 126.718 80.1245C127.333 78.3714 127.823 76.9658 128.178 75.9392C128.344 75.4812 128.479 75.1495 128.589 74.8336C128.631 74.7032 128.684 74.5764 128.747 74.4546C128.728 74.5889 128.696 74.7211 128.652 74.8494C128.557 75.1416 128.447 75.5207 128.305 75.9866C127.973 77.0053 127.515 78.4267 126.947 80.2034L122.13 94.7967V94.8519L122.082 94.8914L118.844 97.1894L118.923 96.9683C119.358 98.4292 119.808 99.9375 120.258 101.477V101.564L120.211 101.635L119.634 102.646C115.378 110.116 111.516 116.86 108.697 121.819L105.341 127.608C104.954 128.263 104.646 128.784 104.409 129.187C104.301 129.362 104.18 129.529 104.046 129.685Z" fill="#263238"/>
<path d="M89.808 132.52C89.7475 132.352 89.7077 132.177 89.6895 131.999C89.6185 131.604 89.5316 131.099 89.421 130.467C89.1999 129.093 88.892 127.182 88.5208 124.844C87.7864 120.051 86.7914 113.505 85.6859 106.271C85.5753 105.518 85.4647 104.776 85.3542 104.044V103.981V103.918L88.1023 98.943L88.2128 99.2193L85.4727 98.3191L85.291 98.2559L85.3542 98.0743L89.3816 87.4532C89.8712 86.1897 90.266 85.1789 90.5582 84.4366C90.6845 84.1128 90.7951 83.8522 90.8819 83.6469C90.9162 83.5525 90.9612 83.4624 91.0162 83.3784C91.0033 83.479 90.9767 83.5773 90.9372 83.6706L90.6687 84.4603C90.4002 85.2105 90.0449 86.2371 89.5948 87.5163L85.7411 98.1849L85.6227 97.9401L88.3629 98.8245L88.5919 98.8956L88.4813 99.1088L85.7411 104.092V103.965C85.8517 104.7 85.9622 105.442 86.0807 106.192C87.131 113.426 88.0865 119.98 88.7893 124.781C89.1131 127.15 89.3737 129.045 89.579 130.42C89.6579 131.059 89.7211 131.565 89.7685 131.999C89.7998 132.171 89.813 132.345 89.808 132.52Z" fill="#263238"/>
<path d="M95.2646 83.8365C95.8222 84.711 96.2955 85.6365 96.6782 86.6004H96.3465C96.694 85.9292 97.1362 85.1948 97.6337 84.4288C98.4707 83.1258 99.2683 81.9808 99.8369 81.1437C100.113 80.6676 100.433 80.2182 100.792 79.8013C100.638 80.3341 100.398 80.8383 100.082 81.2938C99.5763 82.1782 98.8182 83.3548 97.9811 84.6499C97.4836 85.4396 97.0335 86.1345 96.6703 86.7741L96.4808 87.1058L96.3386 86.7583C95.8939 85.8185 95.5345 84.8406 95.2646 83.8365Z" fill="#263238"/>
<path d="M88.3002 213.241C88.288 213.125 88.288 213.009 88.3002 212.893C88.3002 212.648 88.3476 212.317 88.3791 211.883C88.4502 210.974 88.5608 209.671 88.7029 208.005C89.003 204.617 89.4373 199.745 89.9743 193.744C91.0877 181.685 92.6276 165.063 94.3333 146.703C96.039 128.343 97.6579 111.712 98.8108 99.6614C99.3952 93.6599 99.8769 88.7955 100.209 85.4077L100.611 81.5383C100.659 81.1119 100.698 80.7487 100.73 80.5354C100.735 80.4179 100.754 80.3014 100.785 80.188C100.785 80.188 100.785 80.3064 100.785 80.5354C100.785 80.7645 100.785 81.1198 100.714 81.5462C100.635 82.4544 100.524 83.7573 100.382 85.4235C100.082 88.8112 99.6478 93.6836 99.1109 99.6851C97.9974 111.744 96.4575 128.374 94.7597 146.742C93.0619 165.11 91.4273 181.717 90.2823 193.767C89.69 199.769 89.2083 204.633 88.8766 208.021C88.7029 209.687 88.5687 210.99 88.4739 211.89C88.4265 212.325 88.387 212.68 88.3555 212.901C88.3477 213.016 88.3292 213.13 88.3002 213.241Z" fill="#263238"/>
<g opacity="0.2">
<path opacity="0.2" d="M128.155 76.1289L122.414 96.8185L120.013 97.7345L121.664 102.915L105.207 127.632L120.013 101.517L118.687 97.0001L121.917 94.71L128.155 76.1289Z" fill="black"/>
</g>
<g opacity="0.2">
<path opacity="0.2" d="M101.464 81.0405L102.972 91.8117L117.629 80.4482L104.615 87.6659L101.464 81.0405Z" fill="black"/>
</g>
<g opacity="0.2">
<path opacity="0.2" d="M63.449 185.91L62.8252 190.806C62.8252 190.806 65.7865 194.613 68.6688 193.815C71.5511 193.017 83.6095 187.75 83.6095 187.75L83.4279 185.91C83.4279 185.91 76.3919 183.02 75.9891 183.123C75.5864 183.225 63.449 185.91 63.449 185.91Z" fill="black"/>
</g>
<g opacity="0.2">
<path opacity="0.2" d="M86.6733 196.815L87.0366 201.324C87.0366 201.324 108.871 198.821 118.276 195.244C118.276 195.244 136.636 188.437 141.848 182.017C133.536 185.352 125.003 188.107 116.31 190.261L86.6733 196.815Z" fill="black"/>
</g>
<path d="M103.833 165.616L76.4625 129.448C76.1806 129.069 75.7859 128.788 75.3349 128.646C74.884 128.504 74.3997 128.509 73.9513 128.659L32.0431 142.975C31.6993 143.093 31.3892 143.292 31.1393 143.555C30.8895 143.819 30.7074 144.139 30.6087 144.489C30.5101 144.839 30.4978 145.207 30.573 145.562C30.6481 145.918 30.8085 146.249 31.0402 146.529L65.1227 187.545C65.4174 187.9 65.8146 188.155 66.26 188.275C66.7054 188.395 67.177 188.375 67.6102 188.216L106.786 173.947C107.122 173.824 107.424 173.624 107.667 173.362C107.91 173.1 108.087 172.783 108.184 172.439C108.28 172.095 108.293 171.733 108.222 171.382C108.15 171.032 107.997 170.704 107.773 170.425L103.833 165.616Z" fill="#455A64"/>
<path d="M48.2712 141.767C48.279 141.997 48.3547 142.22 48.4889 142.408C48.623 142.595 48.8095 142.739 49.025 142.82C49.2405 142.902 49.4753 142.918 49.6999 142.867C49.9246 142.815 50.129 142.699 50.2875 142.531C50.446 142.364 50.5516 142.154 50.5908 141.927C50.6301 141.699 50.6014 141.466 50.5083 141.255C50.4152 141.044 50.2618 140.866 50.0675 140.742C49.8732 140.618 49.6466 140.554 49.4162 140.559C49.2614 140.562 49.1087 140.596 48.967 140.658C48.8253 140.721 48.6975 140.811 48.5909 140.923C48.4844 141.036 48.4013 141.168 48.3464 141.313C48.2915 141.458 48.2659 141.612 48.2712 141.767Z" fill="#263238"/>
<path d="M56.7363 138.9C56.7458 139.129 56.8229 139.35 56.9578 139.536C57.0927 139.721 57.2794 139.862 57.4945 139.941C57.7095 140.021 57.9432 140.035 58.1661 139.981C58.389 139.928 58.5911 139.81 58.747 139.642C58.9029 139.474 59.0056 139.264 59.0422 139.037C59.0787 138.811 59.0474 138.579 58.9523 138.371C58.8572 138.162 58.7025 137.986 58.5077 137.866C58.3129 137.745 58.0867 137.684 57.8577 137.692C57.7045 137.697 57.5539 137.732 57.4145 137.796C57.275 137.86 57.1496 137.95 57.0453 138.063C56.9411 138.175 56.8601 138.307 56.8071 138.451C56.754 138.594 56.73 138.747 56.7363 138.9Z" fill="#263238"/>
<path d="M81.0032 172.003L78.8079 171.505C78.8079 171.505 77.9077 167.865 76.9127 167.131C75.9177 166.396 66.1099 162.329 63.9462 161.248C61.7825 160.166 53.3566 156.675 52.3853 158.721C51.2877 161.034 54.7544 162.787 56.5943 163.593C58.4343 164.398 63.7567 166.238 62.738 167.541C61.7193 168.844 49.5504 168.757 49.5504 168.757L48.1527 167.131C48.1527 167.131 45.9968 169.286 46.3601 171.395C46.5534 172.614 46.9884 173.782 47.6394 174.83H48.508C48.2787 175.209 48.1575 175.643 48.1575 176.086C48.1575 176.528 48.2787 176.962 48.508 177.341C49.237 178.341 50.0451 179.281 50.9244 180.152C50.9244 180.152 52.3932 182.987 56.5627 183.974C57.0523 184.085 76.3994 185.088 76.3994 185.088L83.4276 186.667L81.0032 172.003Z" fill="#FFBE9D"/>
<path d="M131.874 103.088C131.653 103.562 125.904 156.968 125.904 156.968L80.8296 170.629L85.1333 197.107C85.1333 197.107 146.017 186.202 152.303 174.783C157.649 165.07 158.929 123.77 159.189 111.609C159.263 108.649 158.926 105.694 158.186 102.827C157.294 99.4003 155.762 95.2703 153.322 93.3513C148.75 89.7662 131.874 103.088 131.874 103.088Z" fill="#EBEBEB"/>
<path d="M130.611 114.238C130.611 114.238 130.611 114.507 130.548 115.028C130.484 115.549 130.421 116.323 130.326 117.31C130.113 119.324 129.805 122.253 129.418 125.997C128.629 133.475 127.46 144.159 126.078 157.007V157.126H125.967L80.9085 170.819L81.0506 170.59C81.0506 170.763 81.1059 170.953 81.1375 171.135C82.6142 180.216 84.0356 188.981 85.3386 197.068L85.1095 196.902C103.446 193.419 119.066 189.621 130.003 186.209C131.369 185.807 132.64 185.341 133.856 184.946L135.617 184.354L137.252 183.746C138.294 183.343 139.274 182.996 140.158 182.64L142.527 181.598C143.166 181.346 143.789 181.053 144.391 180.721L145.725 180.018L146.515 179.592L146.791 179.458C146.708 179.519 146.621 179.575 146.531 179.624L145.741 180.074L144.422 180.808C143.824 181.151 143.204 181.455 142.566 181.716L140.197 182.79C139.313 183.161 138.334 183.517 137.291 183.927L135.665 184.551L133.904 185.151C132.696 185.554 131.424 186.036 130.05 186.438C119.16 189.929 103.501 193.782 85.1569 197.289L84.9595 197.328V197.131C83.6486 189.044 82.2193 180.287 80.7426 171.206C80.7426 171.016 80.6795 170.827 80.6558 170.661V170.479L80.8295 170.432L125.904 156.794L125.786 156.936C127.231 144.096 128.431 133.42 129.268 125.941C129.703 122.222 130.058 119.292 130.271 117.255C130.39 116.268 130.484 115.51 130.548 114.973C130.611 114.436 130.611 114.238 130.611 114.238Z" fill="#263238"/>
<path d="M150.448 92.1908C150.448 92.2777 149.176 92.1908 147.163 92.4356C145.984 92.5993 144.822 92.8635 143.688 93.2253C142.319 93.6878 140.996 94.2801 139.74 94.9942C138.49 95.7358 137.315 96.598 136.233 97.5685C135.366 98.3693 134.574 99.2468 133.864 100.19C132.633 101.77 132.088 102.962 132.017 102.923C132.098 102.646 132.215 102.38 132.364 102.133C132.512 101.814 132.681 101.506 132.869 101.209C133.109 100.806 133.372 100.419 133.659 100.048C134.356 99.0636 135.15 98.1509 136.028 97.3237C137.122 96.3201 138.315 95.4311 139.59 94.6704C140.879 93.9392 142.242 93.3463 143.656 92.9015C144.811 92.5418 145.999 92.301 147.202 92.1829C147.663 92.1257 148.127 92.0966 148.592 92.0961C148.942 92.0747 149.292 92.0747 149.642 92.0961C149.914 92.0954 150.184 92.1272 150.448 92.1908Z" fill="#263238"/>
</svg>
