<svg width="117" height="240" viewBox="0 0 117 240" fill="none" xmlns="http://www.w3.org/2000/svg">
<path d="M105.519 27.7532C103.576 25.5895 101.207 23.5363 100.567 20.7014C99.983 18.0954 100.954 15.1736 99.6277 12.8046C97.9851 9.95385 93.7761 9.64588 91.794 7.00836C90.8306 5.73698 90.5227 4.07076 89.575 2.79148C87.9957 0.611972 84.8844 0.0749908 82.1837 0.422449C79.483 0.769907 76.9086 1.74911 74.2 2.0018C70.4886 2.30978 66.6428 1.15685 63.0893 2.27029C59.1409 3.49429 56.8113 7.00836 54.2922 10.4198L51.0072 14.3682C50.3366 15.0509 49.6014 15.6671 48.8119 16.2081C47.4221 17.132 45.819 17.7875 44.6266 18.9562C44.0232 19.6063 43.5576 20.3719 43.258 21.2067C42.9584 22.0416 42.8309 22.9285 42.8833 23.814C42.9357 24.6994 43.1669 25.5651 43.5628 26.3588C43.9588 27.1526 44.5114 27.8579 45.1873 28.4323C43.7688 28.9419 42.5517 29.894 41.7156 31.1481C40.8795 32.4022 40.4688 33.8919 40.544 35.3973C40.7961 37.0247 41.2442 38.6156 41.8785 40.1353C42.3918 41.7147 42.7156 43.452 42.0759 44.9761C41.4363 46.5001 39.5174 47.5662 38.0723 46.7686C38.3502 47.8354 38.8622 48.8268 39.5711 49.6709C40.28 50.5151 41.1681 51.1907 42.1707 51.6488C41.3915 52.4606 40.333 52.9461 39.2094 53.0071C42.3207 60.0431 50.5729 63.644 58.2643 63.573C65.9558 63.5019 73.2682 60.4774 80.3753 57.5082L101.002 51.8226C102.818 51.3803 103.537 49.1614 103.481 47.2977C103.426 45.4341 102.929 43.4994 103.568 41.77C104.453 39.4009 107.209 38.0585 108.125 35.6737C109.159 32.9019 107.461 29.9169 105.519 27.7532Z" fill="#263238"/>
<path d="M75.7791 5.59474L74.6419 5.54736C62.3151 5.73689 55.5949 16.3107 56.124 28.6217L55.666 71.0274C55.6242 74.7226 57.0028 78.2927 59.517 81.0009C62.0313 83.7091 65.4893 85.3487 69.1774 85.5812C71.0869 85.7028 73.0015 85.4431 74.8097 84.8173C76.6178 84.1916 78.2833 83.2122 79.7092 81.9362C81.1351 80.6603 82.2927 79.1134 83.1147 77.3856C83.9367 75.6578 84.4067 73.7836 84.4971 71.8724C84.6077 69.6455 84.6866 68.0819 84.6945 68.0819C84.7024 68.0819 96.5871 66.7553 97.2425 54.9496C97.5584 49.2481 97.2425 37.4503 96.8477 26.7739C96.6403 21.2419 94.3573 15.9909 90.4531 12.0662C86.5489 8.14149 81.3099 5.83103 75.7791 5.59474Z" fill="#FFBE9D"/>
<path d="M84.6943 68.0824C79.2391 67.8346 73.9693 66.0287 69.5088 62.8784C69.5088 62.8784 72.6675 71.6596 84.5127 71.099L84.6943 68.0824Z" fill="#EB996E"/>
<path d="M91.8964 36.2189C91.882 36.6588 91.6965 37.0758 91.3794 37.381C91.0624 37.6863 90.6387 37.8558 90.1986 37.8535C89.9833 37.8665 89.7677 37.8352 89.565 37.7617C89.3623 37.6881 89.1768 37.5738 89.02 37.4258C88.8631 37.2779 88.7383 37.0994 88.6531 36.9013C88.5678 36.7032 88.524 36.4898 88.5244 36.2742C88.5388 35.8343 88.7243 35.4173 89.0413 35.1121C89.3584 34.8068 89.7821 34.6373 90.2222 34.6396C90.4375 34.6266 90.6531 34.6579 90.8558 34.7315C91.0584 34.805 91.2439 34.9193 91.4008 35.0673C91.5576 35.2152 91.6825 35.3937 91.7678 35.5918C91.853 35.7899 91.8967 36.0033 91.8964 36.2189Z" fill="#263238"/>
<path d="M94.1149 31.5676C93.8938 31.7808 92.6619 30.7779 90.8457 30.7069C89.0294 30.6358 87.687 31.4965 87.4738 31.2517C87.379 31.1491 87.608 30.7621 88.2082 30.3673C89.0156 29.8554 89.9621 29.607 90.9168 29.6566C91.8606 29.6944 92.7678 30.0319 93.5069 30.62C94.0518 31.0701 94.2176 31.4413 94.1149 31.5676Z" fill="#263238"/>
<path d="M74.6733 36.2188C74.6569 36.6595 74.4697 37.0764 74.1514 37.3815C73.833 37.6866 73.4085 37.8558 72.9676 37.8535C72.7539 37.8598 72.5411 37.8239 72.3413 37.748C72.1415 37.672 71.9587 37.5574 71.8032 37.4107C71.6477 37.264 71.5227 37.0882 71.4352 36.8931C71.3477 36.6981 71.2996 36.4878 71.2935 36.2741C71.3119 35.8349 71.4999 35.4199 71.818 35.1165C72.1361 34.8131 72.5595 34.6449 72.9991 34.6474C73.2137 34.6345 73.4287 34.6655 73.6308 34.7386C73.833 34.8117 74.0181 34.9252 74.1748 35.0724C74.3316 35.2195 74.4566 35.397 74.5423 35.5942C74.628 35.7913 74.6726 36.0039 74.6733 36.2188Z" fill="#263238"/>
<path d="M76.3005 31.5436C76.0794 31.7489 74.8396 30.7539 73.0312 30.675C71.2229 30.596 69.8725 31.4647 69.6593 31.2277C69.5646 31.1251 69.7936 30.7303 70.3937 30.3354C71.2032 29.8283 72.1481 29.5803 73.1023 29.6247C74.0484 29.663 74.958 30.0003 75.7003 30.5881C76.2373 31.0382 76.411 31.441 76.3005 31.5436Z" fill="#263238"/>
<path d="M82.2152 45.766C83.1847 45.5106 84.1819 45.3754 85.1844 45.3632C85.6503 45.3632 86.0926 45.2606 86.1873 44.9526C86.2464 44.4744 86.1582 43.9896 85.9346 43.5628L84.7185 39.9697C83.0286 34.8684 81.8283 30.6752 82.0336 30.6121C82.2389 30.5489 83.7788 34.6315 85.4608 39.7328C85.8715 40.9963 86.2584 42.1993 86.6216 43.3417C86.8936 43.913 86.9524 44.5628 86.7875 45.1737C86.7125 45.3337 86.6026 45.4749 86.466 45.5869C86.3294 45.699 86.1694 45.779 85.9978 45.8212C85.7384 45.8765 85.4732 45.9004 85.2081 45.8923C83.3603 45.916 82.2152 45.8765 82.2152 45.766Z" fill="#263238"/>
<path d="M76.821 46.7924C77.1132 46.7924 77.0342 48.7587 78.6609 50.2354C80.2876 51.7121 82.3882 51.5778 82.3961 51.8147C82.3961 51.9411 81.9144 52.178 81.022 52.1622C79.8551 52.138 78.7351 51.6984 77.8633 50.9224C77.0342 50.1852 76.5245 49.1543 76.4419 48.048C76.4419 47.2346 76.6788 46.7766 76.821 46.7924Z" fill="#263238"/>
<path d="M76.5056 24.1681C76.3003 24.6577 74.4998 24.3418 72.3598 24.5076C70.2197 24.6735 68.4667 25.1788 68.2061 24.7287C68.0876 24.5076 68.4114 24.0575 69.1221 23.6074C70.0707 23.0534 71.1368 22.7315 72.2334 22.6677C73.3286 22.5789 74.4289 22.7577 75.4395 23.1889C76.2292 23.5442 76.6082 23.939 76.5056 24.1681Z" fill="#263238"/>
<path d="M93.6259 25.5022C93.2863 25.897 92.0465 25.4154 90.554 25.3364C89.0615 25.2574 87.7585 25.4943 87.49 25.0521C87.3716 24.831 87.5848 24.4283 88.1613 24.065C88.9221 23.6125 89.807 23.4134 90.6883 23.4964C91.5707 23.55 92.4148 23.8756 93.1047 24.4282C93.618 24.8784 93.7759 25.3048 93.6259 25.5022Z" fill="#263238"/>
<path d="M56.7166 37.4112C56.5191 37.3164 48.7013 34.6631 48.6145 42.7494C48.5276 50.8357 56.6613 49.2564 56.6771 49.0195C56.6929 48.7826 56.7166 37.4112 56.7166 37.4112Z" fill="#FFBE9D"/>
<path d="M54.2445 45.9318C54.2051 45.9318 54.1024 46.0265 53.8576 46.1371C53.521 46.2745 53.1439 46.2745 52.8073 46.1371C51.9545 45.8133 51.228 44.4472 51.228 42.9784C51.2136 42.2842 51.3567 41.5957 51.6465 40.9647C51.7239 40.7127 51.8613 40.4833 52.047 40.2962C52.2328 40.1091 52.4612 39.97 52.7126 39.8907C52.8751 39.8478 53.0477 39.864 53.1995 39.9363C53.3513 40.0085 53.4726 40.1323 53.5417 40.2856C53.6523 40.5146 53.597 40.6804 53.6365 40.6883C53.676 40.6962 53.8102 40.562 53.7549 40.2224C53.7119 40.0222 53.6002 39.8434 53.4391 39.717C53.329 39.6291 53.2024 39.5642 53.0667 39.5262C52.931 39.4882 52.7891 39.4779 52.6494 39.4959C52.3169 39.5593 52.0061 39.7064 51.7463 39.9233C51.4866 40.1402 51.2864 40.4199 51.1648 40.7357C50.8108 41.4321 50.6345 42.2052 50.6515 42.9863C50.6515 44.613 51.4965 46.145 52.6652 46.5004C52.8809 46.5657 53.1084 46.5819 53.3312 46.5477C53.5539 46.5135 53.7662 46.4299 53.9524 46.3029C54.2209 46.1292 54.2682 45.9476 54.2445 45.9318Z" fill="#EB996E"/>
<path d="M56.4475 13.7051C57.7247 11.3895 59.5258 9.40456 61.7067 7.90888C64.005 5.97401 66.6424 4.48259 69.485 3.51038C71.7014 2.7329 74.0499 2.40238 76.3948 2.53792C78.7397 2.67347 81.0344 3.27238 83.1464 4.30006C84.6824 5.06716 86.0079 6.19751 87.008 7.59301C89.9061 9.39348 92.7884 12.7496 91.6434 13.3813L90.064 11.6835C90.064 11.6835 89.3691 13.1286 86.4394 15.3476C86.3725 15.3987 86.3011 15.4436 86.2262 15.4819C85.9647 15.6734 85.681 15.8325 85.3812 15.9557L85.2154 16.0584C81.7645 17.2113 79.5218 16.7454 76.0867 15.5451C73.7177 14.7554 71.5461 13.3655 69.2402 12.3863C67.209 12.3819 65.245 13.1142 63.7125 14.4474C63.4718 14.648 63.2498 14.87 63.0492 15.1107C62.6654 15.701 62.415 16.3678 62.3155 17.0647C62.2159 17.7617 62.2696 18.4719 62.4727 19.146C62.7886 20.52 63.4203 21.7914 63.8151 23.1418C64.5338 25.6214 64.4232 28.2589 64.3047 30.8332C64.1389 34.4657 63.9336 38.2483 62.1489 41.407C61.3593 42.8916 59.5035 44.3683 58.0268 42.7889C57.432 42.1081 57.1311 41.2194 57.1898 40.3172C57.2924 37.8535 55.1287 36.7163 54.0311 34.9316C53.1863 33.4069 52.7663 31.6833 52.8149 29.9409C52.5628 24.3024 53.8166 18.6985 56.4475 13.7051Z" fill="#263238"/>
<path d="M56.7163 70.2383C56.7163 70.2383 66.4372 79.2564 74.2708 79.209C82.1044 79.1616 83.9839 75.0553 83.9839 75.0553L88.3982 80.6699C88.3982 80.6699 88.8088 117.303 89.2984 117.935C89.788 118.567 84.6946 121.765 84.6946 121.765L58.6984 84.4525L56.7163 70.2383Z" fill="#64CF83"/>
<path d="M111.772 204.815C111.772 204.815 115.452 203.606 116.455 200.195C117.458 196.784 114.71 162.685 114.71 162.685L112.641 160.632L114.22 159.361V148.534L110.54 125.728C110.54 125.728 106.916 94.4019 102.517 92.1592L95.6943 123.178L100.709 195.923L111.772 204.815Z" fill="#EBEBEB"/>
<path d="M83.9839 75.0549L84.4972 71.8962C85.6817 72.8201 88.8246 77.7398 88.8246 77.7398C93.1441 81.3881 102.154 90.6115 103.789 94.2204C106.158 99.3454 106.355 122.87 106.355 122.87L105.203 239.221L27.3877 239.339L28.6433 186.628L31.115 82.6358L50.2173 73.0254L55.3344 67.395L87.5138 119.838L87.2848 84.5231C87.2668 81.088 86.1054 77.7567 83.9839 75.0549Z" fill="#EBEBEB"/>
<path d="M1.9283 170.463C-0.0911231 166.509 -0.498741 161.926 0.791166 157.678C5.16598 143.053 18.78 97.7891 21.2596 92.135C23.984 85.9519 31.7465 82.272 31.7465 82.272L43.6944 113.654L40.6541 128.279L29.7092 159.534L61.7385 197.004L38.8378 215.83C38.8378 215.83 4.32104 175.004 1.99149 170.574L1.9283 170.463Z" fill="#EBEBEB"/>
<path d="M85.9814 200.48C85.7366 200.393 77.6108 201.862 76.0709 201.459C73.2271 200.67 70.321 200.126 67.3845 199.832C63.6493 199.508 59.5509 198.821 59.5509 198.821L43.7573 211.819L50.2564 214.125C53.629 214.445 57.0313 214.058 60.2458 212.988C66.0973 211.203 75.5971 206.331 75.5971 206.331C77.7688 206.415 79.9436 206.306 82.0962 206.007C84.8522 205.518 89.4007 201.783 85.9814 200.48Z" fill="#FFBE9D"/>
<path d="M88.809 239.316C88.7972 239.211 88.7972 239.105 88.809 239V238.06V234.475C88.809 231.317 88.8564 226.823 88.8879 221.264C88.9669 210.114 89.1564 194.707 89.1248 177.69C89.1248 169.185 89.0301 161.106 88.8879 153.707C88.809 150.019 88.73 146.513 88.651 143.236C88.5721 139.959 88.3667 136.919 88.2404 134.131C88.0035 128.603 87.8061 124.07 87.6719 120.935C87.6166 119.396 87.5692 118.187 87.5376 117.342C87.5376 116.948 87.5376 116.64 87.5376 116.411C87.5239 116.306 87.5239 116.2 87.5376 116.095C87.5376 116.095 87.5376 116.197 87.5376 116.411C87.5376 116.624 87.5376 116.948 87.6008 117.342C87.656 118.179 87.7271 119.388 87.814 120.928C87.9798 124.086 88.2246 128.564 88.5168 134.115C88.659 136.903 88.809 139.951 88.9827 143.228C89.1564 146.505 89.1564 150.011 89.2512 153.699C89.4091 161.067 89.5039 169.177 89.5197 177.69C89.5197 194.707 89.3144 210.114 89.1644 221.264C89.0775 226.792 89.0064 231.332 88.9511 234.475C88.9511 236.015 88.8958 237.223 88.88 238.06C88.88 238.455 88.88 238.771 88.88 239C88.8666 239.107 88.8428 239.213 88.809 239.316Z" fill="#263238"/>
<path d="M50.2173 73.0015C50.3195 73.1069 50.4095 73.2234 50.4858 73.3489L51.2044 74.4071C51.8361 75.3626 52.7285 76.713 53.8498 78.395L62.9548 92.3407L62.8442 92.2538L69.6671 93.9595L69.9119 94.0227L69.8013 94.2517C69.0116 95.7442 68.2219 97.3077 67.4323 98.895C67.3138 99.1398 67.1875 99.3846 67.069 99.6057V99.3925L82.0334 118.803C83.9049 121.267 85.429 123.272 86.5109 124.686L87.7112 126.265L88.0113 126.692C88.0823 126.786 88.1139 126.842 88.106 126.85C88.0579 126.811 88.0154 126.766 87.9797 126.715L87.6401 126.32L86.3845 124.741L81.8044 118.929L66.7453 99.5899L66.6663 99.4873L66.7294 99.3767C66.84 99.1477 66.9663 98.9029 67.0927 98.6581L69.4617 94.0148L69.5881 94.307L62.7732 92.5855H62.6942L62.6547 92.5223L53.6682 78.4976L51.1175 74.4466L50.4542 73.3647C50.3665 73.2496 50.2873 73.1282 50.2173 73.0015Z" fill="#263238"/>
<path d="M88.0664 126.881C88.1046 126.699 88.1628 126.521 88.2401 126.352C88.3586 126.012 88.5797 125.562 88.8008 124.875C89.2667 123.588 89.8669 121.717 90.5144 119.348C91.8016 114.609 93.2704 107.913 94.5575 100.395V100.529L93.9574 99.5582L90.7355 94.2989L90.4828 93.8883L90.9487 93.9989L94.7787 94.9228L94.5496 95.1676C92.8518 90.0979 91.391 85.7546 90.3486 82.6354L89.1798 79.0187L88.9035 78.0316C88.8609 78.0237 88.8227 78.0002 88.7966 77.9656C88.7704 77.9311 88.7581 77.888 88.762 77.8449C88.766 77.8017 88.786 77.7616 88.818 77.7324C88.85 77.7032 88.8917 77.687 88.935 77.687C88.9784 77.687 89.0201 77.7032 89.0522 77.7324C89.0842 77.7616 89.1041 77.8017 89.1081 77.8449C89.112 77.888 89.0997 77.9311 89.0735 77.9656C89.0473 78.0002 89.0093 78.0237 88.9667 78.0316C89.0614 78.2843 89.1719 78.5922 89.322 78.9792C89.6299 79.8557 90.0643 81.0561 90.5934 82.5564C91.6752 85.6678 93.1835 89.9952 94.9366 95.0491L95.055 95.3729L94.7155 95.2939L90.8856 94.3937L91.0987 94.0936C92.1411 95.7756 93.223 97.5366 94.3364 99.345L94.9366 100.316V100.387V100.458C93.8741 106.843 92.4824 113.169 90.7671 119.411C90.0801 121.78 89.4325 123.667 88.9192 124.938C88.6823 125.586 88.4375 126.06 88.2954 126.391C88.2283 126.559 88.1518 126.722 88.0664 126.881Z" fill="#263238"/>
<path d="M110.391 190.309C110.391 190.309 104.508 190.703 102.644 191.556C100.78 192.409 99.4853 195.291 98.0007 196.484C96.5161 197.676 94.3129 198.269 94.842 199.753C95.2052 200.564 95.8647 201.205 96.6853 201.546C97.5059 201.887 98.4257 201.901 99.2563 201.585C100.65 201.05 102.013 200.439 103.339 199.753H112.681C112.681 199.753 114.552 192.362 114.726 192.472C114.9 192.583 112.081 190.301 110.391 190.309Z" fill="#FFBE9D"/>
<path d="M105.937 111.057C106.047 111.057 106.142 128.888 106.142 150.88C106.142 172.873 106.047 190.711 105.937 190.711C105.826 190.711 105.731 172.88 105.731 150.88C105.731 128.88 105.818 111.057 105.937 111.057Z" fill="#263238"/>
<path d="M19.5615 192.795C19.5615 192.795 19.6958 192.922 19.9248 193.19L20.9671 194.391C21.8753 195.472 23.2019 197.028 24.9155 199.01C28.2954 203.03 33.1361 208.771 39.0034 215.751H38.7744L61.6355 196.894V197.186L54.2599 188.563L29.6299 159.692L29.5667 159.613V159.518C32.8913 150.137 35.6472 142.335 37.5819 136.863L39.8483 130.545L40.4564 128.895C40.5985 128.516 40.6775 128.326 40.6775 128.326C40.6775 128.326 40.6301 128.531 40.5038 128.911C40.3774 129.29 40.1879 129.866 39.951 130.585C39.4377 132.061 38.7033 134.209 37.7715 136.902L29.8747 159.605V159.432L54.5521 188.263L61.9198 196.886L62.0541 197.044L61.8961 197.178L38.9955 215.98L38.8691 216.083L38.7665 215.957L24.7813 199.121L20.9356 194.446L19.9326 193.214C19.6484 192.945 19.5615 192.795 19.5615 192.795Z" fill="#263238"/>
<path d="M26.3296 86.584C26.4393 86.5651 26.5515 86.5651 26.6613 86.584C26.8824 86.584 27.2061 86.584 27.6247 86.584C28.8053 86.6306 29.979 86.7866 31.1308 87.0499C34.9672 87.9017 38.485 89.8198 41.2792 92.5832C44.0733 95.3466 46.0302 98.843 46.9244 102.67C47.2066 103.817 47.3785 104.988 47.4377 106.168C47.4377 106.587 47.4377 106.91 47.4377 107.131C47.4565 107.241 47.4565 107.353 47.4377 107.463C47.3622 107.04 47.3148 106.613 47.2955 106.184C47.1704 105.022 46.9593 103.871 46.6638 102.741C45.7084 98.9972 43.7509 95.5847 41.0016 92.8702C38.2523 90.1557 34.8152 88.2418 31.0598 87.3342C29.9291 87.0481 28.778 86.85 27.6168 86.7419C27.1845 86.7196 26.7544 86.6668 26.3296 86.584Z" fill="#263238"/>
<path d="M17.3745 161.896C17.8379 161.455 18.3717 161.094 18.9539 160.83C21.6637 159.382 24.775 158.869 27.8061 159.369C28.4369 159.432 29.0516 159.606 29.6224 159.882C25.4297 159.048 21.0769 159.767 17.3745 161.903V161.896Z" fill="#263238"/>
<path d="M105.589 199.753H113.462L103.631 229.263L100.709 208.668L105.589 199.753Z" fill="#EBEBEB"/>
<path d="M103.354 199.753C103.594 199.711 103.838 199.692 104.081 199.698L106.142 199.65L113.494 199.579H113.739L113.66 199.816C112.704 202.714 111.575 206.133 110.375 209.774C108.574 215.175 106.924 220.04 105.708 223.585L104.247 227.763L103.828 228.884C103.789 229.019 103.733 229.149 103.662 229.271C103.671 229.131 103.701 228.992 103.749 228.86L104.097 227.707C104.428 226.657 104.886 225.228 105.431 223.498C106.576 219.945 108.179 215.041 109.98 209.64L113.32 199.705L113.494 199.934L106.142 199.863L104.081 199.816C103.837 199.818 103.594 199.797 103.354 199.753Z" fill="#263238"/>
<path d="M105.937 190.711C106.228 190.575 106.536 190.48 106.853 190.427C107.712 190.223 108.591 190.117 109.474 190.111C110.803 190.076 112.118 190.389 113.288 191.019C114.678 191.895 115.724 193.222 116.25 194.778C117.474 198.047 116.55 201.49 114.899 203.07C114.262 203.687 113.515 204.18 112.696 204.523C112.405 204.667 112.093 204.766 111.772 204.815C112.047 204.651 112.332 204.506 112.625 204.381C113.391 203.989 114.09 203.477 114.694 202.864C116.187 201.34 117.063 198.039 115.863 194.928C115.377 193.453 114.398 192.19 113.091 191.351C111.984 190.73 110.736 190.404 109.466 190.403C108.284 190.426 107.105 190.529 105.937 190.711Z" fill="#263238"/>
<path d="M46.498 213.257C47.9031 213.776 49.3774 214.085 50.8729 214.173C52.494 214.237 54.1165 214.085 55.6978 213.723C57.6389 213.263 59.5464 212.672 61.4072 211.954C65.4029 210.469 69.0275 209.143 71.673 208.211L74.7922 207.113C75.1719 206.966 75.5627 206.85 75.9609 206.766C75.6069 206.968 75.234 207.134 74.8475 207.263L71.7677 208.479C69.1618 209.49 65.553 210.848 61.5572 212.341C59.6785 213.066 57.7491 213.651 55.7847 214.094C54.17 214.446 52.5141 214.571 50.865 214.465C49.7534 214.391 48.658 214.16 47.6115 213.778C47.3252 213.678 47.0456 213.559 46.7744 213.423C46.5533 213.328 46.498 213.273 46.498 213.257Z" fill="#263238"/>
<path d="M48.1641 239.016C48.0535 239.016 47.485 234.152 46.9006 228.126C46.3162 222.101 45.9293 217.205 46.0399 217.197C46.1504 217.189 46.719 222.062 47.3112 228.087C47.9035 234.112 48.2825 239 48.1641 239.016Z" fill="#263238"/>
<path d="M69.2329 238.028C69.2329 237.989 69.6514 237.862 70.3779 237.547C71.3965 237.107 72.3335 236.498 73.1497 235.746C74.3444 234.607 75.3072 233.248 75.9847 231.742C76.8199 229.898 77.4092 227.952 77.7377 225.954C78.3332 222.301 78.5344 218.595 78.3379 214.899C78.2747 213.477 78.1957 212.332 78.1405 211.543C78.0886 211.131 78.0702 210.717 78.0852 210.303C78.1936 210.701 78.265 211.108 78.2984 211.519C78.409 212.309 78.5274 213.461 78.6301 214.883C78.9075 218.598 78.7458 222.332 78.1484 226.009C77.8054 228.04 77.1919 230.016 76.3242 231.885C75.6139 233.43 74.6017 234.818 73.3471 235.967C72.4931 236.724 71.5047 237.313 70.4332 237.705C70.1477 237.815 69.8548 237.904 69.5567 237.973C69.4519 238.007 69.3429 238.025 69.2329 238.028Z" fill="#263238"/>
<path d="M46.5449 215.104C46.6002 215.057 47.2319 215.894 48.3928 217.023C51.4162 220.065 55.1307 222.33 59.2192 223.625C60.7986 224.123 61.7857 224.32 61.7778 224.415C61.5362 224.423 61.2945 224.399 61.0592 224.344C60.4113 224.245 59.7704 224.105 59.1403 223.925C57.0475 223.35 55.0459 222.483 53.194 221.351C51.341 220.22 49.6535 218.838 48.1796 217.244C47.7353 216.766 47.3187 216.262 46.9319 215.736C46.7734 215.545 46.6431 215.332 46.5449 215.104Z" fill="#263238"/>
<path d="M74.271 127.323C74.5641 127.564 74.7988 127.868 74.9575 128.213C75.1161 128.558 75.1946 128.934 75.187 129.313C75.1081 130.537 75.187 138.876 75.187 138.876C75.187 138.876 75.495 140.1 74.271 140.1V127.323Z" fill="#263238"/>
<path d="M74.5151 125.966H71.9565V130.151H74.5151V125.966Z" fill="#263238"/>
<path d="M72.4702 126.447H74.0496V124.868C74.0496 124.658 73.9664 124.458 73.8183 124.309C73.6702 124.161 73.4693 124.078 73.2599 124.078C73.0505 124.078 72.8496 124.161 72.7015 124.309C72.5534 124.458 72.4702 124.658 72.4702 124.868V126.447Z" fill="#263238"/>
<path d="M52.6572 129.898C52.6572 129.779 58.3982 129.692 65.4737 129.692C72.5492 129.692 78.2981 129.779 78.2981 129.898C78.2981 130.016 72.5571 130.103 65.4737 130.103C58.3903 130.103 52.6572 130.008 52.6572 129.898Z" fill="#263238"/>
<g opacity="0.2">
<path opacity="0.2" d="M85.8787 124.046L84.6942 122.925L63.1202 102.299L65.4814 95.539H61.7383L54.2363 79.2085L62.7965 92.4435L69.6193 94.1571L66.8712 99.5111" fill="black"/>
</g>
<g opacity="0.2">
<path opacity="0.2" d="M67.8902 151.842C70.0282 151.764 72.1084 151.127 73.9234 149.995C75.5447 148.685 76.7358 146.919 77.3427 144.925C77.1933 146.757 76.8573 148.57 76.3398 150.334C75.8066 151.979 74.743 153.401 73.3153 154.377C71.6412 155.42 69.5486 155.53 67.5823 155.372C64.9406 155.16 62.3523 154.511 59.9224 153.453C58.193 152.703 56.3847 151.519 56.0293 149.671C59.7321 151.397 63.8159 152.145 67.8902 151.842Z" fill="black"/>
</g>
</svg>
