<svg width="121" height="231" viewBox="0 0 121 231" fill="none" xmlns="http://www.w3.org/2000/svg">
<path d="M103.432 219.339H16.8042V230.197H103.432V219.339Z" fill="#455A64"/>
<path d="M46.5273 84.3276L53.895 82.7324L80.2071 84.8961L85.8059 87.3047L61.7997 115.417L46.5273 84.3276Z" fill="#C78976"/>
<path d="M91.7361 159.007C91.7361 159.007 108.817 109.258 107.585 105.767C106.353 102.277 85.5451 86.6966 85.5451 86.6966L63.2525 112.203L48.6435 82.7324C48.6435 82.7324 29.1147 90.5897 26.8641 90.9845C22.1261 91.8137 17.9882 97.302 15.7139 102.545C10.0361 115.63 3.22119 138.634 3.22119 138.634L24.2661 147.044L26.3351 143.016C25.2295 148.141 22.9868 157.957 20.5388 165.364C14.1187 184.822 15.0111 222.126 15.0111 222.126L100.573 221.889C100.573 221.889 102.381 197.638 100.896 184.269C99.4118 170.9 91.7361 159.007 91.7361 159.007Z" fill="#455A64"/>
<path d="M69.1199 124.309C69.262 124.239 69.41 124.18 69.5621 124.135C70.0058 123.988 70.4637 123.887 70.9283 123.835C72.6996 123.681 74.484 123.877 76.1796 124.412C78.3828 124.996 80.9809 125.944 83.9737 126.962C85.4662 127.468 87.0613 127.973 88.7749 128.423C90.5391 128.93 92.358 129.222 94.1922 129.292H94.4606V129.537C93.1814 136.644 91.681 144.912 90.0937 153.748C90.0069 154.198 89.9279 154.649 89.8489 155.083L89.7937 155.391L89.5094 155.265C87.4799 154.341 85.4662 153.472 83.4762 152.674C81.5517 151.859 79.5728 151.178 77.5537 150.637C73.8102 149.877 70.0186 149.379 66.206 149.145H65.9849V148.931C66.9088 141.54 67.6748 135.38 68.2197 131.021C68.4961 128.905 68.7172 127.231 68.8672 126.046L69.0567 124.743C69.0671 124.599 69.0936 124.456 69.1357 124.317C69.1357 124.317 69.1357 124.483 69.1357 124.783C69.1357 125.083 69.0567 125.573 69.0014 126.118C68.8751 127.318 68.6935 129.008 68.4645 131.148C67.967 135.483 67.272 141.619 66.435 148.979L66.2376 148.75C70.0784 148.961 73.8994 149.444 77.6721 150.195C79.7117 150.739 81.7117 151.422 83.6579 152.24C85.6584 153.046 87.6799 153.912 89.7226 154.838L89.383 155.012C89.462 154.578 89.5409 154.127 89.6199 153.677C91.1993 144.841 92.7787 136.557 94.05 129.474L94.2711 129.726C92.3977 129.645 90.5414 129.335 88.7434 128.802C87.0298 128.344 85.4189 127.815 83.9264 127.294C80.9414 126.252 78.3986 125.273 76.1875 124.657C74.5214 124.107 72.7666 123.877 71.0151 123.977C70.3768 124.047 69.7438 124.157 69.1199 124.309Z" fill="#263238"/>
<path d="M107.585 105.768L120.457 154.301L94.3818 163.746L91.7363 159.008L107.585 105.768Z" fill="#455A64"/>
<path d="M15.0112 212.753H15.2245L15.8483 212.855L18.2173 213.25C20.2942 213.582 23.3107 214.04 27.0617 214.316C29.1013 214.474 31.15 214.474 33.1896 214.316C33.744 214.274 34.2952 214.198 34.84 214.087C35.1164 214.024 35.4007 213.992 35.6297 213.914L36.4194 213.645C37.517 213.337 38.1172 212.192 38.6147 211.102C39.0926 209.936 39.4626 208.728 39.7202 207.493C40.0045 206.23 40.2335 204.919 40.4151 203.585C40.7942 200.908 41.039 198.12 41.2048 195.253C41.576 188.999 41.6234 183.037 41.5365 177.77L41.7497 177.983L24.3294 177.62L19.386 177.478L18.0752 177.423C17.9254 177.435 17.7749 177.435 17.6251 177.423C17.7745 177.403 17.9258 177.403 18.0752 177.423H19.386H24.3373L41.7576 177.604H41.9708V177.817C42.0893 183.1 42.0498 189.062 41.6787 195.34C41.497 198.215 41.2522 201.018 40.889 203.711C40.6995 205.053 40.4625 206.372 40.1703 207.659C39.9045 208.922 39.5185 210.157 39.0174 211.347C38.7788 211.932 38.4656 212.484 38.0856 212.99C37.8892 213.241 37.6669 213.472 37.4223 213.677C37.1628 213.864 36.8748 214.008 36.5694 214.103L35.7166 214.379C35.4323 214.458 35.1401 214.498 34.8558 214.561C34.2949 214.669 33.7279 214.743 33.158 214.782C31.0987 214.927 29.0312 214.909 26.9749 214.727C24.0047 214.478 21.0498 214.072 18.1226 213.511C17.0881 213.313 16.2826 213.14 15.7535 213.021L15.1376 212.871L15.0112 212.753Z" fill="#263238"/>
<path d="M41.6159 183.882C41.6159 184.009 36.0881 184.119 29.21 184.119C22.3319 184.119 16.8042 184.009 16.8042 183.882C16.8042 183.756 22.3319 183.638 29.21 183.638C36.0881 183.638 41.6159 183.748 41.6159 183.882Z" fill="#263238"/>
<path d="M25.8616 135.238C25.7381 134.762 25.6588 134.276 25.6248 133.785C25.4826 132.829 25.301 131.416 25.1114 129.726C24.6193 125.244 24.3557 120.739 24.3218 116.23C24.2925 111.722 24.5272 107.216 25.0246 102.735C25.222 101.013 25.4036 99.6235 25.5695 98.6759C25.6264 98.1765 25.7241 97.6826 25.8616 97.1992C25.8667 97.7013 25.8324 98.2029 25.759 98.6996C25.6484 99.6551 25.5142 101.069 25.3641 102.766C25.0562 106.202 24.7719 110.963 24.8035 116.23C24.8351 121.498 25.1668 126.251 25.451 129.655C25.6011 131.305 25.7195 132.679 25.8143 133.722C25.8713 134.225 25.8872 134.732 25.8616 135.238Z" fill="#263238"/>
<path d="M91.7363 91.4585C91.6044 91.6776 91.4594 91.8886 91.302 92.0902L89.9991 93.8749L85.0794 100.421L68.3935 122.366L68.3224 122.461H57.6065L57.5433 122.319C52.7579 112.203 48.5252 103.209 45.4297 96.6704C43.9293 93.4564 42.7211 90.8504 41.8682 89.0184C41.4629 88.1445 41.147 87.4496 40.9206 86.9336C40.8258 86.7204 40.7548 86.5388 40.6916 86.3888C40.6284 86.2387 40.6126 86.2071 40.6205 86.1992C40.6663 86.2509 40.7036 86.3096 40.7311 86.3729C40.8022 86.5151 40.8969 86.6888 41.0075 86.8941C41.2523 87.3995 41.5919 88.0787 42.0262 88.9394L45.7219 96.5361L58.0013 122.122L57.7881 121.98H68.2277L68.0382 122.074L84.8504 100.224L89.8806 93.7643L91.2546 92.0349C91.3983 91.8292 91.5594 91.6364 91.7363 91.4585Z" fill="#263238"/>
<path d="M89.8488 180.147C89.5881 179.915 89.3596 179.65 89.1696 179.357C88.759 178.844 88.1983 178.062 87.5429 177.075C85.8419 174.493 84.3777 171.763 83.1681 168.918C81.9596 166.068 81.0159 163.112 80.3489 160.089C80.0963 158.936 79.9225 157.989 79.8435 157.333C79.7694 156.996 79.7375 156.651 79.7488 156.307C79.8278 156.307 80.0962 157.728 80.6806 160.01C81.4491 162.973 82.4309 165.876 83.6182 168.697C84.8214 171.518 86.2309 174.247 87.8351 176.862C89.067 178.907 89.912 180.1 89.8488 180.147Z" fill="#263238"/>
<path d="M83.3497 166.257C83.2707 166.138 85.5213 164.575 88.0877 162.395C90.6542 160.216 92.5336 158.242 92.6363 158.336C92.7389 158.431 90.9859 160.555 88.4036 162.758C86.8868 164.15 85.1863 165.327 83.3497 166.257Z" fill="#263238"/>
<path d="M95.2821 165.601C95.1989 165.502 95.1274 165.393 95.0689 165.278L94.5161 164.291L92.5024 160.555V160.508V160.453C93.8607 155.225 96.1586 146.657 98.8199 136.991C101.015 129.016 103.013 121.798 104.466 116.507L106.235 110.316C106.44 109.621 106.606 109.068 106.74 108.634C106.79 108.436 106.859 108.243 106.946 108.058C106.929 108.263 106.892 108.467 106.835 108.666C106.725 109.1 106.59 109.661 106.417 110.363C106.022 111.895 105.469 114.012 104.837 116.594C103.416 121.901 101.473 129.126 99.3095 137.126C96.6798 146.791 94.3108 155.344 92.8341 160.54V160.437L94.7372 164.227C94.9347 164.638 95.0926 164.978 95.2268 165.246C95.2613 165.361 95.2799 165.481 95.2821 165.601Z" fill="#263238"/>
<g opacity="0.3">
<path opacity="0.3" d="M25.8614 135.238C23.6089 130.922 22.3439 126.159 22.1582 121.294C21.9725 116.43 22.8706 111.584 24.7875 107.109C24.7875 107.109 24.9059 130.626 25.8614 135.238Z" fill="black"/>
</g>
<path d="M92.9683 134.725C92.6343 134.737 92.3001 134.708 91.9733 134.638C91.3415 134.551 90.3939 134.401 89.3042 134.204C87.0536 133.801 83.958 133.169 80.6177 132.332C77.2774 131.495 74.1976 130.618 72.0181 129.923C70.9283 129.576 70.0597 129.284 69.4596 129.063C69.1354 128.976 68.8246 128.846 68.5356 128.676C68.869 128.706 69.1976 128.775 69.5148 128.881L72.1208 129.6C74.3161 130.208 77.3563 131.029 80.7283 131.866C84.1002 132.703 87.1799 133.382 89.4147 133.864L92.0522 134.448C92.3686 134.499 92.6767 134.592 92.9683 134.725Z" fill="#263238"/>
<g opacity="0.3">
<path opacity="0.3" d="M66.1748 148.939C66.1748 148.939 82.6712 156.962 89.573 155.043C89.5887 155.043 77.8068 148.458 66.1748 148.939Z" fill="black"/>
</g>
<g opacity="0.3">
<path opacity="0.3" d="M93.3789 158.336C93.3789 158.336 106.101 150.368 103.645 119.152L93.3789 158.336Z" fill="black"/>
</g>
<path d="M96.135 222.127C96.135 222.261 78.154 222.371 55.972 222.371C33.7899 222.371 15.8169 222.261 15.8169 222.127C15.8169 221.992 33.7899 221.89 55.972 221.89C78.154 221.89 96.135 222 96.135 222.127Z" fill="#263238"/>
<path d="M112.181 157.334C112.181 157.334 114.005 187.602 113.263 192.309C112.521 197.015 109.859 218.281 109.859 218.281L99.1434 216.054L96.2295 163.083L112.181 157.334Z" fill="#C78976"/>
<path d="M94.7131 230.197C94.6773 229.229 94.7222 228.26 94.8473 227.299C95.2106 225.585 99.0879 214.933 99.0879 214.933L109.796 217.159L109.978 217.57C110.854 219.576 114.629 228.278 114.629 228.673C114.629 228.776 114.629 229.589 114.55 230.197L101.686 230.244L101.315 227.544C101.315 227.544 100.88 228.831 100.407 230.158L94.7131 230.197Z" fill="#C78976"/>
<g opacity="0.3">
<path opacity="0.3" d="M16.9854 222.229C29.178 227.054 42.7209 226.604 55.8217 226.082C69.6331 225.53 83.5315 224.969 97.0191 221.929L16.9854 222.229Z" fill="black"/>
</g>
<path d="M79.2356 70.461C81.775 69.2434 83.9711 67.4124 85.6255 65.1334C87.2799 62.8544 88.3406 60.1992 88.7118 57.4076C89.0039 55.0386 88.7828 52.6221 89.3277 50.3005C90.1174 46.9838 92.4232 43.9831 92.3048 40.5954C92.2258 38.329 91.065 36.2442 90.7254 34.0015C90.3859 31.7589 90.7807 29.6346 90.6701 27.4551C90.479 24.6691 89.4673 22.002 87.7627 19.79C86.058 17.5781 83.7367 15.9203 81.0913 15.0256L67.114 10.4771L46.7878 20.5218C46.7878 20.5218 35.7323 32.9355 40.8336 56.4758L79.2356 70.461Z" fill="#64CF83"/>
<path d="M43.2738 58.3941C42.844 57.9094 42.3016 57.5379 41.6944 57.3123H41.8208C41.7091 57.2836 41.5957 57.2625 41.4812 57.2491C41.2733 57.1816 41.0537 57.158 40.8362 57.1797C40.6187 57.2015 40.4081 57.2681 40.2177 57.3755C39.5113 57.6164 38.9201 58.1119 38.5594 58.7653C38.282 59.3457 38.1685 59.9908 38.2311 60.631C38.2938 61.2712 38.5302 61.8822 38.9148 62.3978C39.2288 62.8607 39.6681 63.2245 40.1813 63.4469C40.6945 63.6692 41.2604 63.7409 41.8129 63.6534C42.3062 63.5107 42.7544 63.2431 43.1141 62.8765C43.4737 62.5099 43.7327 62.0567 43.866 61.5607C44.0401 61.0255 44.0771 60.4552 43.9736 59.9019C43.8701 59.3487 43.6295 58.8303 43.2738 58.3941Z" fill="#455A64"/>
<path d="M41.9547 36.6546C42.7996 28.9631 48.351 19.7397 56.003 20.9084L79.6933 28.0866C80.8085 28.2559 81.8202 28.8357 82.5302 29.7121C83.2401 30.5886 83.5971 31.6986 83.5312 32.8247L80.333 84.209C80.1299 87.4578 78.811 90.5368 76.5994 92.9254C74.3878 95.3139 71.4192 96.8655 68.1956 97.3176C66.1913 97.5984 64.1502 97.4449 62.2104 96.8677C60.2706 96.2906 58.4776 95.3031 56.9528 93.9723C55.428 92.6415 54.2071 90.9984 53.3729 89.1545C52.5387 87.3106 52.1107 85.3089 52.1178 83.2851C52.1178 79.7552 52.1178 77.1019 52.1178 77.1177C52.1178 77.1335 42.3416 75.025 40.8965 62.0743C40.2095 55.6069 41.0228 45.1673 41.9547 36.6546Z" fill="#C78976"/>
<path d="M46.5353 47.71C46.5112 48.139 46.6552 48.5604 46.9369 48.8848C47.2185 49.2092 47.6156 49.411 48.0436 49.4473C48.2531 49.4736 48.4656 49.4577 48.6688 49.4005C48.872 49.3433 49.0617 49.2459 49.2266 49.1141C49.3915 48.9823 49.5283 48.8188 49.6289 48.6333C49.7296 48.4477 49.792 48.2439 49.8125 48.0338C49.8367 47.6049 49.6926 47.1834 49.411 46.859C49.1293 46.5346 48.7323 46.3328 48.3042 46.2965C48.0948 46.2702 47.8822 46.2861 47.679 46.3433C47.4758 46.4006 47.2862 46.4979 47.1213 46.6297C46.9564 46.7615 46.8196 46.925 46.7189 47.1105C46.6183 47.2961 46.5558 47.4999 46.5353 47.71Z" fill="#263238"/>
<path d="M43.9768 42.1826C44.1742 42.4116 45.4693 41.543 47.2382 41.6298C49.0071 41.7167 50.2705 42.6643 50.4758 42.4195C50.6812 42.1747 50.389 41.9299 49.8362 41.4877C49.089 40.9361 48.1904 40.6273 47.2619 40.6032C46.338 40.5635 45.4246 40.8119 44.6481 41.3139C44.0874 41.7009 43.8821 42.0799 43.9768 42.1826Z" fill="#263238"/>
<path d="M63.0158 47.71C62.9938 48.1397 63.1397 48.5612 63.4226 48.8853C63.7055 49.2095 64.1033 49.411 64.5321 49.4473C64.7415 49.4736 64.9541 49.4577 65.1572 49.4005C65.3604 49.3433 65.5501 49.2459 65.715 49.1141C65.8799 48.9823 66.0167 48.8188 66.1173 48.6333C66.218 48.4477 66.2804 48.2439 66.3009 48.0338C66.323 47.6041 66.1771 47.1827 65.8942 46.8585C65.6113 46.5344 65.2135 46.3328 64.7848 46.2965C64.5753 46.2702 64.3627 46.2861 64.1595 46.3433C63.9564 46.4006 63.7667 46.4979 63.6018 46.6297C63.4369 46.7615 63.3001 46.925 63.1994 47.1105C63.0988 47.2961 63.0364 47.4999 63.0158 47.71Z" fill="#263238"/>
<path d="M61.405 43.3276C61.6025 43.5487 62.8975 42.688 64.6664 42.7749C66.4353 42.8617 67.6988 43.8093 67.9041 43.5645C68.0067 43.4777 67.8172 43.0749 67.2644 42.6406C66.5247 42.0688 65.6244 41.743 64.6901 41.7088C63.7654 41.6616 62.8497 41.9105 62.0763 42.4195C61.5156 42.8459 61.3103 43.225 61.405 43.3276Z" fill="#263238"/>
<path d="M54.3531 56.1839C53.4301 55.8527 52.4701 55.6353 51.4945 55.5364C51.0444 55.4653 50.618 55.3548 50.5627 55.0389C50.5439 54.5698 50.6708 54.1064 50.9259 53.7122C51.3997 52.6593 51.8999 51.5301 52.4263 50.3245C54.5111 45.4996 56.051 41.5196 55.8535 41.4407C55.6561 41.3617 53.8082 45.1995 51.7156 50.0323C51.1891 51.2169 50.7075 52.354 50.2705 53.4437C49.9645 53.9765 49.8529 54.5989 49.9546 55.2047C50.0136 55.3685 50.1088 55.5169 50.2333 55.6386C50.3578 55.7603 50.5081 55.8523 50.6732 55.9075C50.9289 55.9901 51.1945 56.0379 51.4629 56.0497C52.4164 56.2195 53.388 56.2646 54.3531 56.1839Z" fill="#263238"/>
<path d="M52.1499 77.1259C58.2009 77.5024 64.2374 76.1901 69.5859 73.3354C69.5859 73.3354 64.9979 81.9745 52.213 80.174L52.1499 77.1259Z" fill="#A26760"/>
<path d="M54.4245 60.4162C54.8521 59.8512 55.4102 59.398 56.051 59.0955C56.6918 58.793 57.3963 58.6501 58.1044 58.6789C58.5676 58.7056 59.0172 58.8455 59.4137 59.0865C59.8103 59.3274 60.1416 59.662 60.3787 60.0609C60.6438 60.5205 60.7623 61.0501 60.7183 61.5789C60.6743 62.1077 60.4699 62.6104 60.1325 63.0199C59.7951 63.4294 59.3407 63.7262 58.8302 63.8705C58.3196 64.0149 57.7771 63.9999 57.2752 63.8276C56.3048 63.4571 55.4361 62.8617 54.7404 62.0904C54.5169 61.8987 54.3366 61.6618 54.2113 61.3954C54.1491 61.2502 54.1265 61.0911 54.1459 60.9343C54.1654 60.7775 54.2261 60.6287 54.3219 60.5031" fill="#A26760"/>
<path d="M59.5177 57.6603C59.2334 57.6603 59.1387 59.5555 57.4251 60.819C55.7115 62.0824 53.6741 61.8061 53.6504 62.0745C53.6504 62.193 54.0847 62.4694 54.9534 62.5326C56.0837 62.5977 57.2012 62.2653 58.1121 61.5928C58.9817 60.9459 59.5651 59.9857 59.7388 58.9158C59.8494 58.142 59.6519 57.6524 59.5177 57.6603Z" fill="#263238"/>
<path d="M60.963 35.9838C61.113 36.4734 62.8977 36.3313 64.9667 36.6787C67.0356 37.0262 68.6939 37.6737 68.994 37.2473C69.1282 37.0499 68.8519 36.5839 68.2043 36.0865C67.3331 35.457 66.3225 35.0479 65.2588 34.894C64.2032 34.7184 63.121 34.7942 62.1001 35.1152C61.3026 35.3915 60.8998 35.7548 60.963 35.9838Z" fill="#263238"/>
<path d="M44.8845 36.11C45.1846 36.5207 46.4639 36.1653 47.8932 36.2127C49.3225 36.2601 50.5939 36.6075 50.9019 36.2127C51.0361 36.0153 50.9018 35.6047 50.3333 35.194C49.6428 34.6949 48.816 34.4194 47.9642 34.4043C47.0984 34.3854 46.2473 34.6305 45.5242 35.1072C44.9477 35.4941 44.7582 35.9047 44.8845 36.11Z" fill="#263238"/>
<path d="M66.0801 23.1117C71.9713 23.0406 77.8204 24.1134 83.3029 26.2704C84.9297 26.9101 86.6196 27.7234 87.5435 29.208C88.2575 30.5806 88.5644 32.1286 88.428 33.6697C88.3648 38.4867 86.4143 44.3777 84.5665 48.8315L82.3238 52.6772C78.9755 51.8876 76.0537 43.3196 76.2906 39.3159C74.6783 38.5776 73.3055 37.4018 72.3283 35.922C71.3511 34.4423 70.8088 32.718 70.7629 30.9453C69.4437 30.0755 68.3376 28.9195 67.5269 27.5633C66.7161 26.207 66.2216 24.6855 66.0801 23.1117Z" fill="#263238"/>
<path d="M78.6359 50.6719C78.8175 47.9238 82.2052 47.3947 84.5663 48.8161C85.8693 49.6058 86.8406 51.1457 86.6669 54.0675C86.2088 61.8695 78.47 59.7926 78.47 59.5952C78.47 59.3978 78.4147 53.9017 78.6359 50.6719Z" fill="#C78976"/>
<path d="M81.0283 56.7518C81.0678 56.7518 81.1625 56.8545 81.3837 56.9808C81.6986 57.1335 82.0596 57.1617 82.3945 57.0598C83.2394 56.8071 84.0133 55.5357 84.1318 54.1301C84.1901 53.4635 84.1011 52.7922 83.8712 52.1638C83.8119 51.9154 83.6933 51.685 83.5255 51.4924C83.3577 51.2999 83.1457 51.1509 82.9077 51.0582C82.758 51.0159 82.5984 51.0257 82.4549 51.086C82.3115 51.1462 82.1927 51.2534 82.1181 51.3899C81.9996 51.5952 82.0391 51.7611 81.9996 51.769C81.9601 51.7769 81.8338 51.6268 81.9206 51.3109C81.9732 51.1195 82.0904 50.9521 82.2523 50.8371C82.3671 50.7603 82.4962 50.7074 82.6318 50.6816C82.7675 50.6558 82.9071 50.6577 83.042 50.6871C83.3586 50.7705 83.6486 50.9331 83.8849 51.1597C84.1212 51.3863 84.2958 51.6694 84.3923 51.9822C84.6818 52.6756 84.7983 53.429 84.7319 54.1775C84.5897 55.7568 83.6974 57.1703 82.5524 57.4309C82.3395 57.4805 82.1182 57.4814 81.9049 57.4335C81.6916 57.3857 81.4918 57.2903 81.3205 57.1546C81.0362 56.9413 81.0046 56.7676 81.0283 56.7518Z" fill="#A26760"/>
<path d="M85.3878 58.5049C84.9549 58.0238 84.4134 57.6529 83.8084 57.4231H83.9348C83.8206 57.3937 83.7045 57.3726 83.5873 57.3599C83.3801 57.2947 83.1616 57.273 82.9455 57.2961C82.7295 57.3192 82.5205 57.3866 82.3317 57.4941C81.6296 57.7348 81.0416 58.2272 80.6813 58.8761C80.4011 59.4553 80.2853 60.1004 80.3465 60.741C80.4078 61.3815 80.6438 61.993 81.0287 62.5086C81.3022 62.9778 81.7112 63.3534 82.202 63.5861C82.6928 63.8187 83.2424 63.8975 83.7788 63.812C84.3151 63.7266 84.8131 63.481 85.2074 63.1075C85.6017 62.7339 85.8737 62.2499 85.9879 61.7189C86.1702 61.1765 86.2107 60.5964 86.1057 60.0339C86.0006 59.4714 85.7535 58.945 85.3878 58.5049Z" fill="#455A64"/>
<path d="M88.7989 22.938C86.9352 19.4081 82.9474 17.4103 78.9832 16.897C77.8226 16.7575 76.6527 16.7126 75.4849 16.7627C75.8308 15.2066 75.8817 13.5995 75.6349 12.0247C75.2197 9.75268 74.2336 7.62358 72.7694 5.83746C71.3051 4.05135 69.4108 2.66687 67.2643 1.81413C63.1422 0.234773 58.5147 0.661191 54.4637 2.39848C50.6653 4.03311 47.167 6.90755 45.5008 10.9665C43.8346 15.0254 44.3558 20.3084 47.404 23.3407C50.8865 26.0967 54.7401 27.0996 58.9885 27.6682C62.7421 28.2039 66.5628 27.3624 69.7439 25.2991C80.0729 32.6115 83.4685 45.6807 85.9481 57.5575C89.6517 49.7949 89.9439 40.9032 90.165 32.2878C90.2361 29.1291 90.2835 25.7729 88.7989 22.938Z" fill="#64CF83"/>
<path d="M77.3168 24.6435C77.4274 24.5329 76.8272 23.8064 75.9902 23.0641C75.1531 22.3218 74.4108 21.7454 74.2765 21.8559C74.1423 21.9665 74.7661 22.693 75.6111 23.4353C76.456 24.1776 77.2142 24.7619 77.3168 24.6435Z" fill="#263238"/>
<path d="M54.4874 22.3145C54.5505 22.2434 53.6977 21.5248 52.5843 20.0797C51.1664 18.2073 50.2345 16.0127 49.8721 13.692C49.5097 11.3714 49.728 8.99719 50.5074 6.78156C51.0997 5.07586 51.7314 4.12825 51.6446 4.07297C51.5577 4.01769 51.4234 4.27039 51.1391 4.69681C50.7349 5.31366 50.3886 5.96661 50.1047 6.64732C49.1919 8.90716 48.9082 11.372 49.2836 13.7801C49.659 16.1882 50.6795 18.4497 52.2368 20.3245C52.7117 20.9001 53.2406 21.429 53.8162 21.9039C54.2189 22.1961 54.4637 22.3461 54.4874 22.3145Z" fill="#263238"/>
<path d="M58.894 15.2704C58.9414 15.2073 58.3965 14.6861 57.4883 13.8727C56.301 12.8459 55.1973 11.7263 54.1875 10.5245C53.1938 9.32291 52.4332 7.94634 51.9448 6.46555C51.5895 5.32841 51.5578 4.57031 51.4631 4.57031C51.3227 5.23337 51.3554 5.92141 51.5579 6.5682C51.9517 8.15231 52.6995 9.62649 53.7453 10.8798C54.7761 12.1124 55.9475 13.2202 57.2357 14.1807C57.7276 14.629 58.2872 14.9968 58.894 15.2704Z" fill="#263238"/>
<g opacity="0.3">
<path opacity="0.3" d="M75.7372 12.9648C75.8731 15.3701 75.4001 17.7707 74.3621 19.9447C73.3241 22.1186 71.7546 23.9957 69.7988 25.4023L69.9489 25.6076C71.3765 25.5275 72.7551 25.0594 73.9363 24.2536C75.1176 23.4479 76.0565 22.3351 76.6521 21.0352C77.2476 19.7353 77.4771 18.2975 77.3159 16.8767C77.1547 15.456 76.6089 14.1062 75.7372 12.9727V12.9648Z" fill="black"/>
</g>
<path d="M86.2718 29.3188C86.1691 29.1924 85.1267 29.9663 83.7685 30.7797C82.4103 31.5931 81.2415 32.1616 81.2968 32.3117C81.3521 32.4617 82.6472 32.1142 84.0607 31.2614C85.4742 30.4085 86.3744 29.4214 86.2718 29.3188Z" fill="white"/>
<path d="M91.6259 36.9471C91.5706 36.797 90.0465 37.2234 88.1828 37.5314C86.3192 37.8394 84.7319 37.9184 84.7319 38.0763C84.7319 38.2342 86.3113 38.408 88.2697 38.0763C90.2281 37.7446 91.6811 37.0813 91.6259 36.9471Z" fill="white"/>
<path d="M80.3731 14.915C80.2152 14.9782 80.9258 17.0235 81.3286 19.6531C81.7313 22.2827 81.684 24.3911 81.8498 24.4464C82.0156 24.5017 82.3078 22.259 81.8498 19.5662C81.3918 16.8734 80.4994 14.8518 80.3731 14.915Z" fill="white"/>
<path d="M78.4697 28.8212C78.4697 28.6632 77.4668 28.8212 76.2902 28.8212C75.1136 28.8212 74.1423 28.8212 74.1186 29.0028C74.0949 29.1844 75.0741 29.445 76.3218 29.3818C77.5695 29.3187 78.5329 28.9633 78.4697 28.8212Z" fill="white"/>
<path d="M86.8087 43.0666C86.6903 42.9718 85.7032 43.9984 84.8345 45.5146C83.9659 47.0308 83.5553 48.3969 83.6895 48.4443C83.8238 48.4917 84.4792 47.2677 85.3163 45.7989C86.1533 44.3301 86.9272 43.1614 86.8087 43.0666Z" fill="white"/>
<path d="M65.3451 22.4957C65.0003 21.4638 64.5753 20.4604 64.0737 19.4949L60.8045 12.3878C59.6041 9.66344 58.5065 7.20754 57.6457 5.20965C57.2581 4.19254 56.7908 3.20765 56.248 2.26416C56.4939 3.32649 56.8403 4.36301 57.2825 5.35969C58.0011 7.23913 59.0514 9.81348 60.3149 12.6168C61.5783 15.4202 62.8024 17.9156 63.7342 19.7239C64.1846 20.6955 64.7238 21.6234 65.3451 22.4957Z" fill="white"/>
<path d="M71.0151 7.09746C70.4135 6.60916 69.7463 6.20776 69.033 5.90504C65.6946 4.23239 62.1298 3.05651 58.4514 2.41466C57.6972 2.23157 56.9204 2.15974 56.1455 2.20145C56.1455 2.36728 59.5964 2.94375 63.6948 4.30199C67.7933 5.66024 70.9361 7.25539 71.0151 7.09746Z" fill="white"/>
<path d="M49.1805 13.2723C49.0778 13.1696 47.6011 14.749 46.8825 17.2207C46.1639 19.6924 46.4087 21.8087 46.5509 21.7771C46.693 21.7455 46.6772 19.7398 47.4195 17.3865C48.1618 15.0333 49.3147 13.375 49.1805 13.2723Z" fill="white"/>
<path d="M64.9187 27.3048C64.9187 27.1389 63.4104 27.3443 61.76 26.6967C60.1096 26.0492 59.1383 24.9199 59.0119 25.0305C58.8856 25.1411 59.7226 26.523 61.5547 27.2179C63.3867 27.9128 64.9819 27.439 64.9187 27.3048Z" fill="white"/>
<path d="M75.1374 18.4926C75.2796 18.4926 75.0663 17.0317 74.0713 15.5945C73.0763 14.1573 71.8049 13.4466 71.7023 13.5729C71.5996 13.6993 72.6499 14.5679 73.5738 15.942C74.4977 17.316 74.9795 18.5479 75.1374 18.4926Z" fill="white"/>
<path d="M41.8684 37.255C41.9474 37.1129 41.5762 36.7418 41.2051 36.2364C40.8339 35.731 40.5812 35.273 40.4154 35.3124C40.2496 35.3519 40.297 35.9758 40.7471 36.5759C41.1972 37.1761 41.7973 37.3814 41.8684 37.255Z" fill="white"/>
<path d="M73.2736 22.7964C73.2105 22.8675 74.545 24.1388 76.4797 26.3815C81.5607 32.2302 85.4143 39.0405 87.8116 46.4078C88.7355 49.2269 89.1382 51.0274 89.233 51.0037C89.2196 50.5713 89.156 50.142 89.0435 49.7244C88.8934 48.9347 88.6091 47.7265 88.1906 46.2893C85.98 38.7821 82.0763 31.8822 76.7798 26.1209C75.9882 25.2448 75.1527 24.4093 74.2765 23.6177C73.9798 23.301 73.6426 23.0249 73.2736 22.7964Z" fill="#263238"/>
<path d="M90.7495 34.7595C90.2804 33.7692 89.6945 32.8387 89.0043 31.9877C85.8661 27.7255 81.9453 24.0995 77.4513 21.3034C76.5462 20.6871 75.5739 20.1758 74.5532 19.7793C75.4113 20.4459 76.3049 21.0654 77.2302 21.635C81.5475 24.588 85.408 28.1585 88.6884 32.2325C89.3312 33.11 90.0191 33.9534 90.7495 34.7595Z" fill="#263238"/>
<path d="M68.7172 2.84133C68.6698 2.84133 69.0883 3.34673 69.649 4.31803C70.4373 5.68502 70.9724 7.18311 71.2283 8.74022C71.5955 11.0416 71.3671 13.3987 70.565 15.5867C69.5326 18.2494 67.7184 20.5371 65.3611 22.149C63.0148 23.7826 60.2692 24.7488 57.4169 24.9444C55.0906 25.1405 52.7492 24.8417 50.5467 24.0679C49.0714 23.5307 47.726 22.6885 46.5983 21.5962C45.8086 20.8065 45.4928 20.2616 45.4375 20.3011C45.4867 20.4434 45.5587 20.5767 45.6507 20.6959C45.8819 21.069 46.1461 21.4205 46.4404 21.7462C47.5375 22.929 48.8871 23.8494 50.3887 24.439C52.6372 25.2882 55.0433 25.6385 57.4406 25.4656C60.3946 25.2901 63.2425 24.3007 65.669 22.607C68.1182 20.9324 69.9929 18.5448 71.0388 15.7684C71.8481 13.49 72.0415 11.0383 71.5995 8.66126C71.3096 7.07453 70.7142 5.55923 69.8464 4.19957C69.608 3.83651 69.3441 3.49081 69.0567 3.1651C68.8435 2.93609 68.733 2.82553 68.7172 2.84133Z" fill="#263238"/>
<path d="M75.0825 10.3511C74.9877 10.3511 75.2562 11.504 75.3588 13.3597C75.5265 15.7665 75.1178 18.1786 74.1664 20.3958C73.1753 22.5898 71.4951 24.4004 69.381 25.5524C68.4736 25.9731 67.5367 26.3268 66.5776 26.6105C66.8385 26.6601 67.1064 26.6601 67.3673 26.6105C68.1148 26.4931 68.8411 26.2669 69.5232 25.9393C71.7967 24.8356 73.6105 22.9687 74.6482 20.6643C75.6433 18.3665 76.0138 15.8467 75.7221 13.3597C75.6479 12.6162 75.5159 11.8796 75.3273 11.1565C75.2976 10.8749 75.2145 10.6016 75.0825 10.3511Z" fill="#263238"/>
<g opacity="0.3">
<path opacity="0.3" d="M82.4811 34.0883C84.8501 38.163 86.0978 41.8587 87.7956 46.2414C88.3326 47.6234 88.8459 49.108 88.5222 50.5531C88.459 50.8374 88.2616 51.1769 87.9773 51.1059C87.693 51.0348 87.7167 50.8453 87.6535 50.6715C85.3311 43.6468 82.5913 36.767 79.4487 30.0688L82.4811 34.0883Z" fill="black"/>
</g>
<g opacity="0.3">
<path opacity="0.3" d="M50.5309 5.64404C48.7304 11.5113 49.4964 17.7577 54.1871 22.2273C53.2068 22.0839 52.2794 21.6924 51.4929 21.0898C50.7065 20.4872 50.0872 19.6936 49.6938 18.7843C48.7229 16.6989 48.2908 14.4032 48.437 12.1074C48.5832 9.81173 49.3032 7.58941 50.5309 5.64404Z" fill="black"/>
</g>
<path d="M85.2132 83.1982C84.7731 82.2977 84.1306 81.5113 83.3361 80.9003C82.5415 80.2893 81.6164 79.8704 80.6331 79.6763L80.562 80.8766C82.1966 81.074 83.5233 82.606 84.2103 83.7826C85 85.1487 85.3949 87.1466 85.3633 89.721C85.2843 96.2279 85.0553 102.427 85.0474 102.49L86.2082 102.53C86.2082 102.466 86.4451 96.2595 86.5241 89.7368C86.5557 86.9413 86.1135 84.746 85.2132 83.1982Z" fill="#64CF83"/>
<path d="M80.697 115.007L79.1177 114.896C79.1177 114.589 79.6942 107.324 81.1709 104.702C81.7086 103.79 82.4625 103.025 83.366 102.475C84.2694 101.924 85.2947 101.604 86.3511 101.543C87.2389 101.435 88.1397 101.541 88.9778 101.853C89.816 102.165 90.5671 102.673 91.1682 103.336C92.937 105.578 93.324 113.222 93.3635 114.091L91.7841 114.162C91.6815 111.951 91.1524 105.878 89.9205 104.315C89.4837 103.853 88.942 103.503 88.3412 103.296C87.7404 103.088 87.0983 103.029 86.4696 103.122C85.6671 103.161 84.8868 103.398 84.1979 103.811C83.509 104.224 82.933 104.802 82.5212 105.491C81.4709 107.402 80.8471 113.009 80.697 115.007Z" fill="#64CF83"/>
<path d="M85.048 142.543C83.5779 142.486 82.1439 142.072 80.8706 141.335L81.2417 140.64C83.7845 141.982 85.9166 142.101 87.5592 140.995C94.224 136.542 92.1867 114.367 92.1709 114.146L92.9606 114.075C93.0632 115.007 95.1164 136.944 88.0093 141.682C87.13 142.258 86.0988 142.558 85.048 142.543Z" fill="#E0E0E0"/>
<path d="M82.6077 141.682C82.5128 141.888 82.3476 142.052 82.1419 142.146C81.9363 142.24 81.7037 142.258 81.4863 142.196L79.4411 141.603C79.2953 141.57 79.1575 141.508 79.0357 141.421C78.9138 141.334 78.8104 141.224 78.7311 141.097C78.6519 140.97 78.5985 140.829 78.574 140.681C78.5494 140.534 78.5543 140.383 78.5882 140.237C78.6235 140.071 78.6957 139.915 78.7995 139.781C78.9033 139.647 79.036 139.538 79.1878 139.462C79.3395 139.386 79.5064 139.345 79.676 139.343C79.8456 139.34 80.0137 139.376 80.1676 139.447L82.1654 140.411C82.2791 140.464 82.3809 140.539 82.465 140.633C82.549 140.726 82.6135 140.835 82.6548 140.953C82.696 141.072 82.713 141.197 82.7049 141.323C82.6968 141.448 82.6638 141.57 82.6077 141.682Z" fill="#E0E0E0"/>
<path d="M87.4566 142.251C86.3649 142.263 85.2957 141.94 84.3927 141.327C77.4751 136.66 79.4335 115.797 79.5204 114.912L80.3101 114.991C80.3101 115.204 78.3122 136.265 84.8428 140.671C86.5406 141.824 88.7359 141.714 91.3576 140.34L91.7288 141.043C90.4216 141.78 88.9567 142.195 87.4566 142.251Z" fill="#E0E0E0"/>
<path d="M89.9835 141.35C90.0769 141.555 90.2407 141.72 90.445 141.814C90.6493 141.908 90.8806 141.926 91.0969 141.864L93.1501 141.287C93.4443 141.221 93.7003 141.041 93.8617 140.786C94.0232 140.532 94.0768 140.223 94.0108 139.929C93.9742 139.764 93.9012 139.609 93.7971 139.476C93.693 139.342 93.5605 139.234 93.4092 139.158C93.2579 139.082 93.0916 139.042 92.9225 139.038C92.7533 139.035 92.5856 139.07 92.4315 139.139L90.4257 140.087C90.1997 140.196 90.0262 140.39 89.9433 140.627C89.8604 140.864 89.8749 141.124 89.9835 141.35Z" fill="#E0E0E0"/>
<path d="M44.7271 111.619C44.4759 104.683 44.6632 97.7384 45.2878 90.8264C46.3775 81.0896 52.1185 80.6158 52.3949 80.5605L52.4975 82.1399L52.4501 81.3502L52.5054 82.1399C52.3159 82.1399 47.8226 82.6216 46.8908 90.9606C46.2767 97.7861 46.0921 104.644 46.338 111.492L44.7271 111.619Z" fill="#64CF83"/>
<path d="M28.7835 114.382L27.9938 112.4C27.9293 112.213 27.9374 112.009 28.0164 111.827C28.0953 111.646 28.2394 111.501 28.4202 111.421L39.5468 107.101C39.7327 107.039 39.9352 107.048 40.1147 107.127C40.2942 107.206 40.438 107.349 40.5181 107.528L41.3788 109.715L28.7835 114.382Z" fill="#E0E0E0"/>
<path d="M17.1989 120.361L35.8273 171.5C36.0049 171.99 36.3638 172.392 36.8297 172.624C37.2956 172.856 37.833 172.901 38.3306 172.748L73.0765 162.166C73.3384 162.088 73.5818 161.957 73.7922 161.782C74.0025 161.607 74.1755 161.391 74.3008 161.148C74.4261 160.905 74.5011 160.639 74.5214 160.366C74.5417 160.094 74.5068 159.819 74.4189 159.56L56.1458 105.997C56.0573 105.739 55.9184 105.502 55.7373 105.299C55.5561 105.096 55.3363 104.932 55.0907 104.815C54.8451 104.698 54.5786 104.631 54.3069 104.618C54.0352 104.606 53.7636 104.647 53.5082 104.741L18.3913 117.755C17.8894 117.945 17.4827 118.325 17.2594 118.813C17.0362 119.301 17.0144 119.857 17.1989 120.361Z" fill="#263238"/>
<path d="M4.87177 139.084C4.87177 139.084 -0.387442 155.367 1.2156 160.737C1.85866 162.34 2.91271 163.745 4.27165 164.812C10.2574 170.15 12.8239 169.605 22.1421 166.257L53.0421 153.788L47.2222 140.829L19.7651 145.038L4.87177 139.084Z" fill="#C78976"/>
<path d="M69.6808 131.914C69.6835 131.744 69.6487 131.576 69.5788 131.422C69.5089 131.268 69.4056 131.131 69.2765 131.022C69.1473 130.912 68.9955 130.833 68.8319 130.789C68.6683 130.745 68.4971 130.738 68.3305 130.769C66.0878 131.124 60.0309 132.143 57.9857 133.098C55.4587 134.275 46.6538 140.916 46.6538 140.916L51.6841 154.317L68.133 152.564C68.133 152.564 73.2501 149.121 73.1396 148.015C73.0196 147.325 72.8614 146.642 72.6658 145.97L74.1899 144.809C76.4246 142.827 74.3399 140.071 74.3399 140.071C74.7799 139.71 75.1317 139.254 75.3685 138.737C75.6052 138.219 75.7207 137.655 75.706 137.086C75.6689 136.565 75.4844 136.066 75.1739 135.647C74.8635 135.227 74.44 134.905 73.953 134.717C73.953 134.717 74.2451 132.158 72.8632 131.708C71.4813 131.258 69.4597 132.459 69.4597 132.459C69.5913 132.306 69.669 132.115 69.6808 131.914Z" fill="#C78976"/>
<path d="M70.6363 132.032C70.5011 132.132 70.3521 132.212 70.1941 132.269C69.7819 132.455 69.3602 132.618 68.9306 132.759C67.8567 133.138 66.3326 133.548 64.6585 134.014C63.2035 134.379 61.7717 134.83 60.3705 135.365C59.3202 135.791 58.7912 136.233 58.7359 136.194C58.6806 136.154 58.8543 136.06 59.107 135.854C59.4787 135.592 59.8724 135.362 60.2837 135.167C61.6487 134.565 63.0619 134.079 64.5084 133.714C66.1825 133.248 67.7066 132.869 68.7964 132.546C69.4001 132.342 70.0143 132.171 70.6363 132.032Z" fill="#A26760"/>
<path d="M73.9447 134.653C73.6733 134.941 73.3557 135.181 73.005 135.364C72.1645 135.854 71.285 136.274 70.3754 136.62C69.3093 137.022 68.3301 137.338 67.6194 137.544C67.243 137.688 66.8506 137.786 66.4507 137.836C67.6925 137.264 68.966 136.763 70.2648 136.335C71.3151 135.933 72.239 135.546 72.9023 135.182C73.2359 134.98 73.5844 134.803 73.9447 134.653Z" fill="#A26760"/>
<path d="M74.3872 140.103C73.4494 140.79 72.4175 141.337 71.3232 141.73C70.2622 142.209 69.1369 142.531 67.9829 142.685C67.9829 142.598 69.4438 142.164 71.2048 141.453C72.9657 140.742 74.3398 140.016 74.3872 140.103Z" fill="#A26760"/>
<path d="M74.1979 144.841C73.4894 145.413 72.6881 145.859 71.8288 146.16C71.0175 146.563 70.1449 146.83 69.2466 146.949C70.0478 146.561 70.8704 146.218 71.7104 145.923C72.5188 145.516 73.3493 145.155 74.1979 144.841Z" fill="#A26760"/>
<path d="M65.898 143.364C65.898 143.364 65.7638 143.53 65.4637 143.601C65.0625 143.699 64.6393 143.654 64.2683 143.472C63.8973 143.29 63.602 142.983 63.4342 142.606C63.3079 142.322 63.3158 142.124 63.3553 142.116C63.3948 142.108 63.6395 142.827 64.3976 143.206C64.8771 143.382 65.3925 143.436 65.898 143.364Z" fill="#A26760"/>
<path d="M66.3163 148.204C66.3163 148.275 65.7477 148.417 65.1554 148.03C64.5632 147.644 64.4289 147.059 64.5079 147.043C64.5869 147.028 64.8159 147.47 65.2976 147.778C65.7793 148.086 66.3163 148.117 66.3163 148.204Z" fill="#A26760"/>
<path d="M62.9917 138.768C62.9917 138.84 62.6364 139.045 62.202 138.808C61.7677 138.571 61.7045 138.137 61.7914 138.137C61.8783 138.137 62.0204 138.382 62.3442 138.547C62.6679 138.713 62.9601 138.689 62.9917 138.768Z" fill="#A26760"/>
</svg>
