<svg width="115" height="236" viewBox="0 0 115 236" fill="none" xmlns="http://www.w3.org/2000/svg">
<path d="M69.1579 30.2366L69.7502 77.6647C69.8528 85.7273 68.3524 97.5961 55.5912 97.1776C44.5357 95.9773 41.614 85.5219 41.535 77.9963C41.4876 74.4191 41.4481 71.442 41.4244 71.0787C41.4244 71.0787 29.3345 70.0916 28.3158 58.1517C27.8183 52.3792 27.7709 40.4156 27.8499 29.5891C27.8887 23.9753 30.0412 18.5822 33.8785 14.4844C37.7158 10.3867 42.9561 7.88506 48.5552 7.4781L49.7082 7.39124C62.2166 7.2412 69.3237 17.7439 69.1579 30.2366Z" fill="#FFBE9D"/>
<path d="M41.4243 71.0792C46.9402 70.6613 52.221 68.6718 56.6414 65.3462C56.6414 65.3462 53.4827 74.3485 41.4796 74.1432L41.4243 71.0792Z" fill="#EB996E"/>
<path d="M48.2631 34.4847C48.5 34.7216 49.8819 33.616 51.8798 33.5608C53.8777 33.5055 55.3781 34.4847 55.5913 34.232C55.6939 34.1135 55.4413 33.6713 54.8016 33.2133C53.9209 32.6297 52.8805 32.3344 51.8245 32.3684C50.7806 32.3995 49.7749 32.768 48.958 33.4186C48.35 33.9161 48.1525 34.3741 48.2631 34.4847Z" fill="#263238"/>
<path d="M50.3084 38.5914C50.3329 39.0048 50.5188 39.392 50.826 39.6697C51.1332 39.9474 51.5372 40.0933 51.9509 40.076C52.3698 40.076 52.7715 39.9096 53.0677 39.6134C53.3639 39.3172 53.5303 38.9155 53.5303 38.4966C53.5223 38.2864 53.4723 38.0798 53.3833 37.8892C53.2944 37.6985 53.1682 37.5275 53.0123 37.3863C52.8563 37.245 52.6737 37.1364 52.4752 37.0667C52.2767 36.997 52.0662 36.9677 51.8562 36.9805C51.6488 36.9846 51.4442 37.0295 51.2541 37.1127C51.0641 37.1959 50.8923 37.3157 50.7486 37.4653C50.6048 37.6149 50.492 37.7913 50.4165 37.9846C50.3409 38.1778 50.3042 38.384 50.3084 38.5914Z" fill="#263238"/>
<path d="M43.2645 48.3994C43.2645 48.2889 42.1116 48.1783 40.24 48.0757C39.7662 48.0757 39.3161 48.0046 39.2134 47.6887C39.1372 47.2069 39.2117 46.7132 39.4266 46.2752C39.7794 45.1065 40.1558 43.8825 40.5559 42.6032C42.1352 37.3755 43.1934 33.1271 42.9881 33.0323C42.7828 32.9376 41.3456 37.1623 39.7899 42.3821L38.7238 46.0778C38.4672 46.6635 38.4279 47.3215 38.6133 47.9335C38.6905 48.0903 38.8014 48.2281 38.9378 48.3373C39.0743 48.4464 39.2331 48.5243 39.4029 48.5653C39.6632 48.6132 39.9284 48.6291 40.1926 48.6127C41.2215 48.674 42.254 48.6024 43.2645 48.3994Z" fill="#263238"/>
<path d="M49.1162 26.9599C49.3136 27.4021 50.9087 27.0704 52.8276 27.1731C54.7465 27.2758 56.3259 27.6943 56.547 27.2679C56.6418 27.0625 56.3496 26.6519 55.6942 26.2571C54.8378 25.7697 53.8756 25.4987 52.8908 25.4674C51.9061 25.4134 50.9235 25.6061 50.0322 26.0281C49.361 26.3676 49.0372 26.7467 49.1162 26.9599Z" fill="#263238"/>
<path d="M30.1162 30.6709C30.3295 31.0262 31.893 30.6314 33.7803 30.5682C35.6677 30.505 37.247 30.7498 37.4445 30.3787C37.5313 30.197 37.2154 29.8733 36.56 29.589C35.6722 29.2363 34.7185 29.0801 33.7646 29.131C32.7973 29.1606 31.8473 29.3948 30.977 29.818C30.3295 30.1497 30.0294 30.4971 30.1162 30.6709Z" fill="#263238"/>
<path d="M68.8345 39.1522C69.0319 39.0496 76.8655 36.1278 77.1972 44.3167C77.5288 52.5057 69.2451 51.1553 69.2214 50.9184C69.1977 50.6815 68.8345 39.1522 68.8345 39.1522Z" fill="#FFBE9D"/>
<path d="M71.5982 47.7122C71.5982 47.7122 71.7403 47.8069 71.9851 47.9096C72.3306 48.0436 72.7136 48.0436 73.0591 47.9096C73.904 47.5542 74.5832 46.1565 74.5595 44.6719C74.5505 43.9707 74.3859 43.2803 74.0778 42.6503C73.9912 42.3968 73.8437 42.1684 73.6482 41.9853C73.4526 41.8021 73.2151 41.6698 72.9564 41.6001C72.7958 41.5695 72.6296 41.5952 72.4858 41.6729C72.3419 41.7506 72.2292 41.8754 72.1667 42.0265C72.0641 42.2555 72.1194 42.4213 72.0799 42.4371C72.0404 42.4529 71.8982 42.3029 71.9535 41.9633C71.9872 41.7568 72.0936 41.5691 72.2536 41.4342C72.3629 41.3443 72.489 41.277 72.6246 41.2364C72.7602 41.1957 72.9025 41.1824 73.0433 41.1973C73.3818 41.2504 73.701 41.3894 73.9706 41.6009C74.2401 41.8124 74.4511 42.0894 74.5832 42.4055C74.9591 43.0995 75.1597 43.8748 75.1675 44.664C75.1675 46.3223 74.3778 47.9017 73.2328 48.2886C73.0161 48.3629 72.7854 48.3865 72.5581 48.3578C72.3309 48.329 72.1133 48.2487 71.9219 48.1228C71.6219 47.9096 71.5666 47.728 71.5982 47.7122Z" fill="#EB996E"/>
<path d="M45.1915 54.0691C45.0968 53.8638 46.6998 53.3821 47.829 51.8738C48.3022 51.2146 48.6847 50.4948 48.9662 49.7338C49.2031 49.1415 49.3847 48.7703 49.4716 48.794C49.5584 48.8177 49.5347 49.2284 49.4005 49.868C49.2269 50.7247 48.8684 51.5331 48.3502 52.237C47.8075 52.9422 47.0846 53.4879 46.2576 53.8164C45.6337 54.1244 45.2073 54.1402 45.1915 54.0691Z" fill="#263238"/>
<path d="M79.7236 25.8619C78.01 22.9796 77.6151 19.5445 76.6833 16.3068C75.7515 13.0691 73.9589 9.74457 70.7923 8.61533H70.7212C67.8863 7.4782 64.4038 7.4624 62.0348 9.40501C61.4583 5.14865 57.7231 1.78462 53.5694 0.718559C49.4157 -0.347506 42.7509 0.284233 38.7709 1.88728C35.6911 3.12707 32.7141 5.66983 29.0894 9.39711C27.5609 10.9673 26.1638 12.6603 24.9121 14.4589L21.3032 25.6171L24.3987 31.4686C24.5778 31.8751 24.7808 32.2707 25.0068 32.6531L27.7944 44.98C27.976 41.616 27.7312 29.9287 27.9049 26.5647C30.4335 26.4901 32.9208 25.9045 35.217 24.8433C37.5133 23.782 39.571 22.267 41.2663 20.3894C43.1062 18.36 44.5434 15.8093 46.9993 14.5932C50.158 13.0138 53.9406 14.1668 57.2651 15.3276L57.123 15.2012C58.8665 16.0058 60.4379 17.1401 61.7505 18.5416C60.9962 25.1905 61.683 31.9238 63.7642 38.2835C64.08 39.239 64.9329 41.2053 65.8726 41.5686C67.7047 42.2793 68.2022 40.4078 69.3077 39.4128C70.0974 38.6784 71.3372 38.6231 72.656 38.6231C73.5757 35.8384 74.3272 33.001 74.9065 30.1261C76.0179 30.47 77.1945 30.5485 78.3416 30.3552L77.2835 27.8282C77.7222 28.1479 78.2223 28.3737 78.7523 28.4915C79.0195 28.545 79.2966 28.5154 79.5465 28.4067C79.7963 28.298 80.0069 28.1154 80.15 27.8835C80.4974 27.2201 80.0789 26.5015 79.7236 25.8619Z" fill="#263238"/>
<path d="M58.2686 10.8579C58.6959 11.1929 59.0971 11.5598 59.4689 11.9556C60.4102 13.0915 61.0413 14.4517 61.3009 15.9039C61.5062 16.9017 61.6094 17.9177 61.6089 18.9363C61.6089 20.0419 61.522 21.2185 61.4352 22.4583C61.3246 23.7713 61.2955 25.09 61.3483 26.4067C61.3843 27.1022 61.4741 27.7939 61.6168 28.4756C61.7225 29.203 62.0135 29.891 62.4617 30.4735C62.6686 30.7062 62.9325 30.881 63.2274 30.9807C63.5223 31.0804 63.8382 31.1015 64.1438 31.0421C64.73 30.9345 65.2636 30.6344 65.6599 30.1892C66.31 29.2975 66.7082 28.2474 66.8129 27.149H66.5602C66.921 28.0492 67.4104 28.8924 68.0132 29.6522C68.6003 30.3548 69.4336 30.8068 70.3427 30.9157C70.765 30.9562 71.1905 30.8826 71.5746 30.7025C71.923 30.5241 72.2133 30.2502 72.4117 29.9128C72.5867 29.5882 72.6738 29.2234 72.6644 28.8547C72.6476 28.5109 72.5107 28.1839 72.2774 27.9307L72.1511 28.0413C72.8635 28.8548 73.7375 29.511 74.7175 29.9681C75.0571 30.1181 75.3256 30.2129 75.5072 30.2761C75.5986 30.3116 75.6941 30.3355 75.7915 30.3471L75.523 30.2287C75.3414 30.1576 75.0808 30.0471 74.7333 29.8812C73.784 29.4045 72.9407 28.7411 72.2537 27.9307L72.1274 28.0413C72.3238 28.2924 72.437 28.5986 72.4511 28.917C72.4653 29.2355 72.3797 29.5505 72.2064 29.8181C72.0231 30.1349 71.7476 30.3883 71.4167 30.5446C71.0673 30.709 70.6788 30.7719 70.2954 30.7262C69.4501 30.6151 68.6791 30.1858 68.1395 29.5259C67.5598 28.7804 67.0892 27.9561 66.7418 27.0779L66.5681 26.6909L66.4891 27.1095C66.3869 28.1558 66.0081 29.1561 65.3914 30.0076C65.0417 30.4177 64.5626 30.6962 64.0332 30.7973C63.7743 30.8488 63.5065 30.8323 63.2559 30.7492C63.0054 30.6662 62.7807 30.5194 62.6039 30.3235C62.1886 29.7723 61.9172 29.1264 61.8142 28.444C61.677 27.7776 61.5899 27.1019 61.5536 26.4225C61.4974 25.1272 61.5211 23.8296 61.6247 22.5372C61.7037 21.2974 61.7826 20.1129 61.7668 18.9995C61.7596 17.9662 61.6431 16.9365 61.4194 15.9276C61.1383 14.4444 60.4678 13.0627 59.4768 11.924C59.136 11.504 58.7277 11.1437 58.2686 10.8579Z" fill="#455A64"/>
<path d="M21.3511 22.49L21.4458 22.569L21.7459 22.7901C21.9068 22.9094 22.0757 23.0175 22.2513 23.1139C22.4847 23.2563 22.7274 23.383 22.9778 23.4929C24.5777 24.22 26.3342 24.5349 28.087 24.409C30.6983 24.2434 33.2042 23.3184 35.2968 21.7477C37.822 19.824 39.9285 17.4057 41.4879 14.6406C42.3565 13.1876 43.0672 11.7109 43.8569 10.3369C44.5683 9.00466 45.4672 7.78137 46.526 6.70438C47.4783 5.72697 48.6629 5.00698 49.969 4.61173C50.5596 4.44713 51.1728 4.37783 51.7853 4.40642C52.3493 4.43996 52.9067 4.54612 53.4436 4.72228C54.3698 5.04028 55.2177 5.55174 55.9311 6.22268C56.47 6.72994 56.9257 7.31887 57.2814 7.96786C57.5575 8.53869 57.7642 9.14049 57.8974 9.76043C57.8974 9.76043 57.8974 9.72094 57.8974 9.63408C57.8974 9.54721 57.8973 9.42087 57.8421 9.27083C57.7413 8.80475 57.5877 8.35169 57.3841 7.92048C57.0458 7.24584 56.5945 6.6342 56.0495 6.11212C55.3298 5.40717 54.4646 4.86813 53.5147 4.53277C52.9623 4.33808 52.3856 4.22114 51.801 4.18531C51.1654 4.15034 50.5283 4.21698 49.9137 4.38273C48.5677 4.78213 47.3433 5.51245 46.3523 6.50696C45.2719 7.59912 44.3543 8.84112 43.6279 10.1948C42.8382 11.5767 42.1275 13.0534 41.2588 14.4827C39.7257 17.2402 37.6491 19.6579 35.1546 21.5898C33.0927 23.1476 30.6249 24.0771 28.0475 24.2668C26.3238 24.4167 24.5894 24.1457 22.9936 23.4771C21.9433 22.8928 21.3748 22.4505 21.3511 22.49Z" fill="#455A64"/>
<path d="M30.0293 35.2352C30.2662 35.48 31.6481 34.3666 33.646 34.3113C35.6439 34.256 37.1364 35.2432 37.3496 34.9826C37.4523 34.872 37.2075 34.4298 36.5599 33.9718C35.6839 33.3844 34.6448 33.0887 33.5908 33.1268C32.5457 33.1574 31.5381 33.5228 30.7163 34.1692C30.1083 34.6746 29.9108 35.1247 30.0293 35.2352Z" fill="#263238"/>
<path d="M32.7778 38.5915C32.7859 38.8018 32.8358 39.0083 32.9248 39.199C33.0137 39.3897 33.1399 39.5607 33.2958 39.7019C33.4518 39.8432 33.6344 39.9518 33.8329 40.0215C34.0315 40.0912 34.2419 40.1205 34.4519 40.1077C34.8708 40.1077 35.2725 39.9413 35.5687 39.6451C35.8649 39.349 36.0313 38.9472 36.0313 38.5284C36.0233 38.3181 35.9733 38.1116 35.8844 37.9209C35.7954 37.7302 35.6692 37.5593 35.5133 37.418C35.3573 37.2768 35.1747 37.1681 34.9762 37.0984C34.7777 37.0287 34.5672 36.9994 34.3572 37.0122C33.9383 37.0122 33.5366 37.1786 33.2404 37.4748C32.9442 37.771 32.7778 38.1727 32.7778 38.5915Z" fill="#263238"/>
<path d="M25.9392 13.1406C24.9363 14.4989 23.3885 15.7387 21.7144 15.5807C21.108 15.4592 20.5115 15.293 19.9298 15.0832C19.3454 15.4386 19.5112 17.4523 19.9298 17.9892C20.3171 18.4504 20.7423 18.8784 21.2011 19.2685C19.2506 20.3504 17.4502 19.8529 15.3496 19.1185C15.5793 20.9006 16.2727 22.5911 17.3606 24.0212C18.4484 25.4513 19.8925 26.5709 21.5486 27.268C22.0591 27.5305 22.6249 27.6675 23.199 27.6675C23.7731 27.6675 24.3389 27.5305 24.8494 27.268C25.6211 26.6062 26.124 25.6849 26.263 24.6778C27.1602 21.0802 27.6085 17.3854 27.5975 13.6776L25.9392 13.1406Z" fill="#263238"/>
<path d="M35.7939 80.2789L41.3217 77.3334C41.3217 77.3334 47.1732 86.0198 55.8597 85.1591C64.5461 84.2983 70.0739 76.6147 70.0739 76.6147L75.6016 79.4181L56.6493 110.508L35.7939 80.2789Z" fill="#455A64"/>
<path d="M98.076 170.728L91.6717 126.885L96.3703 85.7193L74.5041 78.0752L56.61 107.293L36.1574 78.9833L24.02 84.2979C13.4463 88.9333 3.89906 98.9464 1.71165 110.278C1.71165 110.428 1.65636 110.578 1.62478 110.728C-1.17858 125.906 1.92486 147.543 1.92486 147.543L22.6618 138.367L20.9877 131.047L24.9361 147.756C24.9361 147.756 7.9975 209.493 10.406 229.733C10.406 229.733 42.3801 236.84 71.8271 232.015C101.274 227.19 109.266 225.824 109.266 225.824L98.076 170.728Z" fill="#64CF83"/>
<path d="M96.3698 85.7197C96.3698 85.7197 109.092 96.7752 110.497 112.134C111.903 127.494 114.501 141.218 114.501 141.218L88.86 143.958C88.86 143.958 88.2598 133.424 88.86 132.785C89.4602 132.145 93.6691 100.534 93.6691 100.534L96.3698 85.7197Z" fill="#64CF83"/>
<g opacity="0.2">
<path opacity="0.2" d="M19.5743 169.401L18.6504 173.642L34.1913 179.17C39.719 181.144 45.2941 183.118 51.0904 184.121C61.7115 185.945 72.6012 184.366 83.2697 182.786C89.2239 181.91 95.9046 180.575 99.1896 175.521C72.4961 177.143 45.7063 175.084 19.5743 169.401Z" fill="black"/>
</g>
<path d="M3.82812 146.683C4.02554 146.896 10.9352 166.938 14.9468 170.515C18.9584 174.092 42.1907 172.837 52.0064 169.252C61.8221 165.667 82.6695 161.315 82.6695 161.315L79.5108 145.151C79.5108 145.151 71.8826 145.94 61.8536 147.52C58.2211 148.112 24.9915 147.733 24.9915 147.733L22.6935 138.344L3.82812 146.683Z" fill="#455A64"/>
<path d="M113.135 141.368C113.08 141.368 112.503 167.775 109.7 171.155C106.897 174.535 97.0651 178.53 89.6737 179.375C82.2823 180.22 37.1838 178.167 30.5742 172.655L56.6336 154.493L83.1825 161.047L90.6134 157.849L91.2925 143.698L113.135 141.368Z" fill="#455A64"/>
<path d="M89.3343 183.221C89.2283 183.378 89.1095 183.526 88.9789 183.663L87.905 184.887C87.4391 185.424 86.8547 186.064 86.144 186.774C85.4333 187.485 84.6594 188.354 83.7197 189.143C82.78 189.933 81.785 190.967 80.6399 191.915C79.4949 192.863 78.2709 193.881 76.9442 194.916C74.0497 197.112 71.0221 199.127 67.8788 200.949C64.7179 202.749 61.4505 204.355 58.0946 205.758C56.5153 206.358 55.0623 206.966 53.6409 207.424C52.9381 207.661 52.2589 207.906 51.6035 208.111L49.6925 208.672C48.4843 209.043 47.3629 209.296 46.3916 209.533C45.4203 209.77 44.5675 209.959 43.8647 210.086L42.2853 210.378C42.1004 210.417 41.9131 210.443 41.7246 210.457C41.9002 210.385 42.0828 210.332 42.2695 210.299L43.8488 209.928C44.5438 209.778 45.3808 209.58 46.3521 209.312C47.3234 209.043 48.429 208.783 49.6293 208.388L51.5166 207.811C52.1721 207.598 52.8433 207.345 53.5461 207.101C54.9596 206.635 56.4205 206.019 57.9683 205.403C64.6473 202.602 70.9503 198.979 76.731 194.616C78.0498 193.597 79.3133 192.634 80.4346 191.654C81.556 190.675 82.5983 189.783 83.5301 188.93C84.462 188.077 85.2753 187.272 85.9939 186.561C86.7125 185.85 87.3206 185.25 87.8023 184.729L88.9315 183.56C89.0564 183.436 89.1911 183.323 89.3343 183.221Z" fill="#263238"/>
<path d="M80.8058 80.2784L80.7032 80.4916L80.3794 81.1391L79.1001 83.5082L74.2989 92.1946L58.2684 120.749L58.1105 121.034L57.921 120.773L57.305 119.928L37.5631 92.8737L31.6168 84.6453L30.0375 82.4026C29.8716 82.1578 29.7374 81.9604 29.6268 81.8104C29.5792 81.7427 29.537 81.6714 29.5005 81.5971C29.5614 81.6552 29.6169 81.7186 29.6663 81.7867C29.7769 81.9288 29.919 82.1183 30.1085 82.3473L31.7669 84.5505L37.8158 92.7L57.6604 119.683L58.2763 120.528H57.9289C64.2463 109.354 69.9241 99.278 74.0541 91.9735L78.958 83.3739L80.3083 81.0523L80.6716 80.4521C80.7506 80.3494 80.7979 80.2705 80.8058 80.2784Z" fill="#263238"/>
<path d="M65.5176 145.892C65.483 145.732 65.4698 145.567 65.4782 145.403C65.4782 145.032 65.4782 144.566 65.4387 143.997C65.4387 142.718 65.3992 140.965 65.3755 138.825C65.3518 136.685 65.3755 134.031 65.3281 131.157C65.3281 129.712 65.3281 128.196 65.3281 126.632C65.3281 125.842 65.3281 125.053 65.3281 124.263V122.873C65.3345 122.782 65.3675 122.694 65.4229 122.62C65.4751 122.559 65.5406 122.51 65.6144 122.477C65.6883 122.444 65.7686 122.428 65.8493 122.431H66.481C73.1538 122.313 79.1791 122.431 83.546 122.51L88.7105 122.628L90.1161 122.692C90.2806 122.687 90.4451 122.703 90.6057 122.739C90.4428 122.753 90.279 122.753 90.1161 122.739H88.7105H83.5381C79.1712 122.739 73.1301 122.66 66.489 122.778H65.873C65.7309 122.778 65.7782 122.778 65.7467 122.778C65.7424 122.791 65.7424 122.805 65.7467 122.818V126.577C65.7467 128.156 65.7467 129.657 65.7467 131.102C65.7467 133.976 65.7467 136.566 65.6993 138.769C65.6519 140.973 65.6519 142.663 65.6361 143.942V145.347C65.624 145.534 65.5841 145.718 65.5176 145.892Z" fill="#263238"/>
<path d="M91.2688 143.705C91.2777 143.786 91.2777 143.869 91.2688 143.95C91.2688 144.139 91.2688 144.376 91.2688 144.676C91.2688 145.34 91.2136 146.256 91.182 147.44C91.0793 149.88 90.9372 153.331 90.7634 157.564V157.667H90.6608C87.66 158.851 84.1775 160.178 80.3397 161.536C76.5019 162.894 72.2692 164.15 67.8312 165.358C57.6838 168.067 48.3104 169.678 41.5429 170.838L33.5197 172.181L31.3402 172.528L30.7638 172.607H30.5742C30.5742 172.607 30.6374 172.607 30.7559 172.552L31.3244 172.434L33.496 172.007L41.4955 170.538C48.2472 169.306 57.597 167.648 67.7207 164.947C72.1586 163.739 76.4071 162.507 80.2134 161.157C84.0196 159.807 87.5337 158.512 90.5502 157.359L90.4476 157.501C90.6766 153.276 90.8661 149.817 91.0004 147.385C91.0714 146.216 91.1346 145.292 91.1741 144.621C91.1741 144.329 91.2136 144.092 91.2293 143.902C91.2344 143.835 91.2477 143.769 91.2688 143.705Z" fill="#263238"/>
<path d="M79.7788 146.454C82.2825 146.126 84.8032 145.944 87.3281 145.909C88.6103 145.975 89.8841 146.154 91.1344 146.446L90.5895 157.857L82.5901 161.055L79.7788 146.454Z" fill="#FFBE9D"/>
<path d="M14.5757 104.647C14.7418 105.085 14.8687 105.537 14.9547 105.998C15.1837 106.938 15.4838 108.193 15.8471 109.709C16.6367 112.907 17.608 117.211 18.7215 121.973C19.8349 126.735 20.9089 131.086 21.6907 134.213L22.6225 137.917C22.7617 138.362 22.8621 138.82 22.9226 139.283C22.739 138.853 22.5886 138.409 22.4725 137.956C22.1961 137.095 21.8407 135.84 21.4064 134.284C20.5535 131.173 19.4559 126.853 18.3187 122.068C17.1816 117.282 16.2261 112.931 15.5628 109.772C15.2469 108.241 14.9942 106.977 14.7731 106.029C14.6769 105.574 14.6109 105.112 14.5757 104.647Z" fill="#263238"/>
<path d="M90.7086 128.52C90.3818 128.591 90.048 128.626 89.7136 128.622C89.0739 128.67 88.1342 128.709 87.0129 128.757C84.7228 128.836 81.5641 128.899 78.0737 128.899C74.5833 128.899 71.4246 128.82 69.1425 128.733C67.9974 128.686 67.0735 128.638 66.4339 128.599C66.1018 128.597 65.771 128.56 65.4468 128.488C65.7753 128.432 66.1094 128.416 66.4418 128.441H69.1504L78.0737 128.488H87.005H89.7136C90.0454 128.46 90.3792 128.471 90.7086 128.52Z" fill="#263238"/>
<path d="M44.4335 147.859C44.4335 147.859 44.2361 147.638 43.936 147.196L42.712 145.324C41.6775 143.745 40.2166 141.581 38.503 139.259C36.7894 136.938 35.1627 134.908 33.9545 133.447L32.5331 131.726C32.3403 131.528 32.1755 131.305 32.0435 131.062C32.2711 131.217 32.4758 131.403 32.6515 131.615C33.0226 131.994 33.5438 132.555 34.1756 133.258C35.4391 134.671 37.1132 136.693 38.8347 139.022C40.5562 141.352 41.9934 143.547 42.9568 145.166C43.4464 145.956 43.8254 146.651 44.0781 147.117C44.2265 147.349 44.3459 147.598 44.4335 147.859Z" fill="#263238"/>
<path d="M48.9661 148.073C48.1077 147.125 47.4448 146.017 47.0156 144.812C46.4618 143.659 46.1373 142.409 46.0601 141.132C46.1785 141.132 46.5891 142.711 47.3946 144.654C48.2001 146.596 49.0687 148.01 48.9661 148.073Z" fill="#263238"/>
<path d="M61.672 114.306C61.5608 114.205 61.4626 114.091 61.3798 113.966L60.5901 112.963L57.8025 109.212L48.737 96.7748L39.7584 84.2506L37.0735 80.4206L36.3628 79.3704C36.2723 79.2503 36.1955 79.1205 36.1338 78.9834C36.245 79.0839 36.3432 79.198 36.426 79.323L37.2156 80.3259L40.0032 84.0768L49.0845 96.53L58.0631 109.054L60.7481 112.884L61.4588 113.935C61.5428 114.05 61.6142 114.175 61.672 114.306Z" fill="#263238"/>
<path d="M72.5301 78.075C72.5053 78.2166 72.4628 78.3546 72.4037 78.4857C72.2701 78.8821 72.1119 79.2698 71.9299 79.6465C71.2729 81.0383 70.4075 82.3218 69.3635 83.4527C67.8091 85.1346 65.9459 86.5019 63.8752 87.4801C62.653 88.0513 61.3817 88.5112 60.0769 88.8541C58.6674 89.1923 57.229 89.3959 55.781 89.4622C52.9695 89.546 50.1762 88.9841 47.6158 87.8197C45.5261 86.8854 43.6216 85.5827 41.9933 83.9739C40.8957 82.9011 39.945 81.6876 39.1662 80.3651C38.9522 80.0084 38.7597 79.6392 38.5897 79.2595C38.518 79.1317 38.4598 78.9967 38.416 78.8568C39.4442 80.6607 40.7172 82.3137 42.1986 83.7686C43.8269 85.3187 45.7136 86.5721 47.7737 87.4722C50.2858 88.5902 53.0168 89.1299 55.7652 89.0515C58.5167 88.95 61.2202 88.3003 63.7173 87.1405C65.7529 86.1925 67.595 84.8751 69.1503 83.2553C70.1951 82.1563 71.0827 80.9179 71.7878 79.5754C72.2774 78.6199 72.4827 78.0592 72.5301 78.075Z" fill="#263238"/>
<g opacity="0.2">
<path opacity="0.2" d="M30.5742 172.655C51.6507 174.416 73.8406 174.882 91.2767 157.414C72.9325 164.94 50.174 169.733 30.5742 172.655Z" fill="black"/>
</g>
<g opacity="0.2">
<path opacity="0.2" d="M91.2213 146.414C88.339 143.793 87.9283 139.465 88.0152 135.572C88.1652 129.057 89.7446 121.816 91.5608 115.562C91.1897 126.664 90.3605 136.441 91.0949 146.454" fill="black"/>
</g>
<path d="M24.9597 147.757C24.9597 147.812 24.5807 148.073 23.949 148.547C23.1343 149.144 22.4245 149.872 21.8484 150.702C21.3094 151.567 20.8343 152.469 20.427 153.403C20.2818 153.809 20.074 154.19 19.811 154.532C19.8565 154.102 19.974 153.683 20.1585 153.292C20.4957 152.303 20.949 151.356 21.5089 150.473C22.1025 149.597 22.8782 148.859 23.7831 148.31C24.1328 148.046 24.5335 147.858 24.9597 147.757Z" fill="#263238"/>
<path d="M106.02 222.729L107.971 235.198H12.0879L13.2171 225.824L106.02 222.729Z" fill="#64CF83"/>
<path d="M108.807 225.65C108.73 225.691 108.648 225.72 108.563 225.737L107.844 225.943L105.048 226.732C103.832 227.072 102.34 227.459 100.595 227.846C98.8495 228.233 96.8753 228.746 94.6642 229.164L91.2054 229.867C89.9972 230.104 88.7337 230.302 87.4308 230.531C84.8327 231.012 82.0294 231.383 79.076 231.81C73.1771 232.56 66.6544 233.184 59.7921 233.5C52.9298 233.816 46.3676 233.729 40.4292 233.5C37.4521 233.334 34.633 233.208 31.9954 232.947C30.6767 232.836 29.3974 232.75 28.1813 232.615L24.6672 232.221C22.4324 231.992 20.4187 231.668 18.6499 231.431C16.881 231.194 15.3569 230.941 14.1171 230.712L11.2664 230.199L10.532 230.057L10.2793 229.994H10.5399L11.2822 230.096L14.1487 230.538C15.3885 230.736 16.9047 230.973 18.6815 231.194C20.4582 231.415 22.464 231.723 24.6988 231.928L28.2129 232.299C29.429 232.426 30.7083 232.497 32.0191 232.607C34.6566 232.852 37.4758 232.963 40.445 233.121C46.3833 233.342 52.9219 233.389 59.7763 233.121C66.6307 232.852 73.1376 232.197 79.0286 231.462C81.9741 231.052 84.7775 230.673 87.3755 230.223C88.6785 230.002 89.942 229.812 91.1423 229.583L94.6089 228.912C96.82 228.509 98.8021 228.035 100.547 227.656C102.293 227.277 103.785 226.922 105.009 226.614L107.82 225.927L108.555 225.761C108.636 225.718 108.721 225.681 108.807 225.65Z" fill="#263238"/>
<path d="M93.8826 98.1172C93.8888 98.2814 93.8756 98.4457 93.8431 98.6068C93.7958 98.9621 93.7326 99.3965 93.6457 99.9966C93.4641 101.197 93.2193 102.942 92.9271 105.106C92.3507 109.417 91.6794 115.372 91.2846 122.037C90.8898 128.701 90.8345 134.671 90.8898 139.046C90.8898 141.226 90.9608 142.995 90.9924 144.203C90.9924 144.779 90.9924 145.245 90.9924 145.608C91.0126 145.771 91.0126 145.935 90.9924 146.098C90.9596 145.937 90.9385 145.773 90.9292 145.608C90.9292 145.245 90.8661 144.779 90.8266 144.211C90.7397 142.995 90.6607 141.234 90.5897 139.054C90.4554 134.695 90.4712 128.662 90.8661 122.013C91.2609 115.364 91.9795 109.378 92.6349 105.058C92.9587 102.903 93.2509 101.165 93.4799 99.965C93.5905 99.4044 93.6852 98.9464 93.7563 98.591C93.7771 98.4281 93.8196 98.2688 93.8826 98.1172Z" fill="#263238"/>
</svg>
