<svg width="74" height="115" viewBox="0 0 74 115" fill="none" xmlns="http://www.w3.org/2000/svg">
<path d="M59.5297 113.132L36.4468 95.2933V72.8071H37.3889V94.8327L60.1054 112.378L59.5297 113.132Z" fill="#455A64"/>
<path d="M62.042 112.755C62.04 113.196 61.9074 113.626 61.6612 113.991C61.4149 114.357 61.066 114.641 60.6583 114.808C60.2507 114.975 59.8027 115.018 59.3709 114.931C58.939 114.843 58.5427 114.63 58.2319 114.318C57.9211 114.006 57.7098 113.608 57.6246 113.176C57.5394 112.744 57.5842 112.296 57.7532 111.889C57.9223 111.482 58.2081 111.135 58.5746 110.89C58.941 110.646 59.3717 110.515 59.8123 110.515C60.106 110.515 60.3968 110.573 60.668 110.686C60.9392 110.799 61.1855 110.964 61.3927 111.172C61.5999 111.38 61.7639 111.627 61.8753 111.899C61.9868 112.171 62.0434 112.462 62.042 112.755Z" fill="#455A64"/>
<path d="M36.9178 72.8072C56.4016 72.8072 72.1964 56.8953 72.1964 37.2669C72.1964 17.6385 56.4016 1.72656 36.9178 1.72656C17.4339 1.72656 1.63916 17.6385 1.63916 37.2669C1.63916 56.8953 17.4339 72.8072 36.9178 72.8072Z" fill="white"/>
<path d="M36.9179 73.8128C29.679 73.8647 22.5877 71.7654 16.5436 67.7814C10.4994 63.7974 5.7746 58.1081 2.9684 51.4351C0.1622 44.762 -0.59897 37.4059 0.781444 30.2997C2.16186 23.1934 5.62165 16.6572 10.722 11.5201C15.8224 6.38289 22.3336 2.87621 29.4297 1.44476C36.5259 0.01331 43.8873 0.721582 50.5803 3.47975C57.2734 6.23792 62.9965 10.9217 67.0238 16.9371C71.0512 22.9525 73.2013 30.0284 73.2015 37.2675C73.2237 46.9215 69.4165 56.1902 62.6147 63.0411C55.8129 69.892 46.5717 73.7657 36.9179 73.8128ZM36.9179 2.72169C30.0744 2.66985 23.3698 4.65177 17.6545 8.41606C11.9391 12.1803 7.47056 17.5574 4.81569 23.8651C2.16083 30.1727 1.43926 37.1268 2.74252 43.8452C4.04577 50.5636 7.31513 56.7435 12.1359 61.6011C16.9566 66.4586 23.1115 69.7749 29.8198 71.1292C36.528 72.4835 43.4874 71.8148 49.8151 69.208C56.1428 66.6012 61.5536 62.1736 65.3613 56.4871C69.1689 50.8005 71.2018 44.1111 71.202 37.2675C71.2243 28.1439 67.6277 19.3837 61.2009 12.9078C54.774 6.43187 46.0414 2.76878 36.9179 2.72169Z" fill="#64CF83"/>
</svg>
