<svg width="146" height="131" viewBox="0 0 146 131" fill="none" xmlns="http://www.w3.org/2000/svg">
<path d="M143.752 5.40969C144.977 5.40969 145.971 4.4067 145.971 3.16944C145.971 1.93219 144.977 0.929199 143.752 0.929199C142.526 0.929199 141.532 1.93219 141.532 3.16944C141.532 4.4067 142.526 5.40969 143.752 5.40969Z" fill="#455A64"/>
<path d="M66.4321 70.7221L65.7202 70.1045L123.684 2.69824H143.752V3.65087H124.124L66.4321 70.7221Z" fill="#455A64"/>
<path d="M38.4705 128.079C57.9543 128.079 73.7491 112.167 73.7491 92.5384C73.7491 72.91 57.9543 56.998 38.4705 56.998C18.9867 56.998 3.19189 72.91 3.19189 92.5384C3.19189 112.167 18.9867 128.079 38.4705 128.079Z" fill="white"/>
<path d="M38.7866 130.999C31.1596 131.056 23.6876 128.846 17.3185 124.65C10.9494 120.453 5.97016 114.46 3.01251 107.429C0.0548605 100.399 -0.747939 92.6485 0.705953 85.1612C2.15984 77.6738 5.80491 70.787 11.1787 65.3744C16.5526 59.9618 23.413 56.2673 30.8897 54.7597C38.3664 53.252 46.1224 53.9991 53.1739 56.9061C60.2254 59.8132 66.2545 64.7492 70.4964 71.088C74.7383 77.4268 77.0018 84.8828 76.9999 92.51C77.0263 102.678 73.0175 112.442 65.8533 119.658C58.6891 126.873 48.9548 130.952 38.7866 130.999ZM38.7866 56.1268C31.5788 56.07 24.5165 58.1555 18.4957 62.1186C12.475 66.0818 7.76708 71.744 4.96932 78.387C2.17156 85.0299 1.41003 92.3542 2.78134 99.4306C4.15265 106.507 7.595 113.017 12.6717 118.134C17.7483 123.251 24.2305 126.744 31.2959 128.172C38.3612 129.599 45.6913 128.895 52.3561 126.15C59.021 123.405 64.7203 118.742 68.7309 112.753C72.7416 106.764 74.8828 99.718 74.883 92.51C74.9007 82.9078 71.1114 73.6902 64.3455 66.8767C57.5795 60.0632 48.3886 56.2095 38.7866 56.1599V56.1268Z" fill="#64CF83"/>
</svg>
