<svg width="36" height="95" viewBox="0 0 36 95" fill="none" xmlns="http://www.w3.org/2000/svg">
<path d="M1.65381 48.9612L2.92048 49.694L34.598 31.4056L33.3313 30.6729L1.65381 48.9612Z" fill="#F0F0F0"/>
<path d="M33.3312 30.6725L2.92041 48.2385V21.8686L33.3312 4.31299V30.6725Z" fill="#FAFAFA"/>
<path d="M35.8332 1.39258L1.65381 21.1465V51.8923L35.8332 32.1384V1.39258ZM34.598 31.4056L2.92048 49.6939V21.8793L34.598 3.58048V31.4056Z" fill="#EBEBEB"/>
<path d="M34.5977 31.4052L33.3311 30.6724V4.31287L34.5977 3.58008V31.4052Z" fill="#E0E0E0"/>
<path d="M35.8642 1.39246L34.5976 0.659668L0.386719 20.4136L1.65341 21.1464L35.8642 1.39246Z" fill="#F5F5F5"/>
<path d="M0.387207 20.4136L1.65389 21.1464V51.8921L0.387207 51.1594V20.4136Z" fill="#E0E0E0"/>
<path d="M27.3642 26.2444C28.5471 25.564 29.4579 26.1188 29.4579 27.4797C29.4234 28.2182 29.216 28.9382 28.8523 29.5819C28.4887 30.2256 27.979 30.7749 27.3642 31.1855C26.1813 31.866 25.2705 31.3111 25.2705 29.9502C25.3042 29.2116 25.5112 28.4912 25.8749 27.8474C26.2387 27.2036 26.7489 26.6544 27.3642 26.2444Z" fill="#E0E0E0"/>
<path d="M10.0805 20.6753L26.1809 11.3688C26.6311 11.1071 26.9975 11.3688 26.9975 11.8399C26.9832 12.1219 26.9016 12.3964 26.7596 12.6405C26.6175 12.8845 26.4191 13.091 26.1809 13.2427L10.0805 22.5596C9.63033 22.8213 9.27441 22.5596 9.27441 22.0885C9.28759 21.806 9.3675 21.5307 9.50761 21.285C9.64772 21.0394 9.84403 20.8304 10.0805 20.6753Z" fill="#E0E0E0"/>
<path d="M7.56828 28.0031L28.7564 15.7655C29.2065 15.5038 29.5729 15.619 29.5729 16.0272C29.5391 16.2773 29.4478 16.5162 29.3061 16.7251C29.1644 16.934 28.9763 17.1072 28.7564 17.2311L7.56828 29.4792C7.11814 29.7304 6.76221 29.6153 6.76221 29.207C6.79788 28.9588 6.88883 28.7218 7.02834 28.5134C7.16786 28.305 7.35238 28.1307 7.56828 28.0031Z" fill="#F0F0F0"/>
<path d="M7.56828 30.9243L28.7564 18.6868C29.2065 18.425 29.5729 18.5507 29.5729 18.9485C29.5391 19.1986 29.4478 19.4375 29.3061 19.6463C29.1644 19.8552 28.9763 20.0284 28.7564 20.1523L7.56828 32.4004C7.11814 32.6621 6.76221 32.5365 6.76221 32.1282C6.79788 31.88 6.88883 31.643 7.02834 31.4346C7.16786 31.2263 7.35238 31.0519 7.56828 30.9243Z" fill="#F0F0F0"/>
<path d="M7.56828 33.8445L28.7564 21.6069C29.2065 21.3557 29.5729 21.4708 29.5729 21.8791C29.5391 22.1279 29.4477 22.3653 29.306 22.5725C29.1642 22.7797 28.976 22.9509 28.7564 23.0725L7.56828 35.2787C7.11814 35.5404 6.76221 35.4148 6.76221 35.0065C6.80504 34.7662 6.89923 34.538 7.03834 34.3375C7.17746 34.137 7.35822 33.9688 7.56828 33.8445Z" fill="#F0F0F0"/>
<path d="M23.564 32.5046C23.3991 32.591 23.2163 32.6376 23.0301 32.6407C22.58 32.6407 22.6219 32.1801 22.6323 31.866C22.6323 31.7195 22.4439 31.4996 22.3392 31.6881C22.0566 32.1801 21.7111 32.6407 21.418 33.1223C21.24 33.4154 20.8946 34.0853 20.4549 33.9911C20.2769 33.9911 20.2141 33.7608 20.2141 33.5201C20.4369 33.1143 20.5353 32.6519 20.4968 32.1906C20.4968 32.0545 20.2455 31.887 20.1827 32.0754C20.0254 32.4629 19.9301 32.8727 19.9001 33.2897C19.7042 33.6579 19.4765 34.0082 19.2196 34.3366C19.0731 34.5355 18.937 34.7553 18.78 34.9438C18.6229 35.1322 18.6648 35.0903 18.602 35.1008C18.5392 35.1113 18.4659 35.038 18.445 34.9438C18.4436 34.7941 18.4685 34.6453 18.5183 34.5041C18.5183 34.3575 18.3403 34.1377 18.267 34.3261C17.9626 35.0628 17.5302 35.7397 16.9899 36.3256L16.9061 36.3884V36.1372C16.8983 35.9413 16.8631 35.7475 16.8014 35.5614C16.8014 35.4672 16.613 35.3206 16.5188 35.4463C16.133 36.1441 15.6618 36.7911 15.116 37.3724C15.0223 37.4526 14.9206 37.5227 14.8124 37.5818C14.7182 37.5818 14.8648 37.0165 14.8857 36.9328C14.9066 36.849 15.0218 36.4826 15.0951 36.2523C15.1701 36.0728 15.2296 35.8872 15.273 35.6975C15.273 35.5195 14.9904 35.2473 14.938 35.4881C14.8857 35.7289 14.8334 35.8126 14.7496 36.0953C14.401 36.7966 14.0022 37.4719 13.5562 38.1157C13.1498 38.7786 12.5803 39.3264 11.9022 39.7069C11.7138 39.8116 11.3578 39.9581 11.1485 39.8116C10.9391 39.665 10.9705 39.4033 10.96 39.2149C10.9533 38.7158 11.0203 38.2184 11.1589 37.7388C11.8268 37.3931 12.4434 36.9563 12.9909 36.4407C13.5419 36.0137 14.0133 35.4928 14.3832 34.9019C14.5716 34.5669 14.6868 34.0121 14.2262 33.855C13.7656 33.698 13.5039 33.9388 13.2422 34.0958C12.8537 34.3002 12.5003 34.5652 12.1953 34.881C11.6032 35.5445 11.1732 36.3365 10.9391 37.1945C10.9391 37.3201 10.8449 37.4981 10.7925 37.697C10.0715 38.0593 9.25751 38.1943 8.45809 38.0843C8.45809 38.0843 8.39528 38.1785 8.45809 38.189C9.22333 38.3517 10.0201 38.275 10.7402 37.9691C10.5413 38.8485 10.4262 40.0628 11.2532 40.2513C12.0802 40.4397 13.0747 39.4452 13.5143 38.859C13.8546 38.4094 14.1525 37.9293 14.4042 37.4248C14.4224 37.386 14.4472 37.3506 14.4774 37.3201C14.4774 37.7284 14.5612 38.0319 14.959 37.9587C15.3568 37.8854 15.7441 37.3096 16.0058 37.006C16.2675 36.7025 16.4141 36.3989 16.613 36.0848C16.613 36.4617 16.7072 36.8804 17.0631 36.8071C17.4191 36.7339 17.7122 36.1267 17.8797 35.8755C18.0472 35.6242 18.1623 35.4358 18.2775 35.2055C18.2955 35.2532 18.3241 35.2961 18.3612 35.3311C18.6543 35.6452 18.9998 35.3311 19.1882 35.0589C19.3767 34.7867 19.764 34.3261 20.0152 33.9283C20.0768 34.1027 20.2047 34.2456 20.3712 34.3261C20.8213 34.5355 21.24 34.1691 21.5017 33.8341C21.8255 33.4016 22.1126 32.9429 22.3602 32.4627C22.3758 32.5537 22.4122 32.6398 22.4667 32.7143C22.5212 32.7887 22.5922 32.8496 22.6742 32.892C22.8388 32.9745 23.0223 33.0121 23.2061 33.0011C23.3899 32.9901 23.5675 32.9308 23.7211 32.8291C23.8467 32.7349 23.7106 32.4209 23.564 32.5046ZM13.64 34.2319C13.8493 34.1272 14.289 33.9388 14.3099 34.2947C14.2827 34.5282 14.184 34.7476 14.0273 34.9228C13.6773 35.4383 13.266 35.9093 12.8025 36.3256C12.3301 36.767 11.8146 37.1598 11.2636 37.4981C11.4086 36.8175 11.695 36.1749 12.1044 35.6122C12.5138 35.0496 13.037 34.5793 13.64 34.2319Z" fill="#E0E0E0"/>
<path d="M1.6543 91.9339L2.92097 92.6667L34.5984 74.3783L33.3318 73.6455L1.6543 91.9339Z" fill="#F0F0F0"/>
<path d="M33.3317 73.6452L2.9209 91.2007V64.8412L33.3317 47.2856V73.6452Z" fill="#FAFAFA"/>
<path d="M35.8334 44.355L1.62256 64.1089V94.8547L35.8334 75.0589V44.355ZM34.5667 74.3784L2.88923 92.6668V64.8417L34.5667 46.5533V74.3784Z" fill="#EBEBEB"/>
<path d="M34.5982 74.3778L33.3315 73.645V47.2855L34.5982 46.5527V74.3778Z" fill="#E0E0E0"/>
<path d="M35.8647 44.3549L34.598 43.6221L0.387207 63.376L1.65389 64.1088L35.8647 44.3549Z" fill="#F5F5F5"/>
<path d="M0.387695 63.3755L1.65438 64.1083V94.8541L0.387695 94.1317V63.3755Z" fill="#E0E0E0"/>
<path d="M27.3647 69.2068C28.5476 68.5264 29.4584 69.0812 29.4584 70.4421C29.4247 71.1808 29.2177 71.9011 28.8539 72.5449C28.4902 73.1887 27.98 73.7379 27.3647 74.1479C26.1817 74.8284 25.271 74.284 25.271 72.9126C25.3071 72.1745 25.5152 71.455 25.8787 70.8116C26.2422 70.1682 26.7511 69.6187 27.3647 69.2068Z" fill="#E0E0E0"/>
<path d="M10.081 63.6372L26.1814 54.3412C26.6316 54.0795 26.998 54.3412 26.998 54.8018C26.9812 55.0833 26.8985 55.3568 26.7567 55.6004C26.6149 55.8441 26.4178 56.051 26.1814 56.2046L10.081 65.511C9.63082 65.7727 9.2749 65.511 9.2749 65.0504C9.28808 64.7679 9.36799 64.4926 9.5081 64.2469C9.64821 64.0013 9.84452 63.7923 10.081 63.6372Z" fill="#E0E0E0"/>
<path d="M7.56877 70.9651L28.7569 58.7275C29.207 58.4763 29.5734 58.5915 29.5734 58.9997C29.5396 59.2485 29.4482 59.4859 29.3065 59.6931C29.1647 59.9003 28.9765 60.0715 28.7569 60.1931L7.56877 72.4412C7.11863 72.7029 6.7627 72.5773 6.7627 72.169C6.7998 71.9213 6.89133 71.6848 7.0307 71.4767C7.17007 71.2685 7.35384 71.0938 7.56877 70.9651Z" fill="#F0F0F0"/>
<path d="M7.56877 73.8972L28.7569 61.6596C29.207 61.3979 29.5734 61.513 29.5734 61.9213C29.5396 62.17 29.4482 62.4075 29.3065 62.6147C29.1647 62.8219 28.9765 62.9931 28.7569 63.1147L7.56877 75.3627C7.11863 75.6245 6.7627 75.5093 6.7627 75.101C6.79689 74.8524 6.88726 74.6147 7.02691 74.4061C7.16657 74.1976 7.35187 74.0235 7.56877 73.8972Z" fill="#F0F0F0"/>
<path d="M7.56877 76.8174L28.7255 64.5902C29.1756 64.3285 29.542 64.4437 29.542 64.8519C29.5082 65.1021 29.4169 65.3409 29.2752 65.5498C29.1335 65.7587 28.9454 65.9319 28.7255 66.0558L7.56877 78.2934C7.11863 78.5446 6.7627 78.4295 6.7627 78.0212C6.79837 77.773 6.88932 77.536 7.02883 77.3276C7.16834 77.1193 7.35286 76.9449 7.56877 76.8174Z" fill="#F0F0F0"/>
<path d="M23.5644 75.467C23.3995 75.5534 23.2166 75.6 23.0305 75.6031C22.5803 75.6031 22.6222 75.1425 22.6327 74.8284C22.6327 74.6819 22.4442 74.4621 22.3396 74.6505C22.0569 75.153 21.7115 75.6136 21.4183 76.0951C21.2404 76.3882 20.8949 77.0582 20.4552 76.9535C20.2773 76.9535 20.2145 76.7232 20.2145 76.4825C20.4382 76.0808 20.5367 75.6215 20.4971 75.1634C20.4971 75.0273 20.2459 74.8599 20.1831 75.0378C20.0247 75.4286 19.9293 75.842 19.9004 76.2626C19.7019 76.6292 19.4744 76.9793 19.22 77.3095C19.0734 77.5084 18.9373 77.7177 18.7803 77.9062C18.6233 78.0946 18.6651 78.0632 18.6023 78.0737C18.5395 78.0841 18.4662 78.0108 18.4453 77.9062C18.4441 77.7599 18.4689 77.6146 18.5186 77.477C18.5186 77.3304 18.3406 77.121 18.2673 77.299C17.9873 78.0689 17.5647 78.7792 17.0216 79.3927L16.9378 79.4555V79.2042C16.9284 79.0086 16.8932 78.815 16.8332 78.6285C16.8332 78.5343 16.6447 78.3982 16.5505 78.5238C16.1637 79.2274 15.6926 79.8812 15.1478 80.4709C15.0514 80.5476 14.95 80.6175 14.8442 80.6803C14.7499 80.6175 14.8965 80.1045 14.9174 80.0313C14.9384 79.958 15.0535 79.5706 15.1268 79.3508C15.2033 79.1682 15.2629 78.979 15.3048 78.7855C15.3048 78.618 15.0221 78.3458 14.9698 78.5761C14.9175 78.8064 14.8651 78.9111 14.7814 79.1938C14.4351 79.893 14.0361 80.5649 13.588 81.2037C13.1822 81.8699 12.6128 82.4212 11.9339 82.8054C11.7455 82.8996 11.3896 83.0566 11.1802 82.8996C10.9708 82.7426 11.0023 82.4913 10.9918 82.3029C10.9843 81.8072 11.0514 81.3131 11.1907 80.8373C11.8541 80.4844 12.4698 80.0482 13.0227 79.5392C13.5689 79.107 14.0394 78.587 14.415 78.0004C14.6034 77.6549 14.7185 77.1001 14.2579 76.9535C13.7973 76.807 13.5356 77.0373 13.2739 77.1838C12.8877 77.3917 12.5348 77.6564 12.2271 77.969C11.635 78.6326 11.2049 79.4245 10.9708 80.2825C10.9708 80.4186 10.8766 80.5861 10.8243 80.785C10.1065 81.1572 9.28936 81.2928 8.48983 81.1723C8.48983 81.1723 8.42702 81.2665 8.48983 81.277C9.25507 81.4397 10.0518 81.363 10.7719 81.0572C10.573 81.947 10.4579 83.1508 11.2849 83.3497C12.1119 83.5486 13.1064 82.5437 13.5461 81.947C13.8863 81.4974 14.1842 81.0173 14.4359 80.5128L14.5092 80.4081C14.5092 80.8269 14.5929 81.12 14.9907 81.0572C15.3885 80.9944 15.7759 80.4081 16.0376 80.0941C16.2993 79.78 16.4458 79.4869 16.6447 79.1833C16.6447 79.5497 16.739 79.9684 17.0949 79.9056C17.4508 79.8428 17.7439 79.2147 17.9114 78.9635C18.0562 78.7512 18.189 78.531 18.3092 78.304C18.3272 78.3486 18.356 78.3882 18.393 78.4191C18.6861 78.7436 19.0315 78.4191 19.22 78.1574C19.4084 77.8957 19.7957 77.4246 20.047 77.0268C20.1114 77.1994 20.2385 77.3415 20.4029 77.4246C20.853 77.634 21.2718 77.2571 21.5335 76.9221C21.8595 76.4912 22.1468 76.0323 22.3919 75.5508C22.4068 75.6433 22.4428 75.7312 22.4973 75.8075C22.5518 75.8837 22.6232 75.9464 22.706 75.9904C22.8715 76.0714 23.0554 76.1073 23.2392 76.0945C23.423 76.0816 23.6002 76.0204 23.7528 75.9172C23.847 75.6973 23.7109 75.3937 23.5644 75.467ZM13.6403 77.2362C13.8497 77.1315 14.2893 76.9535 14.3103 77.3095C14.2873 77.541 14.1879 77.7584 14.0276 77.9271C13.6724 78.4132 13.2613 78.8559 12.8028 79.2461C12.328 79.6877 11.8128 80.0837 11.264 80.4291C11.4194 79.7621 11.7106 79.1344 12.1195 78.5851C12.5284 78.0357 13.0461 77.5765 13.6403 77.2362Z" fill="#E0E0E0"/>
</svg>
