<svg width="142" height="328" viewBox="0 0 142 328" fill="none" xmlns="http://www.w3.org/2000/svg">
<path d="M60.1937 327.449C93.0266 327.449 119.643 312.081 119.643 293.124C119.643 274.168 93.0266 258.8 60.1937 258.8C27.3609 258.8 0.744629 274.168 0.744629 293.124C0.744629 312.081 27.3609 327.449 60.1937 327.449Z" fill="#E6E6E6"/>
<path d="M88.5846 90.8649C82.8282 84.9312 73.2652 71.0952 73.2652 71.0952L67.3688 50.7004C67.2288 50.7564 70.373 50.7657 71.3246 50.7004C77.6968 51.1296 79.5721 51.6334 83.5372 56.009C86.6814 59.4517 98.3156 77.5421 102.495 83.0653L113.934 67.2607C116.583 63.2489 116.154 58.7613 117.535 55.4772C118.916 52.1932 121.136 50.7564 122.918 47.7989C124.7 44.8413 125.129 42.9008 126.594 44.4122C128.059 45.9236 126.37 50.01 126.146 50.943C125.922 51.876 123.702 54.6749 127.424 53.2008C131.147 51.7267 136.913 44.9346 138.405 43.5445C139.898 42.1544 140.673 44.3095 140.337 46.0169C140.001 47.7242 141.606 51.6147 141.018 54.4137C140.402 57.4085 139.963 58.78 137.081 61.6815C134.384 64.3965 127.807 67.7179 125.232 71.2725C122.657 74.8271 117.162 85.8735 113.803 92.535C109.53 100.997 104.846 105.811 99.3231 101.081C95.0874 97.3958 90.7211 93.0668 88.5846 90.8649Z" fill="#FFBDA7"/>
<path d="M73.8623 50.542C78.7418 50.9898 81.3261 52.1001 86.1962 58.4816C91.0663 64.8631 102.374 81.666 102.374 81.666L112.142 69.7146C112.142 69.7146 118.869 74.8366 122.405 80.8263C122.405 80.8263 112.954 96.6869 109.166 100.689C105.378 104.692 102.449 105.009 97.2986 100.689C92.1486 96.3697 77.2956 79.9867 77.2956 79.9867L73.8623 50.542Z" fill="#F0F0F0"/>
<path d="M102.374 81.6653C100.163 84.8654 98.7354 90.0621 99.1272 92.6837C99.1272 92.6837 96.0484 89.1384 101.226 79.9673L102.374 81.6653Z" fill="#E0E0E0"/>
<path d="M30.8149 288.515H41.908L44.1192 268.876H30.8149V288.515Z" fill="#FFBDA7"/>
<path d="M67.462 268.317L79.2828 268.708L79.0682 248.379L65.6987 248.118L67.462 268.317Z" fill="#FFBDA7"/>
<path d="M30.936 130.656C30.7214 141.423 28.4356 212.674 28.4356 212.674C27.6455 218.497 27.1752 224.358 27.0268 230.233C26.7283 244.47 29.7138 278.262 29.7138 278.262C30.3762 281.332 41.8425 282.582 43.3632 279.811C43.3632 279.811 49.6328 230.792 51.4148 216.704C52.9635 204.408 58.0856 164.197 58.0856 164.197L62.0414 203.708C61.8901 208.313 61.9991 212.923 62.3679 217.516C62.8251 224.047 66.0998 262.476 66.0998 262.476C66.1558 264.874 78.0792 266.852 80.0944 263.325C80.0944 263.325 83.8263 207.197 83.9849 201.217C84.1156 194.397 83.1639 129.882 83.1639 129.882L30.936 130.656Z" fill="#37474F"/>
<path d="M42.5422 282.871L42.7288 281.201C43.3446 281.201 43.6152 281.891 43.8671 283.365C44.3887 286.509 45.3793 289.556 46.8059 292.406C48.6719 296.278 49.7914 297.892 53.5047 302.557C54.3817 303.667 56.3689 305.43 57.0686 306.662C57.7684 307.893 58.0016 311.327 56.8261 312.12C52.4971 315.003 45.9196 315.086 41.2641 313.724C39.4994 313.296 37.9075 312.339 36.7006 310.982C35.4938 309.625 34.7293 307.932 34.5093 306.13C33.7536 301.894 33.3524 299.273 31.1973 296.072C30.4042 294.897 29.126 293.945 28.5943 292.639C27.6613 290.279 28.3983 287.629 29.0141 285.278C29.5459 283.253 30.1243 281.024 30.8147 281.21V282.46C31.6451 283.393 34.5466 284.326 37.159 284.401C38.8383 284.466 42.5609 284.158 42.5422 282.871Z" fill="#263238"/>
<path d="M79.2455 265.499C79.5348 265.695 80.1785 266.432 81.4007 267.57C82.6181 268.628 83.8952 269.616 85.2259 270.527C87.9318 272.509 90.7752 274.295 93.7346 275.873C97.2519 277.805 100.424 278.98 104.632 280.874C105.073 281.052 105.474 281.319 105.807 281.658C106.062 281.959 106.238 282.318 106.32 282.703C106.443 283.497 106.344 284.31 106.032 285.051C105.721 285.792 105.21 286.433 104.557 286.901C103.238 287.823 101.742 288.458 100.163 288.767C96.5933 289.769 92.8326 289.881 89.2097 289.094C86.0792 288.207 83.1073 286.834 80.4024 285.026C78.149 283.428 75.5832 282.325 72.8733 281.788C70.5129 281.453 67.6114 281.565 65.5588 280.156C63.2917 278.588 64.1967 275.239 64.8404 272.356C65.5401 269.221 65.6988 264.426 67.1262 264.528L67.2382 265.788C67.3688 267.141 70.6529 267.766 73.1905 267.766C75.2991 267.766 79.2828 267.215 79.2642 266.226L79.2455 265.499Z" fill="#263238"/>
<path d="M59.2987 149.12C63.8235 147.368 67.9485 144.721 71.4274 141.339C71.4274 141.339 69.4961 146.937 61.5752 151.602L62.0976 200.769L58.1045 164.178L59.2987 149.12Z" fill="#263238"/>
<path d="M48.812 49.3382C46.8061 49.814 40.4152 51.54 35.2279 53.3686C32.6122 54.3673 30.3433 56.1046 28.6971 58.3693C24.9652 63.8646 28.3239 76.0959 31.0948 99.0843C30.8896 113.937 30.4604 132.41 30.4604 132.41C37.2897 137.383 69.1508 140.76 83.528 130.264C83.528 130.264 84.0038 74.5191 83.0522 67.2699C81.1862 53.3873 75.8029 49.6834 64.5886 49.0303L48.812 49.3382Z" fill="#64CF83"/>
<path opacity="0.6" d="M48.812 49.3382C46.8061 49.814 40.4152 51.54 35.2279 53.3686C32.6122 54.3673 30.3433 56.1046 28.6971 58.3693C24.9652 63.8646 28.3239 76.0959 31.0948 99.0843C30.8896 113.937 30.4604 132.41 30.4604 132.41C37.2897 137.383 69.1508 140.76 83.528 130.264C83.528 130.264 84.0038 74.5191 83.0522 67.2699C81.1862 53.3873 75.8029 49.6834 64.5886 49.0303L48.812 49.3382Z" fill="white"/>
<path d="M68.3951 65.6282C69.4027 69.0989 75.3645 93.4868 74.5248 102.07C73.8849 106.475 72.6938 110.782 70.9795 114.889C68.3952 121 66.6691 115.533 65.2324 111.922C64.0169 108.556 63.2027 105.058 62.8066 101.501C62.3308 96.8922 64.1874 82.8882 63.469 66.4679C64.0113 65.7038 64.8347 65.1862 65.7584 65.0288C66.682 64.8714 67.6303 65.087 68.3951 65.6282Z" fill="#64CF83"/>
<path opacity="0.2" d="M68.3951 65.6282C69.4027 69.0989 75.3645 93.4868 74.5248 102.07C73.8849 106.475 72.6938 110.782 70.9795 114.889C68.3952 121 66.6691 115.533 65.2324 111.922C64.0169 108.556 63.2027 105.058 62.8066 101.501C62.3308 96.8922 64.1874 82.8882 63.469 66.4679C64.0113 65.7038 64.8347 65.1862 65.7584 65.0288C66.682 64.8714 67.6303 65.087 68.3951 65.6282Z" fill="black"/>
<path d="M68.6189 57.7912C70.9793 59.8064 68.3949 65.6188 68.3949 65.6188C66.706 65.2548 64.9418 65.5555 63.4688 66.4585C63.4688 66.4585 58.804 64.4526 58.7573 60.9633C58.7573 57.7912 62.1254 58.8081 64.5231 58.3883C67.0328 57.9498 68.339 56.0932 68.6189 57.7912Z" fill="#64CF83"/>
<path opacity="0.2" d="M68.6189 57.7912C70.9793 59.8064 68.3949 65.6188 68.3949 65.6188C66.706 65.2548 64.9418 65.5555 63.4688 66.4585C63.4688 66.4585 58.804 64.4526 58.7573 60.9633C58.7573 57.7912 62.1254 58.8081 64.5231 58.3883C67.0328 57.9498 68.339 56.0932 68.6189 57.7912Z" fill="black"/>
<path opacity="0.2" d="M68.395 65.6275C68.0125 64.2654 66.1559 64.396 64.6631 63.9295C63.8261 63.5977 63.1258 62.9928 62.6759 62.2129C61.9108 60.8974 62.6759 58.7142 63.7395 58.481C61.4537 58.6396 58.7387 58.1171 58.7481 60.9627C58.7481 64.452 63.4596 66.4579 63.4596 66.4579C64.9364 65.5557 66.7043 65.2583 68.395 65.6275Z" fill="black"/>
<path d="M52.1705 17.1132C52.2524 19.98 53.1816 22.7584 54.8409 25.0976C56.5002 27.4369 58.8152 29.2323 61.4938 30.2572C64.1724 31.2821 67.0946 31.4906 69.8916 30.8565C72.6886 30.2223 75.2351 28.7738 77.2098 26.6939C79.1844 24.6139 80.4988 21.9957 80.9869 19.1695C81.475 16.3434 81.1151 13.4359 79.9525 10.8141C78.79 8.19233 76.8769 5.97362 74.4546 4.43798C72.0324 2.90233 69.2096 2.11858 66.3423 2.18561C64.4301 2.23031 62.5456 2.65246 60.797 3.4278C59.0485 4.20314 57.4704 5.31638 56.1535 6.70355C54.8365 8.09071 53.8067 9.72446 53.1231 11.5109C52.4396 13.2973 52.1159 15.2012 52.1705 17.1132Z" fill="#455A64"/>
<path d="M41.8428 27.6558C41.8428 27.6558 44.4644 38.6462 45.444 40.4375C46.0936 41.541 47.1424 42.3527 48.3736 42.7046L48.0284 34.933L41.8428 27.6558Z" fill="#455A64"/>
<path d="M44.4173 11.7487C43.5968 11.677 42.7707 11.7926 42.0014 12.0867C41.2321 12.3809 40.5397 12.8459 39.9763 13.4467C38.1104 15.4712 39.3139 21.6382 41.8423 27.6559L46.2832 28.057L44.4173 11.7487Z" fill="#455A64"/>
<path d="M47.6175 28.0292C46.7405 28.5796 45.4344 26.9003 44.3055 25.7807C43.1766 24.6611 39.5753 23.187 37.8773 26.9843C36.1793 30.7815 39.6686 35.8382 42.5422 36.6592C47.4309 38.068 48.084 34.9332 48.084 34.9332L48.9144 54.7496C52.3757 58.9759 60.5206 59.2092 64.5604 58.3882C67.7884 57.7351 67.8351 55.4493 64.6537 51.9413L64.5044 46.2595C66.6683 46.5556 68.8579 46.6181 71.0352 46.4461C74.5898 45.8023 76.7823 42.9381 77.7619 39.0476C79.2547 33.1046 79.6279 26.4711 78.1258 15.6113C76.2599 2.26044 60.6325 2.54966 52.357 7.9889C44.0816 13.4281 47.6175 28.0292 47.6175 28.0292Z" fill="#FFBDA7"/>
<path d="M47.6551 29.5217C47.2073 29.5217 45.4346 26.7227 44.3057 25.7898C42.7476 24.4369 44.4177 11.7951 44.4177 11.7951C43.8685 10.6934 43.6637 9.45177 43.8301 8.232C43.9965 7.01223 44.5264 5.87084 45.3506 4.95645C47.3938 2.59602 50.2487 -0.2962 59.8024 0.599456C66.6131 1.24321 74.0582 3.18379 79.9546 0.10498C80.5553 2.03957 80.5644 4.10945 79.981 6.04928C79.3975 7.98911 78.2481 9.71051 76.6799 10.9928C76.6799 10.9928 74.5434 12.4389 68.8802 13.2599C63.2171 14.0809 54.3352 13.4745 53.1223 13.3439C51.4709 13.1573 51.1537 14.762 50.37 19.147C49.6423 22.9535 49.1572 29.4563 47.6551 29.5217Z" fill="#455A64"/>
<path d="M44.4549 12.7374L39.0063 9.93845C39.1692 9.57196 39.405 9.24243 39.6992 8.9699C39.9935 8.69736 40.34 8.48752 40.7179 8.35312C41.0958 8.21873 41.497 8.16259 41.8973 8.18813C42.2975 8.21367 42.6884 8.32035 43.0461 8.50168C43.7847 8.88684 44.3446 9.54408 44.6075 10.3345C44.8704 11.1249 44.8157 11.9866 44.4549 12.7374Z" fill="#455A64"/>
<path d="M64.4672 46.2593C64.4672 46.2593 56.4623 44.8505 53.6447 43.4604C51.985 42.6434 50.6122 41.3421 49.7075 39.7285C50.1672 41.3477 50.9477 42.8579 52.0027 44.1695C54.1018 46.7258 64.5232 48.5544 64.5232 48.5544L64.4672 46.2593Z" fill="#F0997A"/>
<path d="M61.7896 26.079C61.76 26.39 61.6397 26.6854 61.4438 26.9287C61.2479 27.172 60.9848 27.3523 60.6873 27.4475C60.3898 27.5426 60.0709 27.5483 59.7701 27.4639C59.4694 27.3795 59.2 27.2086 58.9955 26.9725C58.791 26.7364 58.6603 26.4455 58.6196 26.1358C58.5789 25.8261 58.63 25.5113 58.7665 25.2303C58.9031 24.9494 59.1192 24.7148 59.3879 24.5555C59.6566 24.3962 59.9661 24.3193 60.2781 24.3344C60.7099 24.3654 61.1116 24.5667 61.395 24.8938C61.6784 25.221 61.8204 25.6473 61.7896 26.079Z" fill="#263238"/>
<path d="M60.7539 20.0705L57.246 21.7779C57.0248 21.2976 56.9984 20.7502 57.1724 20.2509C57.3463 19.7515 57.7072 19.3391 58.1789 19.1002C58.4098 18.9833 58.6625 18.9157 58.9209 18.9017C59.1793 18.8876 59.4378 18.9275 59.6799 19.0188C59.9221 19.11 60.1426 19.2506 60.3275 19.4317C60.5124 19.6128 60.6576 19.8303 60.7539 20.0705Z" fill="#263238"/>
<path d="M62.7036 36.8271L67.6857 38.1893C67.6073 38.5185 67.4639 38.8287 67.2638 39.1017C67.0637 39.3747 66.8111 39.6049 66.5207 39.7787C66.2304 39.9526 65.9082 40.0666 65.5731 40.1141C65.238 40.1616 64.8968 40.1416 64.5696 40.0552C63.9052 39.8571 63.3418 39.4124 62.9948 38.8122C62.6479 38.2119 62.5437 37.5017 62.7036 36.8271Z" fill="#F0997A"/>
<path d="M77.2954 21.554L73.5635 20.2758C73.6278 20.0253 73.7434 19.7908 73.9031 19.5874C74.0628 19.3839 74.2631 19.2159 74.4912 19.0939C74.7193 18.972 74.9702 18.8988 75.2281 18.879C75.486 18.8592 75.7452 18.8933 75.9892 18.979C76.5007 19.1517 76.924 19.5182 77.1682 19.9997C77.4125 20.4811 77.4581 21.0392 77.2954 21.554Z" fill="#263238"/>
<path d="M75.4298 25.6312C75.4531 25.8432 75.4344 26.0577 75.3749 26.2624C75.3153 26.4672 75.2159 26.6582 75.0825 26.8246C74.9491 26.9909 74.7842 27.1293 74.5973 27.2319C74.4103 27.3345 74.205 27.3993 73.993 27.4226C73.5618 27.4509 73.1369 27.3081 72.8103 27.0251C72.4837 26.7422 72.2818 26.3419 72.2483 25.9111C72.23 25.7022 72.2529 25.4918 72.3159 25.2917C72.3788 25.0917 72.4806 24.906 72.6153 24.7453C72.75 24.5846 72.9151 24.452 73.101 24.3551C73.287 24.2582 73.4902 24.1988 73.6991 24.1805C73.908 24.1621 74.1185 24.185 74.3185 24.248C74.5185 24.311 74.7042 24.4127 74.8649 24.5474C75.0256 24.6821 75.1582 24.8472 75.2551 25.0331C75.352 25.2191 75.4114 25.4223 75.4298 25.6312Z" fill="#263238"/>
<path d="M66.8179 24.7261L67.3963 34.3264L72.3971 32.591L66.8179 24.7261Z" fill="#F0997A"/>
<path d="M64.5227 58.3877C60.0911 57.4547 49.5951 53.3589 48.6062 48.2369L48.4755 45.438C46.7495 45.438 45.9659 47.3506 45.1169 50.1029C44.7623 57.3427 52.4034 63.9575 60.0444 65.7395C60.3009 64.0608 60.874 62.4461 61.7331 60.9813C62.3846 59.8588 63.3558 58.9558 64.5227 58.3877Z" fill="#64CF83"/>
<path d="M64.4858 46.9678C65.6557 47.3265 66.7194 47.9672 67.5833 48.8337C73.3211 54.7768 70.0464 62.5671 70.0464 62.5671C69.7499 61.2716 69.0108 60.1201 67.9565 59.311C66.9481 58.6259 65.7396 58.2975 64.5232 58.378C65.932 56.876 65.3815 54.2543 64.6165 51.9312L64.4858 46.9678Z" fill="#64CF83"/>
<path d="M81.1676 21.2927L80.3933 21.2181C77.8024 20.903 75.1785 20.9848 72.6123 21.4606C70.1119 22.1417 69.2069 22.8974 67.8354 22.9161C66.4639 22.9347 65.4657 22.1604 62.8533 21.4886C60.1121 21.0285 57.3191 20.9626 54.5592 21.2927L53.7195 21.386L41.8428 24.5768C42.8637 24.7378 43.8023 25.2333 44.5111 25.9856L53.1691 23.6438C53.2904 23.8117 53.4116 23.961 53.4956 24.0636C53.6152 24.2389 53.7006 24.4352 53.7475 24.6421C53.9129 25.9848 54.2033 27.3092 54.6152 28.5979C54.8592 29.1296 55.201 29.6107 55.6228 30.016C55.7843 30.171 55.9591 30.3115 56.1453 30.4358L56.4532 30.6224C56.7506 30.7832 57.0631 30.9145 57.3861 31.0143L57.5447 31.0609L57.7873 31.1262L58.0485 31.1822C58.3196 31.2364 58.5938 31.2738 58.8696 31.2942H59.2147H59.6532C63.0679 31.2942 64.542 29.8387 65.447 28.3367C66.352 26.8346 66.212 24.7167 67.7794 24.7167H67.9287H68.0687C69.2256 24.95 69.0017 26.8999 69.6921 28.29C69.9523 28.8756 70.3157 29.4097 70.765 29.8667L71.0169 30.1L71.1568 30.2119L71.3061 30.3239L71.4367 30.4079L71.5767 30.5012L71.6886 30.5665H71.7726C72.1951 30.7912 72.6475 30.9545 73.1161 31.0516H73.2373C73.7812 31.1581 74.3346 31.2082 74.8887 31.2009C78.0795 31.2009 79.2457 29.4935 79.8055 28.402C80.2949 27.1159 80.6696 25.789 80.9251 24.4368C80.9845 24.2384 81.0937 24.0586 81.2423 23.9144C81.6407 23.518 81.9105 23.0108 82.0166 22.4589C82.0248 22.1978 81.9458 21.9415 81.792 21.7303C81.6383 21.5191 81.4186 21.3651 81.1676 21.2927ZM64.598 26.9465C64.3679 27.7499 63.9189 28.4735 63.3012 29.0364C62.2583 29.9025 60.9217 30.3336 59.5693 30.2399C58.9048 30.288 58.2386 30.1757 57.6265 29.9127C57.0144 29.6497 56.4745 29.2436 56.052 28.7285L55.94 28.5792C55.9056 28.5316 55.8744 28.4818 55.8467 28.43C55.812 28.3877 55.7838 28.3405 55.7628 28.29L55.6881 28.1687L55.6415 28.0661C55.6415 28.0661 55.6415 28.0008 55.5948 27.9728C55.5482 27.9448 55.5482 27.8795 55.5295 27.8235C55.4642 27.6742 55.4175 27.525 55.3709 27.385C55.3709 27.2917 55.3149 27.2078 55.2963 27.1238C55.2776 27.0398 55.2216 26.8252 55.1936 26.6946C55.1656 26.564 55.1936 26.648 55.1936 26.62V26.536C54.9697 25.4911 54.7365 23.4385 55.3429 22.9721C55.9493 22.5056 57.5167 22.0391 60.0078 22.2257H60.2784C60.6641 22.2612 61.0474 22.3204 61.4259 22.4029L61.8737 22.4962C62.2523 22.5858 62.626 22.6948 62.9933 22.8228L63.3292 22.9534L63.7024 23.112H63.777L63.9076 23.1866C64.1889 23.3127 64.4401 23.4972 64.6447 23.7278C65.1671 24.4182 64.9246 25.7803 64.598 26.9465ZM79.423 26.4427C79.2896 27.161 78.992 27.8387 78.5534 28.423C78.1148 29.0072 77.5471 29.4822 76.8946 29.8108C76.3033 30.0569 75.6692 30.1837 75.0287 30.1839C74.3255 30.2621 73.6141 30.1601 72.9612 29.8875C72.3084 29.615 71.7356 29.1808 71.2968 28.6259C71.2719 28.597 71.2501 28.5658 71.2315 28.5326C71.2034 28.4975 71.1784 28.46 71.1568 28.4206V28.3646L71.0635 28.1967L70.9702 28.0008C70.9687 27.9697 70.9687 27.9386 70.9702 27.9075V27.8235C70.9647 27.8021 70.9647 27.7796 70.9702 27.7582C70.871 27.5086 70.7991 27.2489 70.7556 26.9838C70.5317 25.8176 70.4478 24.4555 70.9516 23.8117C71.4554 23.168 73.3493 22.4589 75.1593 22.2537C75.5791 22.2537 75.971 22.179 76.3255 22.1697H77.3611H77.669C77.8663 22.1865 78.0626 22.2146 78.2568 22.2537H78.3874H78.4807H78.6206L78.7886 22.3003L79.0591 22.4029C79.281 22.4854 79.4887 22.6019 79.6749 22.7481C80.0947 23.3452 79.7029 25.4071 79.423 26.4427Z" fill="#37474F"/>
<path d="M48.6251 48.5449C48.6251 48.5449 52.0025 65.4971 53.4579 76.9633C54.9134 88.4296 54.6428 120.813 53.8591 141.339C53.2993 156.266 51.0602 183.957 51.0602 183.957C51.0602 183.957 47.3283 184.703 38.4557 183.229C30.8613 181.979 27.0174 179.73 25.394 178.751C25.394 178.751 26.8028 136.702 27.8758 122.017C28.8554 108.479 28.8087 101.034 28.8087 101.034L25.6179 70.1246C25.6179 70.1246 25.8605 50.7001 31.8875 49.8791C38.1105 49.0301 48.6251 48.5449 48.6251 48.5449Z" fill="#FAFAFA"/>
<path d="M42.8596 76.3479C42.8596 75.6388 42.7849 74.1087 42.6637 72.1682C42.0666 62.6985 42.9342 48.9931 46.125 48.312L46.4142 49.6182C44.0724 50.122 43.7086 67.4846 43.9978 72.0842C44.1284 74.0621 44.2217 75.6202 44.1937 76.4039L42.8596 76.3479Z" fill="#64CF83"/>
<path d="M30.7404 149.474C29.201 146.852 29.117 144.893 26.7939 142.551C25.7993 141.589 25.0753 140.383 24.6947 139.053C23.9856 136.953 24.023 134.761 23.855 132.466L10.3735 133.091C10.4866 138.106 11.0423 143.101 12.0342 148.018C14.5906 159.279 17.063 164.019 21.9051 165.111C29.6301 166.855 31.5334 163.525 28.8185 157.955C27.6525 155.632 26.8172 153.157 26.3367 150.603C27.1731 151.589 28.1435 152.452 29.2196 153.169C29.7682 153.578 30.4515 153.764 31.1319 153.69C31.8122 153.615 32.4391 153.286 32.8862 152.767C33.2221 152.273 31.9532 151.536 30.7404 149.474Z" fill="#FFBDA7"/>
<path d="M34.3788 49.8792C34.3788 49.8792 27.2043 49.7766 23.1832 53.3965C19.162 57.0164 17.0255 66.7007 14.4225 76.413C11.8195 86.1252 9.50575 95.5483 8.82468 102.303C8.24623 107.901 10.1309 137.625 10.1309 137.625C10.1309 137.625 18.3317 139.351 24.6386 135.89L24.9092 102.909L35.3118 69.8448C37.2114 63.2689 36.8834 56.2494 34.3788 49.8792Z" fill="#F0F0F0"/>
<path d="M48.3733 43.0218C47.4403 42.8259 46.5727 43.3204 45.8076 44.6265C45.0426 45.9327 43.3539 48.6757 43.3539 48.6757C43.3539 48.6757 42.4862 57.7815 43.3539 60.0486C44.1096 62.0078 49.1197 71.2443 49.1197 71.2443C49.1197 71.2443 48.7931 80.2382 48.7092 82.9251C48.6252 85.6121 53.8312 96.8264 54.419 102.032C54.419 102.032 54.6802 80.8633 53.9058 74.9762C52.5623 64.7135 50.883 52.4915 48.6159 48.2931L48.3733 43.0218Z" fill="#EBEBEB"/>
<path d="M40.9095 107.761H40.7975V106.828C41.9039 106.743 42.9641 106.348 43.8577 105.69C42.8993 105.052 42.041 104.276 41.3107 103.386C39.8086 101.436 36.5152 87.5252 37.5228 84.2877C38.3811 81.5728 41.0494 75.5831 43.4192 75.4805H43.4845C45.8542 75.4805 48.9797 81.1436 50.0153 83.7559C51.3028 86.9001 49.2036 101.035 47.8695 103.106C47.2194 104.055 46.43 104.901 45.5277 105.616C46.4705 106.202 47.5615 106.507 48.6718 106.493L48.7931 107.426C47.3419 107.447 45.9179 107.031 44.7067 106.231C43.6083 107.085 42.2931 107.615 40.9095 107.761ZM43.5311 76.4041C42.1317 76.4601 39.6313 80.9104 38.4837 84.549C37.5508 87.5252 40.7229 100.988 42.113 102.789C42.8639 103.69 43.7517 104.467 44.744 105.093C45.6853 104.389 46.5074 103.539 47.1791 102.574C48.4106 100.661 50.4258 86.984 49.2409 84.0918C47.8041 80.5558 44.9679 76.4041 43.5591 76.4041H43.5311Z" fill="#455A64"/>
<path d="M50.2391 106.893C50.2479 107.073 50.221 107.253 50.1599 107.422C50.0989 107.591 50.005 107.747 49.8835 107.879C49.7621 108.012 49.6156 108.119 49.4524 108.195C49.2893 108.271 49.1127 108.314 48.933 108.321C48.7529 108.329 48.5729 108.301 48.4035 108.24C48.2341 108.178 48.0784 108.084 47.9454 107.962C47.8124 107.84 47.7047 107.694 47.6285 107.53C47.5522 107.367 47.5088 107.19 47.5009 107.01C47.4929 106.83 47.5205 106.65 47.582 106.48C47.6436 106.311 47.7379 106.155 47.8597 106.022C47.9814 105.889 48.1281 105.782 48.2915 105.705C48.4548 105.629 48.6316 105.586 48.8117 105.578C48.9918 105.57 49.1717 105.598 49.3409 105.661C49.5102 105.723 49.6656 105.817 49.7982 105.94C49.9308 106.062 50.0379 106.209 50.1136 106.373C50.1893 106.536 50.2319 106.713 50.2391 106.893Z" fill="#263238"/>
<path d="M42.2155 107.229C42.223 107.409 42.1949 107.589 42.1328 107.758C42.0707 107.928 41.9759 108.083 41.8537 108.216C41.7315 108.348 41.5844 108.455 41.4208 108.531C41.2571 108.607 41.0801 108.649 40.9 108.657C40.7203 108.665 40.5407 108.638 40.3715 108.577C40.2022 108.516 40.0468 108.422 39.914 108.301C39.7813 108.18 39.674 108.033 39.5982 107.87C39.5224 107.707 39.4797 107.53 39.4725 107.35C39.4646 107.17 39.4922 106.99 39.5537 106.821C39.6153 106.652 39.7096 106.496 39.8314 106.363C39.9531 106.23 40.0998 106.122 40.2631 106.046C40.4265 105.97 40.6033 105.926 40.7834 105.918C40.9635 105.91 41.1434 105.938 41.3128 106C41.4823 106.061 41.6379 106.155 41.7709 106.277C41.9039 106.399 42.0116 106.546 42.0879 106.709C42.1641 106.872 42.2075 107.049 42.2155 107.229Z" fill="#263238"/>
<path d="M50.3417 89.8851L49.558 89.8291C49.5175 89.8267 49.478 89.8164 49.4415 89.7987C49.4051 89.781 49.3725 89.7562 49.3456 89.7259C49.3187 89.6956 49.2981 89.6602 49.2849 89.6219C49.2718 89.5836 49.2663 89.543 49.2688 89.5026C49.4274 86.8902 49.3434 84.9683 49.0262 84.2033C47.6454 80.8259 44.7812 76.5996 43.5403 76.6555C42.2995 76.7115 39.8085 81.1618 38.7075 84.6418C38.4735 86.407 38.5429 88.1992 38.9128 89.9411C38.9263 90.0215 38.9073 90.104 38.8601 90.1704C38.8129 90.2369 38.7412 90.2819 38.6609 90.2956L37.8772 90.4169C37.8367 90.4221 37.7956 90.4192 37.7562 90.4084C37.7169 90.3976 37.6801 90.379 37.648 90.3538C37.6158 90.3287 37.5891 90.2974 37.5691 90.2617C37.5492 90.2261 37.5366 90.1869 37.532 90.1463C37.1028 87.2448 37.0468 85.2482 37.3734 84.2219C37.9518 82.356 40.7041 75.368 43.475 75.2467C46.246 75.1254 49.586 81.8615 50.3231 83.6435C50.7336 84.6418 50.8548 86.629 50.6682 89.5586C50.671 89.6021 50.6644 89.6458 50.649 89.6867C50.6335 89.7275 50.6096 89.7646 50.5787 89.7955C50.5478 89.8264 50.5107 89.8504 50.4698 89.8658C50.429 89.8813 50.3853 89.8878 50.3417 89.8851Z" fill="#64CF83"/>
<path d="M64.4675 46.2588C65.699 46.3707 66.772 48.19 69.6082 49.0577C74.9075 50.6251 79.7216 53.0322 81.2051 56.2883C83.6681 61.6809 84.0693 62.7444 84.937 86.7592C85.8046 110.774 86.1125 179.124 86.1125 179.124C83.5681 180.274 80.7961 180.832 78.005 180.756C78.005 180.756 78.2196 105.279 77.7157 88.3079C77.2119 71.3371 74.6369 63.0523 70.961 57.4545C69.9254 52.7896 66.6227 49.6735 64.4302 47.397L64.4675 46.2588Z" fill="#FAFAFA"/>
<path d="M70.9794 57.4738C74.6553 63.0716 77.2209 71.3471 77.7341 88.3272C77.7901 90.3425 77.8461 93.1787 77.8927 96.584C77.8927 96.584 80.9155 81.2086 80.3837 77.9246C79.8519 74.6405 76.3066 67.8858 76.3066 67.8858C76.7638 62.2879 75.4576 55.8877 73.3025 52.0252C72.8011 51.125 72.1726 50.3018 71.4365 49.5808C70.7203 49.0001 69.9555 48.482 69.1507 48.0321C67.771 47.0509 66.167 46.4317 64.4858 46.2314V47.3883C66.641 49.6928 69.9438 52.7903 70.9794 57.4738Z" fill="#EBEBEB"/>
</svg>
