<svg width="145" height="130" viewBox="0 0 145 130" fill="none" xmlns="http://www.w3.org/2000/svg">
<path d="M3.17633 5.40969C4.40202 5.40969 5.39564 4.4067 5.39564 3.16944C5.39564 1.93219 4.40202 0.929199 3.17633 0.929199C1.95064 0.929199 0.957031 1.93219 0.957031 3.16944C0.957031 4.4067 1.95064 5.40969 3.17633 5.40969Z" fill="#455A64"/>
<path d="M80.4861 70.7221L22.8051 3.65087H3.17676V2.69824H23.2343L81.198 70.1045L80.4861 70.7221Z" fill="#455A64"/>
<path d="M108.447 128.079C127.93 128.079 143.725 112.167 143.725 92.5384C143.725 72.91 127.93 56.998 108.447 56.998C88.9628 56.998 73.168 72.91 73.168 92.5384C73.168 112.167 88.9628 128.079 108.447 128.079Z" fill="white"/>
<path d="M108.446 129.052C101.205 129.104 94.1113 127.004 88.0652 123.019C82.0191 119.033 77.2929 113.341 74.4863 106.666C71.6796 99.9903 70.9188 92.6315 72.3005 85.523C73.6821 78.4144 77.144 71.8764 82.2468 66.7382C87.3497 61.5999 93.8638 58.0931 100.963 56.6624C108.061 55.2317 115.425 55.9417 122.12 58.7023C128.815 61.4629 134.539 66.1496 138.566 72.1681C142.593 78.1866 144.742 85.2656 144.74 92.5072C144.763 102.163 140.954 111.433 134.15 118.284C127.346 125.136 118.102 129.008 108.446 129.052ZM108.446 57.9614C101.603 57.9095 94.8983 59.8915 89.183 63.6557C83.4676 67.42 78.9991 72.7971 76.3442 79.1047C73.6894 85.4124 72.9678 92.3665 74.2711 99.0849C75.5743 105.803 78.8437 111.983 83.6644 116.841C88.4851 121.698 94.64 125.015 101.348 126.369C108.057 127.723 115.016 127.054 121.344 124.448C127.671 121.841 133.082 117.413 136.89 111.727C140.697 106.04 142.73 99.3508 142.731 92.5072C142.747 83.3881 139.148 74.6344 132.721 68.1647C126.295 61.695 117.565 58.0371 108.446 57.9928V57.9614Z" fill="#64CF83"/>
</svg>
