<svg width="74" height="115" viewBox="0 0 74 115" fill="none" xmlns="http://www.w3.org/2000/svg">
<path d="M14.3873 113.132L13.8115 112.378L36.528 94.8327V72.8071H37.4701V95.2933L37.2817 95.4399L14.3873 113.132Z" fill="#455A64"/>
<path d="M11.875 112.755C11.8771 113.196 12.0096 113.626 12.2559 113.991C12.5021 114.357 12.8511 114.641 13.2587 114.808C13.6663 114.975 14.1143 115.018 14.5462 114.931C14.978 114.843 15.3743 114.63 15.6851 114.318C15.9959 114.006 16.2073 113.608 16.2924 113.176C16.3776 112.744 16.3329 112.296 16.1638 111.889C15.9948 111.482 15.709 111.135 15.3425 110.89C14.976 110.646 14.5454 110.515 14.1048 110.515C13.8111 110.515 13.5203 110.573 13.2491 110.686C12.9779 110.799 12.7316 110.964 12.5244 111.172C12.3172 111.38 12.1532 111.627 12.0417 111.899C11.9303 112.171 11.8736 112.462 11.875 112.755Z" fill="#455A64"/>
<path d="M36.9993 72.8072C56.4832 72.8072 72.2779 56.8953 72.2779 37.2669C72.2779 17.6385 56.4832 1.72656 36.9993 1.72656C17.5155 1.72656 1.7207 17.6385 1.7207 37.2669C1.7207 56.8953 17.5155 72.8072 36.9993 72.8072Z" fill="white"/>
<path d="M36.9994 73.8128C29.7605 73.8647 22.6693 71.7654 16.6251 67.7814C10.5809 63.7974 5.85613 58.1081 3.04993 51.4351C0.243731 44.762 -0.517423 37.4059 0.862991 30.2997C2.24341 23.1934 5.70319 16.6572 10.8036 11.5201C15.9039 6.38289 22.4151 2.87621 29.5113 1.44476C36.6074 0.01331 43.9688 0.721582 50.6618 3.47975C57.3549 6.23792 63.078 10.9217 67.1053 16.9371C71.1327 22.9525 73.2828 30.0284 73.283 37.2675C73.3053 46.9215 69.498 56.1902 62.6962 63.0411C55.8944 69.892 46.6533 73.7657 36.9994 73.8128ZM36.9994 2.72169C30.156 2.66985 23.4513 4.65177 17.736 8.41606C12.0206 12.1803 7.55211 17.5574 4.89724 23.8651C2.24237 30.1727 1.52078 37.1268 2.82403 43.8452C4.12729 50.5636 7.39665 56.7435 12.2174 61.6011C17.0381 66.4586 23.193 69.7749 29.9013 71.1292C36.6096 72.4835 43.569 71.8148 49.8966 69.208C56.2243 66.6012 61.6352 62.1736 65.4428 56.4871C69.2505 50.8005 71.2833 44.1111 71.2835 37.2675C71.3058 28.1439 67.7092 19.3837 61.2824 12.9078C54.8555 6.43187 46.123 2.76878 36.9994 2.72169Z" fill="#64CF83"/>
</svg>
