<svg width="150" height="74" viewBox="0 0 150 74" fill="none" xmlns="http://www.w3.org/2000/svg">
<path d="M149.19 46.8706C149.186 47.3086 149.052 47.7356 148.806 48.0978C148.559 48.46 148.211 48.7412 147.806 48.906C147.4 49.0708 146.954 49.1117 146.525 49.0238C146.096 48.9358 145.702 48.7228 145.394 48.4116C145.086 48.1004 144.877 47.7049 144.793 47.275C144.709 46.8451 144.754 46.3999 144.922 45.9956C145.091 45.5913 145.375 45.2459 145.74 45.003C146.104 44.76 146.533 44.6304 146.971 44.6304C147.263 44.6317 147.553 44.6908 147.823 44.8041C148.093 44.9174 148.338 45.0828 148.544 45.2908C148.75 45.4989 148.913 45.7455 149.024 46.0165C149.135 46.2876 149.191 46.5778 149.19 46.8706Z" fill="#455A64"/>
<path d="M146.971 47.3525H125.217L112.98 37.6064H72.7285V36.6538H113.315L125.552 46.3999H146.971V47.3525Z" fill="#455A64"/>
<path d="M37.45 72.6651C56.9338 72.6651 72.7286 56.7532 72.7286 37.1248C72.7286 17.4964 56.9338 1.58447 37.45 1.58447C17.9662 1.58447 2.17139 17.4964 2.17139 37.1248C2.17139 56.7532 17.9662 72.6651 37.45 72.6651Z" fill="white"/>
<path d="M37.45 73.6804C30.2068 73.7343 23.1109 71.6352 17.0627 67.6495C11.0146 63.6637 6.28679 57.971 3.47941 51.2938C0.672032 44.6166 -0.0883986 37.2559 1.29462 30.1458C2.67764 23.0357 6.14177 16.4967 11.2474 11.3587C16.353 6.22066 22.8699 2.71524 29.9711 1.28726C37.0724 -0.140722 44.4377 0.57311 51.1326 3.33818C57.8274 6.10326 63.5499 10.7949 67.5738 16.8177C71.5977 22.8406 73.7417 29.9231 73.7336 37.1665C73.7476 46.815 69.9366 56.0757 63.1357 62.9198C56.3348 69.7638 47.0984 73.6333 37.45 73.6804ZM37.45 2.58923C30.6066 2.53739 23.902 4.51931 18.1866 8.2836C12.4712 12.0479 8.00271 17.4249 5.34785 23.7326C2.69298 30.0403 1.9714 36.9944 3.27466 43.7127C4.57792 50.4311 7.84727 56.6111 12.668 61.4686C17.4887 66.3261 23.6436 69.6424 30.3519 70.9967C37.0602 72.351 44.0196 71.6823 50.3473 69.0755C56.6749 66.4687 62.0858 62.0412 65.8934 56.3546C69.7011 50.668 71.7339 43.9787 71.7341 37.1351C71.7509 28.016 68.1515 19.2623 61.7249 12.7926C55.2984 6.32284 46.569 2.66495 37.45 2.62064V2.58923Z" fill="#64CF83"/>
</svg>
