<svg width="149" height="74" viewBox="0 0 149 74" fill="none" xmlns="http://www.w3.org/2000/svg">
<path d="M0.727075 46.8706C0.729151 47.3116 0.861952 47.7421 1.10868 48.1076C1.35542 48.4732 1.705 48.7573 2.11323 48.9242C2.52145 49.091 2.96998 49.1331 3.4021 49.045C3.83423 48.9569 4.23052 48.7427 4.54089 48.4294C4.85126 48.1161 5.06177 47.7178 5.14578 47.2849C5.22978 46.852 5.18352 46.4038 5.01285 45.9972C4.84217 45.5905 4.55474 45.2436 4.18692 45.0004C3.81909 44.7571 3.38738 44.6283 2.94638 44.6304C2.65356 44.6318 2.36387 44.6908 2.09387 44.8041C1.82386 44.9174 1.57884 45.0828 1.37276 45.2909C1.16668 45.4989 1.00357 45.7455 0.892785 46.0165C0.782 46.2876 0.725698 46.5778 0.727075 46.8706Z" fill="#455A64"/>
<path d="M24.7002 47.3525H2.94678V46.3999H24.3757L36.6133 36.6538H77.1889V37.6064H36.9378L24.7002 47.3525Z" fill="#455A64"/>
<path d="M112.467 72.6651C131.951 72.6651 147.746 56.7532 147.746 37.1248C147.746 17.4964 131.951 1.58447 112.467 1.58447C92.9832 1.58447 77.1885 17.4964 77.1885 37.1248C77.1885 56.7532 92.9832 72.6651 112.467 72.6651Z" fill="white"/>
<path d="M112.467 73.6804C105.224 73.7343 98.128 71.6352 92.0798 67.6495C86.0316 63.6637 81.3039 57.971 78.4965 51.2938C75.6891 44.6166 74.9287 37.2559 76.3117 30.1458C77.6947 23.0357 81.1589 16.4967 86.2645 11.3587C91.3701 6.22066 97.887 2.71524 104.988 1.28726C112.089 -0.140722 119.455 0.57311 126.15 3.33818C132.845 6.10326 138.567 10.7949 142.591 16.8177C146.615 22.8406 148.759 29.9231 148.751 37.1665C148.765 46.815 144.954 56.0757 138.153 62.9198C131.352 69.7638 122.116 73.6333 112.467 73.6804ZM112.467 2.58923C105.624 2.53739 98.919 4.51931 93.2037 8.2836C87.4883 12.0479 83.0198 17.4249 80.3649 23.7326C77.7101 30.0403 76.9885 36.9944 78.2918 43.7127C79.595 50.4311 82.8644 56.6111 87.6851 61.4686C92.5058 66.3261 98.6607 69.6424 105.369 70.9967C112.077 72.351 119.037 71.6823 125.364 69.0755C131.692 66.4687 137.103 62.0412 140.911 56.3546C144.718 50.668 146.751 43.9787 146.751 37.1351C146.771 28.0152 143.172 19.2598 136.745 12.7895C130.318 6.3192 121.587 2.66219 112.467 2.62064V2.58923Z" fill="#64CF83"/>
</svg>
