<svg width="125" height="178" viewBox="0 0 125 178" fill="none" xmlns="http://www.w3.org/2000/svg">
<path d="M121.294 2.75586L122.162 3.24788V106.247C122.162 108.906 120.54 111.994 118.551 113.135L7.80531 177.024C7.47857 177.25 7.10041 177.39 6.70539 177.432C6.31038 177.474 5.91112 177.417 5.54413 177.265C5.36617 177.181 4.74853 176.814 4.61244 176.731C4.1836 176.398 3.84557 175.963 3.62964 175.465C3.41371 174.968 3.32687 174.424 3.37717 173.883V70.8425L121.294 2.75586Z" fill="#E0E0E0"/>
<path d="M7.80545 177.024L118.509 113.167C120.498 112.026 122.121 108.979 122.121 106.278V3.24805L4.19385 71.2929V174.302C4.19385 176.961 5.80598 178.186 7.80545 177.024Z" fill="#FAFAFA"/>
<path d="M121.179 4.84972V106.226C121.155 107.412 120.86 108.578 120.315 109.632C119.771 110.687 118.992 111.602 118.038 112.308L7.32391 176.166C7.03665 176.354 6.70411 176.463 6.36081 176.48C5.43959 176.48 5.11507 175.276 5.11507 174.25V71.8477L121.168 4.84972H121.179ZM122.163 3.24805L4.19385 71.2929V174.302C4.19385 176.281 5.09413 177.443 6.37128 177.443C6.87859 177.427 7.373 177.279 7.80545 177.014L118.509 113.167C120.498 112.026 122.121 108.979 122.121 106.278V3.24805H122.163Z" fill="#E0E0E0"/>
<path d="M3.60769 74.7996L0.854492 70.0155L121.545 0.337652C121.767 0.222455 122.017 0.171241 122.266 0.189725C122.516 0.20821 122.756 0.295665 122.958 0.442335C123.527 0.812709 124.001 1.31181 124.341 1.89924C124.681 2.48667 124.878 3.14592 124.916 3.82364C124.938 4.05779 124.9 4.29363 124.807 4.50948C124.713 4.72533 124.567 4.91426 124.382 5.05891L3.60769 74.7996Z" fill="#F0F0F0"/>
<path d="M4.19379 73.5222C4.15782 72.8452 3.96276 72.1862 3.62446 71.5988C3.28615 71.0113 2.81412 70.5118 2.24666 70.1409C1.19982 69.5232 0.289062 70.0257 0.289062 71.2715C0.327027 71.9492 0.524027 72.6084 0.864119 73.1959C1.20421 73.7833 1.67784 74.2824 2.24666 74.6528C3.32491 75.2704 4.19379 74.7679 4.19379 73.5222Z" fill="#E0E0E0"/>
<path d="M95.0073 75.0297C94.9304 75.0313 94.8545 75.0116 94.788 74.9728C94.7215 74.934 94.667 74.8776 94.6305 74.8099C94.6006 74.7607 94.581 74.7059 94.5728 74.649C94.5645 74.592 94.5678 74.5339 94.5825 74.4783C94.5971 74.4226 94.6228 74.3704 94.6581 74.3249C94.6933 74.2794 94.7373 74.2414 94.7875 74.2132L109.14 65.9222C109.19 65.8926 109.245 65.8733 109.303 65.8652C109.361 65.8571 109.419 65.8604 109.476 65.875C109.532 65.8895 109.585 65.9151 109.632 65.9501C109.678 65.9852 109.717 66.029 109.747 66.0792C109.776 66.1294 109.796 66.1849 109.804 66.2426C109.812 66.3003 109.809 66.359 109.794 66.4153C109.78 66.4717 109.754 66.5247 109.719 66.5712C109.684 66.6177 109.64 66.6568 109.59 66.6864L95.2272 74.9774C95.1586 75.0106 95.0836 75.0285 95.0073 75.0297Z" fill="#E0E0E0"/>
<path d="M95.0074 79.0918C94.9085 79.0945 94.8115 79.0638 94.7322 79.0045C94.6528 78.9453 94.5959 78.861 94.5704 78.7653C94.545 78.6696 94.5526 78.5681 94.592 78.4773C94.6314 78.3865 94.7003 78.3116 94.7876 78.2648L109.14 69.9738C109.243 69.9168 109.364 69.9024 109.478 69.9337C109.591 69.965 109.688 70.0395 109.747 70.1413C109.777 70.1906 109.796 70.2453 109.805 70.3023C109.813 70.3592 109.81 70.4173 109.795 70.473C109.78 70.5286 109.755 70.5808 109.719 70.6263C109.684 70.6719 109.64 70.7098 109.59 70.738L95.2273 79.029C95.1615 79.0705 95.0852 79.0922 95.0074 79.0918Z" fill="#E0E0E0"/>
<path d="M95.0075 83.143C94.931 83.1423 94.856 83.1217 94.7899 83.0831C94.7238 83.0446 94.6689 82.9895 94.6307 82.9232C94.6006 82.8731 94.5808 82.8176 94.5724 82.7598C94.564 82.7021 94.5673 82.6432 94.5819 82.5867C94.5965 82.5302 94.6222 82.4771 94.6576 82.4306C94.6929 82.3842 94.7371 82.3452 94.7877 82.316L109.14 74.0355C109.241 73.9758 109.362 73.9588 109.476 73.9882C109.59 74.0177 109.687 74.0912 109.747 74.1925C109.807 74.2938 109.824 74.4147 109.794 74.5286C109.765 74.6425 109.691 74.74 109.59 74.7997L95.2274 83.0802C95.1615 83.1217 95.0853 83.1435 95.0075 83.143Z" fill="#E0E0E0"/>
<path d="M95.0074 87.1939C94.9031 87.1974 94.8016 87.1598 94.7248 87.0892L81.9323 76.0241C81.8827 75.9883 81.841 75.9426 81.81 75.8898C81.779 75.837 81.7594 75.7783 81.7524 75.7175C81.7454 75.6567 81.7512 75.5951 81.7693 75.5366C81.7875 75.4782 81.8177 75.4242 81.858 75.3781C81.8982 75.3319 81.9477 75.2947 82.0031 75.2688C82.0586 75.2429 82.1189 75.2289 82.1801 75.2276C82.2413 75.2264 82.302 75.2379 82.3585 75.2615C82.415 75.285 82.466 75.3202 82.5081 75.3646L95.0702 86.2203L109.15 78.0864C109.2 78.0568 109.256 78.0374 109.314 78.0293C109.371 78.0212 109.43 78.0245 109.486 78.0391C109.543 78.0537 109.596 78.0792 109.642 78.1143C109.689 78.1493 109.728 78.1932 109.757 78.2434C109.787 78.2936 109.806 78.3491 109.814 78.4067C109.823 78.4644 109.819 78.5231 109.805 78.5795C109.79 78.6359 109.765 78.6888 109.729 78.7353C109.694 78.7818 109.651 78.821 109.6 78.8505L95.2377 87.1415C95.1659 87.1763 95.0872 87.1942 95.0074 87.1939Z" fill="#E0E0E0"/>
<path d="M88.3493 108.55C88.273 108.548 88.1984 108.527 88.1325 108.488C88.0665 108.45 88.0115 108.395 87.9724 108.33C87.9424 108.28 87.9226 108.224 87.9142 108.167C87.9058 108.109 87.9091 108.05 87.9237 107.993C87.9383 107.937 87.964 107.884 87.9994 107.837C88.0347 107.791 88.0789 107.752 88.1295 107.723L102.482 99.4422C102.532 99.4121 102.587 99.3923 102.645 99.3839C102.703 99.3756 102.762 99.3788 102.818 99.3934C102.875 99.408 102.928 99.4337 102.974 99.4691C103.021 99.5044 103.06 99.5486 103.089 99.5992C103.119 99.6484 103.138 99.7032 103.147 99.7601C103.155 99.8171 103.151 99.8752 103.137 99.9308C103.122 99.9865 103.096 100.039 103.061 100.084C103.026 100.13 102.982 100.168 102.932 100.196L88.5692 108.487C88.5034 108.528 88.4271 108.55 88.3493 108.55Z" fill="#E0E0E0"/>
<path d="M88.3496 112.601C88.2541 112.6 88.1616 112.567 88.0861 112.508C88.0107 112.45 87.9565 112.368 87.9316 112.276C87.9068 112.183 87.9127 112.086 87.9484 111.997C87.9842 111.908 88.0479 111.834 88.1298 111.784L102.482 103.493C102.532 103.464 102.588 103.445 102.645 103.436C102.703 103.428 102.762 103.432 102.818 103.446C102.875 103.461 102.927 103.486 102.974 103.521C103.02 103.556 103.06 103.6 103.089 103.651C103.119 103.701 103.138 103.756 103.146 103.814C103.154 103.872 103.151 103.93 103.136 103.987C103.122 104.043 103.096 104.096 103.061 104.142C103.026 104.189 102.982 104.228 102.932 104.258L88.5695 112.538C88.5037 112.58 88.4274 112.601 88.3496 112.601Z" fill="#E0E0E0"/>
<path d="M88.3496 116.653C88.2541 116.651 88.1616 116.619 88.0861 116.56C88.0107 116.501 87.9565 116.42 87.9316 116.327C87.9068 116.235 87.9127 116.137 87.9484 116.048C87.9842 115.96 88.0479 115.885 88.1298 115.836L102.482 107.545C102.533 107.515 102.589 107.496 102.647 107.489C102.705 107.481 102.764 107.485 102.821 107.501C102.878 107.516 102.93 107.543 102.976 107.579C103.023 107.616 103.061 107.661 103.089 107.713C103.119 107.762 103.139 107.816 103.147 107.873C103.155 107.93 103.152 107.988 103.137 108.044C103.123 108.1 103.097 108.152 103.062 108.198C103.026 108.243 102.982 108.281 102.932 108.309L88.5695 116.6C88.5028 116.639 88.4264 116.657 88.3496 116.653Z" fill="#E0E0E0"/>
<path d="M88.3497 120.714C88.2466 120.711 88.1473 120.674 88.067 120.609L75.2746 109.544C75.1928 109.46 75.147 109.347 75.147 109.23C75.147 109.112 75.1928 109 75.2746 108.916C75.3599 108.836 75.4721 108.792 75.5887 108.792C75.7052 108.792 75.8175 108.836 75.9027 108.916L88.4648 119.771L102.545 111.648C102.595 111.618 102.65 111.598 102.708 111.59C102.766 111.581 102.825 111.585 102.881 111.599C102.938 111.614 102.991 111.639 103.037 111.675C103.084 111.71 103.123 111.754 103.152 111.805C103.182 111.854 103.202 111.909 103.21 111.966C103.218 112.023 103.215 112.081 103.2 112.137C103.185 112.192 103.16 112.244 103.124 112.29C103.089 112.335 103.045 112.373 102.995 112.402L88.6323 120.693C88.5437 120.733 88.4434 120.741 88.3497 120.714Z" fill="#E0E0E0"/>
<path d="M43.4818 126.922C43.6487 126.726 43.7798 126.503 43.8692 126.262C43.9843 125.906 43.8692 125.718 43.7017 125.844L29.3494 134.103C29.0683 134.32 28.8571 134.615 28.7423 134.951C28.6271 135.307 28.7423 135.496 28.9098 135.37L43.262 127.079C43.3429 127.038 43.4171 126.985 43.4818 126.922Z" fill="#E0E0E0"/>
<path d="M43.4818 130.963C43.6487 130.767 43.7798 130.544 43.8692 130.303C43.9843 129.947 43.8692 129.769 43.7017 129.884L29.3494 138.186C29.0662 138.405 28.8547 138.704 28.7423 139.044C28.6271 139.39 28.7423 139.578 28.9098 139.453L43.262 131.172C43.3461 131.115 43.4203 131.044 43.4818 130.963Z" fill="#E0E0E0"/>
<path d="M43.4818 135.024C43.653 134.832 43.7847 134.608 43.8692 134.365C43.9843 134.019 43.8692 133.831 43.7017 133.957L29.3494 142.237C29.0684 142.459 28.8575 142.757 28.7423 143.095C28.6271 143.451 28.7423 143.629 28.9098 143.514L43.262 135.223C43.3477 135.172 43.4224 135.105 43.4818 135.024Z" fill="#E0E0E0"/>
<path d="M43.9215 138.877C44.0381 138.744 44.1367 138.596 44.2146 138.437L53.7199 119.28C53.8351 119.029 53.9293 118.746 53.6467 118.558C53.364 118.369 53.1023 118.694 52.9767 118.935L43.4295 138.165L29.3494 146.299C29.0683 146.516 28.8571 146.811 28.7423 147.147C28.6271 147.503 28.7423 147.691 28.9098 147.566L43.262 139.275C43.493 139.162 43.7137 139.029 43.9215 138.877Z" fill="#E0E0E0"/>
<path d="M27.9466 109.69C28.1063 109.492 28.2335 109.269 28.3235 109.031C28.4491 108.675 28.3235 108.487 28.1664 108.612L13.8037 116.903C13.5232 117.119 13.315 117.414 13.207 117.751C13.0814 118.107 13.207 118.295 13.3641 118.17L27.7268 109.879C27.8084 109.827 27.8824 109.763 27.9466 109.69Z" fill="#E0E0E0"/>
<path d="M27.9466 113.742C28.1063 113.544 28.2335 113.321 28.3235 113.083C28.4491 112.727 28.3235 112.549 28.1664 112.664L13.8037 120.955C13.5204 121.172 13.3119 121.472 13.207 121.814C13.0814 122.159 13.207 122.348 13.3641 122.222L27.7268 113.941C27.8057 113.882 27.8792 113.815 27.9466 113.742Z" fill="#E0E0E0"/>
<path d="M27.9466 117.793C28.1114 117.598 28.2391 117.375 28.3235 117.134C28.4491 116.788 28.3235 116.6 28.1664 116.726L13.8037 125.006C13.5229 125.226 13.3149 125.525 13.207 125.865C13.0814 126.22 13.207 126.398 13.3641 126.283L27.7268 117.992C27.8082 117.936 27.882 117.869 27.9466 117.793Z" fill="#E0E0E0"/>
<path d="M28.4071 121.646C28.5202 121.512 28.6153 121.364 28.6897 121.206L38.2056 102.049C38.3102 101.797 38.4149 101.515 38.1218 101.326C37.8287 101.138 37.5879 101.462 37.4623 101.703L27.9465 120.934L13.856 129.068C13.5754 129.283 13.3673 129.579 13.2593 129.916C13.1337 130.272 13.2593 130.46 13.4163 130.334L27.779 122.043C27.9966 121.924 28.2064 121.792 28.4071 121.646Z" fill="#E0E0E0"/>
<path d="M40.2047 85.1743C41.3667 85.7605 41.6808 87.2051 43.8268 85.08C45.7276 83.1751 47.5006 81.1468 49.1343 79.0083C49.4998 78.1421 49.5876 77.1838 49.3855 76.2656C50.0007 77.1345 50.4243 78.1242 50.6283 79.1691C50.8322 80.2141 50.8118 81.2904 50.5685 82.3268C50.0032 81.28 49.6368 80.9031 48.2759 81.8558C46.915 82.8084 44.0885 85.4255 43.3034 87.3726C42.5182 89.3198 41.7122 93.4339 38.2681 95.7474L40.2047 85.1743Z" fill="#E0E0E0"/>
<path opacity="0.1" d="M40.2047 85.1743C41.3667 85.7605 41.6808 87.2051 43.8268 85.08C45.7276 83.1751 47.5006 81.1468 49.1343 79.0083C49.4998 78.1421 49.5876 77.1838 49.3855 76.2656C50.0007 77.1345 50.4243 78.1242 50.6283 79.1691C50.8322 80.2141 50.8118 81.2904 50.5685 82.3268C50.0032 81.28 49.6368 80.9031 48.2759 81.8558C46.915 82.8084 44.0885 85.4255 43.3034 87.3726C42.5182 89.3198 41.7122 93.4339 38.2681 95.7474L40.2047 85.1743Z" fill="black"/>
<g opacity="0.1">
<path opacity="0.1" d="M45.743 68.9686C39.3258 69.691 35.5362 68.8011 30.0403 67.0843C24.5444 65.3675 20.3884 69.4083 19.017 74.8519C18.033 78.7357 19.2578 85.5716 22.2413 89.5077C25.2248 93.4438 27.8001 94.3232 27.8001 94.3232L30.8464 85.6867C30.8464 85.6867 27.2452 87.7804 24.3559 85.8752C21.4667 83.9699 19.1217 80.128 19.9697 74.9042C20.8176 69.6805 25.5703 66.6551 30.0403 67.9532C35.0894 69.6902 40.5121 70.0409 45.743 68.9686Z" fill="black"/>
<path opacity="0.1" d="M81.6812 48.2621C88.0983 41.5623 91.8879 36.3071 97.3838 28.2255C102.88 20.1439 107.036 19.4006 108.407 23.253C109.391 26.0062 108.166 34.2553 105.183 41.6879C103.698 45.5898 101.836 49.3377 99.624 52.8787L96.5777 47.7491C99.3173 45.8877 101.545 43.368 103.058 40.4212C105.947 35.187 108.292 28.6757 107.454 24.3731C106.617 20.0706 101.854 22.604 97.3838 29.0734C92.8517 36.0134 87.5873 42.4465 81.6812 48.2621Z" fill="black"/>
<path opacity="0.1" d="M63.7173 135.684C64.6719 135.122 65.7509 134.805 66.8578 134.763C66.8578 119.521 67.5488 113.208 68.7422 110.685C69.9356 108.162 70.302 106.55 69.8623 106.205C69.4226 105.859 67.4231 109.858 65.9157 110.172C64.4082 110.486 63.665 109.471 63.665 107.471C63.6876 108.465 63.5019 109.453 63.1196 110.371C62.7374 111.288 62.1672 112.116 61.4457 112.8C59.9382 114.234 57.9283 112.538 57.4886 113.397C57.0489 114.255 57.4258 115.49 58.6192 116.537C59.8126 117.584 60.5035 123.164 60.5035 138.406C61.3968 137.323 62.4569 136.39 63.644 135.642" fill="black"/>
<path opacity="0.1" d="M63.7172 89.5493C63.9371 92.4177 63.9894 95.3907 63.9999 98.3742C64.0103 101.358 63.9371 104.394 63.7172 107.513C63.5079 104.645 63.4555 101.682 63.4451 98.6987C63.4346 95.7152 63.5393 92.6689 63.7172 89.5493Z" fill="black"/>
</g>
<path d="M39.1918 94.6932C41.9824 91.0629 42.1193 86.4861 39.4974 84.4706C36.8755 82.4551 32.4877 83.7642 29.697 87.3945C26.9063 91.0248 26.7695 95.6017 29.3914 97.6171C32.0133 99.6326 36.4011 98.3236 39.1918 94.6932Z" fill="#EBEBEB"/>
</svg>
