<svg width="126" height="166" viewBox="0 0 126 166" fill="none" xmlns="http://www.w3.org/2000/svg">
<path d="M120.754 156.011L118.19 157.54L5.2666 92.3528L7.84186 90.814L120.754 156.011Z" fill="#FAFAFA"/>
<path d="M7.8418 90.8132L118.19 154.514V75.0896L7.8418 11.4102V90.8132Z" fill="white"/>
<path d="M62.2465 40.2201V122.669L57.3892 119.864V37.4146L62.2465 40.2201Z" fill="#F0F0F0"/>
<path d="M64.6643 38.8066L62.2461 40.2199V122.669L64.6643 121.256V38.8066Z" fill="#E0E0E0"/>
<path d="M0.419434 95.1479L123.036 165.946V72.2848L0.419434 1.48682V95.1479ZM5.26629 9.90343L118.189 75.059V157.508L5.26629 92.3528V9.90343Z" fill="#F0F0F0"/>
<path d="M5.2666 92.3532L7.84186 90.8143V11.4113L5.2666 9.90381V92.3532Z" fill="#E0E0E0"/>
<path d="M0.419434 1.49699L3.02606 0L125.653 70.7875L123.036 72.2845L0.419434 1.49699Z" fill="#FAFAFA"/>
<path d="M125.654 70.7876L123.037 72.2846V165.946L125.654 164.459V70.7876Z" fill="#E0E0E0"/>
<path d="M62.2463 43.0148L57.3994 40.2197V43.0148L62.2463 45.8099V43.0148Z" fill="#E0E0E0"/>
<path opacity="0.15" d="M62.2461 45.8102L64.6643 44.4074L62.2461 43.0151V45.8102Z" fill="black"/>
</svg>
