<svg width="75" height="88" viewBox="0 0 75 88" fill="none" xmlns="http://www.w3.org/2000/svg">
<g id="anti covid">
<g id="anti covid_2">
<g id="virus">
<path id="Vector" d="M41.6758 21.672C45.0373 22.302 48.1365 23.9147 50.5815 26.306C53.0265 28.6974 54.7075 31.7601 55.4119 35.1068C56.1163 38.4535 55.8125 41.934 54.5389 45.108C53.2653 48.2821 51.0791 51.0072 48.2568 52.9388C45.4344 54.8704 42.1027 55.9217 38.6828 55.9598C35.263 55.9979 31.9087 55.0211 29.044 53.1529C26.1793 51.2846 23.933 48.6089 22.589 45.464C21.245 42.3191 20.8637 38.8463 21.4934 35.4847C22.3407 30.9781 24.9422 26.992 28.7264 24.4022C32.5106 21.8123 37.1681 20.8303 41.6758 21.672Z" fill="#64CF83"/>
<path id="Vector_2" d="M22.1658 33.5855C22.25 34.9148 22.0027 36.2443 21.4463 37.4545C21.4463 36.7703 20.5144 36.0508 18.403 35.5436C16.6808 35.1189 15.0059 34.7768 13.8027 34.5409L13.2837 34.4466L13.4724 33.4321L13.9914 33.5265C15.171 33.7506 16.8814 34.0337 18.6389 34.2696C20.8329 34.5527 21.9299 34.2224 22.1658 33.5855Z" fill="#64CF83"/>
<path id="Vector_3" opacity="0.2" d="M14.1094 33.5501C14.1066 33.7246 14.0869 33.8984 14.0504 34.0691C14.0267 34.2388 13.9832 34.405 13.9207 34.5645L13.2837 34.4466L13.4724 33.4321L14.1094 33.5501Z" fill="black"/>
<path id="Vector_4" d="M13.1184 32.1113C13.0215 32.0878 12.9204 32.0878 12.8235 32.1113H12.7409H12.6465H12.5758C12.2084 32.4851 11.976 32.9707 11.9152 33.4914C11.7934 33.9984 11.8347 34.5309 12.0332 35.013V35.0838L12.104 35.1663H12.1629C12.2428 35.2264 12.3358 35.2668 12.4342 35.2843C12.5317 35.302 12.6316 35.302 12.7291 35.2843C13.1302 35.2135 13.543 34.5766 13.6964 33.7509C13.8497 32.9252 13.6964 32.1703 13.3425 31.9697C13.2587 32.0007 13.1823 32.0489 13.1184 32.1113Z" fill="#64CF83"/>
<path id="Vector_5" opacity="0.3" d="M12.7527 32.7598C13.024 32.7598 13.1655 33.3142 13.0594 33.9394C12.9532 34.5645 12.6347 34.9302 12.3634 34.883C12.0921 34.8358 12.0803 34.6471 12.0449 34.3522C12.1747 34.6589 12.4696 34.6707 12.6701 34.3522C12.854 33.9881 12.9239 33.5771 12.8706 33.1726C12.8706 32.9367 12.7291 32.7834 12.5404 32.8306C12.5691 32.805 12.6027 32.7855 12.6392 32.7733C12.6757 32.7612 12.7143 32.7565 12.7527 32.7598Z" fill="black"/>
<path id="Vector_6" d="M21.4345 40.6626C22.0196 41.8572 22.3338 43.1662 22.3545 44.4962C22.0832 43.871 21.753 43.3992 19.8539 43.7295C18.2968 44.0126 18.1789 43.989 17.1173 44.2249L16.669 44.331L16.4331 43.3402L16.8813 43.2341C17.943 42.9745 18.0609 42.9274 19.5472 42.4673C21.3991 41.9129 21.4817 41.335 21.4345 40.6626Z" fill="#64CF83"/>
<path id="Vector_7" opacity="0.2" d="M17.0583 43.187C17.1234 43.3475 17.1747 43.5132 17.2116 43.6824C17.2554 43.8485 17.2831 44.0183 17.2942 44.1896L16.669 44.3312L16.4331 43.3404L17.0583 43.187Z" fill="black"/>
<path id="Vector_8" d="M15.3125 41.9958C15.1963 42.0226 15.0875 42.0749 14.994 42.1491L14.9351 42.1963L14.8643 42.3024C14.8604 42.3298 14.8604 42.3576 14.8643 42.385C14.6482 42.964 14.6275 43.5979 14.8053 44.1897C14.9144 44.8051 15.2208 45.3682 15.6782 45.794H15.7608C15.7998 45.8003 15.8396 45.8003 15.8787 45.794H15.9495C16.0656 45.8234 16.1872 45.8234 16.3034 45.794C16.416 45.7736 16.5215 45.7249 16.6101 45.6524C17.0229 45.3811 17.1644 44.4728 16.9285 43.5174C16.6926 42.5619 16.1736 41.807 15.69 41.748C15.5494 41.8055 15.4212 41.8897 15.3125 41.9958Z" fill="#64CF83"/>
<path id="Vector_9" opacity="0.3" d="M15.2299 42.8686C15.5484 42.786 15.9376 43.2696 16.091 43.942C16.2443 44.6143 16.091 45.2277 15.8079 45.2985C15.5248 45.3692 15.3832 45.1805 15.2063 44.8856C15.4894 45.1569 15.8079 45.0154 15.8786 44.5789C15.8953 44.1035 15.7767 43.6331 15.5366 43.2224C15.3715 42.9983 15.1945 42.8804 15.0176 43.0219C15.0406 42.9832 15.0714 42.9497 15.1079 42.9233C15.1444 42.8969 15.1859 42.8783 15.2299 42.8686Z" fill="black"/>
<path id="Vector_10" d="M23.9116 47.646C24.753 48.3838 25.4388 49.2821 25.9287 50.2882C25.5158 49.8872 24.6665 49.9579 23.428 50.7954C23.0185 51.0118 22.6243 51.2562 22.2484 51.5268L21.9653 51.7391L21.4463 51.0549L21.7176 50.8426C22.0815 50.5656 22.4209 50.2578 22.732 49.9226C23.888 48.9435 24.1829 48.0942 23.9116 47.646Z" fill="#64CF83"/>
<path id="Vector_11" opacity="0.2" d="M21.9061 50.7246C22.0133 50.8222 22.1119 50.9287 22.201 51.0431C22.2954 51.1728 22.3661 51.2908 22.4369 51.4088L22.0005 51.739L21.4814 51.0549L21.9061 50.7246Z" fill="black"/>
<path id="Vector_12" d="M20.4433 50.5237C20.3787 50.5821 20.3231 50.6497 20.2782 50.7243C20.2712 50.7514 20.2712 50.7798 20.2782 50.8068V50.8776C20.3312 51.3123 20.499 51.7249 20.7644 52.0732C21.0297 52.4215 21.3831 52.6928 21.788 52.8593H22.0122C22.0956 52.8463 22.1734 52.8094 22.2363 52.7531C22.3033 52.7018 22.3594 52.6376 22.4014 52.5644C22.5783 52.2813 22.4014 51.6561 21.9886 51.0899C21.5757 50.5238 20.9977 50.2053 20.6674 50.2996C20.5782 50.3582 20.5019 50.4345 20.4433 50.5237Z" fill="#64CF83"/>
<path id="Vector_13" opacity="0.3" d="M20.6323 51.1141C20.8211 50.9725 21.2221 51.1141 21.517 51.5741C21.8119 52.0341 21.9063 52.388 21.7176 52.5295C21.5288 52.6711 21.4109 52.5295 21.2104 52.4352C21.4699 52.5295 21.6468 52.3526 21.5524 52.0459C21.4312 51.7305 21.2174 51.4591 20.939 51.2674C20.7621 51.1613 20.6206 51.1377 20.5498 51.2674C20.5579 51.208 20.5872 51.1535 20.6323 51.1141Z" fill="black"/>
<path id="Vector_14" d="M28.5587 52.6592C29.8461 53.0003 31.0318 53.6479 32.0148 54.5465C31.3661 54.3342 30.3988 54.9829 29.2782 56.8112C28.3582 58.2975 27.5207 59.7602 26.9191 60.8218L26.6714 61.27L25.7749 60.7746C25.8575 60.633 25.94 60.4915 26.0226 60.3264C26.5888 59.2647 27.3673 57.7667 28.1222 56.1861C29.0895 54.2516 29.0895 53.0838 28.5587 52.6592Z" fill="#64CF83"/>
<path id="Vector_15" opacity="0.2" d="M26.0938 60.2085C26.2553 60.2694 26.4129 60.3403 26.5656 60.4208C26.7196 60.5013 26.8658 60.5961 27.0021 60.7039C26.8841 60.9044 26.7897 61.0932 26.6836 61.2701L25.7871 60.7747L26.0938 60.2085Z" fill="black"/>
<path id="Vector_16" d="M23.9232 60.7038C23.8664 60.8142 23.8304 60.9342 23.817 61.0576V61.1756C23.8104 61.2186 23.8104 61.2623 23.817 61.3053C23.817 61.3053 23.817 61.3053 23.817 61.3761V61.4705C24.1528 62.026 24.63 62.4825 25.1999 62.7934C25.7698 63.1042 26.4119 63.2583 27.0608 63.2398H27.167H27.226H27.3439C27.3632 63.2448 27.3835 63.2448 27.4029 63.2398C27.5091 63.1691 27.5946 63.0714 27.6506 62.9567C27.7089 62.8511 27.745 62.7347 27.7567 62.6146C27.8275 62.1074 27.2378 61.3643 26.3059 60.8689C25.374 60.3735 24.4422 60.2555 24.0529 60.5976C24.0059 60.628 23.9623 60.6637 23.9232 60.7038Z" fill="#64CF83"/>
<path id="Vector_17" opacity="0.3" d="M24.5369 61.3876C24.702 61.0809 25.3507 61.1163 25.9995 61.4702C26.6483 61.824 27.0139 62.343 26.8488 62.6497C26.6837 62.9564 26.4595 62.8974 26.1057 62.8267C26.5185 62.8267 26.6365 62.4492 26.3416 62.0835C25.9831 61.73 25.5271 61.4918 25.0322 61.3994C24.7374 61.3994 24.5368 61.3994 24.5132 61.6589C24.4984 61.6145 24.4928 61.5675 24.4969 61.5208C24.501 61.4741 24.5146 61.4288 24.5369 61.3876Z" fill="black"/>
<path id="Vector_18" d="M35.1997 55.5251C36.4537 55.4582 37.711 55.5574 38.9389 55.82C38.302 55.82 37.7594 56.3272 37.5471 57.436C37.3937 58.3325 37.2875 59.2054 37.2286 59.7951C37.2234 59.8855 37.2234 59.9761 37.2286 60.0664L36.2613 59.9839C36.2613 59.9013 36.2613 59.8187 36.2613 59.7244C36.2613 59.0874 36.3439 58.2145 36.3321 57.2945C36.2967 56.2211 35.8367 55.6313 35.1997 55.5251Z" fill="#64CF83"/>
<path id="Vector_19" opacity="0.2" d="M36.2613 59.6068C36.4262 59.5953 36.5918 59.5953 36.7567 59.6068H37.2404V60.0315L36.2731 59.9489C36.2377 59.8899 36.2495 59.7484 36.2613 59.6068Z" fill="black"/>
<path id="Vector_20" d="M35.0583 60.5741C35.0348 60.663 35.0348 60.7565 35.0583 60.8454C35.0522 60.8726 35.0522 60.9008 35.0583 60.928H35.1172C35.486 61.2142 35.9364 61.3753 36.403 61.388C36.8661 61.4475 37.3362 61.3609 37.7477 61.1403H37.8067V61.0695C37.8482 60.9923 37.8761 60.9085 37.8892 60.8218C37.9015 60.7357 37.9015 60.6484 37.8892 60.5623C37.7831 60.2084 37.1815 59.9017 36.4266 59.8428C35.6717 59.7838 35.0347 59.9843 34.8813 60.3146C34.9186 60.4141 34.9793 60.5031 35.0583 60.5741Z" fill="#64CF83"/>
<path id="Vector_21" opacity="0.3" d="M35.6479 60.8454C35.6479 60.5977 36.108 60.4325 36.627 60.4797C37.146 60.5269 37.5471 60.751 37.5353 60.9987C37.5235 61.2465 37.3465 61.27 37.0988 61.329C37.3583 61.1993 37.3347 60.928 37.0281 60.7864C36.6925 60.6623 36.3291 60.6338 35.9782 60.7039C35.7777 60.7746 35.6597 60.869 35.7187 61.0341C35.6753 60.9805 35.6505 60.9143 35.6479 60.8454Z" fill="black"/>
<path id="Vector_22" d="M42.2656 55.4192C43.3804 54.6893 44.6552 54.2401 45.9812 54.1099C45.3915 54.4401 45.2263 55.5961 45.8279 57.6486C46.3115 59.3235 46.8423 60.916 47.2316 62.0483C47.2906 62.2253 47.3495 62.3786 47.3967 62.532L46.4295 62.874C46.4295 62.7207 46.3233 62.5556 46.2643 62.3904C45.8515 61.2109 45.2617 59.6892 44.6011 58.085C43.7872 56.1033 42.938 55.3012 42.2656 55.4192Z" fill="#64CF83"/>
<path id="Vector_23" opacity="0.2" d="M46.2168 62.2488C46.3687 62.1666 46.5264 62.0957 46.6887 62.0365C46.8507 61.9822 47.0162 61.9389 47.184 61.9067C47.2548 62.1309 47.3256 62.3314 47.3964 62.5201L46.4291 62.8622C46.3702 62.6617 46.2994 62.4611 46.2168 62.2488Z" fill="black"/>
<path id="Vector_24" opacity="0.3" d="M45.9811 64.372C45.8514 64.0063 46.3586 63.5109 47.1607 63.1924C47.9628 62.8739 48.6116 63.0037 48.7413 63.3693C48.8711 63.735 48.6588 63.8648 48.3403 64.1007C48.6116 63.7468 48.4228 63.3929 47.9156 63.3693C47.368 63.398 46.8418 63.5912 46.4058 63.9237C46.1581 64.1479 46.0519 64.3602 46.2288 64.5371C46.178 64.5292 46.1295 64.5104 46.0868 64.4819C46.044 64.4533 46.008 64.4158 45.9811 64.372Z" fill="black"/>
<path id="Vector_25" d="M48.6704 52.4585C49.5109 51.357 50.5224 50.3973 51.6665 49.6157C51.2183 50.1583 51.3126 51.0784 52.2563 52.2461C53.023 53.1898 53.8015 54.0745 54.3795 54.6996L54.6154 54.9592L53.8369 55.7023C53.7606 55.61 53.6778 55.5233 53.5892 55.4428C52.9994 54.8294 52.1737 54.0037 51.23 53.178C50.1448 52.1754 49.2366 52.0338 48.6704 52.4585Z" fill="#64CF83"/>
<path id="Vector_26" opacity="0.2" d="M53.4951 55.3364C53.6131 55.2066 53.731 55.0769 53.8726 54.9471C54.0017 54.8196 54.1396 54.7014 54.2854 54.5933L54.6157 54.9589L53.8372 55.702L53.4951 55.3364Z" fill="black"/>
<path id="Vector_27" opacity="0.3" d="M54.144 56.8232C53.9552 56.6108 54.144 56.1272 54.5686 55.7262C54.9933 55.3251 55.4887 55.16 55.6774 55.3723C55.8661 55.5846 55.7718 55.7262 55.6774 55.9857C55.76 55.6672 55.5122 55.4785 55.1702 55.62C54.8153 55.8048 54.5207 56.0872 54.3209 56.4339C54.2266 56.658 54.2148 56.835 54.3917 56.9057C54.3015 56.912 54.2124 56.8824 54.144 56.8232Z" fill="black"/>
<path id="Vector_28" d="M53.6953 46.6197C54.0321 45.6689 54.426 44.7393 54.8749 43.8359C54.7333 44.2252 54.7098 44.815 55.04 45.0155C55.2926 45.2064 55.5655 45.3686 55.8539 45.4991H55.9365L55.7006 46.0889H55.6062C55.3136 45.9824 55.0082 45.915 54.698 45.8884C54.4752 45.8897 54.2586 45.961 54.0786 46.0923C53.8987 46.2235 53.7646 46.408 53.6953 46.6197Z" fill="#64CF83"/>
<path id="Vector_29" opacity="0.2" d="M55.4531 46.0888L55.5593 45.7821C55.6017 45.6854 55.6489 45.591 55.7008 45.499L55.9131 45.5816L55.6772 46.1714L55.4531 46.0888Z" fill="black"/>
<path id="Vector_30" d="M55.9246 47.3982C56.0024 47.4147 56.0828 47.4147 56.1606 47.3982H56.2195H56.2903C56.622 47.1656 56.8734 46.8359 57.0099 46.4545C57.1868 46.0881 57.2405 45.6744 57.1632 45.275C57.1666 45.2515 57.1666 45.2277 57.1632 45.2042C57.1133 45.1418 57.0483 45.0931 56.9745 45.0626C56.9041 45.0514 56.8324 45.0514 56.7621 45.0626C56.4436 45.0626 56.0308 45.4637 55.7713 46.0653C55.5118 46.6668 55.5236 47.2448 55.7713 47.4689C55.827 47.4569 55.8793 47.4327 55.9246 47.3982Z" fill="#64CF83"/>
<path id="Vector_31" opacity="0.3" d="M56.3024 46.9733C56.1136 46.8907 56.0901 46.4897 56.3024 46.0768C56.5147 45.664 56.7742 45.3927 56.9747 45.4753C57.1753 45.5578 57.1516 45.6994 57.1281 45.9235C57.1281 45.6758 56.8568 45.6168 56.6562 45.8291C56.4636 46.0694 56.3448 46.3603 56.3142 46.6666C56.3142 46.8553 56.3142 46.9851 56.5147 46.9733C56.4821 46.9909 56.4456 47 56.4085 47C56.3715 47 56.335 46.9909 56.3024 46.9733Z" fill="black"/>
<path id="Vector_32" d="M55.6417 39.8958C55.3098 38.6088 55.2535 37.2663 55.4766 35.9561C55.6063 36.6166 55.8422 37.1356 57.7295 37.1356C59.263 37.1356 59.3691 37.2182 60.4307 37.1356H60.938V38.1618H60.4897C59.4281 38.1618 59.3101 38.2444 57.7885 38.3978C55.913 38.6573 55.7243 39.2235 55.6417 39.8958Z" fill="#64CF83"/>
<path id="Vector_33" opacity="0.2" d="M60.2775 38.245C60.2775 38.0798 60.2775 37.9147 60.2185 37.7378C60.2065 37.565 60.2065 37.3915 60.2185 37.2188H60.8673V38.245H60.2775Z" fill="black"/>
<path id="Vector_34" d="M61.7637 39.7426C61.8839 39.7408 62.0016 39.7083 62.1057 39.6483H62.1765L62.2709 39.5657L62.3298 39.4949C62.6284 38.9469 62.7719 38.3278 62.7449 37.7043C62.7178 37.0808 62.5213 36.4764 62.1765 35.9562L62.1057 35.8855C62.0826 35.8524 62.0496 35.8276 62.0114 35.8147H61.9406C61.8284 35.7857 61.7107 35.7857 61.5985 35.8147C61.4798 35.8169 61.3631 35.8451 61.2564 35.8973C60.8082 36.086 60.5015 36.9353 60.5487 37.9379C60.5959 38.9405 60.9734 39.7545 61.4334 39.896C61.5553 39.8757 61.6695 39.8227 61.7637 39.7426Z" fill="#64CF83"/>
<path id="Vector_35" opacity="0.3" d="M62.0115 38.9051C61.6812 38.9051 61.3981 38.3743 61.3627 37.7256C61.3274 37.0768 61.5751 36.4634 61.9054 36.4516C62.2356 36.4398 62.2946 36.6522 62.4244 36.9707C62.2003 36.6522 61.8464 36.7347 61.7048 37.1476C61.5941 37.6087 61.6186 38.092 61.7756 38.5395C61.9054 38.799 62.0469 38.9405 62.2474 38.8344C62.2155 38.8625 62.1779 38.8833 62.1372 38.8956C62.0965 38.9078 62.0536 38.911 62.0115 38.9051Z" fill="black"/>
<path id="Vector_36" d="M54.4506 32.5476C53.7696 31.6566 53.2651 30.6437 52.9644 29.5633C53.2946 30.0351 54.1439 30.1295 55.4768 29.5633C55.904 29.4257 56.3217 29.2602 56.7272 29.0679L57.0457 28.9146L57.4231 29.6813L57.1164 29.8464C56.7022 30.0407 56.3073 30.2738 55.9369 30.5424C54.7101 31.2737 54.2737 31.9932 54.4506 32.5476Z" fill="#64CF83"/>
<path id="Vector_37" opacity="0.2" d="M56.9395 29.929C56.7727 29.6897 56.6416 29.4275 56.5503 29.1505L57.0457 28.9146L57.4232 29.6813L56.9395 29.929Z" fill="black"/>
<path id="Vector_38" d="M58.343 30.4005C58.4184 30.3617 58.4833 30.305 58.5317 30.2353C58.5378 30.2082 58.5378 30.18 58.5317 30.1528C58.5317 30.1528 58.5317 30.1528 58.5317 30.082C58.5857 29.6418 58.499 29.1959 58.284 28.8081C58.1041 28.4043 57.8032 28.0663 57.4229 27.8408H57.3522H57.1516C57.0652 27.8479 56.981 27.872 56.9039 27.9116C56.8287 27.9453 56.7636 27.9982 56.7152 28.0649C56.4793 28.3126 56.5265 28.9496 56.8449 29.5866C57.1634 30.2235 57.6353 30.6482 58.0245 30.6128C58.1503 30.5771 58.2616 30.5028 58.343 30.4005Z" fill="#64CF83"/>
<path id="Vector_39" opacity="0.3" d="M58.2606 29.7869C58.06 29.8813 57.7062 29.61 57.4821 29.1736C57.2579 28.7371 57.2579 28.2889 57.4821 28.1827C57.7062 28.0766 57.7887 28.1827 57.9657 28.3715C57.7298 28.2299 57.5174 28.3715 57.5528 28.7017C57.6136 29.0338 57.7693 29.3411 58.0011 29.5864C58.1544 29.7162 58.2959 29.7634 58.3903 29.5864C58.3863 29.6278 58.3725 29.6676 58.3499 29.7025C58.3273 29.7374 58.2967 29.7664 58.2606 29.7869Z" fill="black"/>
<path id="Vector_40" d="M50.8171 26.7204C49.6236 26.1376 48.5848 25.2807 47.7856 24.2197C48.3754 24.55 49.4488 24.09 50.8879 22.533C52.0675 21.2472 53.1409 19.9851 53.9194 19.065L54.2379 18.6758L55.0282 19.3245L54.7097 19.7138C53.9548 20.6457 52.9167 21.955 51.8905 23.3587C50.6284 25.069 50.3807 26.2014 50.8171 26.7204Z" fill="#64CF83"/>
<path id="Vector_41" opacity="0.2" d="M54.6273 19.7843C54.4777 19.6981 54.3357 19.5995 54.2027 19.4894C54.0611 19.3715 53.9432 19.2535 53.8252 19.1356L54.2381 18.6401L55.0283 19.2889L54.6273 19.7843Z" fill="black"/>
<path id="Vector_42" d="M56.8448 19.7842C56.924 19.6862 56.984 19.5742 57.0217 19.454C57.0217 19.454 57.0217 19.454 57.0217 19.3714V19.1355C57.0217 19.1355 57.0217 19.0765 57.0217 19.0411C56.8262 18.421 56.4429 17.8769 55.9247 17.4841C55.4401 17.0459 54.8287 16.7733 54.1789 16.7056H54.0138H53.8841H53.8133C53.6992 16.7565 53.5984 16.833 53.5186 16.9291C53.4388 17.0252 53.3823 17.1384 53.3533 17.26C53.1763 17.7436 53.6245 18.5693 54.4384 19.2416C55.2523 19.914 56.1606 20.1971 56.5971 19.9376C56.6864 19.8984 56.7698 19.8467 56.8448 19.7842Z" fill="#64CF83"/>
<path id="Vector_43" opacity="0.3" d="M56.373 18.9587C56.1607 19.23 55.5237 19.0648 54.9575 18.6048C54.3913 18.1448 54.12 17.555 54.3442 17.2837C54.5683 17.0124 54.7688 17.1186 55.1109 17.2837C54.698 17.2837 54.5211 17.555 54.7452 17.9678C55.0359 18.3872 55.4473 18.7081 55.9248 18.8879C56.2079 18.9705 56.4202 18.9587 56.4792 18.7346C56.4742 18.8202 56.4362 18.9006 56.373 18.9587Z" fill="black"/>
<path id="Vector_44" d="M44.8014 22.6624C43.5604 22.4833 42.3474 22.1463 41.1919 21.6598C41.8289 21.7659 42.4658 21.3885 42.8551 20.3504C43.1854 19.5129 43.4449 18.6873 43.6218 18.0857L43.6926 17.8262L44.6362 18.0857L44.5654 18.3452C44.4003 18.9468 44.1998 19.796 44.0464 20.7043C43.8577 21.7777 44.2116 22.4265 44.8014 22.6624Z" fill="#64CF83"/>
<path id="Vector_45" opacity="0.2" d="M44.5183 18.4867L44.0464 18.3806C43.8887 18.3437 43.7347 18.2924 43.5864 18.2272L43.6926 17.8262L44.6362 18.0857C44.6008 18.2154 44.5654 18.3452 44.5183 18.4867Z" fill="black"/>
<path id="Vector_46" d="M45.8987 17.7674C45.9162 17.6778 45.9162 17.5857 45.8987 17.4961C45.8987 17.4961 45.8987 17.4961 45.8987 17.4371C45.9038 17.4099 45.9038 17.3819 45.8987 17.3546V17.2956C45.592 16.9411 45.1778 16.6966 44.7191 16.5997C44.2742 16.457 43.7958 16.457 43.3508 16.5997H43.2801C43.2528 16.5942 43.2247 16.5942 43.1975 16.5997C43.1444 16.6706 43.1045 16.7505 43.0795 16.8356C43.062 16.9212 43.062 17.0095 43.0795 17.0951C43.0795 17.4607 43.6457 17.8736 44.377 18.0741C44.6388 18.1865 44.9252 18.2293 45.2083 18.1983C45.4915 18.1673 45.7618 18.0635 45.993 17.8972C45.9669 17.8503 45.9352 17.8068 45.8987 17.7674Z" fill="#64CF83"/>
<path id="Vector_47" opacity="0.3" d="M45.3559 17.4253C45.2969 17.6612 44.8369 17.7438 44.3296 17.6023C43.8224 17.4607 43.4803 17.154 43.5393 16.9181C43.5983 16.6822 43.7752 16.6822 44.0347 16.6704C43.7517 16.7648 43.7281 17.0243 44.0347 17.2248C44.341 17.4181 44.6992 17.5128 45.061 17.4961C45.2615 17.4961 45.403 17.4017 45.3794 17.2248C45.3898 17.258 45.3931 17.293 45.389 17.3276C45.3849 17.3621 45.3737 17.3954 45.3559 17.4253Z" fill="black"/>
<path id="Vector_48" d="M37.7479 21.5067C36.5317 22.1202 35.1556 22.3426 33.8081 22.1437C34.4451 21.896 34.7753 20.5159 34.4922 17.8383C34.4215 17.2013 34.4097 15.7386 34.1856 14.2288C34.1856 13.9929 34.1266 13.7806 34.0912 13.58L35.1056 13.4385C35.1056 13.6272 35.1646 13.8395 35.2 14.0754C35.4359 15.5853 35.6954 17.2013 35.778 17.6141C36.3324 20.2328 37.0637 21.4477 37.7479 21.5067Z" fill="#64CF83"/>
<path id="Vector_49" opacity="0.2" d="M35.247 14.0162C35.0851 14.0652 34.9193 14.1007 34.7515 14.1223C34.579 14.1393 34.4051 14.1393 34.2325 14.1223C34.2325 13.8864 34.1736 13.6741 34.1382 13.4736L35.1526 13.332C35.188 13.5679 35.2116 13.7803 35.247 14.0162Z" fill="black"/>
<path id="Vector_50" d="M36.8746 12.1645C36.8505 12.0293 36.7983 11.9007 36.7212 11.787V11.7162L36.6151 11.6219C36.5957 11.6169 36.5754 11.6169 36.5561 11.6219H36.4617C35.8148 11.3167 35.0863 11.2298 34.3857 11.3742C33.6773 11.4483 33.0094 11.741 32.4748 12.2117L32.404 12.306C32.399 12.3254 32.399 12.3457 32.404 12.365L32.3333 12.483C32.328 12.5142 32.328 12.5461 32.3333 12.5773C32.303 12.7093 32.303 12.8464 32.3333 12.9784C32.3553 13.1122 32.4034 13.2405 32.4748 13.3558C32.7461 13.8395 33.7488 14.0872 34.8929 13.922C36.0371 13.7569 36.9218 13.2143 37.0397 12.6717C37.0155 12.4941 36.9595 12.3223 36.8746 12.1645Z" fill="#64CF83"/>
<path id="Vector_51" opacity="0.3" d="M35.8842 11.9758C35.9431 12.3533 35.3534 12.7543 34.5631 12.8723C33.7727 12.9902 33.0886 12.7779 33.0414 12.4005C32.9942 12.023 33.2183 11.9286 33.5722 11.7517C33.2301 12.0466 33.3599 12.4358 33.8553 12.5538C34.4 12.6229 34.9531 12.5328 35.4477 12.2943C35.719 12.1292 35.8724 11.9404 35.719 11.7163C35.8045 11.7791 35.8635 11.8717 35.8842 11.9758Z" fill="black"/>
<path id="Vector_52" d="M31.0948 23.2051C30.1012 24.1776 28.9162 24.9328 27.6151 25.4227C28.1459 24.9509 28.1105 23.8539 27.1668 22.1435C26.4001 20.7634 26.4591 20.9639 25.8693 19.9731L25.6216 19.5838L26.5298 19.0059L26.7776 19.3951C27.3791 20.3152 27.3791 20.1264 28.311 21.4122C29.467 22.9928 30.446 23.4882 31.0948 23.2051Z" fill="#64CF83"/>
<path id="Vector_53" opacity="0.2" d="M26.7893 19.4187C26.5124 19.6492 26.2072 19.8435 25.8811 19.9967L25.6216 19.5838L26.5298 19.0059L26.7893 19.4187Z" fill="black"/>
<path id="Vector_54" opacity="0.3" d="M26.4356 17.85C26.5889 18.0859 26.3058 18.5223 25.8222 18.8408C25.3386 19.1593 24.8078 19.2183 24.6426 18.9823C24.4775 18.7464 24.6426 18.6167 24.8077 18.3926C24.6662 18.6875 24.8667 18.9116 25.2324 18.8408C25.6193 18.7266 25.9639 18.501 26.2232 18.192C26.3648 17.9915 26.4002 17.8264 26.2232 17.7202C26.2659 17.7251 26.3071 17.7392 26.3438 17.7616C26.3804 17.784 26.4118 17.8142 26.4356 17.85Z" fill="black"/>
<path id="Vector_55" d="M24.9613 27.9473C24.4528 28.8169 23.8935 29.6558 23.2863 30.4597C23.4008 30.2867 23.4677 30.0866 23.4801 29.8795C23.4925 29.6724 23.4501 29.4657 23.3571 29.2802C23.1481 29.0476 22.9148 28.838 22.6612 28.655H22.5786L22.9207 28.1242H23.015C23.2781 28.2882 23.5644 28.4114 23.8643 28.4899C24.0807 28.522 24.3017 28.4872 24.4977 28.3902C24.6938 28.2933 24.8555 28.1387 24.9613 27.9473Z" fill="#64CF83"/>
<path id="Vector_56" opacity="0.2" d="M23.1212 28.1356C23.1212 28.23 23.015 28.3125 22.956 28.4069C22.9028 28.5 22.8395 28.587 22.7673 28.6664L22.5786 28.5367L22.9207 28.0059L23.1212 28.1356Z" fill="black"/>
<path id="Vector_57" d="M22.9089 26.7554C22.845 26.7129 22.7725 26.6847 22.6966 26.6729H22.4371C22.0657 26.8346 21.7529 27.1063 21.5406 27.4514C21.2977 27.7963 21.1697 28.2091 21.175 28.6309V28.7135C21.206 28.7843 21.26 28.8425 21.3283 28.8786C21.3923 28.9212 21.4647 28.9494 21.5406 28.9612C21.8473 29.032 22.3309 28.7135 22.7202 28.1591C23.1094 27.6047 23.192 27.0385 23.0033 26.7908C22.9727 26.7767 22.9412 26.7648 22.9089 26.7554Z" fill="#64CF83"/>
<path id="Vector_58" opacity="0.3" d="M22.4488 27.0976C22.6375 27.2156 22.5785 27.6166 22.3308 27.9941C22.0831 28.3715 21.7292 28.5839 21.5523 28.4659C21.3754 28.348 21.4226 28.2064 21.4815 27.9941C21.4815 28.2418 21.6939 28.3362 21.9298 28.171C22.1662 27.9693 22.3384 27.7027 22.4252 27.4043C22.4252 27.2274 22.4252 27.0976 22.2837 27.074C22.3397 27.0615 22.3984 27.0699 22.4488 27.0976Z" fill="black"/>
<path id="Vector_59" opacity="0.1" d="M47.2195 23.7363C51.5721 26.4375 57.8356 37.8911 50.4161 48.1179C42.9967 58.3448 30.1394 53.9922 26.7305 51.291C28.5075 52.9517 30.6149 54.2189 32.9149 55.0098C35.215 55.8006 37.6561 56.0974 40.0786 55.8806C42.5012 55.6639 44.8508 54.9386 46.974 53.752C49.0971 52.5654 50.9461 50.9443 52.4001 48.9945C53.8541 47.0447 54.8804 44.8101 55.412 42.4366C55.9437 40.0632 55.9686 37.6043 55.4853 35.2206C55.0019 32.8368 54.0211 30.5819 52.607 28.603C51.1928 26.6241 49.3772 24.9658 47.2785 23.7363H47.2195Z" fill="black"/>
<path id="Vector_60" d="M42.761 48.094C43.1791 47.7362 43.7192 47.5536 44.2686 47.5844C44.8181 47.6152 45.3344 47.8569 45.71 48.2592C45.8739 48.7663 45.8683 49.313 45.6939 49.8167C45.5195 50.3203 45.1859 50.7535 44.7435 51.0506C44.301 51.3478 43.7739 51.4929 43.2417 51.4638C42.7095 51.4347 42.2012 51.2332 41.7938 50.8896C41.5658 50.3885 41.5391 49.8189 41.7191 49.2986C41.8991 48.7783 42.2721 48.3471 42.761 48.094Z" fill="#64CF83"/>
<path id="Vector_61" opacity="0.15" d="M42.761 48.094C43.1791 47.7362 43.7192 47.5536 44.2686 47.5844C44.8181 47.6152 45.3344 47.8569 45.71 48.2592C45.8739 48.7663 45.8683 49.313 45.6939 49.8167C45.5195 50.3203 45.1859 50.7535 44.7435 51.0506C44.301 51.3478 43.7739 51.4929 43.2417 51.4638C42.7095 51.4347 42.2012 51.2332 41.7938 50.8896C41.5658 50.3885 41.5391 49.8189 41.7191 49.2986C41.8991 48.7783 42.2721 48.3471 42.761 48.094Z" fill="black"/>
<path id="Vector_62" opacity="0.15" d="M42.7725 50.9608C42.1592 50.8428 42.1002 49.7812 43.0556 49.0616C43.3432 48.7934 43.7021 48.614 44.0893 48.5449C44.4764 48.4758 44.8753 48.5201 45.2378 48.6724C45.3146 48.734 45.3781 48.8105 45.4246 48.8972C45.4711 48.984 45.4996 49.0792 45.5084 49.1772C45.5172 49.2752 45.5062 49.374 45.4759 49.4677C45.4456 49.5613 45.3967 49.6479 45.3322 49.7222C45.4265 49.3329 45.1788 48.9909 44.6009 48.9791C44.2321 48.9873 43.871 49.085 43.5484 49.2638C43.2258 49.4426 42.9514 49.697 42.7489 50.0053C42.6327 50.1387 42.5707 50.3108 42.5751 50.4876C42.5795 50.6645 42.6499 50.8333 42.7725 50.9608Z" fill="black"/>
<path id="Vector_63" d="M37.4647 27.9706C37.1176 27.9838 36.7738 27.8991 36.4725 27.7262C36.1713 27.5533 35.9247 27.2991 35.761 26.9928C35.5973 26.6864 35.5231 26.3402 35.5468 25.9936C35.5705 25.6471 35.6912 25.3142 35.895 25.033C36.0989 24.7517 36.3778 24.5335 36.6998 24.4033C37.0218 24.273 37.3739 24.2359 37.716 24.2962C38.0581 24.3565 38.3763 24.5119 38.6343 24.7444C38.8923 24.977 39.0797 25.2774 39.1751 25.6114C39.47 26.4961 38.7033 27.5695 37.4647 27.9706Z" fill="#64CF83"/>
<path id="Vector_64" opacity="0.15" d="M37.4647 27.9706C37.1176 27.9838 36.7738 27.8991 36.4725 27.7262C36.1713 27.5533 35.9247 27.2991 35.761 26.9928C35.5973 26.6864 35.5231 26.3402 35.5468 25.9936C35.5705 25.6471 35.6912 25.3142 35.895 25.033C36.0989 24.7517 36.3778 24.5335 36.6998 24.4033C37.0218 24.273 37.3739 24.2359 37.716 24.2962C38.0581 24.3565 38.3763 24.5119 38.6343 24.7444C38.8923 24.977 39.0797 25.2774 39.1751 25.6114C39.47 26.4961 38.7033 27.5695 37.4647 27.9706Z" fill="black"/>
<path id="Vector_65" opacity="0.15" d="M38.2547 25.2339C38.8091 25.517 38.585 26.5314 37.4526 26.9796C37.1007 27.1571 36.7046 27.2282 36.3129 27.1842C35.9212 27.1402 35.5507 26.983 35.2469 26.7319C35.1916 26.6517 35.1529 26.5613 35.133 26.4659C35.1132 26.3706 35.1126 26.2722 35.1312 26.1766C35.1499 26.081 35.1875 25.9901 35.2418 25.9093C35.2961 25.8284 35.366 25.7592 35.4474 25.7057C35.2469 26.0478 35.3884 26.4488 35.9428 26.614C36.3002 26.711 36.6759 26.7199 37.0375 26.6397C37.3991 26.5596 37.7359 26.3929 38.0188 26.1539C38.3609 25.8473 38.4317 25.4698 38.2547 25.2339Z" fill="black"/>
<path id="Vector_66" d="M33.8904 41.5828C34.0046 41.8473 34.0431 42.1382 34.0017 42.4233C33.9603 42.7084 33.8407 42.9764 33.6561 43.1976C33.4715 43.4187 33.2291 43.5843 32.956 43.6759C32.6829 43.7676 32.3897 43.7816 32.1091 43.7166C31.8285 43.6515 31.5714 43.5098 31.3665 43.3074C31.1616 43.1049 31.0169 42.8495 30.9484 42.5697C30.88 42.2899 30.8905 41.9966 30.9788 41.7224C31.0671 41.4482 31.2298 41.2038 31.4487 41.0166C31.8482 40.7702 32.3288 40.6915 32.786 40.7975C33.2432 40.9035 33.6401 41.1857 33.8904 41.5828Z" fill="#64CF83"/>
<path id="Vector_67" opacity="0.15" d="M33.8904 41.5828C34.0046 41.8473 34.0431 42.1382 34.0017 42.4233C33.9603 42.7084 33.8407 42.9764 33.6561 43.1976C33.4715 43.4187 33.2291 43.5843 32.956 43.6759C32.6829 43.7676 32.3897 43.7816 32.1091 43.7166C31.8285 43.6515 31.5714 43.5098 31.3665 43.3074C31.1616 43.1049 31.0169 42.8495 30.9484 42.5697C30.88 42.2899 30.8905 41.9966 30.9788 41.7224C31.0671 41.4482 31.2298 41.2038 31.4487 41.0166C31.8482 40.7702 32.3288 40.6915 32.786 40.7975C33.2432 40.9035 33.6401 41.1857 33.8904 41.5828Z" fill="black"/>
<path id="Vector_68" opacity="0.15" d="M31.5195 41.8776C31.5195 41.3586 32.416 41.1935 33.1238 41.8776C33.379 42.0885 33.5666 42.3698 33.6631 42.6865C33.7596 43.0033 33.7607 43.3414 33.6663 43.6587C33.6231 43.7287 33.5663 43.7893 33.4992 43.8368C33.4321 43.8844 33.3561 43.918 33.2758 43.9356C33.1955 43.9532 33.1124 43.9545 33.0316 43.9393C32.9507 43.9242 32.8738 43.893 32.8053 43.8475C33.1473 43.8475 33.4068 43.6352 33.3478 43.1633C33.3069 42.855 33.1908 42.5614 33.0098 42.3084C32.8288 42.0554 32.5885 41.8508 32.3099 41.7125C31.956 41.5945 31.6375 41.6653 31.5195 41.8776Z" fill="black"/>
<path id="Vector_69" d="M43.3626 39.0115C43.3626 37.7021 44.259 36.6523 45.2381 36.7231C45.775 36.8372 46.2478 37.1527 46.5593 37.6046C46.8709 38.0565 46.9974 38.6106 46.913 39.153C46.8541 40.4623 46.0166 41.5121 45.0375 41.4414C44.4992 41.3299 44.0246 41.0151 43.7126 40.5624C43.4006 40.1098 43.2752 39.5542 43.3626 39.0115Z" fill="#64CF83"/>
<path id="Vector_70" opacity="0.15" d="M43.3626 39.0115C43.3626 37.7021 44.259 36.6523 45.2381 36.7231C45.775 36.8372 46.2478 37.1527 46.5593 37.6046C46.8709 38.0565 46.9974 38.6106 46.913 39.153C46.8541 40.4623 46.0166 41.5121 45.0375 41.4414C44.4992 41.3299 44.0246 41.0151 43.7126 40.5624C43.4006 40.1098 43.2752 39.5542 43.3626 39.0115Z" fill="black"/>
<path id="Vector_71" opacity="0.15" d="M45.6627 40.6864C45.2027 41.1111 44.3298 40.5449 44.2944 39.3417C44.2944 38.3863 44.7427 37.5016 45.2853 37.3482C45.3798 37.3237 45.4783 37.3183 45.5749 37.3324C45.6716 37.3465 45.7644 37.3798 45.848 37.4304C45.9315 37.481 46.0041 37.5478 46.0614 37.6268C46.1188 37.7059 46.1596 37.7957 46.1817 37.8908C45.9222 37.5842 45.4976 37.5842 45.1555 38.0442C44.9398 38.3441 44.8011 38.6925 44.7517 39.0586C44.7024 39.4248 44.7438 39.7975 44.8724 40.1438C45.0493 40.5685 45.3678 40.769 45.6627 40.6864Z" fill="black"/>
<path id="Vector_72" d="M30.399 46.089C30.5264 46.4087 30.5622 46.7577 30.5023 47.0967C30.4424 47.4356 30.2892 47.7512 30.0599 48.008C29.8306 48.2647 29.5343 48.4525 29.2042 48.5502C28.8742 48.6479 28.5234 48.6517 28.1913 48.5611C27.8592 48.4705 27.559 48.2892 27.3242 48.0374C27.0894 47.7857 26.9295 47.4735 26.8623 47.1359C26.7951 46.7983 26.8233 46.4486 26.9438 46.1262C27.0643 45.8037 27.2723 45.5213 27.5444 45.3104C28.0287 45.0464 28.5963 44.9799 29.1284 45.125C29.6605 45.2702 30.1158 45.6156 30.399 46.089Z" fill="#64CF83"/>
<path id="Vector_73" opacity="0.15" d="M30.399 46.089C30.5264 46.4087 30.5622 46.7577 30.5023 47.0967C30.4424 47.4356 30.2892 47.7512 30.0599 48.008C29.8306 48.2647 29.5343 48.4525 29.2042 48.5502C28.8742 48.6479 28.5234 48.6517 28.1913 48.5611C27.8592 48.4705 27.559 48.2892 27.3242 48.0374C27.0894 47.7857 26.9295 47.4735 26.8623 47.1359C26.7951 46.7983 26.8233 46.4486 26.9438 46.1262C27.0643 45.8037 27.2723 45.5213 27.5444 45.3104C28.0287 45.0464 28.5963 44.9799 29.1284 45.125C29.6605 45.2702 30.1158 45.6156 30.399 46.089Z" fill="black"/>
<path id="Vector_74" opacity="0.15" d="M27.5562 46.2776C27.6269 45.6643 28.6649 45.5345 29.467 46.431C29.7573 46.6992 29.9623 47.0468 30.0566 47.4306C30.151 47.8143 30.1305 48.2173 29.9978 48.5896C29.9405 48.6686 29.8682 48.7356 29.785 48.7866C29.7019 48.8377 29.6094 48.8718 29.513 48.8872C29.4167 48.9025 29.3182 48.8987 29.2233 48.876C29.1283 48.8533 29.0388 48.8121 28.9598 48.7547C29.3609 48.8255 29.6794 48.5542 29.6558 47.9762C29.6199 47.6055 29.4935 47.2492 29.2879 46.9387C29.0822 46.6282 28.8035 46.3728 28.4762 46.1951C28.0988 45.9828 27.7213 46.0299 27.5562 46.2776Z" fill="black"/>
<path id="Vector_75" d="M39.5763 33.3258C39.3352 33.2558 39.1135 33.131 38.9286 32.961C38.7437 32.7911 38.6007 32.5808 38.5106 32.3464C38.4206 32.112 38.386 31.8599 38.4095 31.6099C38.4331 31.36 38.5141 31.1188 38.6463 30.9054C38.7786 30.6919 38.9584 30.5119 39.1717 30.3795C39.3851 30.2471 39.6262 30.1658 39.8761 30.1421C40.1261 30.1183 40.3782 30.1527 40.6126 30.2426C40.8471 30.3324 41.0576 30.4753 41.2277 30.66C41.4688 30.73 41.6905 30.8549 41.8754 31.0248C42.0602 31.1947 42.2033 31.4051 42.2933 31.6395C42.3834 31.8738 42.418 32.1259 42.3944 32.3759C42.3709 32.6259 42.2898 32.867 42.1576 33.0805C42.0254 33.2939 41.8456 33.4739 41.6322 33.6063C41.4189 33.7387 41.1778 33.82 40.9278 33.8437C40.6779 33.8675 40.4258 33.8331 40.1913 33.7433C39.9569 33.6534 39.7464 33.5105 39.5763 33.3258Z" fill="#64CF83"/>
<path id="Vector_76" opacity="0.15" d="M39.5763 33.3258C39.3352 33.2558 39.1135 33.131 38.9286 32.961C38.7437 32.7911 38.6007 32.5808 38.5106 32.3464C38.4206 32.112 38.386 31.8599 38.4095 31.6099C38.4331 31.36 38.5141 31.1188 38.6463 30.9054C38.7786 30.6919 38.9584 30.5119 39.1717 30.3795C39.3851 30.2471 39.6262 30.1658 39.8761 30.1421C40.1261 30.1183 40.3782 30.1527 40.6126 30.2426C40.8471 30.3324 41.0576 30.4753 41.2277 30.66C41.4688 30.73 41.6905 30.8549 41.8754 31.0248C42.0602 31.1947 42.2033 31.4051 42.2933 31.6395C42.3834 31.8738 42.418 32.1259 42.3944 32.3759C42.3709 32.6259 42.2898 32.867 42.1576 33.0805C42.0254 33.2939 41.8456 33.4739 41.6322 33.6063C41.4189 33.7387 41.1778 33.82 40.9278 33.8437C40.6779 33.8675 40.4258 33.8331 40.1913 33.7433C39.9569 33.6534 39.7464 33.5105 39.5763 33.3258Z" fill="black"/>
<path id="Vector_77" opacity="0.15" d="M41.8642 32.2879C41.9939 32.8187 41.18 33.2551 40.2364 32.7479C39.4933 32.3469 39.0568 31.5684 39.1276 31.1319C39.148 31.0478 39.1853 30.9688 39.2372 30.8996C39.2892 30.8304 39.3547 30.7725 39.4297 30.7294C39.5048 30.6864 39.5878 30.6591 39.6738 30.6492C39.7597 30.6393 39.8468 30.647 39.9297 30.6719C39.5876 30.6719 39.3989 31.0611 39.5994 31.533C39.7325 31.8379 39.9389 32.1051 40.2002 32.3109C40.4616 32.5167 40.7698 32.6547 41.0974 32.7125C41.5103 32.7597 41.8052 32.5356 41.8642 32.2879Z" fill="black"/>
<path id="Vector_78" d="M31.1656 32.1699C30.2102 33.7033 28.488 34.3521 27.3438 33.6326C26.1996 32.913 26.0345 31.0847 27.0018 29.5513C27.969 28.0178 29.6794 27.3691 30.8236 28.1004C31.9677 28.8317 32.1329 30.6483 31.1656 32.1699Z" fill="#64CF83"/>
<path id="Vector_79" opacity="0.15" d="M31.1656 32.1699C30.2102 33.7033 28.488 34.3521 27.3438 33.6326C26.1996 32.913 26.0345 31.0847 27.0018 29.5513C27.969 28.0178 29.6794 27.3691 30.8236 28.1004C31.9677 28.8317 32.1329 30.6483 31.1656 32.1699Z" fill="black"/>
<path id="Vector_80" opacity="0.15" d="M29.5612 28.5605C30.3987 28.3717 31.0711 29.6575 30.269 31.1319C29.632 32.3115 28.4642 33.0428 27.7093 32.8541C27.5789 32.8174 27.457 32.7553 27.3507 32.6712C27.2445 32.5872 27.1558 32.483 27.09 32.3646C27.0243 32.2461 26.9826 32.1158 26.9674 31.9812C26.9522 31.8466 26.9638 31.7103 27.0016 31.5801C27.1078 32.1227 27.615 32.4176 28.3463 32.0992C28.8154 31.8843 29.2237 31.5562 29.5346 31.1444C29.8455 30.7326 30.0492 30.25 30.1274 29.74C30.269 29.1267 29.9623 28.6666 29.5612 28.5605Z" fill="black"/>
<path id="Vector_81" d="M48.9774 43.2696C49.129 43.0628 49.3354 42.9023 49.5732 42.8062C49.811 42.71 50.0708 42.6821 50.3236 42.7254C50.5764 42.7688 50.8122 42.8817 51.0044 43.0516C51.1965 43.2214 51.3376 43.4415 51.4117 43.6871C51.4857 43.9326 51.4899 44.194 51.4237 44.4418C51.3575 44.6896 51.2236 44.914 51.037 45.09C50.8503 45.2659 50.6183 45.3863 50.3671 45.4377C50.1158 45.4892 49.8551 45.4695 49.6143 45.3811C49.2584 45.1773 48.994 44.8449 48.8755 44.4522C48.757 44.0595 48.7935 43.6363 48.9774 43.2696Z" fill="#64CF83"/>
<path id="Vector_82" opacity="0.15" d="M48.9774 43.2696C49.129 43.0628 49.3354 42.9023 49.5732 42.8062C49.811 42.71 50.0708 42.6821 50.3236 42.7254C50.5764 42.7688 50.8122 42.8817 51.0044 43.0516C51.1965 43.2214 51.3376 43.4415 51.4117 43.6871C51.4857 43.9326 51.4899 44.194 51.4237 44.4418C51.3575 44.6896 51.2236 44.914 51.037 45.09C50.8503 45.2659 50.6183 45.3863 50.3671 45.4377C50.1158 45.4892 49.8551 45.4695 49.6143 45.3811C49.2584 45.1773 48.994 44.8449 48.8755 44.4522C48.757 44.0595 48.7935 43.6363 48.9774 43.2696Z" fill="black"/>
<path id="Vector_83" opacity="0.15" d="M50.2275 44.9916C49.8146 45.1803 49.3074 44.5787 49.5669 43.7177C49.8264 42.8566 50.2982 42.5381 50.7464 42.5381C50.8193 42.5426 50.8906 42.5614 50.9561 42.5935C51.0217 42.6256 51.0802 42.6704 51.1285 42.7252C51.1767 42.78 51.2136 42.8438 51.2371 42.9129C51.2606 42.982 51.2703 43.055 51.2655 43.1279C51.1475 42.8448 50.8408 42.7504 50.4987 42.9981C50.278 43.1658 50.1006 43.384 49.9816 43.6344C49.8625 43.8848 49.8053 44.1601 49.8146 44.4372C49.8264 44.7675 50.0034 44.9798 50.2275 44.9916Z" fill="black"/>
<path id="Vector_84" d="M48.3401 34.9062C48.3198 34.5556 48.3978 34.2063 48.5652 33.8976C48.7327 33.5889 48.9829 33.3331 49.2878 33.1588C49.5928 32.9846 49.9403 32.8989 50.2912 32.9113C50.6422 32.9238 50.9827 33.034 51.2745 33.2294C51.5663 33.4249 51.7978 33.6978 51.9429 34.0176C52.088 34.3375 52.141 34.6914 52.0959 35.0397C52.0508 35.388 51.9095 35.7168 51.6877 35.9891C51.466 36.2614 51.1727 36.4665 50.8407 36.5812C49.8971 36.9115 48.7883 36.1684 48.3401 34.9062Z" fill="#64CF83"/>
<path id="Vector_85" opacity="0.15" d="M48.3401 34.9062C48.3198 34.5556 48.3978 34.2063 48.5652 33.8976C48.7327 33.5889 48.9829 33.3331 49.2878 33.1588C49.5928 32.9846 49.9403 32.8989 50.2912 32.9113C50.6422 32.9238 50.9827 33.034 51.2745 33.2294C51.5663 33.4249 51.7978 33.6978 51.9429 34.0176C52.088 34.3375 52.141 34.6914 52.0959 35.0397C52.0508 35.388 51.9095 35.7168 51.6877 35.9891C51.466 36.2614 51.1727 36.4665 50.8407 36.5812C49.8971 36.9115 48.7883 36.1684 48.3401 34.9062Z" fill="black"/>
<path id="Vector_86" opacity="0.15" d="M51.1475 35.6377C50.8762 36.2039 49.8382 36.0034 49.3546 34.871C49.1647 34.5181 49.0805 34.118 49.1119 33.7185C49.1433 33.319 49.2889 32.937 49.5315 32.618C49.6962 32.5022 49.8999 32.4558 50.0986 32.489C50.2972 32.5221 50.4749 32.632 50.5931 32.795C50.2275 32.6063 49.8264 32.795 49.6731 33.3258C49.5894 33.6909 49.594 34.0708 49.6863 34.4338C49.7786 34.7969 49.956 35.1328 50.2039 35.4136C50.5341 35.7557 50.9116 35.8265 51.1475 35.6377Z" fill="black"/>
<path id="Vector_87" d="M44.601 28.5015C44.4347 28.455 44.2806 28.3725 44.1496 28.2599C44.0187 28.1472 43.9141 28.0072 43.8432 27.8497C43.7723 27.6921 43.7368 27.521 43.7394 27.3482C43.7419 27.1755 43.7824 27.0055 43.8579 26.8501C43.9333 26.6947 44.042 26.5578 44.1763 26.4491C44.3105 26.3404 44.4669 26.2624 44.6346 26.2208C44.8022 26.1792 44.977 26.1749 45.1465 26.2082C45.3159 26.2415 45.4761 26.3117 45.6155 26.4137C45.7818 26.4603 45.9359 26.5428 46.0669 26.6554C46.1978 26.7681 46.3024 26.9081 46.3733 27.0656C46.4442 27.2231 46.4796 27.3943 46.4771 27.567C46.4746 27.7397 46.4341 27.9098 46.3586 28.0652C46.2831 28.2205 46.1745 28.3574 46.0402 28.4662C45.906 28.5749 45.7496 28.6529 45.5819 28.6945C45.4143 28.7361 45.2395 28.7404 45.07 28.7071C44.9005 28.6737 44.7404 28.6036 44.601 28.5015Z" fill="#64CF83"/>
<path id="Vector_88" opacity="0.15" d="M44.601 28.5015C44.4347 28.455 44.2806 28.3725 44.1496 28.2599C44.0187 28.1472 43.9141 28.0072 43.8432 27.8497C43.7723 27.6921 43.7368 27.521 43.7394 27.3482C43.7419 27.1755 43.7824 27.0055 43.8579 26.8501C43.9333 26.6947 44.042 26.5578 44.1763 26.4491C44.3105 26.3404 44.4669 26.2624 44.6346 26.2208C44.8022 26.1792 44.977 26.1749 45.1465 26.2082C45.3159 26.2415 45.4761 26.3117 45.6155 26.4137C45.7818 26.4603 45.9359 26.5428 46.0669 26.6554C46.1978 26.7681 46.3024 26.9081 46.3733 27.0656C46.4442 27.2231 46.4796 27.3943 46.4771 27.567C46.4746 27.7397 46.4341 27.9098 46.3586 28.0652C46.2831 28.2205 46.1745 28.3574 46.0402 28.4662C45.906 28.5749 45.7496 28.6529 45.5819 28.6945C45.4143 28.7361 45.2395 28.7404 45.07 28.7071C44.9005 28.6737 44.7404 28.6036 44.601 28.5015Z" fill="black"/>
<path id="Vector_89" opacity="0.15" d="M46.205 27.5696C46.3466 27.9471 45.7804 28.3245 45.0255 28.0297C44.2705 27.7348 44.0346 27.2865 44.0936 26.9209C44.1036 26.8581 44.126 26.798 44.1593 26.7438C44.1926 26.6897 44.2362 26.6427 44.2877 26.6055C44.3392 26.5682 44.3975 26.5415 44.4593 26.5268C44.5212 26.5121 44.5853 26.5097 44.648 26.5198C44.4003 26.6024 44.2823 26.8501 44.4711 27.1804C44.5938 27.3867 44.7658 27.5594 44.9716 27.6829C45.1775 27.8064 45.4108 27.877 45.6506 27.8881C45.9809 27.8999 46.1814 27.7584 46.205 27.5696Z" fill="black"/>
<path id="Vector_90" d="M26.542 39.7074C26.6298 40.056 26.5794 40.425 26.4013 40.7372C26.2232 41.0494 25.9312 41.2806 25.5865 41.3824C24.9496 41.465 24.407 40.8516 24.2418 40.0023C24.1565 39.6555 24.2065 39.2891 24.3819 38.9779C24.5572 38.6667 24.8446 38.4341 25.1855 38.3273C25.8224 38.2566 26.424 38.8699 26.542 39.7074Z" fill="#64CF83"/>
<path id="Vector_91" opacity="0.15" d="M26.542 39.7074C26.6298 40.056 26.5794 40.425 26.4013 40.7372C26.2232 41.0494 25.9312 41.2806 25.5865 41.3824C24.9496 41.465 24.407 40.8516 24.2418 40.0023C24.1565 39.6555 24.2065 39.2891 24.3819 38.9779C24.5572 38.6667 24.8446 38.4341 25.1855 38.3273C25.8224 38.2566 26.424 38.8699 26.542 39.7074Z" fill="black"/>
<path id="Vector_92" opacity="0.15" d="M24.8667 38.8817C25.1144 38.5632 25.7514 38.8817 25.8929 39.6012C25.9809 39.8447 25.9953 40.1087 25.9345 40.3604C25.8737 40.612 25.7403 40.8402 25.5508 41.0167C25.4315 41.0657 25.298 41.0673 25.1774 41.0213C25.0569 40.9753 24.9584 40.8851 24.9021 40.769C25.1026 40.9341 25.3857 40.887 25.5508 40.5567C25.6605 40.3432 25.7178 40.1066 25.7178 39.8666C25.7178 39.6266 25.6605 39.3901 25.5508 39.1766C25.2795 38.8935 25.0436 38.7991 24.8667 38.8817Z" fill="black"/>
<path id="Vector_93" d="M38.9272 44.2368C39.1406 44.199 39.3602 44.2208 39.562 44.2996C39.7639 44.3784 39.9401 44.5113 40.0713 44.6837C40.2026 44.8561 40.2839 45.0613 40.3062 45.2768C40.3285 45.4923 40.291 45.7098 40.1979 45.9055C40.1047 46.1011 39.9595 46.2673 39.7781 46.3858C39.5967 46.5043 39.3862 46.5706 39.1696 46.5773C38.953 46.5841 38.7388 46.531 38.5504 46.424C38.362 46.317 38.2067 46.1602 38.1016 45.9708C37.9901 45.631 38.0137 45.2614 38.1674 44.9386C38.3212 44.6157 38.5932 44.3645 38.9272 44.2368Z" fill="#64CF83"/>
<path id="Vector_94" opacity="0.15" d="M38.9272 44.2368C39.1406 44.199 39.3602 44.2208 39.562 44.2996C39.7639 44.3784 39.9401 44.5113 40.0713 44.6837C40.2026 44.8561 40.2839 45.0613 40.3062 45.2768C40.3285 45.4923 40.291 45.7098 40.1979 45.9055C40.1047 46.1011 39.9595 46.2673 39.7781 46.3858C39.5967 46.5043 39.3862 46.5706 39.1696 46.5773C38.953 46.5841 38.7388 46.531 38.5504 46.424C38.362 46.317 38.2067 46.1602 38.1016 45.9708C37.9901 45.631 38.0137 45.2614 38.1674 44.9386C38.3212 44.6157 38.5932 44.3645 38.9272 44.2368Z" fill="black"/>
<path id="Vector_95" opacity="0.15" d="M38.7266 46.0887C38.3374 45.9707 38.3727 45.2866 39.0451 44.9091C39.2536 44.7586 39.5003 44.67 39.7569 44.6533C40.0135 44.6366 40.2697 44.6925 40.496 44.8147C40.5874 44.9075 40.6387 45.0325 40.6387 45.1627C40.6387 45.293 40.5874 45.418 40.496 45.5107C40.5903 45.263 40.496 45.0153 40.0831 44.9681C39.842 44.948 39.5996 44.9857 39.376 45.078C39.1524 45.1703 38.9541 45.3146 38.7974 45.4989C38.7198 45.5742 38.6704 45.6739 38.6575 45.7812C38.6447 45.8886 38.669 45.9971 38.7266 46.0887Z" fill="black"/>
<path id="Vector_96" d="M33.69 35.4848C33.6258 35.6407 33.5289 35.781 33.4058 35.8963C33.2827 36.0115 33.1363 36.0991 32.9765 36.153C32.8167 36.2069 32.6472 36.2259 32.4795 36.2087C32.3117 36.1916 32.1496 36.1386 32.004 36.0535C31.8585 35.9684 31.7328 35.853 31.6356 35.7152C31.5384 35.5775 31.4719 35.4204 31.4405 35.2547C31.4091 35.0891 31.4137 34.9186 31.4538 34.7548C31.4939 34.591 31.5686 34.4377 31.673 34.3052C31.7373 34.1493 31.8342 34.009 31.9573 33.8938C32.0804 33.7785 32.2267 33.691 32.3865 33.6371C32.5463 33.5832 32.7158 33.5642 32.8835 33.5813C33.0513 33.5985 33.2134 33.6514 33.359 33.7365C33.5046 33.8216 33.6302 33.937 33.7274 34.0748C33.8246 34.2126 33.8911 34.3696 33.9225 34.5353C33.9539 34.701 33.9494 34.8715 33.9093 35.0353C33.8692 35.1991 33.7944 35.3523 33.69 35.4848Z" fill="#64CF83"/>
<path id="Vector_97" opacity="0.15" d="M33.69 35.4848C33.6258 35.6407 33.5289 35.781 33.4058 35.8963C33.2827 36.0115 33.1363 36.0991 32.9765 36.153C32.8167 36.2069 32.6472 36.2259 32.4795 36.2087C32.3117 36.1916 32.1496 36.1386 32.004 36.0535C31.8585 35.9684 31.7328 35.853 31.6356 35.7152C31.5384 35.5775 31.4719 35.4204 31.4405 35.2547C31.4091 35.0891 31.4137 34.9186 31.4538 34.7548C31.4939 34.591 31.5686 34.4377 31.673 34.3052C31.7373 34.1493 31.8342 34.009 31.9573 33.8938C32.0804 33.7785 32.2267 33.691 32.3865 33.6371C32.5463 33.5832 32.7158 33.5642 32.8835 33.5813C33.0513 33.5985 33.2134 33.6514 33.359 33.7365C33.5046 33.8216 33.6302 33.937 33.7274 34.0748C33.8246 34.2126 33.8911 34.3696 33.9225 34.5353C33.9539 34.701 33.9494 34.8715 33.9093 35.0353C33.8692 35.1991 33.7944 35.3523 33.69 35.4848Z" fill="black"/>
<path id="Vector_98" opacity="0.15" d="M32.8527 33.821C33.2419 33.7149 33.584 34.3046 33.2419 35.0006C32.8998 35.6965 32.4398 35.9324 32.0623 35.8617C32.0002 35.8465 31.9417 35.8192 31.8901 35.7812C31.8386 35.7433 31.7952 35.6955 31.7623 35.6406C31.7294 35.5858 31.7077 35.525 31.6984 35.4617C31.6892 35.3984 31.6926 35.3338 31.7085 35.2719C31.7085 35.5314 32.0152 35.6611 32.3454 35.496C32.5658 35.3818 32.7538 35.2138 32.8919 35.0076C33.0301 34.8014 33.1139 34.5637 33.1357 34.3164C33.1711 34.0687 33.0532 33.8564 32.8527 33.821Z" fill="black"/>
<path id="Vector_99" d="M35.4239 50.6774C36.2613 50.8544 36.8276 51.5031 36.6978 52.1283C36.5703 52.462 36.3184 52.7333 35.995 52.885C35.6716 53.0368 35.302 53.0573 34.9638 52.9422C34.1263 52.7771 33.5601 52.1283 33.6899 51.5031C33.8126 51.1654 34.0632 50.8895 34.3877 50.735C34.7121 50.5805 35.0843 50.5598 35.4239 50.6774Z" fill="#64CF83"/>
<path id="Vector_100" opacity="0.15" d="M35.4239 50.6774C36.2613 50.8544 36.8276 51.5031 36.6978 52.1283C36.5703 52.462 36.3184 52.7333 35.995 52.885C35.6716 53.0368 35.302 53.0573 34.9638 52.9422C34.1263 52.7771 33.5601 52.1283 33.6899 51.5031C33.8126 51.1654 34.0632 50.8895 34.3877 50.735C34.7121 50.5805 35.0843 50.5598 35.4239 50.6774Z" fill="black"/>
<path id="Vector_101" opacity="0.15" d="M34.1027 51.9747C33.8786 51.6444 34.3386 51.1372 35.1171 51.2433C35.8956 51.3495 36.2967 51.727 36.2967 52.0926C36.3015 52.1562 36.2937 52.22 36.2738 52.2806C36.2538 52.3411 36.2221 52.3971 36.1805 52.4453C36.1388 52.4935 36.088 52.5331 36.031 52.5616C35.9741 52.5902 35.912 52.6072 35.8485 52.6116C36.0726 52.4819 36.1198 52.1988 35.8485 51.9275C35.676 51.7604 35.4662 51.6369 35.2364 51.5671C35.0067 51.4974 34.7635 51.4834 34.5273 51.5264C34.2442 51.6326 34.0791 51.7859 34.1027 51.9747Z" fill="black"/>
<path id="Vector_102" d="M39.1512 36.2982C39.5761 36.5243 39.9216 36.8748 40.1416 37.3028C40.3615 37.7309 40.4453 38.216 40.3816 38.693C40.318 39.17 40.11 39.6161 39.7855 39.9715C39.4611 40.3269 39.0357 40.5746 38.5664 40.6813C38.0972 40.7881 37.6065 40.7487 37.1602 40.5686C36.714 40.3885 36.3335 40.0762 36.0698 39.6737C35.8061 39.2711 35.6718 38.7976 35.685 38.3165C35.6981 37.8355 35.8581 37.3699 36.1434 36.9824C36.4517 36.493 36.9417 36.146 37.5057 36.0177C38.0697 35.8894 38.6616 35.9903 39.1512 36.2982Z" fill="#64CF83"/>
<path id="Vector_103" opacity="0.15" d="M39.1512 36.2982C39.5761 36.5243 39.9216 36.8748 40.1416 37.3028C40.3615 37.7309 40.4453 38.216 40.3816 38.693C40.318 39.17 40.11 39.6161 39.7855 39.9715C39.4611 40.3269 39.0357 40.5746 38.5664 40.6813C38.0972 40.7881 37.6065 40.7487 37.1602 40.5686C36.714 40.3885 36.3335 40.0762 36.0698 39.6737C35.8061 39.2711 35.6718 38.7976 35.685 38.3165C35.6981 37.8355 35.8581 37.3699 36.1434 36.9824C36.4517 36.493 36.9417 36.146 37.5057 36.0177C38.0697 35.8894 38.6616 35.9903 39.1512 36.2982Z" fill="black"/>
<path id="Vector_104" opacity="0.15" d="M36.3677 39.0585C36.4739 39.2405 36.6196 39.3962 36.7942 39.5142C36.9688 39.6322 37.1678 39.7093 37.3763 39.7399C37.5847 39.7705 37.7974 39.7537 37.9985 39.6909C38.1997 39.6281 38.3841 39.5208 38.5381 39.377C39.4345 38.7282 39.5997 37.0179 38.6324 36.6758C38.7591 37.0281 38.791 37.4076 38.7247 37.7761C38.6585 38.1446 38.4965 38.4893 38.255 38.7754C38.15 38.9184 38.0178 39.0393 37.866 39.131C37.7142 39.2227 37.5457 39.2835 37.3702 39.3098C37.1948 39.3361 37.0159 39.3274 36.8439 39.2843C36.6718 39.2412 36.51 39.1644 36.3677 39.0585Z" fill="black"/>
</g>
<path id="Vector_105" d="M37.3464 0.911163C29.9863 0.901828 22.7887 3.07584 16.6644 7.15813C10.5401 11.2404 5.76432 17.0476 2.94124 23.8448C0.11816 30.642 -0.625346 38.1239 0.804827 45.3437C2.235 52.5636 5.77458 59.1971 10.9757 64.4048C16.1768 69.6125 22.8057 73.1605 30.0238 74.5998C37.2419 76.0391 44.7247 75.3052 51.5255 72.4907C58.3263 69.6762 64.1395 64.9078 68.2295 58.7887C72.3196 52.6696 74.5027 45.4748 74.5027 38.1147C74.4934 28.2587 70.5772 18.8084 63.6124 11.8348C56.6477 4.86117 47.2023 0.933012 37.3464 0.911163ZM3.92934 38.1147C3.92484 30.2022 6.74397 22.5479 11.8796 16.5286L58.8971 63.5343C54.0466 67.6654 48.1142 70.3204 41.8019 71.1852C35.4897 72.05 29.0617 71.0884 23.2789 68.4141C17.4961 65.7399 12.6004 61.465 9.17129 56.0953C5.74214 50.7256 3.92306 44.4859 3.92934 38.1147ZM61.6572 60.9039L14.4746 13.7212C20.7314 7.46444 29.2175 3.9494 38.0659 3.9494C46.9144 3.9494 55.4004 7.46444 61.6572 13.7212C67.914 19.9781 71.4291 28.4641 71.4291 37.3126C71.4291 46.161 67.914 54.6471 61.6572 60.9039Z" fill="#455A64"/>
</g>
<path id="Vector_106" d="M35.2939 85.5567L30.5757 73.2656H44.1289L39.4106 85.5567C39.2724 85.9943 38.9983 86.3764 38.6282 86.6476C38.2581 86.9188 37.8112 87.0651 37.3523 87.0651C36.8934 87.0651 36.4465 86.9188 36.0764 86.6476C35.7062 86.3764 35.4322 85.9943 35.2939 85.5567Z" fill="#455A64"/>
</g>
</svg>
