<svg width="523" height="256" viewBox="0 0 523 256" fill="none" xmlns="http://www.w3.org/2000/svg">
<path d="M445.101 229.231C444.799 230.583 444.071 231.804 443.025 232.713C442.282 233.337 439.866 234.6 439.629 232.816C439.718 231.698 439.941 230.595 440.292 229.531C440.877 228.133 441.5 229.041 442.448 229.231C443.396 229.42 444.327 228.52 445.101 229.231Z" fill="#F5F5F5"/>
<path d="M438.634 84.4823C438.974 85.6748 439.203 86.8514 439.463 87.9648C438.555 89.331 436.747 88.8256 435.404 89.5442C434.78 89.8837 434.615 91.1235 433.999 91.3367C433.383 91.55 433.13 90.8235 432.672 90.8314C431.48 90.8314 430.903 93.2004 429.442 92.6239C428.605 93.2241 429.442 95.522 428.447 95.7116C427.713 95.8537 427.318 94.7166 426.868 94.0216C426.339 93.1767 425.573 92.7108 425.549 92.0317C425.525 91.3525 426.734 90.1364 427.129 89.6626C427.523 89.1888 428.526 87.9332 429.118 87.7753C430.216 87.4831 431.337 87.9016 432.182 87.4752C432.909 87.1041 432.972 85.73 433.343 85.3826C433.714 85.0351 434.054 85.1694 434.338 84.9877C434.87 84.4953 435.258 83.8684 435.462 83.1734C435.667 82.4784 435.679 81.741 435.499 81.0394C435.223 79.9259 433.691 78.7098 434.709 77.3516C435.601 77.5637 436.416 78.0217 437.061 78.6736C437.706 79.3254 438.155 80.145 438.358 81.0394C438.452 81.7185 438.129 82.4055 438.184 83.1241C438.304 83.5862 438.455 84.0399 438.634 84.4823Z" fill="#F5F5F5"/>
<path d="M438.966 73.6242C438.785 74.1375 438.406 74.027 438.058 74.327C437.711 74.6271 437.316 75.5274 436.897 75.6221C436.234 75.7722 435.484 74.8324 434.828 75.0219C434.039 75.2431 434.505 75.9617 434.244 76.8145C433.791 76.6752 433.384 76.4172 433.064 76.0672C432.745 75.7173 432.525 75.2882 432.428 74.8245C432.428 74.2481 433.02 73.9006 433.17 73.2452C433.415 72.108 432.783 71.5316 432.428 70.4576C432.428 70.2997 432.507 70.2839 432.507 70.1575C433.296 69.9522 434.876 71.7922 436.731 72.1475C437.916 72.3686 438.903 72.2423 438.966 73.6242Z" fill="#F5F5F5"/>
<path d="M435.941 174.671C436.028 175.5 434.828 175.405 434.701 174.868C434.686 174.229 435.76 174.031 435.941 174.671Z" fill="#F5F5F5"/>
<path d="M430.105 65.2695C430.895 65.7907 432.909 66.9673 431.511 68.0571C431.008 67.8055 430.6 67.3984 430.346 66.8962C430.093 66.394 430.009 65.8236 430.105 65.2695Z" fill="#F5F5F5"/>
<path d="M426.292 170.297C427.239 169.673 428.274 168.315 429.94 169.002C429.577 170.242 428.36 170.21 427.571 170.794C426.781 171.379 426.094 172.374 425.083 172.484C425.013 172.321 424.898 172.181 424.752 172.081C424.712 170.976 425.676 170.715 426.292 170.297Z" fill="#F5F5F5"/>
<path d="M424.096 151.581C425.067 151.581 425.983 151.218 426.663 151.676C426.536 154.163 423.322 152.276 421.198 152.671C420.74 152.758 420.606 153.176 420.116 152.971C420.149 152.541 420.32 152.133 420.605 151.81C420.89 151.486 421.273 151.265 421.696 151.178C422.256 151.131 423.164 151.573 424.096 151.581Z" fill="#F5F5F5"/>
<path d="M424.886 154.661C424.981 156.043 423.409 156.193 422.975 157.251C423.662 158.515 423.93 160.284 424.72 161.429C424.72 162.219 424.846 163.182 424.467 163.522C422.801 163.908 421.901 160.308 421.238 159.044C419.958 159.336 421.127 164.232 419.413 163.624C418.576 163.324 419.413 161.926 419.248 160.837C419.098 159.881 418.316 159.692 418.253 158.941C418.205 158.333 418.821 157.678 419.003 157.054C419.263 156.154 419.098 154.417 419.99 154.369C420.44 154.369 421.032 155.49 421.317 155.562C422.312 155.814 423.488 154.345 424.886 154.661Z" fill="#F5F5F5"/>
<path d="M421.814 169.499C421.514 170.288 419.808 169.886 419.666 169.199C419.958 168.417 421.672 168.646 421.814 169.499Z" fill="#F5F5F5"/>
<path d="M420.243 171.884C420.15 172.032 420.038 172.167 419.911 172.286C419.287 172.042 418.616 171.86 418.426 171.094C418.884 170.273 420.219 170.952 420.243 171.884Z" fill="#F5F5F5"/>
<path d="M418.008 169.396C417.589 170.115 416.128 169.341 415.639 170.091C414.77 170.091 413.901 170.091 413.728 169.199C413.98 168.472 414.762 168.97 415.386 168.899C416.357 168.788 417.779 167.943 418.008 169.396Z" fill="#F5F5F5"/>
<path d="M406.328 207.522C406.328 206.645 405.862 205.872 405.744 204.94C405.744 204.6 405.744 204.15 405.744 203.739C405.626 203.248 405.542 202.749 405.491 202.247C405.61 201.591 406.281 201.52 406.407 200.952C406.668 200.028 406.091 199.878 406.075 198.764C406.075 197.975 406.573 197.596 406.905 196.577C407.063 196.103 407.063 195.219 407.236 194.879C407.41 194.54 408.366 194.089 408.729 193.892C410 193.142 411.019 191.744 412.29 191.523C412.614 191.46 413.08 191.57 413.285 191.523C414.075 191.365 414.983 190.607 416.018 190.331C417.052 190.054 417.913 190.157 418.671 189.628C419.672 188.832 420.468 187.809 420.992 186.643C421.372 185.553 421.253 184.629 421.98 184.274C422.343 184.092 422.69 184.274 423.061 184.171C423.608 183.964 424.113 183.662 424.554 183.279C425.13 182.655 425.225 181.636 425.881 180.989C426.46 180.424 427.098 179.924 427.784 179.496C428.187 179.257 428.642 179.119 429.11 179.094C430.279 179.212 430.824 181.17 432.087 180.783C432.545 180.649 433.003 179.488 433.422 178.793C434.014 177.783 434.449 176.424 435.491 176.109C436.328 175.864 437.268 176.495 437.726 175.611C437.828 174.979 437.331 174.608 437.726 174.213C438.689 174.284 440.324 175.856 441.785 175.903C442.574 175.903 444.035 174.877 444.154 176.306C444.225 176.938 443.569 177.451 443.411 178.099C443.301 178.557 443.577 178.801 443.325 179.291C442.653 179.615 441.943 179.781 441.919 180.689C441.919 181.818 443.253 182.355 444.075 182.979C444.635 183.405 445.101 184.053 445.401 184.274C445.701 184.495 446.057 184.534 446.231 184.669C446.768 185.087 447.147 186.035 447.889 186.066C448.631 186.098 449.571 184.795 450.037 183.571C450.59 182.142 450.621 180.412 450.866 178.896C450.953 178.391 451.245 177.901 451.364 177.404C451.687 176.037 452.153 174.198 453.101 173.716C454.096 174.979 454.427 177.427 454.27 179.496C454.925 180.096 456.094 179.899 456.252 181.289C456.307 181.771 456.054 182.379 456.086 182.868C456.141 183.705 456.662 184.448 456.749 185.158C456.915 186.485 456.567 187.575 457.081 188.546C457.728 189.762 458.992 189.723 459.813 191.033C459.85 191.65 459.991 192.257 460.232 192.826C460.311 193.126 460.232 193.616 460.311 193.821C460.579 194.484 461.298 194.555 461.558 195.116C461.685 195.392 461.645 195.906 461.803 196.403C462.127 197.104 462.515 197.773 462.964 198.401C463.403 199.017 463.764 199.686 464.038 200.391C464.204 201.386 463.611 202.065 463.461 202.879C463.28 203.866 463.461 205.145 463.13 206.164C462.751 207.364 461.795 208.533 461.061 210.049C460.475 211.325 459.691 212.5 458.739 213.531C458.218 214.037 457.594 214.321 457.081 214.826C456.308 215.677 455.588 216.573 454.925 217.511C454.183 218.459 453.275 219.185 452.69 219.999C451.837 221.183 451.419 223.094 449.958 223.284C449.152 223.29 448.352 223.426 447.589 223.687C446.365 224.271 445.551 225.353 444.943 225.377C444.335 225.4 443.712 224.476 443.119 224.382C442.527 224.287 441.935 224.99 440.963 224.982C440.569 224.982 440.371 224.697 439.803 224.484C438.626 224.034 437.323 224.05 437.157 222.494C437.062 221.641 437.607 221.262 437.568 220.496C437.528 219.73 436.912 219.549 436.652 218.917C436.784 218.58 436.815 218.212 436.743 217.857C436.67 217.503 436.496 217.177 436.241 216.919C436.199 216.432 436.315 215.945 436.573 215.529C435.998 215.743 435.443 216.008 434.915 216.319C434.314 216.761 433.88 217.764 433.177 217.614C432.522 217.338 433.027 216.556 432.932 215.924C432.629 214.887 432.151 213.91 431.519 213.034C430.647 212.468 429.697 212.031 428.7 211.739C426.141 211.257 424.507 212.9 422.485 213.137C421.959 213.109 421.432 213.109 420.906 213.137C419.239 213.484 417.384 215.071 416.349 216.121C414.636 216.327 412.898 215.695 411.129 216.319C409.361 216.943 408.366 218.688 405.665 218.206C405.128 217.653 404.172 217.417 404.172 216.422C404.172 215.632 405.104 215.166 405.412 214.629C405.888 213.765 406.199 212.819 406.328 211.841C406.328 211.178 405.957 210.388 405.989 209.551C406.02 208.864 406.328 208.169 406.328 207.522Z" fill="#F5F5F5"/>
<path d="M404.915 166.008C405.365 165.937 405.704 165.534 406.162 165.518C407.126 165.471 408.081 166.371 409.218 166.213C409.471 166.529 409.305 166.798 409.305 167.311C410.277 167.927 411.864 167.816 412.369 169.001C411.643 169.925 410.569 169.262 409.637 169.096C408.705 168.93 407.9 169.025 406.984 168.898C405.823 168.74 404.78 167.966 403.675 167.809C403.004 167.706 402.317 167.919 401.685 167.809C401.053 167.698 398.163 166.403 398.123 165.518C398.084 164.634 399.371 164.342 400.492 164.516C401.985 164.752 403.004 166.332 404.915 166.008Z" fill="#F5F5F5"/>
<path d="M407.15 159.146C406.526 158.933 405.942 159.052 405.665 158.846C405.097 158.428 405.184 157.267 404.994 156.556C404.805 155.845 404.125 155.506 403.754 154.566C403.217 153.208 402.965 150.168 404.418 149.883C404.994 149.773 405.594 150.302 405.997 150.183C406.787 149.947 406.66 148.707 407.324 148.193C407.695 147.901 408.374 148.028 408.903 147.791C409.457 147.448 409.913 146.97 410.23 146.401C410.577 145.903 410.846 145.066 411.304 144.711C411.762 144.356 412.299 144.292 412.709 143.921C413.799 142.926 413.831 141.552 414.699 140.336C415.434 139.318 416.602 141.315 416.689 142.129C417.1 142.761 417.913 142.918 418.269 143.621C417.787 145.374 416.405 145.524 416.689 148.004C416.792 148.584 416.959 149.151 417.187 149.694C417.424 150.278 418.126 150.91 418.095 151.273C418.04 152.016 416.8 151.984 416.515 152.766C416.231 153.547 416.515 153.555 416.436 154.653C416.081 155.443 415.149 155.664 414.857 156.651C414.51 157.835 414.912 159.36 414.115 160.236C413.562 160.236 412.962 160.805 412.291 160.726C411.619 160.647 410.877 159.454 409.716 159.431C409.282 159.431 408.761 159.77 408.311 159.731C407.861 159.691 407.671 159.32 407.15 159.146Z" fill="#F5F5F5"/>
<path d="M401.787 156.927C403.896 156.927 403.896 160.876 401.787 160.876C399.679 160.876 399.679 156.927 401.787 156.927Z" fill="#F5F5F5"/>
<path d="M398.7 156.454C399.265 156.998 399.667 157.69 399.86 158.452C399.86 159.146 398.952 159.115 398.7 160.031C398.313 161.46 398.873 163.087 398.202 163.813C397.677 164.027 397.104 164.095 396.544 164.011C395.063 162.672 393.738 161.17 392.595 159.533C392.093 158.983 391.648 158.383 391.269 157.741C390.834 156.793 390.684 155.743 390.195 154.859C389.705 153.974 388.955 153.516 388.536 152.663C388.189 151.968 388.15 151.084 387.747 150.373C387.344 149.662 386.831 149.481 386.42 148.983C386.16 148.652 386.01 148.146 385.757 147.783C384.714 146.291 382.717 145.509 382.598 143.306C383.025 142.721 383.459 143.527 384.256 143.708C384.77 143.819 385.378 143.653 385.741 143.803C386.531 144.111 387.02 145.525 387.818 146.291C388.26 146.725 388.844 147.025 389.302 147.483C389.761 147.941 390.155 148.691 390.55 148.983C391.087 149.378 391.837 149.639 392.54 150.176C393.496 150.91 395.209 151.668 395.438 153.169C395.494 153.532 395.296 154.164 395.351 154.456C395.47 154.977 396.023 155.206 396.346 155.648C396.757 156.209 396.844 157.038 397.428 157.149C398.013 157.259 398.036 156.359 398.7 156.454Z" fill="#F5F5F5"/>
<path d="M359.595 135.551C360.306 135.827 362.691 139.31 361.964 141.229C361.814 141.579 361.557 141.874 361.229 142.07C360.902 142.265 360.52 142.352 360.14 142.318C358.498 142.01 358.814 137.58 359.311 135.851C359.333 135.783 359.37 135.721 359.419 135.669C359.469 135.617 359.529 135.577 359.595 135.551Z" fill="#F5F5F5"/>
<path d="M304.491 185.925C304.595 184.975 304.971 184.076 305.573 183.335C306.363 182.655 307.374 182.727 308.14 182.237C308.918 181.781 309.595 181.171 310.13 180.444C310.532 179.828 310.548 179.118 310.88 178.652C311.101 178.336 311.599 178.249 311.867 177.862C312.136 177.475 312.057 176.859 312.451 176.472C313.604 175.88 313.928 178.407 314.11 180.152C314.215 180.611 314.296 181.075 314.354 181.542C314.236 182.332 313.51 182.498 313.281 183.042C313.133 185.062 312.655 187.044 311.867 188.91C311.322 190.489 310.998 192.155 310.54 193.49C310.382 193.972 310.035 194.358 309.885 194.785C309.285 196.475 309.095 199.136 307.974 199.863C307.243 200.22 306.459 200.455 305.652 200.557C305.129 200.498 304.638 200.273 304.252 199.915C303.866 199.557 303.604 199.085 303.504 198.567C303.442 197.972 303.413 197.374 303.417 196.775C303.181 196.006 303.043 195.21 303.007 194.406C303.188 192.384 304.831 191.397 304.91 189.731C304.973 188.452 304.381 187.204 304.491 185.925Z" fill="#F5F5F5"/>
<path d="M264.581 44.256C264.684 45.9301 262.457 45.7169 262.212 47.1462C262.086 47.7938 262.473 48.6545 262.378 49.2389C262.212 50.2812 261.367 49.9812 260.309 50.5339C259.764 50.8103 259.243 51.8527 258.651 51.9238C258.059 51.9948 257.774 51.5447 257.411 51.6316C256.866 51.75 257.048 52.5555 256.25 52.7213C255.611 52.8556 254.497 52.0422 254.426 53.0214C254.379 53.6532 255.421 53.9927 256.084 53.9138C256.606 53.8585 256.985 53.4242 257.49 53.4163C258.469 53.4163 259.109 54.2928 259.725 54.3165C261.146 54.3639 262.544 52.7371 264.036 52.9188C264.708 53.0056 265.11 53.5742 265.616 53.5189C266.406 53.4242 267.1 52.3186 267.693 51.9396C267.44 50.2654 267.693 48.0544 269.019 47.9912C269.912 47.928 271.254 49.8311 271.388 47.9912C271.413 47.6194 271.294 47.2524 271.056 46.9658C270.818 46.6792 270.479 46.495 270.109 46.4513C269.635 46.4513 269.011 47.5805 268.617 46.6487C268.617 45.7406 269.477 45.9775 269.943 45.7564C270.409 45.5353 270.543 45.1246 270.938 44.9667C272.912 44.1297 275.676 45.7564 276.411 43.7664C274.658 41.9738 271.673 44.4218 269.698 44.2639C269.199 44.1985 268.726 43.9977 268.332 43.6831C267.938 43.3685 267.638 42.9522 267.464 42.4792C267.377 42.1713 267.464 41.7527 267.377 41.1842C267.29 40.6156 267.029 39.8812 267.045 39.4864C267.132 37.6938 270.859 37.3542 270.859 35.1115C270.149 34.3219 268.056 34.4245 267.377 35.309C267.132 35.6248 267.148 36.2645 266.8 36.8883C266.058 38.2466 263.642 38.4045 262.907 40.047C262.633 40.6727 262.517 41.3559 262.568 42.037C262.765 43.0162 264.502 43.2689 264.581 44.256ZM244.839 141.655C242.47 141.236 240.015 142.389 238.38 143.234C237.432 143.732 236.477 144.49 235.648 144.529C234.818 144.569 234.068 144.032 233.326 143.937C232.246 143.837 231.156 143.904 230.096 144.134C229.141 144.34 228.28 145.153 227.443 145.224C225.863 145.374 224.284 143.487 223.297 142.539C222.681 141.963 222.057 141.489 221.473 140.96C220.889 140.431 220.051 140.02 219.57 139.467C218.914 138.678 218.914 137.383 218.575 136.38C218.172 135.187 216.948 134.319 216.008 133.221C215.305 132.384 213.695 131.121 213.521 130.062C213.434 129.51 213.718 128.87 213.687 128.27C213.647 127.393 213.094 126.904 213.11 126.28C213.11 125.403 213.979 124.7 214.184 123.99C214.287 123.611 214.239 123.082 214.35 122.592C214.579 121.581 215.14 121.013 215.013 119.512C214.966 118.92 214.54 118.383 214.516 117.617C214.516 117.096 214.8 116.827 214.769 116.322C214.705 115.477 213.781 115.311 213.687 114.332C213.592 113.353 214.476 112.492 215.013 111.347C215.25 110.834 215.377 110.044 215.59 109.657C216.056 108.804 216.814 108.394 217.169 107.564C217.43 106.949 217.509 106.032 217.746 105.574C218.054 104.982 218.662 104.658 219.238 103.877C219.712 103.245 219.901 102.471 220.233 102.187C220.704 101.901 221.204 101.668 221.726 101.492C223.268 100.716 224.475 99.4049 225.121 97.804C224.91 96.6341 225.147 95.4277 225.785 94.4242C226.29 93.3976 226.661 92.4184 227.522 91.8341C228.564 91.1313 229.535 91.0444 230.254 89.7414C230.718 88.9797 231.029 88.1348 231.17 87.254C231.17 86.2669 230.333 85.0113 229.591 84.8849C228.848 84.7586 227.688 85.5719 227.269 84.5927C227.135 84.2769 227.316 83.5425 227.269 83.195C227.174 82.5475 226.708 82.0816 226.693 81.6157C226.693 80.6759 227.482 79.7046 227.68 78.6228C227.996 77.154 227.68 76.0326 227.601 74.3427C228.762 72.1474 231.328 73.2372 233.918 73.4504C234.305 73.4504 234.747 73.3398 235.166 73.3477C236.682 73.3951 237.882 73.94 238.396 72.3527C238.629 71.2397 238.712 70.1001 238.64 68.965C238.266 67.925 237.674 66.9772 236.903 66.1854C236.114 65.5536 234.889 65.83 234.416 64.685C234.803 62.7187 236.635 64.3612 237.732 63.8953C238.293 63.6505 238.23 62.4897 238.727 62.3159C239.067 62.1896 239.517 62.7266 239.967 62.7108C240.772 62.4378 241.527 62.035 242.202 61.5184C242.739 61.084 242.897 60.1917 243.363 59.8284C243.679 59.5757 244.097 59.6073 244.445 59.4257C245.255 58.9843 245.961 58.3728 246.514 57.6331C247.201 56.646 247.509 55.4299 248.338 55.2641C249.443 55.0193 251.962 55.5247 252.152 54.0638C252.341 52.6029 251.133 51.5842 251.567 50.1154C251.915 48.9309 252.799 49.1362 254.055 48.4255C254.655 48.9388 254.481 50.4155 254.552 51.3157C255.342 51.3157 256.922 51.0393 257.032 50.2181C257.222 49.1915 255.919 48.1491 255.626 47.5253C255.334 46.9014 255.255 45.6774 254.631 45.5353C253.376 45.2431 252.144 47.6279 250.572 47.6279C250.037 47.5726 249.53 47.3645 249.109 47.0285C248.689 46.6924 248.375 46.2426 248.203 45.7327C248.131 45.2095 248.102 44.6813 248.117 44.1533C247.856 43.2483 247.744 42.3068 247.785 41.3658C248.425 40.0549 249.885 39.8496 250.944 39.1705C251.346 38.9178 251.662 38.3808 252.104 38.1755C252.847 37.8517 253.944 38.1755 254.671 37.678C255.137 37.3621 255.003 36.8251 255.334 36.1855C255.547 35.7828 256.053 35.5538 256.329 35.0957C256.527 34.772 256.55 34.3061 256.748 33.9981C257.466 32.9241 258.777 32.5214 259.314 31.4079C259.551 30.9183 258.904 30.7367 259.062 30.0181C259.219 29.2995 260.364 29.8286 260.973 29.718C261.762 29.5601 262.552 28.3598 263.452 28.1387C264.352 27.9176 265.403 28.0439 266.271 27.6412C266.792 27.4043 267.274 26.8515 267.764 26.741C267.938 26.741 268.427 26.8594 268.672 26.8436C268.917 26.8278 269.319 26.3619 269.698 26.3619C270.307 26.2908 271.065 26.5435 271.854 26.5593C273.165 26.5593 274.405 26.0934 275.495 26.662C276.071 26.9621 276 27.7359 276.742 28.0597C277.114 28.2177 277.603 27.9965 278.148 28.0597C278.938 28.1466 279.806 28.8494 280.88 28.9521C281.267 28.9994 281.67 28.8968 282.041 28.9521C283.304 29.2691 284.527 29.7246 285.689 30.3103C286.661 30.7051 288.714 31.1947 288.753 32.3003C288.801 33.6111 286.961 33.9902 286.187 33.9902C284.884 33.9902 283.155 33.0742 281.796 33.5954C281.793 34.0978 281.893 34.5954 282.091 35.0575C282.288 35.5195 282.578 35.936 282.943 36.2811C283.309 36.6262 283.741 36.8926 284.213 37.0636C284.686 37.2346 285.188 37.3067 285.689 37.2753C285.847 36.2171 284.639 36.8093 284.773 35.7828C285.603 34.9931 286.59 36.2882 287.758 36.0828C288.216 35.9328 288.137 35.1431 288.256 34.5903C289.243 33.8717 290.475 32.8136 291.983 33.5954C292.049 33.4298 292.165 33.2889 292.315 33.1926C292.418 32.1029 291.32 31.5343 291.904 30.5077C292.189 29.797 293.736 30.0418 293.973 30.6025C294.092 31.2816 293.594 31.2105 293.641 31.8028C293.735 32.0748 293.916 32.3083 294.156 32.4669C294.396 32.6254 294.681 32.7001 294.968 32.6793C295.758 32.6319 295.939 31.7554 296.705 31.2895C297.021 31.1 297.495 31.0763 297.866 30.8868C298.237 30.6972 298.735 30.2155 299.114 30.0971C299.493 29.9786 299.801 30.0971 300.188 30.0023C300.575 29.9076 301.191 29.4022 301.594 29.4022C301.996 29.4022 302.454 30.0971 303.086 30.1918C303.434 30.2471 303.828 29.9549 304.334 29.8918C304.839 29.8286 305.123 29.9549 305.487 29.8918C306.276 29.7575 306.821 29.2521 307.477 29.2995C307.943 29.2995 308.732 30.0892 309.056 29.6944C309.585 29.0547 308.337 28.5809 308.724 28.0044C309.996 28.115 311.346 28.0834 312.617 28.2966C314.513 28.6204 316.289 29.7496 318.003 29.797C317.837 28.4072 316.518 28.8099 315.926 28.2176C315.502 27.5796 315.194 26.871 315.018 26.125C315.323 25.2979 315.712 24.5041 316.179 23.756C316.905 22.9268 319.338 22.9663 319.993 24.0482C320.459 24.8378 320.301 25.9671 320.98 25.9434C321.659 25.9197 321.88 24.1903 322.56 24.1508C323.12 24.1508 323.404 25.2564 323.965 25.2485C324.652 25.2485 325.134 23.6691 326.042 23.6691C326.524 23.6691 326.69 23.9692 327.448 24.0639C327.961 23.6691 327.274 23.14 327.527 22.5715C328.458 21.7818 330.575 22.3819 331.751 21.8765C332.083 21.4027 331.333 21.0869 331.672 20.5815C332.691 19.7207 334.413 19.6496 336.15 19.2864C337.208 19.0732 338.211 18.1808 339.048 18.094C339.885 18.0071 340.746 18.7099 341.528 18.6941C342.046 18.6562 342.553 18.5195 343.02 18.2914C343.486 18.0782 343.81 17.5017 344.268 17.3991C344.994 17.1859 345.91 17.5017 346.755 17.3991C347.6 17.2964 348.429 16.87 349.069 16.9963C349.709 17.1227 350.159 17.8887 350.727 17.9913C352.472 18.323 354.273 17.6834 355.868 18.1966C356.152 18.2835 356.437 18.6389 356.776 18.7889C357.842 19.2627 358.569 19.1127 358.766 20.6841C359.603 21.0395 360.093 21.9634 361.088 22.2635C361.743 22.4688 362.415 22.1608 363.157 22.1608C364.182 22.147 365.206 22.213 366.221 22.3582C366.695 22.4451 367.089 22.8636 367.547 22.9584C368.005 23.0532 368.337 22.911 368.708 22.9584C369.171 23.0819 369.641 23.1821 370.114 23.2585C370.983 23.2585 371.646 22.2951 372.349 22.1608C372.771 22.1739 373.19 22.2402 373.596 22.3582C374.994 22.5004 376.597 22.1371 377.734 22.4609C378.598 22.8418 379.384 23.377 380.056 24.0403C380.546 24.4904 380.846 25.2011 381.304 25.5327C381.885 25.9676 382.572 26.2402 383.294 26.3224C383.823 26.2277 383.846 25.5327 384.368 25.2327C386.01 24.7905 388.924 25.8565 390.251 25.13C390.764 24.8457 390.661 24.1982 391.08 23.8349C393.567 23.6928 396.039 23.9613 398.369 24.0324C399.168 23.9393 399.973 23.9076 400.777 23.9376C401.567 24.1113 402.191 25.0984 403.012 25.4301C403.549 25.6512 404.512 25.5327 405.326 25.7302C405.878 25.8565 406.329 26.2514 406.739 26.3224C407.6 26.3726 408.463 26.3062 409.306 26.125C411.209 25.9434 413.649 25.8249 415.52 26.7252C416.515 27.2069 416.934 28.1782 418.008 28.3045C419.54 28.5098 421.909 28.1545 423.472 28.3045C423.8 28.3924 424.132 28.461 424.467 28.5098C424.996 28.4625 425.312 27.9255 425.96 27.9097C426.75 27.9097 428.084 29.489 429.277 29.2047C429.79 28.7862 428.866 28.2098 429.355 27.807C429.845 27.4043 430.461 27.807 431.18 27.807C431.574 27.807 432.056 27.5701 432.427 27.6096C433.335 27.7044 434.196 28.6915 435.325 29.0073C436.381 29.2725 437.476 29.3394 438.555 29.2047C439.281 28.9954 440.034 28.8943 440.79 28.9047C441.161 28.9678 441.485 29.2837 441.872 29.4022C442.259 29.5206 442.567 29.4022 442.859 29.5048C443.151 29.6075 443.412 29.9076 443.696 30.0023C445.236 30.5314 447.281 30.792 448.916 31.3922C449.871 31.7475 450.851 32.4661 451.648 32.4898C452.043 32.4898 452.39 32.2845 452.888 32.2924C455.391 32.2924 458.337 33.5638 458.108 36.375C455.178 37.1647 452.73 33.9507 449.658 34.8825C449.372 34.9882 449.125 35.1771 448.947 35.4248C448.77 35.6726 448.671 35.9678 448.663 36.2724C448.774 38.0097 452.414 37.8517 452.722 39.5574C452.122 40.0944 451.474 39.5574 450.985 39.6601C450.033 39.9628 449.176 40.5069 448.497 41.2394C447.937 41.8712 447.447 43.49 446.839 43.6085C446.097 43.7822 444.967 42.7319 443.854 43.0083C443.451 43.111 443.064 43.7269 442.701 43.798C441.785 44.0112 440.616 43.1978 440.048 44.4929C440.348 45.4089 440.166 46.6724 440.79 47.1857C441.193 47.5174 441.706 47.2568 442.204 47.4858C442.701 47.7148 443.104 48.5992 443.609 49.0651C444.115 49.531 444.462 49.4679 444.683 49.9654C444.738 50.6998 444.446 50.755 444.517 51.2604C444.652 52.0501 445.733 52.2791 445.765 52.8398C445.765 53.5584 445.078 53.4084 444.936 54.1349C444.881 54.6008 445.378 54.7192 445.433 55.3273C445.433 55.7379 445.157 56.1643 445.181 56.6224C445.181 57.2857 445.654 57.7279 445.599 58.3202C445.56 58.5503 445.469 58.7684 445.332 58.9575C445.195 59.1465 445.016 59.3013 444.809 59.4099C443.23 58.1859 441.793 56.5039 440.071 54.9324C438.35 53.361 435.554 51.3473 435.27 47.9675C435.27 47.4463 436.186 47.0357 436.344 46.2697C436.407 45.9617 436.241 45.48 436.265 45.0773C436.32 43.9085 437.126 42.7872 437.055 42.0923C436.775 41.097 436.121 40.2484 435.231 39.7233C434.749 40.0312 435.231 40.6314 435.144 41.121C435.084 41.444 434.937 41.7445 434.719 41.9896C434.5 42.2346 434.218 42.415 433.904 42.5108C432.325 42.6766 432.159 40.0865 429.679 40.8209C429.189 41.0826 428.796 41.4946 428.557 41.9963C428.318 42.498 428.247 43.063 428.353 43.6085C428.424 44.0428 429.419 44.5087 429.348 45.101C429.277 45.6932 427.089 45.8433 426.607 45.7959C425.273 45.6695 424.586 44.4692 423.378 44.5008C422.785 44.5008 422.272 45.101 421.798 45.2036C419.184 45.7722 415.315 43.6243 414.423 46.396C414.296 46.783 414.367 47.2884 414.257 47.6911C414.065 48.1677 413.843 48.6319 413.594 49.0809C413.491 49.3889 413.515 49.997 413.349 50.4787C413.183 50.9604 411.627 52.6108 413.017 53.0688C413.349 53.1715 413.499 52.8951 413.925 52.9661C414.636 53.0846 415.82 54.4507 416.658 54.4586C417.163 54.4586 417.85 53.7795 418.237 53.7637C419.027 53.7163 419.556 54.3165 420.14 54.6561C420.724 54.9956 421.546 55.6747 421.964 55.651C422.754 55.6037 422.375 54.9561 423.125 54.6561C424.554 55.1693 425.225 57.0251 426.6 58.4386C427.105 58.9677 427.839 59.4178 428.511 60.1364C428.882 60.5392 430.035 61.6131 430.09 62.1264C430.145 62.6397 429.766 62.8055 429.679 63.2162C429.545 63.8242 429.853 64.2743 429.513 64.7165C428.187 64.1243 427.895 62.5607 426.939 61.2262C426.592 60.7366 426.236 60.1443 425.699 59.4336C425.455 59.1177 424.578 57.9964 424.041 58.2412C422.999 58.715 424.61 60.6102 424.87 61.0288C425.527 61.9137 425.98 62.9331 426.197 64.0137C426.197 64.6139 425.873 65.6879 425.865 66.7065C425.865 67.3936 426.007 68.0174 425.952 68.5939C425.799 69.2378 425.604 69.8709 425.368 70.4891C425.17 71.2156 425.131 72.0684 424.957 72.5738C424.633 73.4741 423.551 74.5322 422.801 74.5717C422.051 74.6112 421.814 73.9321 421.143 73.9716C420.124 74.0269 419.935 75.1561 419.319 76.0642C419.374 77.0434 419.627 77.3751 419.485 78.0542C419.263 79.1045 418.039 79.294 418.079 80.3443C418.118 81.3945 419.192 81.5051 419.737 81.9236C420.777 82.7924 421.696 83.7963 422.47 84.9086C423.052 85.7354 423.424 86.6925 423.551 87.6962C423.488 88.6754 421.127 90.0652 420.148 89.6862C419.169 89.3071 419.54 88.2726 419.358 87.3171C419.192 86.5669 418.703 86.2432 418.45 85.6272C418.316 85.3035 418.379 84.798 418.197 84.4348C417.7 83.4161 416.823 83.9768 415.828 83.3371C415.149 82.9186 415.347 82.0421 415.086 81.2445C414.731 80.1705 413.222 79.6651 412.022 79.9494C411.13 80.1626 410.853 81.055 410.032 81.2445C408.816 80.3838 410.277 78.2437 408.784 78.0858C407.647 77.9437 406.889 80.0521 406.218 80.6759C405.768 81.0866 404.947 81.1734 404.891 81.7657C404.797 82.8633 405.855 82.6422 406.715 83.0608C407.576 83.4793 407.576 84.498 408.295 84.5533C409.013 84.6085 409.282 83.8189 409.874 83.7636C410.786 83.7442 411.673 84.0651 412.362 84.6638C411.951 85.872 409.716 86.7565 409.708 88.3437C409.708 89.2676 410.601 89.4256 411.288 90.0415C411.975 90.6575 412.63 92.0078 413.443 93.0265C413.791 93.4608 414.36 93.753 414.517 94.0215C414.904 94.6769 414.841 95.4824 415.307 95.9167C415.37 96.4616 415.094 96.5879 415.141 97.1091C415.339 97.8198 416.263 97.6856 416.468 98.4042C416.294 100.118 416.887 101.737 415.718 102.353C415.181 105.432 414.573 107.88 412.82 109.523C411.24 111.023 409.163 111.473 407.292 112.208C406.794 112.397 406.407 112.997 405.965 113.203C404.86 113.653 402.901 113.376 402.807 114.995C402.759 115.785 403.644 116.275 403.715 117.088C403.817 118.328 402.925 119.583 402.222 119.67C401.83 119.688 401.447 119.553 401.152 119.294C400.858 119.035 400.675 118.671 400.643 118.28C400.58 117.088 401.875 116.606 401.969 115.911C402.007 115.61 401.979 115.304 401.888 115.015C401.796 114.725 401.643 114.459 401.439 114.234C401.235 114.009 400.985 113.831 400.706 113.711C400.427 113.592 400.125 113.534 399.822 113.542C398.724 113.637 396.236 116.283 396.173 117.72C396.126 118.802 397.95 121.044 398.542 121.668C400.911 124.14 403.344 125.616 402.933 131.626C402.356 133.15 400.864 133.474 399.703 134.319C398.819 134.95 398.376 136.933 396.884 137.106C396.284 136.854 396.639 135.732 396.473 135.211C396.244 134.5 395.06 134.153 394.317 133.419C393.709 132.818 393.457 131.839 392.991 131.326C392.414 130.639 391.546 130.497 390.835 130.031C390.393 129.739 390.045 128.72 389.595 128.744C388.861 128.744 389.114 129.62 388.932 131.026C388.75 132.431 387.905 133.482 388.19 135.108C388.3 135.78 388.979 136.325 389.343 137.004C389.919 138.133 389.998 139.444 390.59 140.091C390.977 140.518 391.641 140.605 392.083 140.984C392.959 141.773 394.507 143.353 394.815 144.269C395.178 145.319 394.815 146.551 395.06 147.656C395.336 148.928 396.726 149.844 395.897 151.139C395.096 150.857 394.36 150.417 393.733 149.844C392.699 149.07 391.883 148.042 391.364 146.859C391.117 146.476 390.895 146.078 390.701 145.666C390.417 144.774 390.48 143.763 390.211 142.681C389.807 141.521 389.185 140.449 388.379 139.523C387.803 138.867 386.8 138.48 386.729 137.533C386.666 136.198 387.1 134.627 387.06 133.055C387.06 132.716 386.855 132.368 386.816 131.958C386.721 131.168 386.871 130.26 386.729 129.589C386.513 128.974 386.249 128.377 385.939 127.804C385.718 127.227 385.497 126.651 385.284 125.909C384.944 124.756 384.565 122.537 383.791 122.426C383.017 122.316 382.141 124.298 381.051 124.314C380.721 124.287 380.408 124.158 380.156 123.944C379.904 123.73 379.725 123.442 379.645 123.121C379.543 122.513 379.906 121.897 379.898 121.234C379.898 119.891 379.108 119.378 378.484 118.438C378.248 118.059 378.184 117.53 377.987 117.246C377.608 116.709 376.889 116.409 376.408 115.856C375.939 115.316 375.548 114.712 375.247 114.064C374.923 113.274 374.82 112.271 374.331 112.168C373.841 112.066 373.328 112.879 372.846 113.069C372.116 113.305 371.365 113.471 370.604 113.566C368.945 113.7 367.595 113.171 367.792 115.556C367.532 116.63 366.592 116.638 365.968 117.135C365.178 117.783 364.594 119.078 363.725 120.12C363.307 120.626 362.699 120.91 362.32 121.415C361.941 121.921 361.909 122.434 361.577 122.805C360.693 123.808 359.366 123.895 358.758 125.301C358.758 126.951 359.406 128.207 359.256 129.77C359.185 130.489 358.735 131.128 358.671 131.863C358.745 132.526 358.774 133.194 358.758 133.861C358.687 134.216 358.348 134.406 358.095 134.856C357.842 135.306 357.771 135.78 357.598 136.048C357.321 136.475 356.863 136.775 356.603 137.146C356.184 137.738 356.097 138.164 355.694 138.236C353.878 138.551 353.428 134.406 352.63 132.66C352.259 131.871 351.501 131.144 351.138 130.173C350.712 129.059 350.577 127.654 349.977 126.39C349.373 125.334 348.845 124.237 348.398 123.105C348.106 122.158 347.853 120.973 347.608 119.947C347.294 118.838 347.074 117.705 346.953 116.559C346.882 115.264 347.158 114.474 346.281 113.969C345.492 114.198 345.128 115.161 344.212 115.161C343.296 115.161 340.959 113.321 341.646 111.679C341.07 110.692 339.609 110.155 338.487 108.994C337.856 108.323 337.279 106.743 336.174 106.625C335.836 106.661 335.503 106.73 335.179 106.83C334.476 106.901 333.228 106.751 332.438 106.83C331.292 107.033 330.126 107.1 328.964 107.027C328.174 106.917 327.148 106.727 326.31 106.625C325.252 106.498 323.839 106.198 323.247 105.535C322.875 105.124 322.733 103.821 322.086 103.64C321.296 103.427 320.893 104.145 320.183 104.335C318.659 104.753 317.395 103.964 316.368 103.142C315.642 102.566 314.979 102.258 314.465 101.847C313.202 100.836 312.973 97.7883 311.062 97.7646C310.645 97.7588 310.238 97.8935 309.907 98.1471C309.576 98.4007 309.34 98.7583 309.238 99.1623C309.174 99.794 309.869 100.971 310.154 101.452C311.085 103.032 312.791 103.616 313.312 105.732C313.652 105.89 314.355 105.369 314.718 105.827C315.042 106.735 314.718 108.425 315.46 108.82C318.911 109.499 319.89 107.241 321.43 105.661C322.323 106.364 322.03 106.98 322.338 107.754C322.587 108.471 323.09 109.072 323.752 109.444C324.163 109.641 324.7 109.444 325.331 109.744C325.726 109.926 327.361 111.781 327.408 112.437C327.456 113.092 326.334 115.011 325.995 115.517C325.655 116.022 325.158 116.267 325 116.709C324.842 117.151 324.921 117.791 324.834 118.004C324.684 118.407 323.934 118.92 323.507 119.402C323.061 119.857 322.592 120.289 322.101 120.697C321.572 121.179 321.249 121.842 320.688 122.087C319.59 122.576 318.54 122.371 317.624 123.09C317.032 123.555 317.024 124.606 316.305 125.174C315.587 125.743 314.252 125.767 313.147 126.375C312.436 126.754 312.017 127.504 311.409 127.764C311.157 127.867 310.849 127.764 310.572 127.867C310.027 128.033 309.514 128.507 308.993 128.657C308.472 128.807 308.148 128.72 307.753 128.862C306.474 129.304 305.305 130.86 304.018 129.952C303.418 128.278 303.315 126.161 302.612 124.677C302.257 123.887 301.546 123.682 301.286 122.884C301.286 122.245 301.894 122.418 301.949 121.889C301.736 120.815 300.891 120.31 300.37 119.402C300.117 118.952 299.998 118.32 299.706 117.822C298.719 116.101 296.769 115.201 296.39 113.084C296.287 112.5 296.39 112.042 296.311 111.592C296.114 110.838 295.777 110.128 295.316 109.499C295 109.057 294.352 108.757 293.989 108.109C293.752 107.675 293.697 107.075 293.491 106.617C292.685 104.834 291.562 103.212 290.175 101.831C289.504 101.95 288.777 102.005 288.438 102.534C288.788 103.698 289.261 104.82 289.851 105.882C290.467 106.888 290.995 107.945 291.43 109.041C291.557 109.452 291.533 109.997 291.675 110.431C292.196 112.01 293.839 112.492 294.163 114.316C294.384 115.532 294.115 116.377 294.415 117.601C294.715 118.825 296.137 119.457 296.729 120.586C297.219 121.502 297.219 122.797 297.558 123.674C298.056 124.945 299.446 125.498 300.456 126.359C301.292 127.235 302.068 128.166 302.778 129.146C303.22 129.628 303.828 129.715 303.939 130.244C304.081 130.915 303.702 131.144 303.607 131.736C304.247 132.526 304.863 134.003 305.929 134.106C306.363 134.161 306.916 133.632 307.587 133.513C307.919 133.45 308.298 133.576 308.574 133.513C309.017 133.411 309.403 132.945 309.909 132.81C310.754 132.597 311.733 132.684 312.807 132.518C313.881 132.352 314.513 131.326 315.294 131.618C316.139 132.747 315.531 133.987 315.294 135.101C315.208 135.487 315.208 135.89 315.129 136.198C314.679 137.975 313.51 139.286 312.973 140.881C312.807 141.363 312.831 141.963 312.641 142.46C311.878 144.079 310.901 145.588 309.735 146.946C309.23 147.645 308.679 148.31 308.085 148.936C307.492 149.52 306.766 149.844 306.095 150.428C304.675 151.707 303.447 153.183 302.446 154.811C302.083 155.403 301.909 156.098 301.538 156.603C300.993 157.322 300.164 157.677 299.714 158.396C299.327 159.234 298.995 160.097 298.719 160.978C298.261 162.115 297.314 162.889 297.479 164.461C297.543 165.069 297.993 165.44 298.143 166.04C298.31 167.065 298.281 168.113 298.056 169.128C298.522 170.494 298.845 172.01 299.714 172.91C299.817 174.924 299.572 176.859 299.714 178.58C299.801 179.67 300.156 180.467 299.793 181.47C299.268 182.612 298.506 183.63 297.558 184.455C296.769 185.063 295.584 185.245 294.739 185.956C294.155 186.461 293.673 187.353 293.081 187.946C292.11 188.925 290.767 189.841 290.712 190.828C290.796 191.509 290.963 192.177 291.209 192.818C291.533 194.295 291.849 196.403 291.296 197.998C290.696 199.72 287.656 199.364 287.348 201.157C287.245 201.71 287.553 202.152 287.514 202.736C287.331 203.722 287.053 204.687 286.684 205.619C286.321 206.448 285.484 206.819 284.947 207.514C284.268 208.398 283.928 209.678 283.202 210.602C282.137 211.94 280.944 213.173 279.641 214.281C278.273 215.423 276.607 216.149 274.839 216.374C273.836 216.461 272.755 216.09 271.681 216.279C271.294 216.343 270.891 216.769 270.354 216.872C270.054 216.927 269.754 216.808 269.446 216.872C268.925 216.974 268.435 217.472 267.953 217.472C266.879 217.472 265.505 215.892 265.466 214.384C265.466 213.792 265.892 213.231 265.884 212.694C265.876 212.157 265.229 211.257 264.724 210.104C264.218 208.951 264.044 207.735 263.563 206.819C263.081 205.903 262.37 205.39 261.983 204.632C261.194 203.1 261.194 201.283 260.901 199.451C260.823 198.851 260.483 198.204 260.404 197.461C260.423 196.563 260.397 195.664 260.325 194.769C260.041 194.116 259.708 193.485 259.33 192.881C258.746 191.586 258.335 189.904 257.838 188.933C257.34 187.962 256.432 187.014 256.345 185.948C256.329 185.016 256.384 184.084 256.511 183.16C256.598 182.457 257.032 181.905 257.174 181.17C257.269 180.681 257.174 180.112 257.253 179.591C257.68 177.309 259.764 176.48 259.496 173.716C259.377 172.539 258.706 171.963 258.58 170.628C258.532 170.004 258.84 169.459 258.833 168.836C258.667 167.833 258.359 166.86 257.916 165.945C257.079 163.75 256.566 161.744 255.35 160.078C254.695 159.17 253.826 158.499 253.281 157.709C252.791 156.952 252.453 156.107 252.286 155.221C252.286 154.653 252.649 154.298 252.784 153.729C252.957 152.995 252.973 151.605 253.194 150.444C253.484 149.574 253.654 148.668 253.7 147.751C253.613 146.922 252.578 145.327 251.71 145.066C250.549 144.727 249.341 145.508 247.895 145.366C246.569 144.45 246.656 141.939 244.839 141.655ZM290.641 177.293C291.028 176.559 291.509 174.505 290.641 174.008H290.475C290.127 174.821 289.733 176.803 290.641 177.261V177.293ZM289.48 156.485C289.764 155.798 290.42 155.071 290.309 154.195C290.072 152.284 287.087 153.224 286.748 154.598C286.519 155.522 286.89 156.248 286.582 157.188C286.906 157.922 287.727 158.064 288.738 157.977C289.314 157.654 289.243 157.085 289.496 156.453L289.48 156.485ZM284.434 166.751C284.758 166.016 283.905 165.543 283.771 164.761C283.605 163.837 283.952 162.763 283.265 162.265H283.02C282.436 163.861 283.289 166.553 284.45 166.711L284.434 166.751ZM340.935 67.8911C340.627 67.1014 339.727 68.1122 340.146 68.7913C340.683 68.7913 340.888 68.4043 340.951 67.8516L340.935 67.8911ZM321.636 71.9737C322.978 71.6657 321.636 69.0835 320.633 69.3835C319.33 69.7468 320.735 72.1632 321.651 71.9342L321.636 71.9737ZM315.516 84.7981C315.926 81.3472 313.691 81.0866 313.281 78.6307C313.47 78.6307 313.368 78.3385 313.526 78.3306C314.07 78.0147 314.892 78.836 315.184 78.0305C315.178 77.7408 315.098 77.4574 314.953 77.2067C314.807 76.9561 314.601 76.7464 314.352 76.5973C314.104 76.4482 313.822 76.3646 313.532 76.3542C313.242 76.3439 312.955 76.4071 312.696 76.538C312.341 76.2458 312.286 75.5746 312.199 74.9587C311.259 74.2874 308.938 72.8186 308.969 71.4762C308.969 70.3706 310.185 69.7468 311.536 69.7863C312.112 69.2651 311.741 67.6699 311.204 67.2988C309.064 66.7302 307.927 67.1172 306.569 68.2938C305.913 68.8545 305.187 69.2493 304.823 69.5889C304.409 70.0193 304.148 70.5745 304.081 71.1682C304.136 71.7842 304.871 72.1474 305.163 72.9608C305.305 73.3793 305.273 73.9084 305.408 74.2559C305.771 75.2193 306.695 75.8352 307.398 76.6249C307.887 77.1935 309.277 78.4333 309.301 79.1124C309.325 79.7915 308.874 79.8073 308.724 80.4074C308.521 81.2201 308.439 82.0583 308.48 82.8949C308.653 83.9847 309.601 84.0242 310.462 84.4743C311.322 84.9244 312.144 85.7378 313.028 85.7615C313.488 85.792 313.949 85.7216 314.379 85.5552C314.808 85.3888 315.196 85.1304 315.516 84.7981ZM296.042 77.6357C298.293 77.1461 297.266 74.8639 296.129 74.0505C295.26 73.4346 294.234 72.8976 293.231 72.1553C292.647 71.7289 290.428 70.9234 290.412 70.0706C290.396 69.2177 292.062 68.8308 291.407 67.1803C290.27 66.8487 287.577 67.3699 287.758 68.8703C287.869 69.7389 288.722 69.2572 288.919 70.1653C288.13 70.5128 287.119 71.4209 286.266 71.263C285.255 71.0735 284.995 69.5731 284.45 68.6728C283.66 68.6728 283.139 67.7568 282.207 67.8832C281.275 68.0095 280.714 69.7152 280.217 70.576C279.956 71.0261 279.538 71.263 279.388 71.6657C279.301 71.9184 279.388 72.3054 279.309 72.6607C279.025 73.7663 278.227 74.1769 278.314 75.1561C278.393 76.0168 279.167 76.4038 279.222 77.1461C279.277 77.8884 278.148 77.5093 278.235 78.4411C279.712 79.9099 279.814 77.7462 280.549 77.4462C281.157 77.2014 282.349 77.6436 283.115 77.4462C283.739 77.2803 284.229 76.5696 284.939 76.2458C285.437 76.0175 285.972 75.8836 286.519 75.851C289.156 75.7168 290.854 77.7778 293.144 77.841C294.115 77.8545 295.085 77.7778 296.042 77.612V77.6357ZM290.743 89.3782C290.791 88.3121 290.404 87.5067 290.325 85.9984C288.801 84.8849 287.656 87.0249 286.1 86.788C285.145 86.6459 284.465 85.3113 283.455 85.5009C282.894 85.6035 282.618 86.4643 282.041 86.5906C280.857 86.8512 280.32 85.4535 279.056 85.9984C277.287 84.3716 276.49 81.7262 276.079 78.7333C275.108 77.2093 273.639 78.449 272.92 79.4282C272.486 79.4282 271.941 79.1361 271.846 79.7283C271.515 81.5683 274.01 81.7578 273.994 83.0134C273.994 83.8031 273.023 83.7478 272.589 84.3006C272.154 84.8533 272.431 85.4219 271.846 85.793C270.212 86.0299 269.667 84.956 269.691 83.2108C268.988 81.9236 268.111 80.9839 267.456 79.9257C267.133 79.4482 266.907 78.9114 266.792 78.3464C266.729 77.8805 266.974 77.2882 266.871 76.767C266.69 75.8194 265.221 75.1008 264.305 74.5796C263.271 74.0993 262.298 73.4976 261.407 72.7871C260.909 72.2896 260.68 71.4288 260.246 71.0971C259.812 70.7655 259.456 70.876 259.085 70.5996C258.627 70.2127 258.706 69.581 258.09 69.3993C257.774 69.2651 257.301 69.7705 257.095 70.1022C256.692 72.2738 258.161 72.4238 258.833 73.3872C259.298 74.0426 259.527 75.0376 259.993 75.472C260.459 75.9063 261.178 75.8589 261.818 76.1748C262.26 76.388 262.552 77.0513 262.978 77.3672C263.768 77.9436 265.039 78.0463 265.134 79.1598C264.645 79.5625 263.555 78.5754 263.144 79.5546C263.049 80.2021 263.571 80.5338 263.563 81.1339C263.563 82.1132 262.631 83.1871 261.818 83.0292C261.739 82.4448 262.252 81.9631 262.236 81.3314C262.197 80.0679 260.08 78.1332 258.998 77.5488C258.501 77.2803 257.885 77.2645 257.419 76.9566C256.375 76.2054 255.453 75.297 254.687 74.2638C254.094 73.324 253.589 71.5788 252.318 71.6736C251.781 71.6736 251.346 72.3054 250.904 72.5738C250.473 72.8079 250.059 73.0717 249.664 73.3635C249.183 73.7426 248.788 74.1532 248.338 74.1532C247.295 74.2085 246.411 73.2293 245.519 73.4583C245.218 73.5373 244.966 73.861 244.61 74.248C244.61 74.8323 244.753 75.2035 244.689 75.8273C244.421 76.388 243.623 76.3485 243.031 76.7197C242.15 77.4425 241.372 78.282 240.717 79.215C240.302 79.5958 239.987 80.0732 239.801 80.6049C239.762 80.9365 240.03 81.5604 239.967 82.0026C239.691 82.7335 239.235 83.3827 238.64 83.8899C238.348 84.1347 237.961 84.1663 237.645 84.3874C236.998 84.8533 236.706 85.4614 236.161 85.5798C234.708 85.9036 232.078 85.2324 232.094 87.0723C232.094 88.3042 233.492 88.3121 234.337 88.2726C235.505 88.2174 236.5 88.5648 237.148 88.3674C237.598 88.2332 238.088 87.633 238.561 87.3724C238.854 87.2145 239.162 87.2145 239.391 87.0723C239.88 86.7723 240.18 86.2826 240.551 86.0773C241.492 85.6471 242.499 85.3801 243.529 85.2877C244.65 85.2087 245.819 85.4298 247.256 85.2877C247.777 85.2403 248.282 84.8454 248.835 84.7902C249.735 84.7112 250.92 85.2166 251.654 85.1929C252.152 85.1929 252.72 84.5848 253.305 84.5927C253.633 84.6125 253.948 84.7265 254.213 84.9213C254.478 85.116 254.681 85.3831 254.797 85.6904C254.868 85.9826 254.655 86.4801 254.718 86.8828C254.813 87.6093 255.326 87.9094 255.295 88.3753C255.255 88.9991 253.96 89.8362 254.134 90.5706C254.252 91.0365 255.176 91.534 255.626 91.8657C256.167 92.2854 256.788 92.5891 257.451 92.758C257.916 92.8212 258.335 92.6001 258.777 92.6553C259.616 92.8147 260.408 93.1571 261.099 93.6582C261.889 94.3137 261.77 95.3718 262.678 95.743C263.065 95.9009 263.76 95.8141 264.258 95.9483C265.466 96.2563 266.366 97.4566 267.243 97.3381C268.632 97.1407 268.032 95.5693 268.159 94.4479C268.506 91.913 272.644 92.0236 273.457 93.753C274.07 93.8208 274.679 93.921 275.281 94.0531C275.676 94.211 275.976 94.7322 276.355 94.8428C276.735 94.9533 277.066 94.7875 277.437 94.8428C279.017 95.056 280.462 96.4774 281.828 96.2326C282.689 96.0825 283.32 95.1033 284.142 95.0402C285.721 94.9217 286.748 96.4537 288.453 95.7351C289.709 95.206 289.433 93.6424 289.859 92.0552C290.127 90.9417 290.704 90.1916 290.743 89.3545V89.3782ZM380.056 55.422C380.179 54.8325 380.169 54.2229 380.025 53.638C379.882 53.053 379.609 52.5077 379.227 52.0422C378.271 52.2396 378.966 53.4321 378.903 54.1349C378.808 55.122 377.932 55.809 377.987 56.8198C377.671 57.2699 377.126 57.4436 377.079 58.2096C377.6 58.6518 377.869 57.87 378.24 57.4199C378.871 56.6855 379.874 56.267 380.056 55.4062V55.422ZM358.348 20.8342C357.667 20.8719 357.023 21.152 356.531 21.6238C356.216 21.8213 355.584 21.9318 355.781 22.5162C356.579 22.4135 358.158 22.0108 358.348 20.8342ZM323.389 33.1137C325.331 33.6585 326.247 31.0131 324.968 29.5285C324.668 29.1811 323.649 29.0468 323.231 28.2334C322.725 27.2621 322.796 25.9592 321.572 26.2435C321.572 26.3619 321.572 26.5277 321.486 26.5356C321.375 28.7151 324.013 29.2679 323.973 31.021C323.949 31.937 323.136 32.0397 323.389 33.1137Z" fill="#F5F5F5"/>
<path d="M296.168 29.3314C295.923 28.2495 297.621 28.4232 297.329 29.4261C297.021 29.7262 296.295 29.7025 296.168 29.3314Z" fill="#F5F5F5"/>
<path d="M285.903 88.8567C285.903 88.0671 287.482 87.7354 287.806 88.4619C287.735 89.2595 286.258 89.8123 285.903 88.8567Z" fill="#F5F5F5"/>
<path d="M257.521 83.4874C258.382 82.6424 260.301 83.211 261.47 83.1873C261.249 83.977 261.217 84.9325 260.728 85.3747C259.393 85.0825 258.122 84.6798 257.521 83.4874Z" fill="#F5F5F5"/>
<path d="M251.473 78.2039C252.61 76.7825 253.842 77.5327 253.376 80.2966C253.107 81.0862 251.923 82.2234 251.386 80.9994C251.516 80.0734 251.545 79.1361 251.473 78.2039Z" fill="#F5F5F5"/>
<path d="M253.123 75.0224C253.19 75.3003 253.171 75.592 253.068 75.8587C252.965 76.1253 252.783 76.3543 252.547 76.5149C251.457 76.2859 252.286 73.9327 253.123 75.0224Z" fill="#F5F5F5"/>
<path d="M237.053 54.7907C237.074 54.4852 237.016 54.1795 236.884 53.9029C236.753 53.6263 236.553 53.3882 236.303 53.2114C236.034 53.0297 235.616 53.1166 235.316 52.9113C234.526 52.3822 234.21 51.2688 233.736 51.024C233.799 49.9342 233.491 49.1445 233.736 48.4338C234.176 47.6594 234.803 47.0078 235.56 46.5386C236.287 46.2385 237.045 46.5386 237.471 45.8437C237.543 45.8265 237.618 45.8269 237.689 45.8447C237.761 45.8626 237.827 45.8975 237.882 45.9463C237.882 46.5702 237.44 46.6728 237.384 47.2414C237.487 48.1416 238.814 47.581 238.964 48.4338C238.838 49.3656 238.174 49.5473 238.135 50.2264C238.095 50.9055 239.138 51.94 239.627 52.7139C239.99 53.2903 240.63 53.7168 240.954 54.2932C241.278 54.8697 241.301 55.4225 241.538 55.6831C241.973 56.1806 242.952 56.2595 243.023 56.9781C243.125 57.9336 242.044 58.3048 242.194 59.3472C241.056 60.4211 239.161 59.8605 237.306 60.1368C236.468 60.2632 235.545 61.2661 234.66 60.429C234.455 59.7657 235.395 59.6393 235.45 59.0392C235.379 58.4548 234.763 58.5338 234.66 58.0442C234.897 57.2545 235.647 57.1124 235.568 55.9516C236.026 55.3988 236.942 55.6278 237.053 54.7907Z" fill="#F5F5F5"/>
<path d="M230.838 52.4209C231.944 51.6312 233.878 52.2314 233.997 53.2106C234.076 53.9608 233.405 54.0634 233.168 54.9005C232.931 55.7376 233.207 56.5667 232.915 57.0958C232.623 57.6249 231.975 57.5222 231.509 57.6881C230.467 58.0671 228.453 59.5359 227.616 57.8934C227.735 57.0089 228.445 56.8352 228.69 56.1008C228.69 55.5243 228.193 55.2164 228.28 54.6083C228.374 53.8186 228.848 54.1108 229.519 53.8186C230.001 53.5975 230.206 52.8868 230.838 52.4209Z" fill="#F5F5F5"/>
<path d="M174.25 30.8239C174.424 31.7083 172.071 32.8613 171.881 31.7162C171.668 30.8002 173.65 29.6631 174.25 30.8239Z" fill="#F5F5F5"/>
<path d="M171.518 255.21H170.27C170.468 255.128 170.68 255.086 170.894 255.086C171.108 255.086 171.32 255.128 171.518 255.21Z" fill="#F5F5F5"/>
<path d="M167.783 23.7564C167.816 23.723 167.855 23.6964 167.898 23.6783C167.942 23.6602 167.988 23.6509 168.035 23.6509C168.082 23.6509 168.129 23.6602 168.172 23.6783C168.216 23.6964 168.255 23.723 168.288 23.7564C168.201 23.9854 168.138 24.246 167.783 24.1512V23.7564Z" fill="#F5F5F5"/>
<path d="M160.415 39.5812C160.415 40.1261 158.765 41.0342 158.591 39.976C158.57 39.8267 158.59 39.6746 158.648 39.5356C158.707 39.3966 158.802 39.2759 158.923 39.1864C159.365 38.8547 160.399 39.0442 160.415 39.5812Z" fill="#F5F5F5"/>
<path d="M125.946 132.068C125.898 132.21 125.819 132.313 125.78 132.463C124.903 132.423 125.693 131.073 125.946 132.068Z" fill="#F5F5F5"/>
<path d="M92.3053 62.4821C92.8896 62.0715 93.4424 63.0902 93.0555 63.5719C92.4316 63.7219 92.25 62.8454 92.3053 62.4821Z" fill="#F5F5F5"/>
<path d="M182.613 66.162C182.226 66.0435 181.705 66.0672 181.207 65.9645C180.71 65.8619 180.283 65.7197 179.88 65.6645C178.862 65.5144 177.756 65.8777 177.148 65.167C178.194 63.5675 179.387 62.0686 180.71 60.6895C181.089 60.2789 181.902 60.0025 181.705 59.1891C181.002 58.4468 180.125 59.2365 179.47 59.6945C178.784 60.2667 177.997 60.7034 177.148 60.9817C175.782 61.2265 173.989 60.5 172.844 61.3844C172.686 62.1741 174.116 61.8424 173.918 62.9638C173.666 63.0567 173.393 63.0778 173.13 63.0248C172.866 62.9719 172.623 62.8468 172.426 62.6637C172.039 62.2452 172.26 61.6213 172.015 61.3686C171.589 60.9422 169.994 60.8316 169.275 60.9659C168.843 61.0284 168.442 61.2265 168.13 61.5316C167.818 61.8368 167.61 62.2332 167.538 62.6637C168.58 63.248 170.31 62.0556 170.696 63.556C170.12 64.7958 168.77 65.4828 168.951 67.1412C169.007 67.477 169.142 67.7949 169.343 68.0692C169.545 68.3436 169.808 68.5667 170.112 68.7205C170.57 68.8153 170.831 68.2704 171.273 68.3178C171.715 68.3652 171.636 69.0127 172.189 68.9179C172.979 68.5073 173.421 67.1648 174.337 67.228C175.435 68.8074 173.35 69.5971 172.189 70.1103C170.862 70.6868 169.133 70.9948 168.122 71.5081C167.593 71.7766 165.595 74.0982 165.311 72.2977C165.106 71.0027 166.298 71.3817 166.551 70.3078C165.271 70.0077 164.071 70.9711 162.91 71.5081C161.244 72.2977 158.417 72.7479 158.014 74.9906C157.935 75.4407 158.18 76.2856 157.935 76.5699C157.691 76.8542 156.545 76.8542 156.032 77.0674C155.243 77.3912 154.532 78.1019 154.042 78.2598C153.671 78.3783 153.118 78.3467 152.881 78.4572C152.218 78.7652 151.981 79.8392 151.223 80.5499C150.915 80.8421 150.228 81.0553 149.983 81.3396C149.549 81.8528 149.494 83.1321 148.736 83.3295C148.254 83.3769 147.867 82.8952 147.409 83.2269C147.354 84.4983 147.78 86.2277 147.33 87.5069C146.303 88.4387 145.193 89.2741 144.013 90.0023C143.318 90.4682 142.702 90.5867 141.857 91.0921C141.265 91.4553 140.72 92.3003 140.041 92.7899C138.462 93.9033 136.543 95.23 136.559 98.0649C136.559 98.6809 136.827 99.3363 136.89 100.055C136.93 100.473 136.89 100.892 136.89 101.35C136.985 102.392 137.617 103.719 136.89 104.438C135.777 103.885 134.356 103.695 133.574 102.74C133.361 101.761 134.008 100.947 133.905 100.055C133.826 99.3363 132.989 98.057 132.5 97.9623C132.01 97.8675 131.528 98.5071 131.007 98.4598C130.486 98.4124 129.815 97.3779 129.017 97.2673C127.856 97.1015 126.996 97.5832 125.701 97.37C124.453 98.1597 124.121 99.5969 122.542 99.4548C122.005 99.4074 121.507 98.9099 120.884 98.7598C120.116 98.5179 119.319 98.3849 118.515 98.365C117.101 98.4756 116.082 99.6917 114.866 100.45C113.8 101.121 112.284 101.95 111.968 103.34C111.794 104.09 111.968 105.14 111.715 105.827C111.521 106.272 111.3 106.705 111.052 107.123C109.868 109.494 109.52 112.196 110.065 114.79C110.424 115.959 110.895 117.091 111.471 118.17C112.087 118.881 112.919 119.372 113.84 119.568C114.49 119.472 115.129 119.305 115.743 119.07C116.47 118.988 117.191 118.854 117.899 118.668C119.691 117.981 119.336 115.067 121.128 114.087C122.097 113.669 123.145 113.467 124.2 113.495C124.42 113.754 124.584 114.055 124.683 114.379C124.782 114.704 124.814 115.045 124.777 115.383C124.592 115.962 124.371 116.529 124.113 117.08C123.924 117.712 123.884 118.454 123.703 118.968C123.45 119.639 122.913 120.129 122.708 120.76C122.574 121.171 122.645 121.684 122.542 122.055C122.352 122.711 121.618 123.169 121.958 123.848C123.734 124.693 125.906 123.603 127.43 123.951C128.086 124.093 129.428 125.025 129.42 126.241C129.42 127.141 128.836 127.733 128.757 128.728C128.654 129.976 128.22 131.5 128.172 132.511C128.101 134.161 130.194 137.012 131.655 136.988C133.116 136.964 134.15 135.101 136.045 136.096C136.677 136.42 137.341 137.675 138.035 137.588C138.73 137.501 139.473 136.325 139.86 135.496C140.326 134.477 140.357 133.616 141.178 133.127C142 132.637 142.758 132.842 143.919 132.337C144.433 132.087 144.911 131.768 145.34 131.389C145.743 131.058 146.13 130.189 146.667 130.797C147.33 131.587 145.877 132.037 146.422 132.882C147.567 133.616 148.151 131.524 148.988 131.492C149.594 131.727 150.154 132.063 150.647 132.487C151.294 133 151.507 133.711 152.226 133.885C152.676 133.987 153.41 133.671 154.05 133.782C154.895 133.924 155.4 134.801 156.04 134.777C156.83 134.777 157.193 133.727 157.856 133.585C159.325 133.261 159.87 133.774 160.51 134.88C161.236 135.03 161.26 133.877 161.915 134.28C161.56 135.148 162.042 135.551 162.334 136.27C162.523 136.735 162.492 137.059 162.665 137.265C163.06 137.723 163.826 137.723 164.403 138.165C164.979 138.607 165.358 139.484 166.061 140.455C166.764 141.426 167.996 142.468 168.959 142.54C169.923 142.611 170.61 142.232 171.368 142.342C173.081 142.595 174.147 143.621 175.316 144.711C175.987 145.327 176.595 145.761 176.809 146.496C176.959 147.017 176.888 147.712 177.061 148.296C177.425 149.528 178.925 150.128 178.388 152.245C178.633 152.869 179.178 153.098 179.794 153.54C180.41 153.982 180.678 154.63 181.199 154.732C181.539 154.795 181.902 154.614 182.194 154.63C183.033 154.778 183.837 155.084 184.563 155.53C185.08 155.677 185.581 155.878 186.056 156.13C186.482 156.469 186.537 157.615 187.051 157.915C187.39 158.112 188.148 157.844 188.709 157.915C189.601 158.041 190.81 158.704 191.607 158.704C192.097 158.704 192.499 158.467 192.934 158.507C194.963 158.696 196.093 161.61 198.075 162.455C198.683 162.732 199.654 162.542 200.057 162.755C200.791 163.142 201.415 165.835 201.47 167.035C201.636 170.652 199.322 171.813 197.988 174.206C197.711 174.703 197.553 175.501 197.159 176.196C196.369 177.601 195.484 177.893 195.579 180.476C195.579 181.186 195.911 181.881 195.911 182.663C195.921 183.698 195.837 184.731 195.658 185.751C195.524 186.414 195.074 186.951 194.995 187.543C194.916 188.136 195.145 188.625 195.082 189.123C194.865 189.886 194.558 190.62 194.166 191.31C193.376 193.008 193.234 195.006 191.686 195.693C190.77 196.096 189.538 195.867 188.527 196.285C188.125 196.459 187.611 196.909 187.122 197.185C185.677 197.975 183.624 199.081 183.229 200.865C182.873 202.445 183.718 203.732 183.473 205.548C183.175 206.13 182.843 206.695 182.478 207.238C182.123 207.806 181.942 208.47 181.57 209.03C181.073 209.781 180.299 210.112 179.991 211.123C179.888 211.463 179.991 211.873 179.825 212.418C179.778 212.616 179.478 212.931 179.328 213.31C179.178 213.69 179.201 214.1 179.083 214.408C178.704 215.324 177.575 217.417 176.761 217.693C175.04 218.278 173.231 216.817 172.023 217.093C172.197 218.096 172.813 217.985 173.184 218.672C173.374 219.15 173.596 219.614 173.847 220.062C174.218 220.583 174.55 220.773 174.59 221.357C174.603 221.9 174.5 222.439 174.286 222.938C174.072 223.437 173.753 223.884 173.35 224.248C172.617 224.658 171.813 224.926 170.981 225.037C170.365 225.156 168.785 225.164 168.493 225.637C168.067 226.324 168.714 228.006 168.406 228.717C167.79 230.178 166.124 228.678 165.248 229.12C165.19 229.465 165.22 229.819 165.336 230.149C165.452 230.479 165.65 230.774 165.911 231.007C166.432 231.378 167.222 230.897 167.569 231.607C167.396 232.594 166.511 232.729 166.322 233.7C166.322 234.648 166.59 234.9 166.488 235.485C166.274 236.764 164.616 236.717 164.663 238.075C164.734 240.12 167.925 239.283 167.98 241.234C167.98 242.434 167.072 242.45 166.74 243.603C166.559 244.234 166.843 244.392 166.74 244.898C166.598 245.608 165.951 245.806 165.951 246.588C165.951 247.543 167.111 248.593 167.688 249.375C168.254 250.264 168.952 251.063 169.757 251.744C170.926 252.534 172.655 252.344 173.16 253.734C172.994 254.571 172.323 254.8 171.668 255.029H171.502C171.304 254.947 171.092 254.905 170.878 254.905C170.664 254.905 170.452 254.947 170.254 255.029H169.109C168.004 254.413 166.661 254.018 165.303 253.45C164.813 253.244 164.261 252.747 163.724 252.463C163.329 252.242 162.879 252.155 162.563 251.957C161.852 251.507 161.047 250.054 160.328 249.47C159.894 249.114 159.207 248.933 158.922 248.57C158.675 248.087 158.454 247.591 158.259 247.085C157.991 246.627 157.469 246.295 157.177 245.79C156.49 244.692 155.598 243.208 155.598 242.402C155.598 241.597 156.23 241.06 156.016 240.317C155.803 239.575 154.54 239.765 154.358 238.92C154.248 238.406 154.721 237.554 154.69 236.827C154.69 236.409 154.019 235.84 154.271 235.248C154.524 234.655 155.132 235.311 155.598 234.956C155.25 233.518 155.598 231.205 154.437 230.77C153.829 231.386 155.061 232.776 154.026 233.139C153.024 232.602 153.237 231.015 153.031 229.854C152.804 229.106 152.637 228.34 152.534 227.564C152.584 227.103 152.611 226.639 152.613 226.174C152.439 224.832 151.199 223.726 151.12 222.384C151.208 221.744 151.348 221.113 151.539 220.497C151.594 220.023 151.484 219.494 151.539 219.004C151.61 218.364 151.902 217.788 151.95 217.211C152.032 215.914 151.977 214.612 151.784 213.326C151.586 212.173 150.82 211.194 150.71 209.946C150.67 209.488 150.836 208.73 150.797 208.154C150.757 207.577 150.504 207.072 150.465 206.456C150.479 205.855 150.534 205.256 150.631 204.664C150.718 203.416 150.425 202.018 150.465 200.778C150.465 200.415 150.631 200.147 150.631 199.783C150.631 198.757 150.331 197.722 150.299 196.704C150.228 194.808 150.473 193.474 150.212 191.721C150.087 190.302 149.809 188.902 149.383 187.543C148.565 186.33 147.526 185.283 146.319 184.456C145.743 184.069 145.048 183.934 144.416 183.555C143.066 182.766 140.468 181.084 139.86 179.481C139.686 179.015 139.71 178.399 139.528 177.901C139.048 176.898 138.494 175.932 137.87 175.011C136.843 173.132 136.014 170.778 134.964 168.844C134.501 167.847 133.973 166.882 133.384 165.954C133.045 165.495 131.955 165.061 131.805 164.374C131.615 163.458 131.055 162.195 131.142 161.492C131.26 160.536 132.8 159.77 132.8 158.902C132.8 158.167 132.01 157.733 131.805 157.109C131.386 155.585 132.05 154.693 132.547 153.429C132.713 153.011 132.879 152.339 133.045 152.031C133.353 151.487 133.969 151.329 134.371 150.736C134.6 150.405 134.742 149.718 135.035 149.244C135.666 148.241 136.685 147.862 136.938 146.954C137.204 145.075 137.234 143.17 137.025 141.284C136.756 140.606 136.453 139.942 136.117 139.294C135.737 138.086 135.651 136.775 134.624 136.799C133.984 136.799 133.534 137.659 133.132 138.196C133.029 138.907 133.084 139.673 132.468 139.886C131.521 140.218 131.165 138.694 130.099 138.307C129.657 138.141 128.962 138.149 128.686 138.007C127.896 137.573 127.627 136.159 126.783 135.638C126.072 135.18 125.472 135.338 125.037 134.643C124.945 133.984 124.918 133.317 124.958 132.653C124.05 132.013 123.284 129.628 122.226 129.068C121.523 128.697 120.449 128.728 119.573 128.373C119.198 128.179 118.81 128.013 118.412 127.875C117.899 127.807 117.397 127.672 116.919 127.473C115.285 126.493 114.4 123.327 112.363 123.398C111.502 123.398 110.665 124.393 109.883 124.393C109.102 124.393 107.791 123.643 106.812 123.098C105.832 122.553 104.672 122.221 103.835 121.7C103.155 121.281 102.682 120.523 102.089 120.207C101.639 119.963 100.976 119.923 100.605 119.71C99.9897 119.253 99.4066 118.754 98.8595 118.218C98.189 117.739 97.7171 117.031 97.5329 116.228C97.5329 115.438 98.133 114.782 98.1962 114.032C98.4094 111.663 96.9564 109.957 96.0404 108.56C95.3613 107.517 94.5716 106.633 93.8925 105.67C93.9241 105.207 93.9241 104.742 93.8925 104.28C93.3375 103.528 92.8387 102.736 92.4 101.911C91.9025 101.121 90.947 100.237 90.8206 99.3284C90.6706 98.2071 91.176 97.2279 90.8206 96.1697C90.2363 94.3692 88.1515 95.1826 88.4516 97.5674C88.5306 98.2229 89.2966 99.1073 89.5256 99.7548C89.7546 100.402 89.723 101.247 89.9441 102.045C90.1652 102.842 90.7969 103.474 91.018 104.335C91.3734 105.701 91.3655 107.17 91.6814 108.015C91.9972 108.86 93.0159 109.492 92.4316 110.384C91.6419 110.581 91.3418 109.634 90.8522 109.089C90.5837 108.781 89.5966 108.204 89.4466 107.509C89.3202 106.925 89.7546 106.135 89.6124 105.425C89.3281 104.019 86.967 103.98 86.9591 102.535C86.9591 101.626 87.9462 101.516 87.9541 100.639C87.962 99.7627 86.8643 98.8704 86.6274 98.057C86.4339 97.073 86.3229 96.0745 86.2958 95.072C86.3064 94.106 86.251 93.1403 86.1299 92.1818C85.8107 91.3776 85.2613 90.6854 84.5506 90.1918C83.8241 89.7022 83.2476 89.9076 82.8923 89.1969C82.5796 88.3648 82.3855 87.4928 82.3158 86.6067C82.1973 85.4143 82.3158 84.1034 82.2289 82.8242C82.1183 81.5314 82.1183 80.2317 82.2289 78.9389C82.6396 77.9755 83.3898 77.5017 83.8083 76.5699C84.0926 75.9066 84.14 75.0853 84.4637 74.3746C85.0718 73.0795 86.3984 71.8792 87.2829 70.592C88.2636 69.2798 89.0606 67.8398 89.6519 66.312C90.0196 65.529 90.2443 64.6866 90.3152 63.8245C90.2126 62.869 88.7359 62.0793 88.8227 60.9343C88.9017 60.2315 89.7388 60.2394 89.9836 59.5445C90.1349 58.9583 90.2197 58.357 90.2363 57.7519C90.2363 56.7964 89.8256 55.7935 89.9836 54.7669C90.1257 53.8904 91.2076 53.535 90.6469 52.5795C90.0862 51.624 89.0675 53.0928 88.499 52.4768C87.9304 51.8609 88.6095 51.2291 88.6569 50.1868C88.6569 49.7682 88.4595 49.3023 88.499 48.9944C88.5464 48.5442 89.2886 47.8019 89.0754 47.5019C88.6253 46.8148 88.1278 45.0855 87.1723 44.509C85.9562 43.7746 84.6374 44.2721 82.9475 43.9167C81.9052 43.6956 81.4156 42.5269 80.46 42.6217C79.8678 42.6769 79.5282 43.4903 78.7149 43.9167C77.9015 44.3432 76.867 44.1931 76.0694 44.4142C75.2719 44.6353 74.8928 45.2829 74.0795 45.2039C73.3924 45.1407 73.3924 44.4142 72.587 44.3037C72.1123 44.3727 71.6428 44.4729 71.1813 44.6038C69.5574 44.826 67.9091 44.7994 66.2932 44.5248C65.1511 44.1835 64.0635 43.681 63.0635 43.0323C62.0764 42.4874 60.2443 41.8083 60.3233 40.9396C60.3786 40.3869 62.0606 39.7946 62.6923 39.5498C63.7742 39.155 64.4375 38.5153 65.2667 38.4522C65.5825 38.4522 66.0011 38.6891 66.4275 38.6575C66.8539 38.6259 67.3751 38.1442 67.9121 38.0573C69.0729 37.8599 70.7075 38.1284 70.5654 36.7623C69.6888 35.9252 66.1037 37.3782 66.009 35.5698C65.9537 34.4722 67.3672 34.1405 68.378 33.8799C69.425 33.5447 70.5102 33.343 71.6078 33.2798C72.5475 33.3351 73.7952 34.6064 74.34 33.1771C74.6006 32.1663 74.0163 31.3135 73.8426 30.4922C74.5454 29.3235 75.8404 29.4656 76.8275 29.2998C77.9267 29.1339 78.9927 28.7954 79.9862 28.2969C80.9814 27.8039 82.0469 27.4683 83.145 27.3019C84.2663 27.1282 85.364 26.6228 86.3747 26.5122C87.1679 26.4977 87.9592 26.4318 88.7438 26.3148C89.4588 26.01 90.2142 25.8105 90.9865 25.7226C91.5076 25.7226 91.9499 26.2043 92.4789 26.3148C93.008 26.4254 93.5292 26.3148 94.0583 26.4175C94.461 26.5201 94.848 26.8439 95.2191 26.915C95.843 27.0255 96.5221 26.8123 97.1222 26.915C97.7224 27.0176 98.1567 27.4283 98.7016 27.5151C99.973 27.7126 101.434 27.4283 102.65 27.7126C103.124 27.8152 103.55 28.0995 104.056 28.21C104.561 28.3206 105.082 28.21 105.548 28.3048C106.211 28.4627 106.764 29.2129 107.459 29.3077C108.738 29.4656 110.176 28.6365 111.518 28.518C112.517 28.5264 113.515 28.4578 114.503 28.3127C115.365 28.0117 116.25 27.7793 117.148 27.6178C117.606 27.6178 117.978 27.7836 118.396 27.7204C118.815 27.6573 119.336 27.0334 119.802 27.1203C120.418 27.2387 120.307 28.1785 120.963 28.4154C121.681 27.9652 122.408 28.4154 123.197 28.4154C123.987 28.4154 124.666 27.9574 125.519 28.1153C127.027 28.3996 129.136 30.1763 130.32 29.2129C130.62 28.9681 130.549 28.5496 130.818 27.9179C131.189 27.065 131.908 26.0542 131.734 24.8302C130.075 24.8302 128.488 25.841 126.593 25.9279C124.682 24.4907 127.106 23.5983 128.504 22.9429C129.649 22.398 130.565 21.1977 131.987 20.9529C133.139 20.7476 134.419 21.2609 135.793 21.4504C136.484 21.4459 137.174 21.4775 137.862 21.5452C138.651 21.8374 139.094 22.8087 139.773 23.0377C140.065 23.1403 140.562 23.1324 140.934 23.243C141.676 23.4483 142.339 23.9221 143.081 23.243C143.666 23.3693 143.737 24.1116 144.329 24.238C144.874 23.8826 145.3 22.9745 146.153 22.7455C146.517 22.6428 146.904 22.8165 147.306 22.7455C147.985 22.6112 148.886 21.5136 149.296 22.5402C149.13 23.2588 148.222 23.3298 147.717 23.9379C147.156 24.5483 146.783 25.3079 146.643 26.1253C146.738 27.0729 147.922 26.7097 147.962 27.9179C147.788 28.6128 147.117 28.3048 146.556 28.6128C145.995 28.9208 145.853 29.4893 145.316 29.6078C143.808 29.9552 142.56 29.1577 141.257 29.2129C141.194 29.8921 141.897 30.2869 142.244 30.508C143.429 31.2503 144.392 31.1477 146.059 31.1082C146.911 31.1082 147.891 31.4082 148.625 30.8081C149.091 30.4211 149.067 29.5841 149.454 29.1103C149.732 28.7915 150.075 28.5373 150.461 28.3654C150.847 28.1936 151.266 28.1082 151.689 28.1153C151.915 28.1874 152.118 28.317 152.279 28.4915C152.439 28.6659 152.552 28.8792 152.605 29.1103C152.605 30.0184 151.539 29.7262 151.531 30.6896C152.226 31.195 154.082 30.1369 154.176 29.2998C154.248 28.6839 153.576 28.3285 153.6 27.7204C153.6 26.6781 154.816 26.6939 154.674 25.6278C154.105 25.0908 153.513 25.7463 152.937 25.6278C152.147 25.462 151.357 24.2932 151.026 23.5352C151.389 22.9982 152.139 23.3614 152.684 23.4404C153.292 22.4296 154.429 22.0348 156.001 21.861C156.561 21.7979 157.304 21.5294 157.58 22.1611C157.714 23.1008 156.419 23.6694 156.672 24.7513C157.785 25.0829 158.156 23.2746 159.041 22.556C159.536 22.2349 160.066 21.9701 160.62 21.7663C161.126 21.5294 161.694 20.9766 162.113 20.9766C162.531 20.9766 162.65 21.4425 163.1 21.6715C163.55 21.9005 164.047 21.5294 164.182 22.169C163.218 24.1669 159.641 23.014 158.709 25.0513C158.915 26.4175 158.149 27.7204 158.796 28.6365C159.254 29.2919 160.296 28.8497 160.533 29.5367C160.857 30.4527 159.53 30.4527 159.87 31.5267C160.747 32.1584 161.797 30.9265 162.602 30.429C163.408 29.9315 164.576 29.2761 164.679 28.06C164.237 27.0492 162.61 27.831 162.358 26.7649C162.386 26.0203 162.615 25.2972 163.021 24.6723C163.882 23.5115 166.898 21.8531 169.07 22.0822C169.48 22.1295 169.899 22.4296 170.31 22.4849C171.739 22.6586 173.421 21.7426 174.534 22.4849C175.435 21.8531 176.516 22.5717 177.764 22.3822C178.735 23.0692 178.467 24.5223 179.92 25.1698C180.315 25.3435 180.812 25.2172 181.333 25.3672C181.712 25.4778 182.123 26.0226 182.573 26.2674C183.205 26.607 183.679 26.528 183.813 27.0571C183.947 27.5862 183.363 27.91 183.402 28.447C183.758 28.8023 183.458 29.3393 183.655 29.8447C184.01 30.7607 184.911 30.6975 185.803 31.1398C186.435 31.4477 187.769 32.3953 187.714 33.1297C187.675 33.6193 186.451 34.488 186.056 34.7091C185.661 34.9302 184.5 35.6804 184.034 35.6014C183.244 35.4593 182.944 33.5562 181.878 33.6114C181.746 33.6191 181.616 33.6539 181.497 33.7137C181.378 33.7736 181.273 33.8572 181.188 33.9593C181.103 34.0615 181.04 34.1801 181.002 34.3077C180.965 34.4353 180.954 34.5692 180.97 34.7012C180.97 36.0121 182.186 36.0594 182.21 37.1966C182.21 38.5469 181.594 38.6417 180.631 39.4787C179.987 39.0471 179.265 38.7441 178.506 38.5864C177.977 39.3761 179.375 39.613 178.917 40.5764C177.59 40.916 176.548 40.1263 175.356 39.6841C174.977 39.5419 174.432 39.5972 174.116 39.384C173.642 39.0602 173.508 38.0889 173.121 37.5914C172.734 37.0939 171.778 36.1937 171.052 36.2016C170.025 36.2016 168.541 37.7257 167.735 36.2963C168.296 34.0142 170.949 35.712 172.702 34.9065C173.358 34.6064 173.579 33.7773 174.116 33.4061C175.19 32.6717 176.927 32.6164 176.769 31.124C176.682 30.3896 175.837 30.3975 175.356 30.0263C174.708 29.513 174.211 27.7204 173.287 27.6573C172.813 27.6573 172.497 28.0995 171.96 28.1548C170.886 28.2811 169.694 27.6415 168.73 28.1548C168.28 28.4627 168.58 28.9444 168.233 29.5525C167.885 30.1606 167.261 30.1684 166.993 30.6423C166.724 31.1161 166.74 31.9057 166.33 32.3401C165.643 33.0587 164.205 33.1771 163.345 33.5325C162.958 33.6904 162.476 34.2353 162.105 34.2274C161.418 34.2274 161.126 33.1218 160.36 33.5325C160.296 34.5985 161.299 35.0329 161.939 35.5225C162.705 35.9741 163.291 36.6773 163.597 37.5125C162.926 39.2339 161.852 37.4256 160.786 37.4177C159.72 37.4098 157.888 40.1026 156.893 37.9152C157.138 36.7544 158.204 36.5727 158.472 35.4277C157.304 35.6646 156.285 36.8491 154.911 37.2203C154.326 37.3703 153.766 37.3308 153.253 37.5125C152.258 37.8599 151.563 38.7443 150.52 39.2103C150.11 39.3919 149.62 39.3366 149.194 39.5024C148.065 40.001 146.984 40.601 145.964 41.295C144.93 41.8976 143.957 42.5984 143.058 43.3876C142.498 43.9876 142.075 44.7015 141.818 45.4803C141.857 46.0726 142.789 46.27 142.813 46.8701C142.813 47.2413 142.276 48.031 142.647 48.5679C143.018 49.1049 143.666 48.6548 144.384 48.7654C145.648 48.9549 146.477 50.2105 147.448 50.858C148.245 51.4066 149.137 51.8029 150.078 52.0267C151.215 52.2005 152.494 51.624 152.644 52.7216C152.795 53.8193 151.578 54.151 151.492 54.8143C152.1 55.7856 151.073 56.2515 151.073 57.1044C151.073 57.7914 151.784 58.8337 152.4 58.8969C153.237 58.9759 154.453 57.9019 154.769 56.899C155.187 55.7066 155.006 54.0878 155.764 53.2191C159.625 53.3455 162.871 51.1107 162.642 46.3489C162.534 45.8293 162.478 45.3003 162.476 44.7696C162.594 43.9799 163.7 43.3482 163.55 42.4006C164.632 41.9978 164.584 39.921 165.706 39.613C166.645 39.3603 167.704 40.4027 168.936 40.3079C169.338 40.3079 169.859 39.842 170.262 39.9131C171.052 40.0473 171.565 41.2476 172.173 41.8004C172.781 42.3532 173.279 42.14 173.413 42.7954C173.255 43.9167 172.623 43.9404 172.663 44.9907C172.699 45.3589 172.833 45.7105 173.053 46.0081C173.273 46.3057 173.569 46.5381 173.91 46.6806C174.646 46.7077 175.37 46.5003 175.979 46.0884C177.093 45.4566 178.04 43.5535 178.964 43.7904C179.691 43.9878 180.267 46.7754 180.37 47.7388C180.473 48.7022 180.252 49.634 180.291 50.6211C180.394 52.3031 182.155 52.1373 183.023 52.9901C183.284 53.2586 183.387 53.9377 183.608 54.2852C184.026 54.9564 184.532 54.9564 184.595 55.675C184.753 57.3965 183.3 57.5387 183.434 59.4576C183.142 60.2473 182.384 60.1604 182.447 61.1554C182.542 62.7348 184.421 61.5186 184.926 62.7348C185.203 63.3981 184.887 63.8877 184.682 64.8274C185.321 65.7513 185.321 67.1964 184.184 67.1964C183.505 67.2596 183.316 66.3673 182.613 66.162ZM93.0554 63.5718C93.4423 63.0901 92.8896 62.0714 92.3052 62.4821C92.2499 62.8453 92.4316 63.7219 93.0554 63.5718ZM150.868 72.6294C150.52 72.2267 149.399 72.3451 148.633 72.432C148.088 72.5031 147.448 72.6373 147.385 73.1269C148.262 73.6086 150.615 73.9482 150.868 72.6294ZM146.556 70.9395C146.697 70.7915 146.803 70.613 146.864 70.4177C146.926 70.2224 146.941 70.0156 146.91 69.8133C146.879 69.611 146.801 69.4187 146.684 69.2511C146.566 69.0835 146.412 68.9452 146.232 68.8469C145.956 68.76 145.593 69.0917 145.15 69.0522C144.708 69.0127 144.211 68.4915 143.824 68.452C143.524 68.4285 143.222 68.4797 142.947 68.6009C142.671 68.7222 142.43 68.9098 142.244 69.1469C142.244 69.7471 142.608 69.8419 142.576 70.442C141.786 71.1369 142.197 73.4507 142.987 73.5296C143.776 73.6086 144.266 70.9711 145.356 70.7421C145.822 70.6552 146.035 71.0185 146.572 70.9395H146.556ZM145.403 74.8879C144.219 74.3904 143.137 75.2354 142.173 75.3854C141.597 75.4802 140.547 75.2511 140.681 76.2856C140.784 77.1306 141.873 76.8226 142.497 76.5857C143.584 76.2584 144.583 75.6887 145.419 74.9195L145.403 74.8879ZM141.755 67.3228C143.405 66.4778 141.431 63.8798 140.681 63.6429C139.338 63.2165 137.427 64.8274 135.872 65.3328C134.995 65.6171 134.166 65.6487 133.969 66.5331C134.758 68.1125 136.298 66.1856 137.443 66.4304C138.028 66.5489 138.367 67.5044 138.936 67.6229C139.887 67.6253 140.837 67.5354 141.771 67.3544L141.755 67.3228ZM140.594 68.9021C140.254 68.4204 138.391 68.9574 137.862 69.3996C137.479 69.8923 137.146 70.4213 136.867 70.979C136.472 71.5476 136.077 71.9819 135.706 72.4715C135.335 72.9611 133.732 75.8197 135.043 76.1514C135.603 76.2935 136.756 74.8958 136.867 74.3588C137.075 72.8039 137.876 71.3895 139.102 70.4104C139.812 69.9445 140.499 70.0077 140.602 68.9495L140.594 68.9021ZM130.233 57.7519C131.165 57.7519 131.813 54.4273 130.233 54.8617C129.215 55.2012 128.962 57.8545 130.249 57.7993L130.233 57.7519ZM125.764 132.416C125.803 132.266 125.882 132.163 125.93 132.021C125.693 131.073 124.903 132.424 125.78 132.463L125.764 132.416ZM90.7338 49.1365C90.7338 48.9549 90.639 48.9154 90.6469 48.7417C90.3942 48.7417 90.102 48.6864 90.1494 49.0417C90.1968 49.3971 90.5916 49.3734 90.7338 49.1365ZM177.811 33.5088C178.222 33.572 178.451 33.414 178.396 32.9165C178.025 32.6007 177.488 33.0113 177.811 33.5088ZM168.288 23.7563C168.255 23.7228 168.216 23.6963 168.172 23.6782C168.129 23.6601 168.082 23.6508 168.035 23.6508C167.988 23.6508 167.942 23.6601 167.898 23.6782C167.855 23.6963 167.816 23.7228 167.783 23.7563V24.1511C168.138 24.2459 168.241 23.9932 168.288 23.7563ZM136.804 31.4161C137.08 31.2029 137.498 30.9186 137.293 30.4211C136.385 29.9079 134.837 30.3027 133.487 30.1211C132.697 28.826 131.442 28.6207 131.331 30.7212C132.871 32.2295 135.208 30.0184 136.804 31.4161ZM121.965 41.6819C122.439 41.4845 123.095 41.5872 123.213 40.9791C122.826 40.608 122.424 40.1105 121.965 40.0868C121.365 40.0868 121.081 40.7027 120.473 41.0818C119.865 41.4608 118.807 41.6346 118.736 42.3769C120.023 42.669 121.176 41.9978 121.965 41.674V41.6819ZM121.555 34.5117C122.084 34.4011 122.629 34.6933 122.96 34.1168C122.566 31.9215 120.047 33.264 118.57 33.414C118.182 34.0238 117.914 34.7018 117.78 35.4119C118.886 35.7515 120.268 34.7644 121.555 34.5038V34.5117ZM146.414 136.254C147.061 136.127 146.872 134.319 146.082 134.761C145.482 135.085 145.79 136.364 146.414 136.246V136.254Z" fill="#F5F5F5"/>
<path d="M90.6465 48.7414C90.6465 48.9152 90.7492 48.9546 90.7334 49.1363C90.5913 49.3732 90.2754 49.3258 90.149 49.0415C90.0227 48.7572 90.3938 48.7335 90.6465 48.7414Z" fill="#F5F5F5"/>
<path d="M88.1677 54.6166C88.0767 54.8901 87.9249 55.1394 87.7239 55.3458C87.5229 55.5523 87.2778 55.7107 87.0069 55.8091C86.8452 55.6633 86.7044 55.4958 86.5884 55.3116C86.6279 54.364 87.7413 53.669 88.1677 54.6166Z" fill="#F5F5F5"/>
<path d="M520.208 63.974C520 62.1245 519.231 60.3828 518.005 58.9833C516.851 57.5688 515.286 56.5478 513.527 56.0615C512.589 55.8408 511.617 55.8109 510.667 55.9737C509.717 56.1365 508.81 56.4886 507.999 57.0091C507.039 57.6368 506.245 58.4875 505.686 59.4887C505.187 58.573 504.491 57.7798 503.648 57.167C502.864 56.6049 501.974 56.2073 501.032 55.9983C500.091 55.7893 499.116 55.7732 498.168 55.9509C496.385 56.3413 494.77 57.2802 493.548 58.6358C492.251 59.9707 491.394 61.6711 491.092 63.5081C490.754 65.8548 491.175 68.2481 492.293 70.3388C493.607 72.4627 495.41 74.2416 497.552 75.527C501.019 77.7381 505.591 80.5099 505.591 80.5099C505.591 80.5099 509.539 77.6749 513.156 75.6455C515.366 74.4758 517.262 72.791 518.684 70.7337C519.907 68.7035 520.441 66.3326 520.208 63.974Z" fill="#EBEBEB"/>
<path d="M489.868 15.7488C489.825 15.0954 489.579 14.4718 489.165 13.9641C488.786 13.4479 488.252 13.0662 487.641 12.8744C487.315 12.7822 486.974 12.7563 486.637 12.7984C486.301 12.8404 485.976 12.9495 485.683 13.1192C485.712 13.2356 485.714 13.3572 485.689 13.4746C485.665 13.5921 485.613 13.7023 485.539 13.7969C485.466 13.8916 485.371 13.9681 485.263 14.0208C485.155 14.0735 485.037 14.1008 484.917 14.1008C484.797 14.1008 484.678 14.0735 484.57 14.0208C484.463 13.9681 484.368 13.8916 484.294 13.7969C484.22 13.7023 484.169 13.5921 484.144 13.4746C484.119 13.3572 484.122 13.2356 484.151 13.1192C483.884 12.9109 483.578 12.7581 483.251 12.67C482.924 12.5818 482.583 12.56 482.248 12.6059C481.617 12.7175 481.037 13.0241 480.589 13.4824C480.113 13.9314 479.785 14.5156 479.65 15.1565C479.5 15.976 479.613 16.8218 479.974 17.573C480.405 18.3376 481.011 18.9896 481.742 19.4761C482.927 20.2658 484.49 21.3397 484.49 21.3397C484.49 21.3397 485.936 20.4 487.223 19.7604C488.012 19.3796 488.7 18.8166 489.229 18.1178C489.693 17.4182 489.917 16.5869 489.868 15.7488Z" fill="#EBEBEB"/>
<path d="M38.7334 133.039C38.6898 132.386 38.4442 131.762 38.0306 131.255C37.6498 130.737 37.1128 130.355 36.4986 130.165C36.1734 130.072 35.8327 130.046 35.4972 130.09C35.1618 130.133 34.8388 130.245 34.5481 130.418C34.1969 130.619 33.9033 130.907 33.6952 131.255C33.5372 130.924 33.3048 130.635 33.0161 130.41C32.749 130.202 32.4431 130.049 32.1163 129.961C31.7895 129.873 31.4484 129.851 31.113 129.897C30.4804 130.01 29.8983 130.316 29.4468 130.773C28.9703 131.221 28.6447 131.806 28.515 132.447C28.3653 133.267 28.4786 134.112 28.8387 134.864C29.2705 135.628 29.8765 136.28 30.6076 136.767C31.7921 137.556 33.3557 138.63 33.3557 138.63C33.3557 138.63 34.8008 137.699 36.0801 137.051C36.8723 136.671 37.5626 136.108 38.0937 135.408C38.5578 134.709 38.7823 133.878 38.7334 133.039Z" fill="#EBEBEB"/>
<path d="M44.7117 19.9104C44.6681 19.257 44.4225 18.6334 44.0089 18.1257C43.6254 17.6123 43.0891 17.2335 42.4769 17.0439C42.1523 16.9496 41.8118 16.9226 41.4764 16.9647C41.141 17.0068 40.8177 17.1171 40.5264 17.2887C40.1797 17.496 39.8873 17.7829 39.6736 18.1257C39.4437 17.6545 39.069 17.2692 38.6044 17.0262C38.1397 16.7832 37.6095 16.6953 37.0913 16.7754C36.4548 16.892 35.8715 17.2071 35.4251 17.6756C34.9487 18.1237 34.6231 18.7087 34.4933 19.3497C34.3329 20.158 34.4353 20.9965 34.7855 21.7425C35.213 22.508 35.82 23.1584 36.5544 23.6377C37.7389 24.4274 39.3024 25.5092 39.3024 25.5092C39.3024 25.5092 40.7476 24.5695 42.0268 23.9299C42.821 23.5533 43.512 22.9897 44.0405 22.2873C44.5184 21.5899 44.7542 20.7548 44.7117 19.9104Z" fill="#EBEBEB"/>
<path d="M287.055 3.65867C287.007 3.00644 286.762 2.38424 286.353 1.874C285.97 1.35762 285.434 0.976019 284.821 0.784239C284.494 0.691373 284.152 0.665886 283.815 0.709327C283.479 0.752769 283.155 0.86423 282.862 1.03694C282.515 1.24447 282.225 1.53477 282.017 1.88189C281.857 1.55317 281.625 1.26449 281.338 1.03694C281.07 0.828787 280.762 0.676198 280.434 0.58807C280.106 0.499942 279.764 0.47804 279.427 0.523644C278.798 0.641172 278.22 0.946834 277.769 1.40019C277.292 1.84829 276.967 2.43325 276.837 3.0743C276.676 3.89347 276.79 4.7427 277.161 5.49072C277.589 6.26237 278.195 6.92035 278.93 7.40963C280.114 8.19931 281.678 9.27327 281.678 9.27327C281.678 9.27327 283.115 8.34145 284.402 7.69392C285.191 7.31315 285.879 6.75016 286.408 6.05139C286.88 5.34615 287.107 4.50561 287.055 3.65867Z" fill="#EBEBEB"/>
<path d="M522.474 155.624C522.43 154.971 522.185 154.347 521.771 153.84C521.392 153.323 520.858 152.942 520.247 152.75C519.921 152.658 519.58 152.632 519.243 152.674C518.907 152.716 518.582 152.825 518.289 152.995C517.94 153.203 517.647 153.493 517.436 153.84C517.278 153.509 517.045 153.22 516.757 152.995C516.49 152.786 516.184 152.634 515.857 152.545C515.53 152.457 515.189 152.436 514.854 152.481C514.221 152.594 513.639 152.901 513.187 153.358C512.716 153.81 512.391 154.393 512.256 155.032C512.106 155.851 512.219 156.697 512.579 157.448C513.011 158.213 513.617 158.865 514.348 159.352C515.533 160.141 517.096 161.215 517.096 161.215C517.096 161.215 518.541 160.275 519.829 159.636C520.618 159.255 521.306 158.692 521.834 157.993C522.299 157.294 522.523 156.462 522.474 155.624Z" fill="#EBEBEB"/>
<path d="M26.6357 71.6417C26.5175 69.9816 25.8948 68.3973 24.851 67.101C23.8743 65.7901 22.5093 64.8203 20.95 64.3292C20.1211 64.0931 19.2529 64.0273 18.3979 64.1359C17.5428 64.2444 16.7186 64.5251 15.975 64.961C15.0902 65.4874 14.3474 66.222 13.8113 67.101C13.4015 66.2611 12.8077 65.5242 12.074 64.9452C11.3945 64.4144 10.6148 64.0261 9.78169 63.8036C8.94859 63.5811 8.07916 63.5289 7.22542 63.6501C5.62086 63.9248 4.14156 64.692 2.99275 65.8454C1.78802 66.9962 0.961783 68.4862 0.623717 70.1176C0.219755 72.1997 0.496631 74.3566 1.41339 76.2692C2.51287 78.2142 4.05823 79.8705 5.92245 81.102C8.93902 83.2026 12.919 85.8401 12.919 85.8401C12.919 85.8401 16.591 83.471 19.8603 81.7811C21.8758 80.8147 23.6304 79.3796 24.9774 77.5958C26.1507 75.8386 26.7318 73.7524 26.6357 71.6417Z" fill="#EBEBEB"/>
</svg>
