<svg width="104" height="331" viewBox="0 0 104 331" fill="none" xmlns="http://www.w3.org/2000/svg">
<path d="M15.9489 291.407C15.9489 291.407 12.941 254.522 14.6631 240.603C16.1376 228.654 18.0013 223.676 18.2962 220.963C18.2962 220.963 20.8676 192.913 20.785 169.063C20.785 157.609 21.6933 149.435 27.7917 135.728L68.2979 144.846C69.1944 150.885 72.5208 191.085 73.665 226.861C74.6558 258.179 74.1368 285.615 74.1368 285.615V287.267C74.1368 289.095 74.5732 290.369 75.7882 293.294C77.3204 297.056 79.4869 300.527 82.1933 303.557C83.0307 304.441 88.8578 309.395 89.6363 310.457C92.1488 313.312 87.0412 315.01 83.2312 314.55C79.2089 314.067 72.9454 312.627 71.1525 310.209C69.9729 308.593 68.9821 302.896 67.7554 301.268C63.5915 295.748 61.8575 293.377 61.8575 291.608C61.7632 288.387 62.8484 287.102 63.2258 285.285C62.8484 281.487 54.2257 250.394 53.9426 239.341C53.8011 234.08 54.0488 226.826 54.0488 226.826L47.2073 190.448C44.8482 199.578 40.649 216.623 39.316 225.328C37.6882 235.944 32.0735 266.908 28.4758 280.992C27.4052 284.629 26.6165 288.344 26.1167 292.103L26.0106 293.342C25.9516 294.922 25.4915 311.684 24.9253 315.223C23.7458 322.63 17.152 321.781 16.0196 315.824C15.0524 310.764 15.9606 295.017 15.9606 293.082L15.9489 291.407Z" fill="#B16668"/>
<path d="M15.9489 291.407C14.097 291.466 15.4063 298.614 14.9934 303.203C14.5452 308.145 12.9764 311.778 12.5635 315.836C11.9849 319.38 12.5771 323.016 14.2503 326.193C15.5832 329.13 22.1298 333.105 24.5361 328.835C26.7258 324.616 27.6048 319.839 27.0604 315.117C26.7065 310.398 26.3644 306.86 26.2229 303.321C26.0931 300.124 28.4523 292.587 26.046 292.162L25.9398 293.401C25.1023 295.135 16.9043 296.444 15.8899 293.141L15.9489 291.407Z" fill="#37474F"/>
<path d="M61.4804 295.536C60.9496 297.895 61.622 304.17 61.622 304.17C62.6899 305.86 64.325 307.115 66.2341 307.709L67.7085 298.886L61.4804 295.536Z" fill="#263238"/>
<path d="M66.2339 307.756L74.0544 305.067L75.8474 298.072L67.0832 302.66L66.2339 307.756Z" fill="black"/>
<path d="M74.1251 287.302V285.651C75.1985 286.158 77.6638 294.71 80.9194 300.56C83.8919 305.904 89.6836 308.817 91.5355 311.177C94.0834 314.279 89.2825 318.384 81.4738 316.827C77.6048 316.048 71.7188 313.654 70.091 311.07C68.4632 308.487 67.8734 303.71 66.5523 301.811C65.2312 299.912 62.1171 297.741 61.433 295.571C60.8957 293.601 60.8714 291.526 61.3622 289.543C61.952 287.55 62.4474 285.144 63.1316 285.356L63.1905 286.866C63.7331 287.916 65.6322 289.13 69.5602 289.284C71.4829 289.319 73.2876 289.013 74.1251 287.302Z" fill="#37474F"/>
<path d="M69.0649 144.374C69.0649 144.374 72.1318 173.97 73.3468 200.191C74.5617 226.413 74.255 260.278 74.255 260.278C74.255 260.278 71.5774 262.248 65.6206 262.638C59.6638 263.027 57.5642 261.022 57.5642 261.022C57.5642 261.022 53.7659 249.226 53.0818 240.827C52.6583 236.302 52.5952 231.751 52.8931 227.215L47.0896 192.277C47.0896 192.277 40.5312 225.116 39.8235 229.291C39.1157 233.467 32.1917 264.183 32.1917 264.183C29.3613 266.185 25.8943 267.079 22.4485 266.695C16.7276 266.011 14.3331 263.298 14.3331 263.298C14.3331 263.298 12.953 247.563 13.932 239.105C14.911 230.648 17.0933 224.16 17.4117 218.64C17.7302 213.119 16.5389 183.253 16.763 171.28C16.9871 159.308 19.2754 148.007 29.3017 133.463L69.0649 144.374Z" fill="#455A64"/>
<path d="M47.0894 192.241L51.2296 170.254C51.2296 170.254 58.9204 168.131 62.4591 163.365C62.4591 163.365 61.5272 168.614 53.6359 172.059L49.2126 193.975L51.1234 216.528L47.0894 192.241Z" fill="#37474F"/>
<path d="M103.272 9.85671C103.054 9.52548 102.719 9.28904 102.334 9.19494C101.949 9.10084 101.542 9.15606 101.196 9.34949C101.443 8.93917 101.544 8.45791 101.484 7.98302C101.424 7.50813 101.207 7.06714 100.866 6.73086C100.491 6.42524 100.023 6.25834 99.539 6.25834C99.0555 6.25834 98.5867 6.42524 98.212 6.73086C98.212 6.73086 99.2146 4.65482 97.5042 3.59321C97.0845 3.28455 96.5607 3.15246 96.0448 3.22521C95.5289 3.29796 95.062 3.56977 94.7441 3.98247C94.9682 3.40195 94.9538 2.7564 94.7042 2.1864C94.4545 1.6164 93.9898 1.16812 93.4112 0.939188C92.2316 0.372996 90.8869 0.750457 89.0704 4.47788C88.0351 4.61983 87.0658 5.06752 86.2866 5.76361C85.1422 8.04579 84.2522 10.4469 83.6325 12.9236C83.2787 14.2329 84.2341 16.7926 84.9891 19.0927C85.744 21.3929 85.6142 22.8909 85.4019 27.7035L83.432 47.2725C82.8069 52.5688 82.7125 53.5832 81.2144 56.249C78.4897 61.1206 66.3165 81.9518 63.002 84.5586C59.8997 87.0239 58.2837 88.4629 58.2837 88.4629L70.8225 107.336C72.6154 98.2769 92.5973 68.0093 94.4138 63.987C97.1622 57.9712 96.5488 58.8205 96.7729 54.6802C96.7729 54.6802 97.1032 31.4074 97.2919 27.6563C97.6816 25.4143 98.604 23.2987 99.9813 21.4872C101.098 20.5371 101.865 19.2422 102.164 17.807C102.954 15.3299 103.508 13.2657 103.508 13.2657C103.508 13.2657 104.145 10.9419 103.272 9.85671Z" fill="#B16668"/>
<path d="M89.0704 4.44249C90.0563 4.31864 91.0492 4.25953 92.0429 4.26555C92.5737 4.26555 94.6497 7.07292 95.2513 7.69809C95.8529 8.32326 94.862 10.2813 92.7978 9.73875C90.7336 9.19615 90.1438 8.96023 90.1438 8.96023C89.9434 9.25771 89.6545 9.48467 89.3181 9.60899C89.3181 9.60899 95.039 13.5487 95.4636 19.5055C94.7085 17.3502 93.5651 15.3513 92.09 13.6077C90.8952 12.2653 89.4935 11.1224 87.938 10.2224C87.938 10.2224 89.9197 9.16076 90.1084 8.34686C91.0689 8.79344 92.0784 9.12598 93.1163 9.33769C93.4702 9.40525 93.8366 9.35255 94.1572 9.18798C94.4778 9.02342 94.7342 8.75642 94.8856 8.42943C95.0979 7.99299 92.09 4.51327 92.09 4.51327L89.0704 4.44249Z" fill="#9A4A4D"/>
<path d="M94.2603 12.8529C94.0523 13.0218 93.7964 13.1208 93.5289 13.136C92.9392 13.136 92.7622 12.6052 92.6207 12.1333C92.4209 11.3596 92.4209 10.5479 92.6207 9.7742C92.6378 9.71245 92.6378 9.64722 92.6207 9.58547C92.6231 9.55322 92.6153 9.52103 92.5984 9.49349C92.5814 9.46595 92.5562 9.44447 92.5263 9.43213C92.4201 9.43213 92.3258 9.43213 92.255 9.56188C92.0454 9.89202 91.8563 10.2347 91.6888 10.5881C91.5969 10.7798 91.464 10.9489 91.2995 11.0835C91.1354 11.1901 90.9617 11.2809 90.7806 11.3548C90.4857 11.5435 90.5918 11.921 90.9457 11.8856C91.2056 11.8595 91.4519 11.7568 91.6534 11.5907C91.7478 13.2539 92.9628 14.3981 94.3193 13.655C94.1659 14.8345 94.2249 16.0141 95.7465 16.2618C96.0862 16.3372 96.4398 16.3212 96.7713 16.2155C97.1028 16.1098 97.4004 15.9183 97.6338 15.6602C97.5707 15.9897 97.6052 16.3304 97.733 16.6405C97.8608 16.9506 98.0764 17.2167 98.3534 17.406C98.6574 17.6283 99.0316 17.7329 99.4069 17.7003C99.7821 17.6678 100.133 17.5004 100.394 17.2291C100.475 17.1052 100.546 16.975 100.606 16.8398V16.769L100.418 16.9106C100.195 17.0882 99.9339 17.2108 99.6551 17.2682C99.3763 17.3256 99.0879 17.3162 98.8134 17.2408C98.6394 17.1127 98.4977 16.9457 98.3994 16.7533C98.3012 16.5608 98.249 16.3481 98.2472 16.1321C98.2302 15.4603 98.3259 14.7905 98.5303 14.1504C98.5368 14.1233 98.5368 14.095 98.5303 14.0678C98.5303 13.997 98.4005 14.0678 98.3534 14.0678C98.0467 14.3273 97.8225 14.6576 97.5395 14.9407C97.3582 15.1339 97.1319 15.2791 96.8808 15.3635C96.6297 15.4479 96.3615 15.4688 96.1004 15.4243C95.0034 15.271 94.9208 13.8909 95.0624 13.0652C95.0624 12.7821 95.1685 12.499 95.2039 12.2041C95.2039 12.2041 95.2039 12.1097 95.2039 12.0979C95.042 12.1993 94.9017 12.3315 94.7911 12.4872C94.6325 12.6338 94.4537 12.7569 94.2603 12.8529Z" fill="#9A4A4D"/>
<path d="M91.7358 10.5648C91.7358 10.5648 91.7838 10.5168 91.7358 10.5648V10.5648Z" fill="#9A4A4D"/>
<path d="M40.6607 88.3923L28.2753 89.5719C31.0826 103.538 26.5059 112.29 26.5059 112.29L29.2425 130.373C29.1364 132.508 25.1023 137.45 21.7759 145.271C28.3343 153.811 59.982 156.323 70.1381 148.621C68.4395 140.506 67.1656 134.348 66.8117 131.27L67.1892 120.111C79.9521 109.341 64.1459 93.4055 58.3424 88.3569L51.1234 88.1328L40.6607 88.3923Z" fill="#64CF83"/>
<path d="M36.0962 83.5442C36.0962 81.4446 29.125 76.4668 25.6334 71.147C22.3896 66.24 17.8601 52.7458 28.5942 48.4285C28.5942 48.4285 26.235 41.9409 30.4933 38.1309C34.7515 34.3209 40.3662 36.6801 41.2627 38.2725C41.8034 36.2846 42.9692 34.5234 44.5877 33.249C46.2063 31.9746 48.1918 31.2545 50.251 31.1951C52.2631 31.0466 54.2613 31.6295 55.878 32.8366C57.4947 34.0437 58.6212 35.7939 59.0505 37.7653C60.7484 37.027 62.6488 36.8961 64.4319 37.3945C66.2149 37.8929 67.772 38.9902 68.8409 40.5019C72.7807 45.9397 67.5552 50.9174 67.5552 50.9174C68.2302 51.3634 68.7719 51.9838 69.1229 52.7127C69.4738 53.4416 69.621 54.2519 69.5487 55.0577C69.242 57.4168 67.048 57.9241 66.7885 59.0682C66.771 59.2984 66.8215 59.5287 66.9336 59.7305C67.0457 59.9323 67.2146 60.0967 67.4193 60.2035C67.6239 60.3102 67.8555 60.3545 68.0851 60.331C68.3147 60.3074 68.5324 60.217 68.7112 60.0709C68.5857 60.6694 68.2326 61.1958 67.7265 61.5391C67.2204 61.8824 66.6007 62.0157 65.9982 61.911C63.5093 61.7694 61.2799 58.3723 61.2799 58.3723L36.0962 83.5442Z" fill="#263238"/>
<path d="M59.074 46.0811C61.4331 48.1689 64.5707 52.7574 64.7713 66.4522C64.9246 78.0591 61.4213 81.0552 59.6401 81.9516C57.859 82.8481 54.3439 82.4707 50.9232 81.9516L51.1119 87.8495C52.9942 92.1042 53.7536 96.7707 53.3177 101.403C46.1341 99.1025 40.9676 94.5376 36.4263 89.2649L35.8129 73.9306C35.8129 73.9306 33.8784 76.0184 30.3751 73.0577C27.4852 70.616 26.3882 66.346 28.4878 63.9633C29.0284 63.3973 29.6994 62.9725 30.4422 62.726C31.185 62.4794 31.9769 62.4187 32.7486 62.549C33.5203 62.6794 34.2483 62.9969 34.8688 63.4738C35.4894 63.9506 35.9837 64.5723 36.3083 65.2844C36.3083 65.2844 41.4985 65.5203 48.3871 61.2857C55.783 56.8151 57.7529 51.5778 59.074 46.0811Z" fill="#B16668"/>
<path d="M36.2847 64.0225L36.4026 68.9412C37.0283 68.9412 37.6284 68.6927 38.0708 68.2503C38.5132 67.8079 38.7618 67.2078 38.7618 66.5821C38.7681 65.9155 38.5118 65.2732 38.0482 64.7942C37.5846 64.3152 36.9511 64.0379 36.2847 64.0225Z" fill="#263238"/>
<path d="M50.7933 63.9045C50.8078 64.1059 50.7823 64.3083 50.7183 64.4999C50.6543 64.6915 50.5531 64.8685 50.4204 65.0209C50.2878 65.1732 50.1264 65.2979 49.9454 65.3877C49.7645 65.4774 49.5676 65.5306 49.3661 65.544C48.9583 65.5837 48.5514 65.4611 48.2334 65.2028C47.9155 64.9444 47.7121 64.5712 47.6675 64.164C47.6531 63.9625 47.6786 63.7601 47.7426 63.5686C47.8066 63.377 47.9078 63.1999 48.0404 63.0476C48.1731 62.8952 48.3344 62.7706 48.5154 62.6808C48.6963 62.591 48.8932 62.5378 49.0948 62.5244C49.5019 62.4878 49.9072 62.6116 50.2245 62.8693C50.5417 63.1271 50.7458 63.4985 50.7933 63.9045Z" fill="#263238"/>
<path d="M62.8602 63.0905C62.8861 63.4954 62.7504 63.8941 62.4829 64.1992C62.2154 64.5043 61.8378 64.691 61.433 64.7182C61.0252 64.7579 60.6183 64.6353 60.3003 64.377C59.9824 64.1186 59.779 63.7454 59.7344 63.3382C59.72 63.1367 59.7454 62.9343 59.8094 62.7428C59.8734 62.5512 59.9747 62.3741 60.1073 62.2218C60.2399 62.0694 60.4013 61.9448 60.5823 61.855C60.7632 61.7652 60.9601 61.712 61.1617 61.6986C61.5706 61.6622 61.9775 61.7875 62.2951 62.0478C62.6126 62.308 62.8155 62.6823 62.8602 63.0905Z" fill="#263238"/>
<path d="M50.1562 72.8101L55.2873 74.3081C55.2185 74.6574 55.0788 74.9889 54.8769 75.2821C54.675 75.5754 54.4152 75.8242 54.1135 76.0132C53.8118 76.2022 53.4746 76.3273 53.1226 76.381C52.7707 76.4347 52.4115 76.4157 52.0671 76.3252C51.3634 76.0891 50.7751 75.5954 50.4206 74.9433C50.0661 74.2912 49.9717 73.529 50.1562 72.8101Z" fill="#9A4A4D"/>
<path d="M63.0255 57.9949L59.6401 57.1456C59.6657 56.9126 59.7417 56.688 59.8627 56.4874C59.9838 56.2867 60.1471 56.1147 60.3412 55.9834C60.5353 55.8521 60.7557 55.7647 60.987 55.727C61.2183 55.6894 61.4551 55.7025 61.6808 55.7655C62.1422 55.9031 62.5356 56.2079 62.7843 56.6201C63.033 57.0324 63.119 57.5226 63.0255 57.9949Z" fill="#263238"/>
<path d="M55.2876 61.6279L55.5471 71.1234L59.9351 69.531L55.2876 61.6279Z" fill="#9A4A4D"/>
<path d="M50.9231 81.9992C47.3254 81.6454 39.8705 79.7109 38.6084 76.7266C39.1223 78.2271 40.0707 79.541 41.3332 80.5012C43.6098 82.3767 50.9938 84.4055 50.9938 84.4055L50.9231 81.9992Z" fill="#9A4A4D"/>
<path d="M0.343387 134.725C2.61995 125.289 10.4877 109.046 13.3186 101.473C16.5152 92.8154 22.1654 89.6778 28.3227 89.5244C30.6818 92.4144 34.6452 102.441 27.7801 110.945C24.902 117.244 15.43 135.067 15.43 135.067C15.6777 136.742 20.4786 154.047 23.2034 159.744C23.6924 160.747 24.5316 161.535 25.5625 161.962C28.3227 163.141 31.5901 166.09 33.8195 167.753C35.5534 169.063 36.8863 169.251 36.7684 169.77C36.5704 170.359 36.1586 170.851 35.6147 171.151C35.0707 171.45 34.4343 171.534 33.8313 171.386C31.9527 170.816 30.1192 170.106 28.3463 169.263C30.0274 171.848 31.8837 174.316 33.902 176.647C37.6531 180.858 37.5705 184.515 30.3633 184.715C24.9138 184.881 22.0002 181.849 17.046 172.589C15.6188 169.912 13.5663 166.373 11.856 162.941C7.53875 154.271 6.71305 153.504 4.33032 147.948C0.555715 139.184 -0.553083 138.335 0.343387 134.725Z" fill="#B16668"/>
</svg>
