<svg width="259" height="143" viewBox="0 0 259 143" fill="none" xmlns="http://www.w3.org/2000/svg">
<path d="M186.845 57.5851C186.055 49.6883 182.343 42.2495 177.14 36.2638C172.046 30.3965 165.35 25.7216 157.777 23.9606C151.312 22.4378 144.526 23.085 138.467 25.8024C132.407 28.5198 127.41 33.1563 124.247 38.9961C121.114 33.3997 116.283 28.9446 110.451 26.2745C104.62 23.6044 98.0906 22.8576 91.807 24.1422C84.1866 25.7216 77.3638 30.1675 72.065 35.8847C66.6952 41.7284 62.7626 49.0566 61.7518 56.9297C60.4805 66.7848 62.2335 77.6271 67.2322 86.2188C72.5072 95.2922 81.1463 102.684 90.0539 108.227C105.058 117.553 124.8 129.24 124.8 129.24C124.8 129.24 141.809 116.906 157.058 108.014C166.123 102.723 174.968 95.5844 180.511 86.6926C185.771 78.2588 187.832 67.4719 186.845 57.5851Z" fill="#64CF83"/>
<g opacity="0.6">
<path opacity="0.6" d="M186.845 57.5851C186.055 49.6883 182.343 42.2495 177.14 36.2638C172.046 30.3965 165.35 25.7216 157.777 23.9606C151.312 22.4378 144.526 23.085 138.467 25.8024C132.407 28.5198 127.41 33.1563 124.247 38.9961C121.114 33.3997 116.283 28.9446 110.451 26.2745C104.62 23.6044 98.0906 22.8576 91.807 24.1422C84.1866 25.7216 77.3638 30.1675 72.065 35.8847C66.6952 41.7284 62.7626 49.0566 61.7518 56.9297C60.4805 66.7848 62.2335 77.6271 67.2322 86.2188C72.5072 95.2922 81.1463 102.684 90.0539 108.227C105.058 117.553 124.8 129.24 124.8 129.24C124.8 129.24 141.809 116.906 157.058 108.014C166.123 102.723 174.968 95.5844 180.511 86.6926C185.771 78.2588 187.832 67.4719 186.845 57.5851Z" fill="white"/>
</g>
<g opacity="0.6">
<path opacity="0.6" d="M75.429 6.30369C75.2721 5.00369 74.721 3.78289 73.8497 2.80542C73.0384 1.80803 71.933 1.09226 70.691 0.760153C70.034 0.601595 69.3516 0.577926 68.6852 0.690582C68.0187 0.803238 67.3821 1.04988 66.8137 1.41558C66.1401 1.85939 65.5824 2.45774 65.1869 3.16077C64.8359 2.52001 64.3479 1.96456 63.7576 1.53404C63.2067 1.14086 62.5823 0.862708 61.9216 0.716178C61.2608 0.569649 60.5773 0.557746 59.9119 0.681183C58.6625 0.953091 57.5299 1.6105 56.6742 2.56062C55.7605 3.4949 55.1591 4.68954 54.9527 5.97992C54.7097 7.62613 55.0032 9.30686 55.7898 10.7733C56.7141 12.2638 57.9811 13.5119 59.4855 14.4137C61.9177 15.993 65.1159 17.9041 65.1159 17.9041C65.1159 17.9041 67.935 15.922 70.4699 14.5163C72.0178 13.6931 73.3449 12.5095 74.3393 11.0654C75.2076 9.63769 75.59 7.967 75.429 6.30369Z" fill="white"/>
</g>
<path d="M258.026 59.0935C257.875 57.7918 257.323 56.5693 256.446 55.5952C255.637 54.5962 254.531 53.8801 253.288 53.55C252.631 53.3914 251.948 53.3678 251.282 53.4804C250.616 53.5931 249.979 53.8397 249.41 54.2054C248.739 54.6513 248.181 55.2492 247.784 55.9506C247.435 55.308 246.947 54.752 246.354 54.3239C245.806 53.9293 245.183 53.6502 244.523 53.5036C243.863 53.357 243.181 53.3459 242.517 53.471C241.265 53.7424 240.129 54.3997 239.271 55.3504C238.362 56.288 237.761 57.4811 237.549 58.7697C237.305 60.4169 237.602 62.0987 238.394 63.5631C239.316 65.0533 240.58 66.3015 242.082 67.2035C244.514 68.7829 247.713 70.6939 247.713 70.6939C247.713 70.6939 250.516 68.7118 253.027 67.2825C254.571 66.4574 255.898 65.2773 256.897 63.8395C257.772 62.4195 258.168 60.7557 258.026 59.0935Z" fill="#64CF83"/>
<g opacity="0.6">
<path opacity="0.6" d="M258.026 59.0935C257.875 57.7918 257.323 56.5693 256.446 55.5952C255.637 54.5962 254.531 53.8801 253.288 53.55C252.631 53.3914 251.948 53.3678 251.282 53.4804C250.616 53.5931 249.979 53.8397 249.41 54.2054C248.739 54.6513 248.181 55.2492 247.784 55.9506C247.435 55.308 246.947 54.752 246.354 54.3239C245.806 53.9293 245.183 53.6502 244.523 53.5036C243.863 53.357 243.181 53.3459 242.517 53.471C241.265 53.7424 240.129 54.3997 239.271 55.3504C238.362 56.288 237.761 57.4811 237.549 58.7697C237.305 60.4169 237.602 62.0987 238.394 63.5631C239.316 65.0533 240.58 66.3015 242.082 67.2035C244.514 68.7829 247.713 70.6939 247.713 70.6939C247.713 70.6939 250.516 68.7118 253.027 67.2825C254.571 66.4574 255.898 65.2773 256.897 63.8395C257.772 62.4195 258.168 60.7557 258.026 59.0935Z" fill="white"/>
</g>
<path d="M15.7371 51.4813C15.6318 50.5057 15.2262 49.5868 14.5763 48.8516C13.9719 48.0897 13.1431 47.5372 12.2073 47.2723C11.7118 47.1556 11.1978 47.1395 10.696 47.225C10.1941 47.3104 9.71448 47.4957 9.28549 47.7698C8.77955 48.1014 8.36213 48.5513 8.06939 49.0806C7.69289 48.392 7.10819 47.8401 6.39899 47.504C5.68978 47.1678 4.89242 47.0646 4.121 47.2091C3.17979 47.4181 2.32697 47.9149 1.6809 48.6305C0.993842 49.3313 0.541317 50.228 0.385828 51.197C0.20355 52.4366 0.425041 53.7019 1.01756 54.8058C1.71303 55.9225 2.66283 56.8587 3.78934 57.5381C5.62139 58.7068 8.0299 60.1677 8.0299 60.1677C8.0299 60.1677 10.1383 58.6752 12.0178 57.6013C13.1811 56.9818 14.1801 56.0938 14.9317 55.0111C15.5692 53.9503 15.8513 52.7136 15.7371 51.4813Z" fill="#64CF83"/>
<g opacity="0.6">
<path opacity="0.6" d="M15.7371 51.4813C15.6318 50.5057 15.2262 49.5868 14.5763 48.8516C13.9719 48.0897 13.1431 47.5372 12.2073 47.2723C11.7118 47.1556 11.1978 47.1395 10.696 47.225C10.1941 47.3104 9.71448 47.4957 9.28549 47.7698C8.77955 48.1014 8.36213 48.5513 8.06939 49.0806C7.69289 48.392 7.10819 47.8401 6.39899 47.504C5.68978 47.1678 4.89242 47.0646 4.121 47.2091C3.17979 47.4181 2.32697 47.9149 1.6809 48.6305C0.993842 49.3313 0.541317 50.228 0.385828 51.197C0.20355 52.4366 0.425041 53.7019 1.01756 54.8058C1.71303 55.9225 2.66283 56.8587 3.78934 57.5381C5.62139 58.7068 8.0299 60.1677 8.0299 60.1677C8.0299 60.1677 10.1383 58.6752 12.0178 57.6013C13.1811 56.9818 14.1801 56.0938 14.9317 55.0111C15.5692 53.9503 15.8513 52.7136 15.7371 51.4813Z" fill="white"/>
</g>
<path d="M187.074 134.026C186.963 133.05 186.555 132.132 185.905 131.396C185.296 130.647 184.467 130.109 183.536 129.857C182.743 129.664 181.909 129.736 181.162 130.063C180.414 130.389 179.795 130.952 179.398 131.665C179.135 131.183 178.768 130.765 178.324 130.441C177.91 130.145 177.441 129.935 176.945 129.824C176.448 129.713 175.934 129.702 175.434 129.793C174.494 130 173.643 130.498 173.002 131.215C172.316 131.917 171.861 132.813 171.699 133.781C171.519 135.022 171.743 136.287 172.338 137.39C173.029 138.51 173.98 139.447 175.11 140.122C176.942 141.291 179.351 142.752 179.351 142.752C179.351 142.752 181.451 141.259 183.299 140.186C184.463 139.57 185.46 138.681 186.205 137.595C186.869 136.529 187.174 135.278 187.074 134.026Z" fill="#64CF83"/>
<g opacity="0.6">
<path opacity="0.6" d="M187.074 134.026C186.963 133.05 186.555 132.132 185.905 131.396C185.296 130.647 184.467 130.109 183.536 129.857C182.743 129.664 181.909 129.736 181.162 130.063C180.414 130.389 179.795 130.952 179.398 131.665C179.135 131.183 178.768 130.765 178.324 130.441C177.91 130.145 177.441 129.935 176.945 129.824C176.448 129.713 175.934 129.702 175.434 129.793C174.494 130 173.643 130.498 173.002 131.215C172.316 131.917 171.861 132.813 171.699 133.781C171.519 135.022 171.743 136.287 172.338 137.39C173.029 138.51 173.98 139.447 175.11 140.122C176.942 141.291 179.351 142.752 179.351 142.752C179.351 142.752 181.451 141.259 183.299 140.186C184.463 139.57 185.46 138.681 186.205 137.595C186.869 136.529 187.174 135.278 187.074 134.026Z" fill="white"/>
</g>
<path d="M197.932 25.4533C197.935 24.9999 197.835 24.5517 197.64 24.1425C197.449 23.7369 197.178 23.3744 196.842 23.0771C196.507 22.7797 196.115 22.5538 195.689 22.4131C195.364 22.3199 195.023 22.2943 194.688 22.3378C194.352 22.3812 194.029 22.4928 193.739 22.6658C193.392 22.8731 193.099 23.16 192.886 23.5028C192.728 23.1725 192.495 22.8832 192.207 22.6579C191.939 22.4499 191.634 22.2974 191.307 22.2093C190.98 22.1212 190.639 22.0992 190.303 22.1446C189.86 22.231 189.44 22.4073 189.068 22.6626C188.696 22.918 188.38 23.2469 188.14 23.6292C187.893 24.0106 187.734 24.4422 187.674 24.8927C187.571 25.6512 187.695 26.4231 188.029 27.1116C188.459 27.8775 189.066 28.5299 189.798 29.0148C190.983 29.8044 192.546 30.8784 192.546 30.8784C192.546 30.8784 193.991 29.9466 195.271 29.2991C196.063 28.9193 196.753 28.3563 197.284 27.6565C197.714 27.0025 197.939 26.2357 197.932 25.4533Z" fill="#64CF83"/>
<g opacity="0.6">
<path opacity="0.6" d="M197.932 25.4533C197.935 24.9999 197.835 24.5517 197.64 24.1425C197.449 23.7369 197.178 23.3744 196.842 23.0771C196.507 22.7797 196.115 22.5538 195.689 22.4131C195.364 22.3199 195.023 22.2943 194.688 22.3378C194.352 22.3812 194.029 22.4928 193.739 22.6658C193.392 22.8731 193.099 23.16 192.886 23.5028C192.728 23.1725 192.495 22.8832 192.207 22.6579C191.939 22.4499 191.634 22.2974 191.307 22.2093C190.98 22.1212 190.639 22.0992 190.303 22.1446C189.86 22.231 189.44 22.4073 189.068 22.6626C188.696 22.918 188.38 23.2469 188.14 23.6292C187.893 24.0106 187.734 24.4422 187.674 24.8927C187.571 25.6512 187.695 26.4231 188.029 27.1116C188.459 27.8775 189.066 28.5299 189.798 29.0148C190.983 29.8044 192.546 30.8784 192.546 30.8784C192.546 30.8784 193.991 29.9466 195.271 29.2991C196.063 28.9193 196.753 28.3563 197.284 27.6565C197.714 27.0025 197.939 26.2357 197.932 25.4533Z" fill="white"/>
</g>
<path d="M49.0853 87.956C49.0171 87.5051 48.8469 87.0757 48.5878 86.7005C48.3344 86.328 48.0075 86.0112 47.6273 85.7695C47.2471 85.5278 46.8216 85.3662 46.3767 85.2948C45.8313 85.2356 45.2815 85.3583 44.813 85.644C44.3446 85.9296 43.9837 86.3621 43.7866 86.8742C43.5795 86.5773 43.31 86.3293 42.9969 86.1477C42.6992 85.988 42.3725 85.8897 42.0361 85.8585C41.6997 85.8273 41.3605 85.8639 41.0385 85.9661C40.6159 86.1249 40.2304 86.3687 39.9057 86.6825C39.5811 86.9962 39.3243 87.3732 39.1512 87.7902C38.9678 88.2047 38.884 88.6563 38.9064 89.109C38.9262 89.8745 39.1736 90.6168 39.6171 91.2411C40.17 91.9227 40.8762 92.4638 41.6781 92.8205C42.989 93.4364 44.7026 94.2024 44.7026 94.2024C44.7026 94.2024 45.9661 93.0416 47.1269 92.1808C47.8429 91.6727 48.4276 91.0014 48.8326 90.2224C49.1441 89.5099 49.2322 88.7197 49.0853 87.956Z" fill="#64CF83"/>
<g opacity="0.6">
<path opacity="0.6" d="M49.0853 87.956C49.0171 87.5051 48.8469 87.0757 48.5878 86.7005C48.3344 86.328 48.0075 86.0112 47.6273 85.7695C47.2471 85.5278 46.8216 85.3662 46.3767 85.2948C45.8313 85.2356 45.2815 85.3583 44.813 85.644C44.3446 85.9296 43.9837 86.3621 43.7866 86.8742C43.5795 86.5773 43.31 86.3293 42.9969 86.1477C42.6992 85.988 42.3725 85.8897 42.0361 85.8585C41.6997 85.8273 41.3605 85.8639 41.0385 85.9661C40.6159 86.1249 40.2304 86.3687 39.9057 86.6825C39.5811 86.9962 39.3243 87.3732 39.1512 87.7902C38.9678 88.2047 38.884 88.6563 38.9064 89.109C38.9262 89.8745 39.1736 90.6168 39.6171 91.2411C40.17 91.9227 40.8762 92.4638 41.6781 92.8205C42.989 93.4364 44.7026 94.2024 44.7026 94.2024C44.7026 94.2024 45.9661 93.0416 47.1269 92.1808C47.8429 91.6727 48.4276 91.0014 48.8326 90.2224C49.1441 89.5099 49.2322 88.7197 49.0853 87.956Z" fill="white"/>
</g>
<path d="M169.653 43.1504H162.957V60.9497H169.653V43.1504Z" fill="white"/>
<path d="M157.413 48.7015V55.3979H175.212V48.7015H157.413Z" fill="white"/>
</svg>
