<svg width="49" height="82" viewBox="0 0 49 82" fill="none" xmlns="http://www.w3.org/2000/svg">
<g id="plants">
<path id="Vector" d="M0.661621 74.5646C0.661621 61.3889 1.07445 49.2276 8.01029 30.5786C13.8255 14.9258 28.464 -0.750607 38.1954 0.0514973C47.2544 0.806419 49.1182 11.9769 40.8258 21.7791C32.5335 31.5813 14.4979 50.3364 13.2122 63.9957L9.53194 79.4952L0.661621 74.5646Z" fill="#64CF83"/>
<path id="Vector_2" opacity="0.2" d="M0.661621 74.5646C0.661621 61.3889 1.07445 49.2276 8.01029 30.5786C13.8255 14.9258 28.464 -0.750607 38.1954 0.0514973C47.2544 0.806419 49.1182 11.9769 40.8258 21.7791C32.5335 31.5813 14.4979 50.3364 13.2122 63.9957L9.53194 79.4952L0.661621 74.5646Z" fill="black"/>
<path id="Vector_3" d="M4.55402 69.8106C4.68022 69.7844 4.79403 69.7168 4.87739 69.6185C4.96074 69.5201 5.00887 69.3968 5.01407 69.268C6.66546 41.5954 26.7653 15.008 39.2215 8.43783C39.2893 8.40194 39.3494 8.3529 39.3981 8.29355C39.4468 8.2342 39.4832 8.16575 39.5052 8.09218C39.5272 8.0186 39.5342 7.94138 39.526 7.86503C39.5178 7.78869 39.4945 7.71476 39.4574 7.64754C39.4226 7.58006 39.3747 7.52021 39.3164 7.47162C39.2581 7.42302 39.1907 7.38668 39.1181 7.36467C39.0455 7.34266 38.9692 7.33547 38.8937 7.34354C38.8183 7.3516 38.7452 7.37475 38.6788 7.41161C26.0339 14.1469 5.59203 41.1 3.91705 69.1973C3.91062 69.2741 3.91966 69.3515 3.94361 69.4249C3.96757 69.4982 4.00597 69.566 4.05654 69.6243C4.10711 69.6825 4.1688 69.7301 4.23804 69.7641C4.30727 69.7981 4.38265 69.818 4.45967 69.8224L4.55402 69.8106Z" fill="white"/>
<path id="Vector_4" d="M12.811 81.4294C13.4244 76.8055 17.7652 68.7019 25.6447 61.3768C34.3499 53.2732 46.1691 48.4016 48.2333 42.7868C50.7104 36.0397 44.7654 32.3477 34.8217 34.3294C22.8727 36.6885 9.48462 50.1827 6.90137 77.9733L12.811 81.4294Z" fill="#64CF83"/>
<path id="Vector_5" d="M10.2512 77.0533C10.3587 77.0271 10.4566 76.9711 10.5338 76.8918C10.611 76.8126 10.6643 76.7132 10.6877 76.6051C15.5711 52.3296 31.9788 41.6545 39.9763 39.4016C40.1249 39.3593 40.2506 39.2598 40.3258 39.1249C40.401 38.9899 40.4196 38.8307 40.3773 38.6821C40.3351 38.5335 40.2356 38.4077 40.1006 38.3325C39.9657 38.2573 39.8064 38.2387 39.6578 38.281C30.8229 40.7699 14.5213 51.5983 9.54351 76.3692C9.5281 76.4443 9.52781 76.5218 9.54268 76.5971C9.55755 76.6724 9.58726 76.744 9.63008 76.8077C9.6729 76.8714 9.72799 76.9259 9.79211 76.968C9.85622 77.0102 9.92808 77.0392 10.0035 77.0533C10.0844 77.0766 10.1703 77.0766 10.2512 77.0533Z" fill="white"/>
</g>
</svg>
