<svg width="55" height="91" viewBox="0 0 55 91" fill="none" xmlns="http://www.w3.org/2000/svg">
<path d="M48.7896 61.49C48.7896 61.49 52.0806 45.4125 48.2942 30.8213C44.5078 16.2301 36.357 5.31907 26.7317 1.33214C17.1065 -2.65479 6.14829 3.88002 14.6883 13.5525C23.2284 23.2249 39.9075 35.7283 40.9809 61.9146L48.7896 61.49Z" fill="#64CF83"/>
<path opacity="0.15" d="M48.7896 61.49C48.7896 61.49 52.0806 45.4125 48.2942 30.8213C44.5078 16.2301 36.357 5.31907 26.7317 1.33214C17.1065 -2.65479 6.14829 3.88002 14.6883 13.5525C23.2284 23.2249 39.9075 35.7283 40.9809 61.9146L48.7896 61.49Z" fill="black"/>
<path d="M47.2088 56.5242H47.3268C47.3992 56.5198 47.4699 56.5009 47.5349 56.4686C47.5998 56.4364 47.6577 56.3914 47.705 56.3364C47.7522 56.2815 47.788 56.2176 47.8102 56.1485C47.8324 56.0795 47.8405 56.0067 47.834 55.9345C45.8052 26.8464 29.421 9.6483 21.0343 4.61155C20.9089 4.53758 20.7594 4.51591 20.6182 4.55122C20.4769 4.58654 20.3552 4.676 20.2794 4.80029C20.2409 4.86288 20.2152 4.93249 20.2039 5.00508C20.1926 5.07767 20.1958 5.15178 20.2133 5.22312C20.2309 5.29446 20.2625 5.3616 20.3062 5.42063C20.3499 5.47967 20.405 5.52942 20.4681 5.567C28.6661 10.4858 44.6964 27.3772 46.7134 56.0052C46.7234 56.1357 46.7781 56.2586 46.8684 56.3532C46.9587 56.4478 47.079 56.5083 47.2088 56.5242Z" fill="white"/>
<path d="M0.592496 38.0874C0.816613 40.2578 2.57417 41.9328 4.26095 43.3365C5.94772 44.7401 7.79964 46.2618 8.22428 48.3968C9.14435 52.7258 4.02503 56.7127 5.13382 60.9828C5.43275 61.8639 5.90799 62.675 6.53057 63.3665C7.15315 64.0581 7.91004 64.6156 8.75509 65.0051C10.1346 65.6828 11.548 66.2891 12.9897 66.8216C13.6901 67.0351 14.4032 67.2046 15.1247 67.3288C17.2906 67.5372 19.3288 68.4486 20.9282 69.9238C23.2873 72.4953 22.9924 76.4233 23.8417 79.8086C24.4086 82.2229 25.5682 84.4579 27.2158 86.3115C28.8634 88.165 30.947 89.5787 33.2783 90.4247L51.9508 77.1192C56.669 70.7613 55.4895 59.3549 47.9049 55.6275C46.2889 54.8372 44.4487 54.3772 43.1866 53.115C41.6414 51.5934 41.2521 49.2579 41.1578 47.0875C41.0634 44.9171 41.1578 42.6523 40.2731 40.6588C39.5634 39.3247 38.5438 38.1805 37.2998 37.3225C36.0559 36.4645 34.6241 35.9177 33.1249 35.7283C29.5862 35.1267 26.1301 36.5422 22.8273 35.339C19.5245 34.1359 16.4459 32.1778 13.0133 31.3167C11.3472 30.8282 9.59197 30.724 7.87978 31.0121C6.16759 31.3002 4.54307 31.973 3.12856 32.9799C2.3209 33.5594 1.66746 34.3279 1.22537 35.2182C0.783285 36.1086 0.565995 37.0937 0.592496 38.0874Z" fill="#64CF83"/>
<path d="M35.8027 55.1202C35.7783 55.0398 35.7287 54.9695 35.6611 54.9197C26.779 42.3455 12.8601 36.3769 8.15364 35.3271C8.09091 35.3132 8.02604 35.3117 7.96275 35.3228C7.89945 35.3339 7.83897 35.3575 7.78475 35.392C7.73053 35.4265 7.68364 35.4713 7.64675 35.5239C7.60986 35.5766 7.5837 35.6359 7.56976 35.6987C7.55582 35.7614 7.55437 35.8263 7.5655 35.8896C7.57663 35.9529 7.60011 36.0133 7.63462 36.0676C7.66912 36.1218 7.71396 36.1687 7.76659 36.2055C7.81921 36.2424 7.87859 36.2686 7.94132 36.2825C12.4001 37.2734 25.3281 42.7937 34.0215 54.3299C30.4758 53.1361 26.7215 52.6885 22.9946 53.0153C19.2676 53.3421 15.6485 54.4363 12.3647 56.229C12.311 56.2636 12.2647 56.3086 12.2285 56.3612C12.1923 56.4139 12.1669 56.4731 12.1538 56.5357C12.1406 56.5982 12.14 56.6627 12.1519 56.7254C12.1638 56.7882 12.188 56.848 12.2231 56.9014C12.2654 56.9698 12.3244 57.0263 12.3946 57.0655C12.4647 57.1047 12.5438 57.1254 12.6242 57.1255C12.724 57.1361 12.8243 57.111 12.9073 57.0547C16.2719 55.229 19.9957 54.1625 23.8166 53.9302C27.6376 53.6979 31.4631 54.3054 35.0241 55.71C40.2135 63.128 42.8129 72.0498 42.42 81.0942C42.4188 81.2173 42.4624 81.3367 42.5427 81.43C42.623 81.5233 42.7345 81.5843 42.8565 81.6015C42.9215 81.603 42.9863 81.5917 43.047 81.5683C43.1077 81.5448 43.1632 81.5096 43.2103 81.4647C43.2574 81.4198 43.2952 81.3661 43.3215 81.3065C43.3478 81.247 43.3621 81.1829 43.3637 81.1178C43.7747 71.8558 41.1169 62.7171 35.8027 55.1202Z" fill="white"/>
</svg>
