<svg width="86" height="129" viewBox="0 0 86 129" fill="none" xmlns="http://www.w3.org/2000/svg">
<g id="shield">
<path id="Vector" d="M0.959212 7.71834C0.888438 6.76289 1.10077 6.16132 1.52542 5.91361C1.97365 5.68949 4.92256 3.80218 5.33541 3.55448H5.39439C5.84262 3.33036 6.57396 3.55449 7.35247 4.08529C15.6094 9.98312 26.6855 11.0801 34.9661 7.09317C36.1074 6.19375 37.1441 5.16897 38.0566 4.0381L38.1981 3.86117C38.4256 3.58686 38.6965 3.35175 39.0002 3.16524C39.0002 3.16524 42.5389 0.912265 42.8574 0.806104L42.9871 0.723526C43.8836 0.263496 44.7211 0.72351 45.3463 1.99744C53.6032 20.67 70.5064 39.3071 81.5 43.7423C82.3358 44.0791 83.0856 44.5991 83.694 45.2639C84.4998 46.0809 84.9674 47.172 85.0033 48.319C85.8289 72.677 73.821 112.016 48.9911 125.911C47.5314 126.934 46.0109 127.868 44.438 128.706C8.43766 93.8856 1.95005 36.5823 0.959212 7.71834Z" fill="#64CF83"/>
<path id="Vector_2" opacity="0.4" d="M1.63184 5.86643C2.08007 5.64232 2.81139 5.80747 3.57811 6.39725C13.1798 13.2387 26.6504 13.6398 35.0371 7.01061C26.7802 10.9857 15.6687 9.86517 7.44709 3.99093C6.62139 3.41294 5.93726 3.23603 5.48902 3.46015H5.43004C4.97001 3.75504 2.02109 5.64232 1.63184 5.86643Z" fill="white"/>
<path id="Vector_3" d="M39.1655 2.98813C40.0502 2.5281 40.8877 2.98814 41.5247 4.25028C49.7816 22.9464 66.6966 41.5717 77.6901 46.0069C78.5214 46.3467 79.2697 46.8617 79.8841 47.5167C80.2106 47.8741 80.4919 48.2702 80.7216 48.6963L84.567 46.3372C84.3486 45.9071 84.0706 45.51 83.7413 45.1576C83.1329 44.4927 82.3832 43.9728 81.5473 43.636C70.5538 39.2008 53.6624 20.5637 45.3936 1.89115C44.8038 0.570033 43.9546 0.157201 43.0345 0.617232L42.9047 0.699774L41.1944 1.76141L39.1655 2.98813Z" fill="#64CF83"/>
<path id="Vector_4" opacity="0.3" d="M49.0386 125.734C73.8095 111.862 85.8292 72.5116 85.0035 48.1772C84.9928 47.5263 84.827 46.8874 84.5199 46.3135L80.6745 48.6726C80.9726 49.2495 81.134 49.8871 81.1464 50.5363C81.9249 73.6322 71.2262 110.128 49.0386 125.734Z" fill="black"/>
<path id="Vector_5" d="M0.959212 7.7179C1.95005 36.5819 8.43765 93.8852 44.438 128.564C69.7397 115.058 81.9836 75.1655 81.1343 50.5833C81.1086 49.4364 80.6443 48.343 79.8368 47.5282C79.224 46.8684 78.4755 46.3492 77.6428 46.0066C66.6492 41.5832 49.746 22.9461 41.4773 4.26178C40.8875 2.94067 40.05 2.5278 39.1182 2.98783L38.9884 3.07041C38.6847 3.25693 38.4138 3.49203 38.1863 3.76635L38.0448 3.94328C30.2714 13.6275 14.3709 14.1701 3.47169 6.39679C2.646 5.81881 1.97365 5.64186 1.52542 5.86597C1.10077 6.16087 0.888438 6.76245 0.959212 7.7179Z" fill="#64CF83"/>
<path id="Vector_6" opacity="0.1" d="M39.1652 2.98817C40.0499 2.52814 40.8874 2.98819 41.5244 4.26212C49.7813 22.9464 66.6963 41.5836 77.6898 46.0069C78.5226 46.3496 79.2711 46.8687 79.8838 47.5286C80.6913 48.3434 81.1557 49.4368 81.1813 50.5836C82.0306 75.1658 69.7867 115.059 44.4851 128.565C24.8689 62.2967 39.1652 2.98817 39.1652 2.98817Z" fill="black"/>
<path id="Vector_7" d="M54.2521 85.7463C53.8587 80.8734 53.7248 75.9831 53.851 71.0961L40.2978 63.5822C40.0224 58.5481 40.0579 53.5017 40.404 48.472C35.2728 45.7236 33.0553 44.5559 27.759 41.8311C27.2341 46.6967 26.9742 51.5873 26.9805 56.4812C21.7196 53.7211 20.0329 52.86 14.6187 50.1116C14.953 55.2658 15.6507 60.39 16.7065 65.4459C22.2269 68.2297 22.6043 68.3948 27.9006 71.1432C28.7499 76.9821 29.4576 80.5798 30.6254 86.0411C35.4734 88.5654 37.7853 89.8276 42.5862 92.5641C41.5318 87.7442 40.7793 82.8631 40.3332 77.9493C45.2756 80.7803 49.3333 83.0686 54.2521 85.7463Z" fill="#FAFAFA"/>
<path id="Vector_8" d="M40.2979 63.5824L53.8511 71.0962C53.7249 75.9833 53.8588 80.8736 54.2522 85.7464C49.3334 83.0688 45.2285 80.8276 40.3333 77.9967C40.7809 82.8985 41.5334 87.7678 42.5863 92.5761C40.0266 91.1134 38.1629 90.0754 36.252 89.0374C34.4426 74.4933 33.7879 59.8287 34.2939 45.1812L40.4041 48.4367C40.0566 53.4783 40.0211 58.5365 40.2979 63.5824Z" fill="#EBEBEB"/>
<path id="Vector_9" opacity="0.4" d="M26.4849 16.4234C17.8741 18.9359 10.0654 15.3853 5.58301 13.2739C5.58301 13.2739 6.30253 64.243 24.9633 96.5866C17.1663 71.0962 17.7089 65.8 16.5648 46.7382C15.4324 28.0185 20.0681 21.3304 26.4849 16.4234Z" fill="white"/>
</g>
</svg>
