<svg width="474" height="88" viewBox="0 0 474 88" fill="none" xmlns="http://www.w3.org/2000/svg">
<path d="M440.676 21.672C444.037 22.302 447.136 23.9147 449.581 26.306C452.026 28.6974 453.707 31.7601 454.412 35.1068C455.116 38.4535 454.812 41.934 453.539 45.108C452.265 48.2821 450.079 51.0072 447.257 52.9388C444.434 54.8704 441.103 55.9217 437.683 55.9598C434.263 55.9979 430.909 55.0211 428.044 53.1529C425.179 51.2846 422.933 48.6089 421.589 45.464C420.245 42.3191 419.864 38.8463 420.493 35.4847C421.341 30.9781 423.942 26.992 427.726 24.4022C431.511 21.8123 436.168 20.8303 440.676 21.672Z" fill="#64CF83"/>
<path d="M421.166 33.5855C421.25 34.9148 421.003 36.2443 420.446 37.4545C420.446 36.7703 419.514 36.0508 417.403 35.5436C415.681 35.1189 414.006 34.7768 412.803 34.5409L412.284 34.4466L412.472 33.4321L412.991 33.5265C414.171 33.7506 415.881 34.0337 417.639 34.2696C419.833 34.5527 420.93 34.2224 421.166 33.5855Z" fill="#64CF83"/>
<path opacity="0.2" d="M413.109 33.5501C413.107 33.7246 413.087 33.8984 413.05 34.0691C413.027 34.2388 412.983 34.405 412.921 34.5645L412.284 34.4466L412.472 33.4321L413.109 33.5501Z" fill="black"/>
<path d="M412.118 32.1113C412.021 32.0878 411.92 32.0878 411.823 32.1113H411.741H411.647H411.576C411.208 32.4851 410.976 32.9707 410.915 33.4914C410.793 33.9984 410.835 34.5309 411.033 35.013V35.0838L411.104 35.1663H411.163C411.243 35.2264 411.336 35.2668 411.434 35.2843C411.532 35.302 411.632 35.302 411.729 35.2843C412.13 35.2135 412.543 34.5766 412.696 33.7509C412.85 32.9252 412.696 32.1703 412.342 31.9697C412.259 32.0007 412.182 32.0489 412.118 32.1113Z" fill="#64CF83"/>
<path opacity="0.3" d="M411.753 32.7598C412.024 32.7598 412.166 33.3142 412.059 33.9394C411.953 34.5645 411.635 34.9302 411.363 34.883C411.092 34.8358 411.08 34.6471 411.045 34.3522C411.175 34.6589 411.47 34.6707 411.67 34.3522C411.854 33.9881 411.924 33.5771 411.871 33.1726C411.871 32.9367 411.729 32.7834 411.54 32.8306C411.569 32.805 411.603 32.7855 411.639 32.7733C411.676 32.7612 411.714 32.7565 411.753 32.7598Z" fill="black"/>
<path d="M420.434 40.6626C421.02 41.8572 421.334 43.1662 421.355 44.4962C421.083 43.871 420.753 43.3992 418.854 43.7295C417.297 44.0126 417.179 43.989 416.117 44.2249L415.669 44.331L415.433 43.3402L415.881 43.2341C416.943 42.9745 417.061 42.9274 418.547 42.4673C420.399 41.9129 420.482 41.335 420.434 40.6626Z" fill="#64CF83"/>
<path opacity="0.2" d="M416.058 43.187C416.123 43.3475 416.175 43.5132 416.212 43.6824C416.255 43.8485 416.283 44.0183 416.294 44.1896L415.669 44.3312L415.433 43.3404L416.058 43.187Z" fill="black"/>
<path d="M414.313 41.9958C414.196 42.0226 414.087 42.0749 413.994 42.1491L413.935 42.1963L413.864 42.3024C413.86 42.3298 413.86 42.3576 413.864 42.385C413.648 42.964 413.627 43.5979 413.805 44.1897C413.914 44.8051 414.221 45.3682 414.678 45.794H414.761C414.8 45.8003 414.84 45.8003 414.879 45.794H414.949C415.066 45.8234 415.187 45.8234 415.303 45.794C415.416 45.7736 415.522 45.7249 415.61 45.6524C416.023 45.3811 416.164 44.4728 415.929 43.5174C415.693 42.5619 415.174 41.807 414.69 41.748C414.549 41.8055 414.421 41.8897 414.313 41.9958Z" fill="#64CF83"/>
<path opacity="0.3" d="M414.23 42.8686C414.548 42.786 414.938 43.2696 415.091 43.942C415.244 44.6143 415.091 45.2277 414.808 45.2985C414.525 45.3692 414.383 45.1805 414.206 44.8856C414.489 45.1569 414.808 45.0154 414.879 44.5789C414.895 44.1035 414.777 43.6331 414.537 43.2224C414.371 42.9983 414.195 42.8804 414.018 43.0219C414.041 42.9832 414.071 42.9497 414.108 42.9233C414.144 42.8969 414.186 42.8783 414.23 42.8686Z" fill="black"/>
<path d="M422.912 47.646C423.753 48.3838 424.439 49.2821 424.929 50.2882C424.516 49.8872 423.667 49.9579 422.428 50.7954C422.018 51.0118 421.624 51.2562 421.248 51.5268L420.965 51.7391L420.446 51.0549L420.718 50.8426C421.082 50.5656 421.421 50.2578 421.732 49.9226C422.888 48.9435 423.183 48.0942 422.912 47.646Z" fill="#64CF83"/>
<path opacity="0.2" d="M420.906 50.7246C421.013 50.8222 421.112 50.9287 421.201 51.0431C421.295 51.1728 421.366 51.2908 421.437 51.4088L421 51.739L420.481 51.0549L420.906 50.7246Z" fill="black"/>
<path d="M419.443 50.5237C419.379 50.5821 419.323 50.6497 419.278 50.7243C419.271 50.7514 419.271 50.7798 419.278 50.8068V50.8776C419.331 51.3123 419.499 51.7249 419.764 52.0732C420.03 52.4215 420.383 52.6928 420.788 52.8593H421.012C421.096 52.8463 421.173 52.8094 421.236 52.7531C421.303 52.7018 421.359 52.6376 421.401 52.5644C421.578 52.2813 421.401 51.6561 420.989 51.0899C420.576 50.5238 419.998 50.2053 419.667 50.2996C419.578 50.3582 419.502 50.4345 419.443 50.5237Z" fill="#64CF83"/>
<path opacity="0.3" d="M419.632 51.1141C419.821 50.9725 420.222 51.1141 420.517 51.5741C420.812 52.0341 420.906 52.388 420.718 52.5295C420.529 52.6711 420.411 52.5295 420.21 52.4352C420.47 52.5295 420.647 52.3526 420.552 52.0459C420.431 51.7305 420.217 51.4591 419.939 51.2674C419.762 51.1613 419.621 51.1377 419.55 51.2674C419.558 51.208 419.587 51.1535 419.632 51.1141Z" fill="black"/>
<path d="M427.559 52.6592C428.846 53.0003 430.032 53.6479 431.015 54.5465C430.366 54.3342 429.399 54.9829 428.278 56.8112C427.358 58.2975 426.521 59.7602 425.919 60.8218L425.671 61.27L424.775 60.7746C424.857 60.633 424.94 60.4915 425.023 60.3264C425.589 59.2647 426.367 57.7667 427.122 56.1861C428.089 54.2516 428.089 53.0838 427.559 52.6592Z" fill="#64CF83"/>
<path opacity="0.2" d="M425.094 60.2085C425.255 60.2694 425.413 60.3403 425.566 60.4208C425.72 60.5013 425.866 60.5961 426.002 60.7039C425.884 60.9044 425.79 61.0932 425.684 61.2701L424.787 60.7747L425.094 60.2085Z" fill="black"/>
<path d="M422.923 60.7038C422.866 60.8142 422.83 60.9342 422.817 61.0576V61.1756C422.81 61.2186 422.81 61.2623 422.817 61.3053C422.817 61.3053 422.817 61.3053 422.817 61.3761V61.4705C423.153 62.026 423.63 62.4825 424.2 62.7934C424.77 63.1042 425.412 63.2583 426.061 63.2398H426.167H426.226H426.344C426.363 63.2448 426.384 63.2448 426.403 63.2398C426.509 63.1691 426.595 63.0714 426.651 62.9567C426.709 62.8511 426.745 62.7347 426.757 62.6146C426.828 62.1074 426.238 61.3643 425.306 60.8689C424.374 60.3735 423.442 60.2555 423.053 60.5976C423.006 60.628 422.962 60.6637 422.923 60.7038Z" fill="#64CF83"/>
<path opacity="0.3" d="M423.537 61.3876C423.702 61.0809 424.351 61.1163 425 61.4702C425.648 61.824 426.014 62.343 425.849 62.6497C425.684 62.9564 425.46 62.8974 425.106 62.8267C425.519 62.8267 425.636 62.4492 425.342 62.0835C424.983 61.73 424.527 61.4918 424.032 61.3994C423.737 61.3994 423.537 61.3994 423.513 61.6589C423.498 61.6145 423.493 61.5675 423.497 61.5208C423.501 61.4741 423.515 61.4288 423.537 61.3876Z" fill="black"/>
<path d="M434.2 55.5251C435.454 55.4582 436.711 55.5574 437.939 55.82C437.302 55.82 436.759 56.3272 436.547 57.436C436.394 58.3325 436.288 59.2054 436.229 59.7951C436.223 59.8855 436.223 59.9761 436.229 60.0664L435.261 59.9839C435.261 59.9013 435.261 59.8187 435.261 59.7244C435.261 59.0874 435.344 58.2145 435.332 57.2945C435.297 56.2211 434.837 55.6313 434.2 55.5251Z" fill="#64CF83"/>
<path opacity="0.2" d="M435.261 59.6068C435.426 59.5953 435.592 59.5953 435.757 59.6068H436.24V60.0315L435.273 59.9489C435.238 59.8899 435.25 59.7484 435.261 59.6068Z" fill="black"/>
<path d="M434.058 60.5741C434.035 60.663 434.035 60.7565 434.058 60.8454C434.052 60.8726 434.052 60.9008 434.058 60.928H434.117C434.486 61.2142 434.936 61.3753 435.403 61.388C435.866 61.4475 436.336 61.3609 436.748 61.1403H436.807V61.0695C436.848 60.9923 436.876 60.9085 436.889 60.8218C436.901 60.7357 436.901 60.6484 436.889 60.5623C436.783 60.2084 436.181 59.9017 435.427 59.8428C434.672 59.7838 434.035 59.9843 433.881 60.3146C433.919 60.4141 433.979 60.5031 434.058 60.5741Z" fill="#64CF83"/>
<path opacity="0.3" d="M434.648 60.8454C434.648 60.5977 435.108 60.4325 435.627 60.4797C436.146 60.5269 436.547 60.751 436.535 60.9987C436.523 61.2465 436.347 61.27 436.099 61.329C436.358 61.1993 436.335 60.928 436.028 60.7864C435.692 60.6623 435.329 60.6338 434.978 60.7039C434.778 60.7746 434.66 60.869 434.719 61.0341C434.675 60.9805 434.65 60.9143 434.648 60.8454Z" fill="black"/>
<path d="M441.266 55.4192C442.38 54.6893 443.655 54.2401 444.981 54.1099C444.391 54.4401 444.226 55.5961 444.828 57.6486C445.312 59.3235 445.842 60.916 446.232 62.0483C446.291 62.2253 446.35 62.3786 446.397 62.532L445.429 62.874C445.429 62.7207 445.323 62.5556 445.264 62.3904C444.851 61.2109 444.262 59.6892 443.601 58.085C442.787 56.1033 441.938 55.3012 441.266 55.4192Z" fill="#64CF83"/>
<path opacity="0.2" d="M445.217 62.2488C445.369 62.1666 445.526 62.0957 445.689 62.0365C445.851 61.9822 446.016 61.9389 446.184 61.9067C446.255 62.1309 446.326 62.3314 446.396 62.5201L445.429 62.8622C445.37 62.6617 445.299 62.4611 445.217 62.2488Z" fill="black"/>
<path opacity="0.3" d="M444.981 64.372C444.851 64.0063 445.359 63.5109 446.161 63.1924C446.963 62.8739 447.612 63.0037 447.741 63.3693C447.871 63.735 447.659 63.8648 447.34 64.1007C447.612 63.7468 447.423 63.3929 446.916 63.3693C446.368 63.398 445.842 63.5912 445.406 63.9237C445.158 64.1479 445.052 64.3602 445.229 64.5371C445.178 64.5292 445.13 64.5104 445.087 64.4819C445.044 64.4533 445.008 64.4158 444.981 64.372Z" fill="black"/>
<path d="M447.67 52.4585C448.511 51.357 449.522 50.3973 450.667 49.6157C450.218 50.1583 450.313 51.0784 451.256 52.2461C452.023 53.1898 452.802 54.0745 453.38 54.6996L453.615 54.9592L452.837 55.7023C452.761 55.61 452.678 55.5233 452.589 55.4428C451.999 54.8294 451.174 54.0037 450.23 53.178C449.145 52.1754 448.237 52.0338 447.67 52.4585Z" fill="#64CF83"/>
<path opacity="0.2" d="M452.495 55.3364C452.613 55.2066 452.731 55.0769 452.873 54.9471C453.002 54.8196 453.14 54.7014 453.285 54.5933L453.616 54.9589L452.837 55.702L452.495 55.3364Z" fill="black"/>
<path opacity="0.3" d="M453.144 56.8232C452.955 56.6108 453.144 56.1272 453.569 55.7262C453.993 55.3251 454.489 55.16 454.677 55.3723C454.866 55.5846 454.772 55.7262 454.677 55.9857C454.76 55.6672 454.512 55.4785 454.17 55.62C453.815 55.8048 453.521 56.0872 453.321 56.4339C453.227 56.658 453.215 56.835 453.392 56.9057C453.301 56.912 453.212 56.8824 453.144 56.8232Z" fill="black"/>
<path d="M452.695 46.6197C453.032 45.6689 453.426 44.7393 453.875 43.8359C453.733 44.2252 453.71 44.815 454.04 45.0155C454.293 45.2064 454.566 45.3686 454.854 45.4991H454.937L454.701 46.0889H454.606C454.314 45.9824 454.008 45.915 453.698 45.8884C453.475 45.8897 453.259 45.961 453.079 46.0923C452.899 46.2235 452.765 46.408 452.695 46.6197Z" fill="#64CF83"/>
<path opacity="0.2" d="M454.453 46.0888L454.559 45.7821C454.602 45.6854 454.649 45.591 454.701 45.499L454.913 45.5816L454.677 46.1714L454.453 46.0888Z" fill="black"/>
<path d="M454.925 47.3982C455.002 47.4147 455.083 47.4147 455.161 47.3982H455.22H455.29C455.622 47.1656 455.873 46.8359 456.01 46.4545C456.187 46.0881 456.241 45.6744 456.163 45.275C456.167 45.2515 456.167 45.2277 456.163 45.2042C456.113 45.1418 456.048 45.0931 455.974 45.0626C455.904 45.0514 455.832 45.0514 455.762 45.0626C455.444 45.0626 455.031 45.4637 454.771 46.0653C454.512 46.6668 454.524 47.2448 454.771 47.4689C454.827 47.4569 454.879 47.4327 454.925 47.3982Z" fill="#64CF83"/>
<path opacity="0.3" d="M455.302 46.9733C455.114 46.8907 455.09 46.4897 455.302 46.0768C455.515 45.664 455.774 45.3927 455.975 45.4753C456.175 45.5578 456.152 45.6994 456.128 45.9235C456.128 45.6758 455.857 45.6168 455.656 45.8291C455.464 46.0694 455.345 46.3603 455.314 46.6666C455.314 46.8553 455.314 46.9851 455.515 46.9733C455.482 46.9909 455.446 47 455.409 47C455.371 47 455.335 46.9909 455.302 46.9733Z" fill="black"/>
<path d="M454.642 39.8958C454.31 38.6088 454.254 37.2663 454.477 35.9561C454.606 36.6166 454.842 37.1356 456.73 37.1356C458.263 37.1356 458.369 37.2182 459.431 37.1356H459.938V38.1618H459.49C458.428 38.1618 458.31 38.2444 456.788 38.3978C454.913 38.6573 454.724 39.2235 454.642 39.8958Z" fill="#64CF83"/>
<path opacity="0.2" d="M459.277 38.245C459.277 38.0798 459.277 37.9147 459.219 37.7378C459.206 37.565 459.206 37.3915 459.219 37.2188H459.867V38.245H459.277Z" fill="black"/>
<path d="M460.764 39.7426C460.884 39.7408 461.002 39.7083 461.106 39.6483H461.176L461.271 39.5657L461.33 39.4949C461.628 38.9469 461.772 38.3278 461.745 37.7043C461.718 37.0808 461.521 36.4764 461.176 35.9562L461.106 35.8855C461.083 35.8524 461.05 35.8276 461.011 35.8147H460.941C460.828 35.7857 460.711 35.7857 460.599 35.8147C460.48 35.8169 460.363 35.8451 460.256 35.8973C459.808 36.086 459.502 36.9353 459.549 37.9379C459.596 38.9405 459.973 39.7545 460.433 39.896C460.555 39.8757 460.669 39.8227 460.764 39.7426Z" fill="#64CF83"/>
<path opacity="0.3" d="M461.012 38.9051C460.681 38.9051 460.398 38.3743 460.363 37.7256C460.327 37.0768 460.575 36.4634 460.905 36.4516C461.236 36.4398 461.295 36.6522 461.424 36.9707C461.2 36.6522 460.846 36.7347 460.705 37.1476C460.594 37.6087 460.619 38.092 460.776 38.5395C460.905 38.799 461.047 38.9405 461.247 38.8344C461.216 38.8625 461.178 38.8833 461.137 38.8956C461.097 38.9078 461.054 38.911 461.012 38.9051Z" fill="black"/>
<path d="M453.451 32.5476C452.77 31.6566 452.265 30.6437 451.964 29.5633C452.295 30.0351 453.144 30.1295 454.477 29.5633C454.904 29.4257 455.322 29.2602 455.727 29.0679L456.046 28.9146L456.423 29.6813L456.116 29.8464C455.702 30.0407 455.307 30.2738 454.937 30.5424C453.71 31.2737 453.274 31.9932 453.451 32.5476Z" fill="#64CF83"/>
<path opacity="0.2" d="M455.94 29.929C455.773 29.6897 455.642 29.4275 455.55 29.1505L456.046 28.9146L456.423 29.6813L455.94 29.929Z" fill="black"/>
<path d="M457.343 30.4005C457.418 30.3617 457.483 30.305 457.532 30.2353C457.538 30.2082 457.538 30.18 457.532 30.1528C457.532 30.1528 457.532 30.1528 457.532 30.082C457.586 29.6418 457.499 29.1959 457.284 28.8081C457.104 28.4043 456.803 28.0663 456.423 27.8408H456.352H456.152C456.065 27.8479 455.981 27.872 455.904 27.9116C455.829 27.9453 455.764 27.9982 455.715 28.0649C455.479 28.3126 455.526 28.9496 455.845 29.5866C456.163 30.2235 456.635 30.6482 457.025 30.6128C457.15 30.5771 457.262 30.5028 457.343 30.4005Z" fill="#64CF83"/>
<path opacity="0.3" d="M457.261 29.7869C457.06 29.8813 456.706 29.61 456.482 29.1736C456.258 28.7371 456.258 28.2889 456.482 28.1827C456.706 28.0766 456.789 28.1827 456.966 28.3715C456.73 28.2299 456.517 28.3715 456.553 28.7017C456.614 29.0338 456.769 29.3411 457.001 29.5864C457.154 29.7162 457.296 29.7634 457.39 29.5864C457.386 29.6278 457.372 29.6676 457.35 29.7025C457.327 29.7374 457.297 29.7664 457.261 29.7869Z" fill="black"/>
<path d="M449.817 26.7204C448.624 26.1376 447.585 25.2807 446.786 24.2197C447.375 24.55 448.449 24.09 449.888 22.533C451.067 21.2472 452.141 19.9851 452.919 19.065L453.238 18.6758L454.028 19.3245L453.71 19.7138C452.955 20.6457 451.917 21.955 450.891 23.3587C449.628 25.069 449.381 26.2014 449.817 26.7204Z" fill="#64CF83"/>
<path opacity="0.2" d="M453.627 19.7843C453.478 19.6981 453.336 19.5995 453.203 19.4894C453.061 19.3715 452.943 19.2535 452.825 19.1356L453.238 18.6401L454.028 19.2889L453.627 19.7843Z" fill="black"/>
<path d="M455.845 19.7842C455.924 19.6862 455.984 19.5742 456.022 19.454C456.022 19.454 456.022 19.454 456.022 19.3714V19.1355C456.022 19.1355 456.022 19.0765 456.022 19.0411C455.826 18.421 455.443 17.8769 454.925 17.4841C454.44 17.0459 453.829 16.7733 453.179 16.7056H453.014H452.884H452.813C452.699 16.7565 452.598 16.833 452.519 16.9291C452.439 17.0252 452.382 17.1384 452.353 17.26C452.176 17.7436 452.625 18.5693 453.438 19.2416C454.252 19.914 455.161 20.1971 455.597 19.9376C455.686 19.8984 455.77 19.8467 455.845 19.7842Z" fill="#64CF83"/>
<path opacity="0.3" d="M455.373 18.9587C455.161 19.23 454.524 19.0648 453.958 18.6048C453.391 18.1448 453.12 17.555 453.344 17.2837C453.568 17.0124 453.769 17.1186 454.111 17.2837C453.698 17.2837 453.521 17.555 453.745 17.9678C454.036 18.3872 454.447 18.7081 454.925 18.8879C455.208 18.9705 455.42 18.9587 455.479 18.7346C455.474 18.8202 455.436 18.9006 455.373 18.9587Z" fill="black"/>
<path d="M443.801 22.6624C442.56 22.4833 441.347 22.1463 440.192 21.6598C440.829 21.7659 441.466 21.3885 441.855 20.3504C442.185 19.5129 442.445 18.6873 442.622 18.0857L442.693 17.8262L443.636 18.0857L443.565 18.3452C443.4 18.9468 443.2 19.796 443.046 20.7043C442.858 21.7777 443.212 22.4265 443.801 22.6624Z" fill="#64CF83"/>
<path opacity="0.2" d="M443.518 18.4867L443.046 18.3806C442.889 18.3437 442.735 18.2924 442.586 18.2272L442.693 17.8262L443.636 18.0857C443.601 18.2154 443.565 18.3452 443.518 18.4867Z" fill="black"/>
<path d="M444.899 17.7674C444.916 17.6778 444.916 17.5857 444.899 17.4961C444.899 17.4961 444.899 17.4961 444.899 17.4371C444.904 17.4099 444.904 17.3819 444.899 17.3546V17.2956C444.592 16.9411 444.178 16.6966 443.719 16.5997C443.274 16.457 442.796 16.457 442.351 16.5997H442.28C442.253 16.5942 442.225 16.5942 442.197 16.5997C442.144 16.6706 442.104 16.7505 442.08 16.8356C442.062 16.9212 442.062 17.0095 442.08 17.0951C442.08 17.4607 442.646 17.8736 443.377 18.0741C443.639 18.1865 443.925 18.2293 444.208 18.1983C444.491 18.1673 444.762 18.0635 444.993 17.8972C444.967 17.8503 444.935 17.8068 444.899 17.7674Z" fill="#64CF83"/>
<path opacity="0.3" d="M444.356 17.4253C444.297 17.6612 443.837 17.7438 443.33 17.6023C442.822 17.4607 442.48 17.154 442.539 16.9181C442.598 16.6822 442.775 16.6822 443.035 16.6704C442.752 16.7648 442.728 17.0243 443.035 17.2248C443.341 17.4181 443.699 17.5128 444.061 17.4961C444.261 17.4961 444.403 17.4017 444.379 17.2248C444.39 17.258 444.393 17.293 444.389 17.3276C444.385 17.3621 444.374 17.3954 444.356 17.4253Z" fill="black"/>
<path d="M436.748 21.5067C435.532 22.1202 434.156 22.3426 432.808 22.1437C433.445 21.896 433.775 20.5159 433.492 17.8383C433.421 17.2013 433.41 15.7386 433.186 14.2288C433.186 13.9929 433.127 13.7806 433.091 13.58L434.106 13.4385C434.106 13.6272 434.165 13.8395 434.2 14.0754C434.436 15.5853 434.695 17.2013 434.778 17.6141C435.332 20.2328 436.064 21.4477 436.748 21.5067Z" fill="#64CF83"/>
<path opacity="0.2" d="M434.247 14.0162C434.085 14.0652 433.919 14.1007 433.752 14.1223C433.579 14.1393 433.405 14.1393 433.233 14.1223C433.233 13.8864 433.174 13.6741 433.138 13.4736L434.153 13.332C434.188 13.5679 434.212 13.7803 434.247 14.0162Z" fill="black"/>
<path d="M435.875 12.1645C435.851 12.0293 435.798 11.9007 435.721 11.787V11.7162L435.615 11.6219C435.596 11.6169 435.575 11.6169 435.556 11.6219H435.462C434.815 11.3167 434.086 11.2298 433.386 11.3742C432.677 11.4483 432.009 11.741 431.475 12.2117L431.404 12.306C431.399 12.3254 431.399 12.3457 431.404 12.365L431.333 12.483C431.328 12.5142 431.328 12.5461 431.333 12.5773C431.303 12.7093 431.303 12.8464 431.333 12.9784C431.355 13.1122 431.403 13.2405 431.475 13.3558C431.746 13.8395 432.749 14.0872 433.893 13.922C435.037 13.7569 435.922 13.2143 436.04 12.6717C436.015 12.4941 435.96 12.3223 435.875 12.1645Z" fill="#64CF83"/>
<path opacity="0.3" d="M434.884 11.9758C434.943 12.3533 434.353 12.7543 433.563 12.8723C432.773 12.9902 432.089 12.7779 432.041 12.4005C431.994 12.023 432.218 11.9286 432.572 11.7517C432.23 12.0466 432.36 12.4358 432.855 12.5538C433.4 12.6229 433.953 12.5328 434.448 12.2943C434.719 12.1292 434.872 11.9404 434.719 11.7163C434.805 11.7791 434.863 11.8717 434.884 11.9758Z" fill="black"/>
<path d="M430.095 23.2051C429.101 24.1776 427.916 24.9328 426.615 25.4227C427.146 24.9509 427.11 23.8539 426.167 22.1435C425.4 20.7634 425.459 20.9639 424.869 19.9731L424.622 19.5838L425.53 19.0059L425.778 19.3951C426.379 20.3152 426.379 20.1264 427.311 21.4122C428.467 22.9928 429.446 23.4882 430.095 23.2051Z" fill="#64CF83"/>
<path opacity="0.2" d="M425.789 19.4187C425.512 19.6492 425.207 19.8435 424.881 19.9967L424.622 19.5838L425.53 19.0059L425.789 19.4187Z" fill="black"/>
<path opacity="0.3" d="M425.436 17.85C425.589 18.0859 425.306 18.5223 424.822 18.8408C424.339 19.1593 423.808 19.2183 423.643 18.9823C423.477 18.7464 423.643 18.6167 423.808 18.3926C423.666 18.6875 423.867 18.9116 424.232 18.8408C424.619 18.7266 424.964 18.501 425.223 18.192C425.365 17.9915 425.4 17.8264 425.223 17.7202C425.266 17.7251 425.307 17.7392 425.344 17.7616C425.38 17.784 425.412 17.8142 425.436 17.85Z" fill="black"/>
<path d="M423.961 27.9473C423.453 28.8169 422.893 29.6558 422.286 30.4597C422.401 30.2867 422.468 30.0866 422.48 29.8795C422.493 29.6724 422.45 29.4657 422.357 29.2802C422.148 29.0476 421.915 28.838 421.661 28.655H421.579L421.921 28.1242H422.015C422.278 28.2882 422.564 28.4114 422.864 28.4899C423.081 28.522 423.302 28.4872 423.498 28.3902C423.694 28.2933 423.856 28.1387 423.961 27.9473Z" fill="#64CF83"/>
<path opacity="0.2" d="M422.121 28.1356C422.121 28.23 422.015 28.3125 421.956 28.4069C421.903 28.5 421.84 28.587 421.767 28.6664L421.579 28.5367L421.921 28.0059L422.121 28.1356Z" fill="black"/>
<path d="M421.909 26.7554C421.845 26.7129 421.772 26.6847 421.697 26.6729H421.437C421.066 26.8346 420.753 27.1063 420.541 27.4514C420.298 27.7963 420.17 28.2091 420.175 28.6309V28.7135C420.206 28.7843 420.26 28.8425 420.328 28.8786C420.392 28.9212 420.465 28.9494 420.541 28.9612C420.847 29.032 421.331 28.7135 421.72 28.1591C422.109 27.6047 422.192 27.0385 422.003 26.7908C421.973 26.7767 421.941 26.7648 421.909 26.7554Z" fill="#64CF83"/>
<path opacity="0.3" d="M421.449 27.0976C421.638 27.2156 421.579 27.6166 421.331 27.9941C421.083 28.3715 420.729 28.5839 420.552 28.4659C420.375 28.348 420.423 28.2064 420.482 27.9941C420.482 28.2418 420.694 28.3362 420.93 28.171C421.166 27.9693 421.338 27.7027 421.425 27.4043C421.425 27.2274 421.425 27.0976 421.284 27.074C421.34 27.0615 421.398 27.0699 421.449 27.0976Z" fill="black"/>
<path opacity="0.1" d="M446.22 23.7363C450.572 26.4375 456.836 37.8911 449.416 48.1179C441.997 58.3448 429.139 53.9922 425.73 51.291C427.507 52.9517 429.615 54.2189 431.915 55.0098C434.215 55.8006 436.656 56.0974 439.079 55.8806C441.501 55.6639 443.851 54.9386 445.974 53.752C448.097 52.5654 449.946 50.9443 451.4 48.9945C452.854 47.0447 453.88 44.8101 454.412 42.4366C454.944 40.0632 454.969 37.6043 454.485 35.2206C454.002 32.8368 453.021 30.5819 451.607 28.603C450.193 26.6241 448.377 24.9658 446.279 23.7363H446.22Z" fill="black"/>
<path d="M441.761 48.094C442.179 47.7362 442.719 47.5536 443.269 47.5844C443.818 47.6152 444.334 47.8569 444.71 48.2592C444.874 48.7663 444.868 49.313 444.694 49.8167C444.52 50.3203 444.186 50.7535 443.743 51.0506C443.301 51.3478 442.774 51.4929 442.242 51.4638C441.709 51.4347 441.201 51.2332 440.794 50.8896C440.566 50.3885 440.539 49.8189 440.719 49.2986C440.899 48.7783 441.272 48.3471 441.761 48.094Z" fill="#64CF83"/>
<path opacity="0.15" d="M441.761 48.094C442.179 47.7362 442.719 47.5536 443.269 47.5844C443.818 47.6152 444.334 47.8569 444.71 48.2592C444.874 48.7663 444.868 49.313 444.694 49.8167C444.52 50.3203 444.186 50.7535 443.743 51.0506C443.301 51.3478 442.774 51.4929 442.242 51.4638C441.709 51.4347 441.201 51.2332 440.794 50.8896C440.566 50.3885 440.539 49.8189 440.719 49.2986C440.899 48.7783 441.272 48.3471 441.761 48.094Z" fill="black"/>
<path opacity="0.15" d="M441.773 50.9608C441.159 50.8428 441.1 49.7812 442.056 49.0616C442.343 48.7934 442.702 48.614 443.089 48.5449C443.476 48.4758 443.875 48.5201 444.238 48.6724C444.315 48.734 444.378 48.8105 444.425 48.8972C444.471 48.984 444.5 49.0792 444.508 49.1772C444.517 49.2752 444.506 49.374 444.476 49.4677C444.446 49.5613 444.397 49.6479 444.332 49.7222C444.427 49.3329 444.179 48.9909 443.601 48.9791C443.232 48.9873 442.871 49.085 442.548 49.2638C442.226 49.4426 441.951 49.697 441.749 50.0053C441.633 50.1387 441.571 50.3108 441.575 50.4876C441.579 50.6645 441.65 50.8333 441.773 50.9608Z" fill="black"/>
<path d="M436.465 27.9706C436.118 27.9838 435.774 27.8991 435.473 27.7262C435.171 27.5533 434.925 27.2991 434.761 26.9928C434.597 26.6864 434.523 26.3402 434.547 25.9936C434.57 25.6471 434.691 25.3142 434.895 25.033C435.099 24.7517 435.378 24.5335 435.7 24.4033C436.022 24.273 436.374 24.2359 436.716 24.2962C437.058 24.3565 437.376 24.5119 437.634 24.7444C437.892 24.977 438.08 25.2774 438.175 25.6114C438.47 26.4961 437.703 27.5695 436.465 27.9706Z" fill="#64CF83"/>
<path opacity="0.15" d="M436.465 27.9706C436.118 27.9838 435.774 27.8991 435.473 27.7262C435.171 27.5533 434.925 27.2991 434.761 26.9928C434.597 26.6864 434.523 26.3402 434.547 25.9936C434.57 25.6471 434.691 25.3142 434.895 25.033C435.099 24.7517 435.378 24.5335 435.7 24.4033C436.022 24.273 436.374 24.2359 436.716 24.2962C437.058 24.3565 437.376 24.5119 437.634 24.7444C437.892 24.977 438.08 25.2774 438.175 25.6114C438.47 26.4961 437.703 27.5695 436.465 27.9706Z" fill="black"/>
<path opacity="0.15" d="M437.255 25.2339C437.809 25.517 437.585 26.5314 436.453 26.9796C436.101 27.1571 435.705 27.2282 435.313 27.1842C434.921 27.1402 434.551 26.983 434.247 26.7319C434.192 26.6517 434.153 26.5613 434.133 26.4659C434.113 26.3706 434.113 26.2722 434.131 26.1766C434.15 26.081 434.188 25.9901 434.242 25.9093C434.296 25.8284 434.366 25.7592 434.447 25.7057C434.247 26.0478 434.388 26.4488 434.943 26.614C435.3 26.711 435.676 26.7199 436.037 26.6397C436.399 26.5596 436.736 26.3929 437.019 26.1539C437.361 25.8473 437.432 25.4698 437.255 25.2339Z" fill="black"/>
<path d="M432.89 41.5828C433.005 41.8473 433.043 42.1382 433.002 42.4233C432.96 42.7084 432.841 42.9764 432.656 43.1976C432.471 43.4187 432.229 43.5843 431.956 43.6759C431.683 43.7676 431.39 43.7816 431.109 43.7166C430.828 43.6515 430.571 43.5098 430.366 43.3074C430.162 43.1049 430.017 42.8495 429.948 42.5697C429.88 42.2899 429.89 41.9966 429.979 41.7224C430.067 41.4482 430.23 41.2038 430.449 41.0166C430.848 40.7702 431.329 40.6915 431.786 40.7975C432.243 40.9035 432.64 41.1857 432.89 41.5828Z" fill="#64CF83"/>
<path opacity="0.15" d="M432.89 41.5828C433.005 41.8473 433.043 42.1382 433.002 42.4233C432.96 42.7084 432.841 42.9764 432.656 43.1976C432.471 43.4187 432.229 43.5843 431.956 43.6759C431.683 43.7676 431.39 43.7816 431.109 43.7166C430.828 43.6515 430.571 43.5098 430.366 43.3074C430.162 43.1049 430.017 42.8495 429.948 42.5697C429.88 42.2899 429.89 41.9966 429.979 41.7224C430.067 41.4482 430.23 41.2038 430.449 41.0166C430.848 40.7702 431.329 40.6915 431.786 40.7975C432.243 40.9035 432.64 41.1857 432.89 41.5828Z" fill="black"/>
<path opacity="0.15" d="M430.52 41.8776C430.52 41.3586 431.416 41.1935 432.124 41.8776C432.379 42.0885 432.567 42.3698 432.663 42.6865C432.76 43.0033 432.761 43.3414 432.666 43.6587C432.623 43.7287 432.566 43.7893 432.499 43.8368C432.432 43.8844 432.356 43.918 432.276 43.9356C432.195 43.9532 432.112 43.9545 432.032 43.9393C431.951 43.9242 431.874 43.893 431.805 43.8475C432.147 43.8475 432.407 43.6352 432.348 43.1633C432.307 42.855 432.191 42.5614 432.01 42.3084C431.829 42.0554 431.588 41.8508 431.31 41.7125C430.956 41.5945 430.637 41.6653 430.52 41.8776Z" fill="black"/>
<path d="M442.363 39.0115C442.363 37.7021 443.259 36.6523 444.238 36.7231C444.775 36.8372 445.248 37.1527 445.559 37.6046C445.871 38.0565 445.997 38.6106 445.913 39.153C445.854 40.4623 445.017 41.5121 444.038 41.4414C443.499 41.3299 443.025 41.0151 442.713 40.5624C442.401 40.1098 442.275 39.5542 442.363 39.0115Z" fill="#64CF83"/>
<path opacity="0.15" d="M442.363 39.0115C442.363 37.7021 443.259 36.6523 444.238 36.7231C444.775 36.8372 445.248 37.1527 445.559 37.6046C445.871 38.0565 445.997 38.6106 445.913 39.153C445.854 40.4623 445.017 41.5121 444.038 41.4414C443.499 41.3299 443.025 41.0151 442.713 40.5624C442.401 40.1098 442.275 39.5542 442.363 39.0115Z" fill="black"/>
<path opacity="0.15" d="M444.663 40.6864C444.203 41.1111 443.33 40.5449 443.294 39.3417C443.294 38.3863 443.743 37.5016 444.285 37.3482C444.38 37.3237 444.478 37.3183 444.575 37.3324C444.672 37.3465 444.764 37.3798 444.848 37.4304C444.932 37.481 445.004 37.5478 445.061 37.6268C445.119 37.7059 445.16 37.7957 445.182 37.8908C444.922 37.5842 444.498 37.5842 444.155 38.0442C443.94 38.3441 443.801 38.6925 443.752 39.0586C443.702 39.4248 443.744 39.7975 443.872 40.1438C444.049 40.5685 444.368 40.769 444.663 40.6864Z" fill="black"/>
<path d="M429.399 46.089C429.526 46.4087 429.562 46.7577 429.502 47.0967C429.442 47.4356 429.289 47.7512 429.06 48.008C428.831 48.2647 428.534 48.4525 428.204 48.5502C427.874 48.6479 427.523 48.6517 427.191 48.5611C426.859 48.4705 426.559 48.2892 426.324 48.0374C426.089 47.7857 425.929 47.4735 425.862 47.1359C425.795 46.7983 425.823 46.4486 425.944 46.1262C426.064 45.8037 426.272 45.5213 426.544 45.3104C427.029 45.0464 427.596 44.9799 428.128 45.125C428.661 45.2702 429.116 45.6156 429.399 46.089Z" fill="#64CF83"/>
<path opacity="0.15" d="M429.399 46.089C429.526 46.4087 429.562 46.7577 429.502 47.0967C429.442 47.4356 429.289 47.7512 429.06 48.008C428.831 48.2647 428.534 48.4525 428.204 48.5502C427.874 48.6479 427.523 48.6517 427.191 48.5611C426.859 48.4705 426.559 48.2892 426.324 48.0374C426.089 47.7857 425.929 47.4735 425.862 47.1359C425.795 46.7983 425.823 46.4486 425.944 46.1262C426.064 45.8037 426.272 45.5213 426.544 45.3104C427.029 45.0464 427.596 44.9799 428.128 45.125C428.661 45.2702 429.116 45.6156 429.399 46.089Z" fill="black"/>
<path opacity="0.15" d="M426.556 46.2776C426.627 45.6643 427.665 45.5345 428.467 46.431C428.757 46.6992 428.962 47.0468 429.057 47.4306C429.151 47.8143 429.131 48.2173 428.998 48.5896C428.941 48.6686 428.868 48.7356 428.785 48.7866C428.702 48.8377 428.609 48.8718 428.513 48.8872C428.417 48.9025 428.318 48.8987 428.223 48.876C428.128 48.8533 428.039 48.8121 427.96 48.7547C428.361 48.8255 428.679 48.5542 428.656 47.9762C428.62 47.6055 428.494 47.2492 428.288 46.9387C428.082 46.6282 427.804 46.3728 427.476 46.1951C427.099 45.9828 426.721 46.0299 426.556 46.2776Z" fill="black"/>
<path d="M438.576 33.3258C438.335 33.2558 438.113 33.131 437.929 32.961C437.744 32.7911 437.601 32.5808 437.511 32.3464C437.421 32.112 437.386 31.8599 437.41 31.6099C437.433 31.36 437.514 31.1188 437.646 30.9054C437.779 30.6919 437.958 30.5119 438.172 30.3795C438.385 30.2471 438.626 30.1658 438.876 30.1421C439.126 30.1183 439.378 30.1527 439.613 30.2426C439.847 30.3324 440.058 30.4753 440.228 30.66C440.469 30.73 440.69 30.8549 440.875 31.0248C441.06 31.1947 441.203 31.4051 441.293 31.6395C441.383 31.8738 441.418 32.1259 441.394 32.3759C441.371 32.6259 441.29 32.867 441.158 33.0805C441.025 33.2939 440.846 33.4739 440.632 33.6063C440.419 33.7387 440.178 33.82 439.928 33.8437C439.678 33.8675 439.426 33.8331 439.191 33.7433C438.957 33.6534 438.746 33.5105 438.576 33.3258Z" fill="#64CF83"/>
<path opacity="0.15" d="M438.576 33.3258C438.335 33.2558 438.113 33.131 437.929 32.961C437.744 32.7911 437.601 32.5808 437.511 32.3464C437.421 32.112 437.386 31.8599 437.41 31.6099C437.433 31.36 437.514 31.1188 437.646 30.9054C437.779 30.6919 437.958 30.5119 438.172 30.3795C438.385 30.2471 438.626 30.1658 438.876 30.1421C439.126 30.1183 439.378 30.1527 439.613 30.2426C439.847 30.3324 440.058 30.4753 440.228 30.66C440.469 30.73 440.69 30.8549 440.875 31.0248C441.06 31.1947 441.203 31.4051 441.293 31.6395C441.383 31.8738 441.418 32.1259 441.394 32.3759C441.371 32.6259 441.29 32.867 441.158 33.0805C441.025 33.2939 440.846 33.4739 440.632 33.6063C440.419 33.7387 440.178 33.82 439.928 33.8437C439.678 33.8675 439.426 33.8331 439.191 33.7433C438.957 33.6534 438.746 33.5105 438.576 33.3258Z" fill="black"/>
<path opacity="0.15" d="M440.864 32.2879C440.994 32.8187 440.18 33.2551 439.236 32.7479C438.493 32.3469 438.057 31.5684 438.128 31.1319C438.148 31.0478 438.185 30.9688 438.237 30.8996C438.289 30.8304 438.355 30.7725 438.43 30.7294C438.505 30.6864 438.588 30.6591 438.674 30.6492C438.76 30.6393 438.847 30.647 438.93 30.6719C438.588 30.6719 438.399 31.0611 438.599 31.533C438.732 31.8379 438.939 32.1051 439.2 32.3109C439.462 32.5167 439.77 32.6547 440.097 32.7125C440.51 32.7597 440.805 32.5356 440.864 32.2879Z" fill="black"/>
<path d="M430.166 32.1699C429.21 33.7033 427.488 34.3521 426.344 33.6326C425.2 32.913 425.035 31.0847 426.002 29.5513C426.969 28.0178 428.679 27.3691 429.824 28.1004C430.968 28.8317 431.133 30.6483 430.166 32.1699Z" fill="#64CF83"/>
<path opacity="0.15" d="M430.166 32.1699C429.21 33.7033 427.488 34.3521 426.344 33.6326C425.2 32.913 425.035 31.0847 426.002 29.5513C426.969 28.0178 428.679 27.3691 429.824 28.1004C430.968 28.8317 431.133 30.6483 430.166 32.1699Z" fill="black"/>
<path opacity="0.15" d="M428.561 28.5605C429.399 28.3717 430.071 29.6575 429.269 31.1319C428.632 32.3115 427.464 33.0428 426.709 32.8541C426.579 32.8174 426.457 32.7553 426.351 32.6712C426.244 32.5872 426.156 32.483 426.09 32.3646C426.024 32.2461 425.983 32.1158 425.967 31.9812C425.952 31.8466 425.964 31.7103 426.002 31.5801C426.108 32.1227 426.615 32.4176 427.346 32.0992C427.815 31.8843 428.224 31.5562 428.535 31.1444C428.846 30.7326 429.049 30.25 429.127 29.74C429.269 29.1267 428.962 28.6666 428.561 28.5605Z" fill="black"/>
<path d="M447.977 43.2696C448.129 43.0628 448.335 42.9023 448.573 42.8062C448.811 42.71 449.071 42.6821 449.324 42.7254C449.576 42.7688 449.812 42.8817 450.004 43.0516C450.197 43.2214 450.338 43.4415 450.412 43.6871C450.486 43.9326 450.49 44.194 450.424 44.4418C450.358 44.6896 450.224 44.914 450.037 45.09C449.85 45.2659 449.618 45.3863 449.367 45.4377C449.116 45.4892 448.855 45.4695 448.614 45.3811C448.258 45.1773 447.994 44.8449 447.875 44.4522C447.757 44.0595 447.793 43.6363 447.977 43.2696Z" fill="#64CF83"/>
<path opacity="0.15" d="M447.977 43.2696C448.129 43.0628 448.335 42.9023 448.573 42.8062C448.811 42.71 449.071 42.6821 449.324 42.7254C449.576 42.7688 449.812 42.8817 450.004 43.0516C450.197 43.2214 450.338 43.4415 450.412 43.6871C450.486 43.9326 450.49 44.194 450.424 44.4418C450.358 44.6896 450.224 44.914 450.037 45.09C449.85 45.2659 449.618 45.3863 449.367 45.4377C449.116 45.4892 448.855 45.4695 448.614 45.3811C448.258 45.1773 447.994 44.8449 447.875 44.4522C447.757 44.0595 447.793 43.6363 447.977 43.2696Z" fill="black"/>
<path opacity="0.15" d="M449.227 44.9916C448.815 45.1803 448.307 44.5787 448.567 43.7177C448.826 42.8566 449.298 42.5381 449.746 42.5381C449.819 42.5426 449.891 42.5614 449.956 42.5935C450.022 42.6256 450.08 42.6704 450.128 42.7252C450.177 42.78 450.214 42.8438 450.237 42.9129C450.261 42.982 450.27 43.055 450.265 43.1279C450.148 42.8448 449.841 42.7504 449.499 42.9981C449.278 43.1658 449.101 43.384 448.982 43.6344C448.863 43.8848 448.805 44.1601 448.815 44.4372C448.826 44.7675 449.003 44.9798 449.227 44.9916Z" fill="black"/>
<path d="M447.34 34.9062C447.32 34.5556 447.398 34.2063 447.565 33.8976C447.733 33.5889 447.983 33.3331 448.288 33.1588C448.593 32.9846 448.94 32.8989 449.291 32.9113C449.642 32.9238 449.983 33.034 450.274 33.2294C450.566 33.4249 450.798 33.6978 450.943 34.0176C451.088 34.3375 451.141 34.6914 451.096 35.0397C451.051 35.388 450.909 35.7168 450.688 35.9891C450.466 36.2614 450.173 36.4665 449.841 36.5812C448.897 36.9115 447.788 36.1684 447.34 34.9062Z" fill="#64CF83"/>
<path opacity="0.15" d="M447.34 34.9062C447.32 34.5556 447.398 34.2063 447.565 33.8976C447.733 33.5889 447.983 33.3331 448.288 33.1588C448.593 32.9846 448.94 32.8989 449.291 32.9113C449.642 32.9238 449.983 33.034 450.274 33.2294C450.566 33.4249 450.798 33.6978 450.943 34.0176C451.088 34.3375 451.141 34.6914 451.096 35.0397C451.051 35.388 450.909 35.7168 450.688 35.9891C450.466 36.2614 450.173 36.4665 449.841 36.5812C448.897 36.9115 447.788 36.1684 447.34 34.9062Z" fill="black"/>
<path opacity="0.15" d="M450.148 35.6377C449.876 36.2039 448.838 36.0034 448.355 34.871C448.165 34.5181 448.081 34.118 448.112 33.7185C448.143 33.319 448.289 32.937 448.532 32.618C448.696 32.5022 448.9 32.4558 449.099 32.489C449.297 32.5221 449.475 32.632 449.593 32.795C449.227 32.6063 448.826 32.795 448.673 33.3258C448.589 33.6909 448.594 34.0708 448.686 34.4338C448.779 34.7969 448.956 35.1328 449.204 35.4136C449.534 35.7557 449.912 35.8265 450.148 35.6377Z" fill="black"/>
<path d="M443.601 28.5015C443.435 28.455 443.281 28.3725 443.15 28.2599C443.019 28.1472 442.914 28.0072 442.843 27.8497C442.772 27.6921 442.737 27.521 442.739 27.3482C442.742 27.1755 442.782 27.0055 442.858 26.8501C442.933 26.6947 443.042 26.5578 443.176 26.4491C443.31 26.3404 443.467 26.2624 443.635 26.2208C443.802 26.1792 443.977 26.1749 444.146 26.2082C444.316 26.2415 444.476 26.3117 444.615 26.4137C444.782 26.4603 444.936 26.5428 445.067 26.6554C445.198 26.7681 445.302 26.9081 445.373 27.0656C445.444 27.2231 445.48 27.3943 445.477 27.567C445.475 27.7397 445.434 27.9098 445.359 28.0652C445.283 28.2205 445.174 28.3574 445.04 28.4662C444.906 28.5749 444.75 28.6529 444.582 28.6945C444.414 28.7361 444.24 28.7404 444.07 28.7071C443.901 28.6737 443.74 28.6036 443.601 28.5015Z" fill="#64CF83"/>
<path opacity="0.15" d="M443.601 28.5015C443.435 28.455 443.281 28.3725 443.15 28.2599C443.019 28.1472 442.914 28.0072 442.843 27.8497C442.772 27.6921 442.737 27.521 442.739 27.3482C442.742 27.1755 442.782 27.0055 442.858 26.8501C442.933 26.6947 443.042 26.5578 443.176 26.4491C443.31 26.3404 443.467 26.2624 443.635 26.2208C443.802 26.1792 443.977 26.1749 444.146 26.2082C444.316 26.2415 444.476 26.3117 444.615 26.4137C444.782 26.4603 444.936 26.5428 445.067 26.6554C445.198 26.7681 445.302 26.9081 445.373 27.0656C445.444 27.2231 445.48 27.3943 445.477 27.567C445.475 27.7397 445.434 27.9098 445.359 28.0652C445.283 28.2205 445.174 28.3574 445.04 28.4662C444.906 28.5749 444.75 28.6529 444.582 28.6945C444.414 28.7361 444.24 28.7404 444.07 28.7071C443.901 28.6737 443.74 28.6036 443.601 28.5015Z" fill="black"/>
<path opacity="0.15" d="M445.205 27.5696C445.347 27.9471 444.78 28.3245 444.025 28.0297C443.271 27.7348 443.035 27.2865 443.094 26.9209C443.104 26.8581 443.126 26.798 443.159 26.7438C443.193 26.6897 443.236 26.6427 443.288 26.6055C443.339 26.5682 443.398 26.5415 443.459 26.5268C443.521 26.5121 443.585 26.5097 443.648 26.5198C443.4 26.6024 443.282 26.8501 443.471 27.1804C443.594 27.3867 443.766 27.5594 443.972 27.6829C444.178 27.8064 444.411 27.877 444.651 27.8881C444.981 27.8999 445.181 27.7584 445.205 27.5696Z" fill="black"/>
<path d="M425.542 39.7074C425.63 40.056 425.579 40.425 425.401 40.7372C425.223 41.0494 424.931 41.2806 424.587 41.3824C423.95 41.465 423.407 40.8516 423.242 40.0023C423.156 39.6555 423.207 39.2891 423.382 38.9779C423.557 38.6667 423.845 38.4341 424.185 38.3273C424.822 38.2566 425.424 38.8699 425.542 39.7074Z" fill="#64CF83"/>
<path opacity="0.15" d="M425.542 39.7074C425.63 40.056 425.579 40.425 425.401 40.7372C425.223 41.0494 424.931 41.2806 424.587 41.3824C423.95 41.465 423.407 40.8516 423.242 40.0023C423.156 39.6555 423.207 39.2891 423.382 38.9779C423.557 38.6667 423.845 38.4341 424.185 38.3273C424.822 38.2566 425.424 38.8699 425.542 39.7074Z" fill="black"/>
<path opacity="0.15" d="M423.867 38.8817C424.114 38.5632 424.751 38.8817 424.893 39.6012C424.981 39.8447 424.995 40.1087 424.934 40.3604C424.874 40.612 424.74 40.8402 424.551 41.0167C424.431 41.0657 424.298 41.0673 424.177 41.0213C424.057 40.9753 423.958 40.8851 423.902 40.769C424.103 40.9341 424.386 40.887 424.551 40.5567C424.661 40.3432 424.718 40.1066 424.718 39.8666C424.718 39.6266 424.661 39.3901 424.551 39.1766C424.28 38.8935 424.044 38.7991 423.867 38.8817Z" fill="black"/>
<path d="M437.927 44.2368C438.141 44.199 438.36 44.2208 438.562 44.2996C438.764 44.3784 438.94 44.5113 439.071 44.6837C439.203 44.8561 439.284 45.0613 439.306 45.2768C439.329 45.4923 439.291 45.7098 439.198 45.9055C439.105 46.1011 438.959 46.2673 438.778 46.3858C438.597 46.5043 438.386 46.5706 438.17 46.5773C437.953 46.5841 437.739 46.531 437.55 46.424C437.362 46.317 437.207 46.1602 437.102 45.9708C436.99 45.631 437.014 45.2614 437.167 44.9386C437.321 44.6157 437.593 44.3645 437.927 44.2368Z" fill="#64CF83"/>
<path opacity="0.15" d="M437.927 44.2368C438.141 44.199 438.36 44.2208 438.562 44.2996C438.764 44.3784 438.94 44.5113 439.071 44.6837C439.203 44.8561 439.284 45.0613 439.306 45.2768C439.329 45.4923 439.291 45.7098 439.198 45.9055C439.105 46.1011 438.959 46.2673 438.778 46.3858C438.597 46.5043 438.386 46.5706 438.17 46.5773C437.953 46.5841 437.739 46.531 437.55 46.424C437.362 46.317 437.207 46.1602 437.102 45.9708C436.99 45.631 437.014 45.2614 437.167 44.9386C437.321 44.6157 437.593 44.3645 437.927 44.2368Z" fill="black"/>
<path opacity="0.15" d="M437.727 46.0887C437.337 45.9707 437.373 45.2866 438.045 44.9091C438.254 44.7586 438.5 44.67 438.757 44.6533C439.014 44.6366 439.27 44.6925 439.496 44.8147C439.587 44.9075 439.639 45.0325 439.639 45.1627C439.639 45.293 439.587 45.418 439.496 45.5107C439.59 45.263 439.496 45.0153 439.083 44.9681C438.842 44.948 438.6 44.9857 438.376 45.078C438.152 45.1703 437.954 45.3146 437.797 45.4989C437.72 45.5742 437.67 45.6739 437.658 45.7812C437.645 45.8886 437.669 45.9971 437.727 46.0887Z" fill="black"/>
<path d="M432.69 35.4848C432.626 35.6407 432.529 35.781 432.406 35.8963C432.283 36.0115 432.136 36.0991 431.976 36.153C431.817 36.2069 431.647 36.2259 431.479 36.2087C431.312 36.1916 431.15 36.1386 431.004 36.0535C430.858 35.9684 430.733 35.853 430.636 35.7152C430.538 35.5775 430.472 35.4204 430.441 35.2547C430.409 35.0891 430.414 34.9186 430.454 34.7548C430.494 34.591 430.569 34.4377 430.673 34.3052C430.737 34.1493 430.834 34.009 430.957 33.8938C431.08 33.7785 431.227 33.691 431.387 33.6371C431.546 33.5832 431.716 33.5642 431.884 33.5813C432.051 33.5985 432.213 33.6514 432.359 33.7365C432.505 33.8216 432.63 33.937 432.727 34.0748C432.825 34.2126 432.891 34.3696 432.923 34.5353C432.954 34.701 432.949 34.8715 432.909 35.0353C432.869 35.1991 432.794 35.3523 432.69 35.4848Z" fill="#64CF83"/>
<path opacity="0.15" d="M432.69 35.4848C432.626 35.6407 432.529 35.781 432.406 35.8963C432.283 36.0115 432.136 36.0991 431.976 36.153C431.817 36.2069 431.647 36.2259 431.479 36.2087C431.312 36.1916 431.15 36.1386 431.004 36.0535C430.858 35.9684 430.733 35.853 430.636 35.7152C430.538 35.5775 430.472 35.4204 430.441 35.2547C430.409 35.0891 430.414 34.9186 430.454 34.7548C430.494 34.591 430.569 34.4377 430.673 34.3052C430.737 34.1493 430.834 34.009 430.957 33.8938C431.08 33.7785 431.227 33.691 431.387 33.6371C431.546 33.5832 431.716 33.5642 431.884 33.5813C432.051 33.5985 432.213 33.6514 432.359 33.7365C432.505 33.8216 432.63 33.937 432.727 34.0748C432.825 34.2126 432.891 34.3696 432.923 34.5353C432.954 34.701 432.949 34.8715 432.909 35.0353C432.869 35.1991 432.794 35.3523 432.69 35.4848Z" fill="black"/>
<path opacity="0.15" d="M431.853 33.821C432.242 33.7149 432.584 34.3046 432.242 35.0006C431.9 35.6965 431.44 35.9324 431.062 35.8617C431 35.8465 430.942 35.8192 430.89 35.7812C430.839 35.7433 430.795 35.6955 430.762 35.6406C430.729 35.5858 430.708 35.525 430.698 35.4617C430.689 35.3984 430.693 35.3338 430.708 35.2719C430.708 35.5314 431.015 35.6611 431.345 35.496C431.566 35.3818 431.754 35.2138 431.892 35.0076C432.03 34.8014 432.114 34.5637 432.136 34.3164C432.171 34.0687 432.053 33.8564 431.853 33.821Z" fill="black"/>
<path d="M434.424 50.6774C435.261 50.8544 435.828 51.5031 435.698 52.1283C435.57 52.462 435.318 52.7333 434.995 52.885C434.672 53.0368 434.302 53.0573 433.964 52.9422C433.126 52.7771 432.56 52.1283 432.69 51.5031C432.813 51.1654 433.063 50.8895 433.388 50.735C433.712 50.5805 434.084 50.5598 434.424 50.6774Z" fill="#64CF83"/>
<path opacity="0.15" d="M434.424 50.6774C435.261 50.8544 435.828 51.5031 435.698 52.1283C435.57 52.462 435.318 52.7333 434.995 52.885C434.672 53.0368 434.302 53.0573 433.964 52.9422C433.126 52.7771 432.56 52.1283 432.69 51.5031C432.813 51.1654 433.063 50.8895 433.388 50.735C433.712 50.5805 434.084 50.5598 434.424 50.6774Z" fill="black"/>
<path opacity="0.15" d="M433.103 51.9747C432.879 51.6444 433.339 51.1372 434.117 51.2433C434.896 51.3495 435.297 51.727 435.297 52.0926C435.301 52.1562 435.294 52.22 435.274 52.2806C435.254 52.3411 435.222 52.3971 435.18 52.4453C435.139 52.4935 435.088 52.5331 435.031 52.5616C434.974 52.5902 434.912 52.6072 434.848 52.6116C435.073 52.4819 435.12 52.1988 434.848 51.9275C434.676 51.7604 434.466 51.6369 434.236 51.5671C434.007 51.4974 433.764 51.4834 433.527 51.5264C433.244 51.6326 433.079 51.7859 433.103 51.9747Z" fill="black"/>
<path d="M438.151 36.2982C438.576 36.5243 438.922 36.8748 439.142 37.3028C439.361 37.7309 439.445 38.216 439.382 38.693C439.318 39.17 439.11 39.6161 438.786 39.9715C438.461 40.3269 438.036 40.5746 437.566 40.6813C437.097 40.7881 436.607 40.7487 436.16 40.5686C435.714 40.3885 435.333 40.0762 435.07 39.6737C434.806 39.2711 434.672 38.7976 434.685 38.3165C434.698 37.8355 434.858 37.3699 435.143 36.9824C435.452 36.493 435.942 36.146 436.506 36.0177C437.07 35.8894 437.662 35.9903 438.151 36.2982Z" fill="#64CF83"/>
<path opacity="0.15" d="M438.151 36.2982C438.576 36.5243 438.922 36.8748 439.142 37.3028C439.361 37.7309 439.445 38.216 439.382 38.693C439.318 39.17 439.11 39.6161 438.786 39.9715C438.461 40.3269 438.036 40.5746 437.566 40.6813C437.097 40.7881 436.607 40.7487 436.16 40.5686C435.714 40.3885 435.333 40.0762 435.07 39.6737C434.806 39.2711 434.672 38.7976 434.685 38.3165C434.698 37.8355 434.858 37.3699 435.143 36.9824C435.452 36.493 435.942 36.146 436.506 36.0177C437.07 35.8894 437.662 35.9903 438.151 36.2982Z" fill="black"/>
<path opacity="0.15" d="M435.368 39.0585C435.474 39.2405 435.62 39.3962 435.794 39.5142C435.969 39.6322 436.168 39.7093 436.376 39.7399C436.585 39.7705 436.797 39.7537 436.999 39.6909C437.2 39.6281 437.384 39.5208 437.538 39.377C438.435 38.7282 438.6 37.0179 437.632 36.6758C437.759 37.0281 437.791 37.4076 437.725 37.7761C437.658 38.1446 437.496 38.4893 437.255 38.7754C437.15 38.9184 437.018 39.0393 436.866 39.131C436.714 39.2227 436.546 39.2835 436.37 39.3098C436.195 39.3361 436.016 39.3274 435.844 39.2843C435.672 39.2412 435.51 39.1644 435.368 39.0585Z" fill="black"/>
<path d="M436.346 0.911163C428.986 0.901828 421.789 3.07584 415.664 7.15813C409.54 11.2404 404.764 17.0476 401.941 23.8448C399.118 30.642 398.375 38.1239 399.805 45.3437C401.235 52.5636 404.775 59.1971 409.976 64.4048C415.177 69.6125 421.806 73.1605 429.024 74.5998C436.242 76.0391 443.725 75.3052 450.525 72.4907C457.326 69.6762 463.139 64.9078 467.23 58.7887C471.32 52.6696 473.503 45.4748 473.503 38.1147C473.493 28.2587 469.577 18.8084 462.612 11.8348C455.648 4.86117 446.202 0.933012 436.346 0.911163ZM402.929 38.1147C402.925 30.2022 405.744 22.5479 410.88 16.5286L457.897 63.5343C453.047 67.6654 447.114 70.3204 440.802 71.1852C434.49 72.05 428.062 71.0884 422.279 68.4141C416.496 65.7399 411.6 61.465 408.171 56.0953C404.742 50.7256 402.923 44.4859 402.929 38.1147ZM460.657 60.9039L413.475 13.7212C419.731 7.46444 428.217 3.9494 437.066 3.9494C445.914 3.9494 454.4 7.46444 460.657 13.7212C466.914 19.9781 470.429 28.4641 470.429 37.3126C470.429 46.161 466.914 54.6471 460.657 60.9039Z" fill="#455A64"/>
<path d="M434.294 85.5567L429.576 73.2656H443.129L438.411 85.5567C438.272 85.9943 437.998 86.3764 437.628 86.6476C437.258 86.9188 436.811 87.0651 436.352 87.0651C435.893 87.0651 435.446 86.9188 435.076 86.6476C434.706 86.3764 434.432 85.9943 434.294 85.5567Z" fill="#455A64"/>
<path d="M33.3242 21.672C29.9627 22.302 26.8635 23.9147 24.4185 26.306C21.9735 28.6974 20.2925 31.7601 19.5881 35.1068C18.8836 38.4535 19.1874 41.934 20.461 45.108C21.7346 48.2821 23.9208 51.0072 26.7432 52.9388C29.5655 54.8704 32.8973 55.9217 36.3171 55.9598C39.7369 55.9979 43.0912 55.0211 45.9559 53.1529C48.8206 51.2846 51.067 48.6089 52.411 45.464C53.7549 42.3191 54.1362 38.8463 53.5065 35.4847C52.6592 30.9781 50.0577 26.992 46.2735 24.4022C42.4893 21.8123 37.8319 20.8303 33.3242 21.672Z" fill="#64CF83"/>
<path d="M52.8343 33.5853C52.7462 34.9225 52.9935 36.2606 53.5538 37.4779C53.5538 36.7937 54.4857 36.0742 56.5971 35.567C58.3193 35.1423 59.9943 34.8003 61.1974 34.5644L61.7164 34.47L61.5277 33.4556L61.0087 33.5499C59.8291 33.7741 58.1188 34.0572 56.3612 34.2931C54.1672 34.5526 53.0702 34.2223 52.8343 33.5853Z" fill="#64CF83"/>
<path opacity="0.2" d="M60.891 33.5501C60.8742 33.7227 60.8742 33.8965 60.891 34.0691C60.9146 34.2388 60.9582 34.405 61.0207 34.5645L61.6577 34.4466L61.469 33.4321L60.891 33.5501Z" fill="black"/>
<path d="M61.8815 32.1113C61.9784 32.0878 62.0795 32.0878 62.1764 32.1113H62.259H62.3533H62.4241C62.7915 32.4851 63.0239 32.9707 63.0847 33.4914C63.2065 33.9984 63.1652 34.5309 62.9667 35.013V35.0838L62.8959 35.1663C62.816 35.2264 62.7231 35.2668 62.6246 35.2843C62.5271 35.302 62.4272 35.302 62.3297 35.2843C61.9287 35.2135 61.5158 34.5766 61.3625 33.7509C61.2092 32.9252 61.3625 32.1703 61.7164 31.9697C61.7791 32.0071 61.835 32.055 61.8815 32.1113Z" fill="#64CF83"/>
<path opacity="0.3" d="M62.2473 32.7598C61.976 32.7598 61.8345 33.3142 61.9407 33.9394C62.0468 34.5645 62.3653 34.9302 62.6366 34.883C62.9079 34.8358 62.9197 34.6471 62.9551 34.3522C62.8253 34.6589 62.5304 34.6707 62.3299 34.3522C62.146 33.9881 62.0761 33.5771 62.1294 33.1726C62.1294 32.9367 62.2709 32.7834 62.4597 32.8306C62.4309 32.805 62.3973 32.7855 62.3608 32.7733C62.3243 32.7612 62.2857 32.7565 62.2473 32.7598Z" fill="black"/>
<path d="M53.5656 40.6626C52.9719 41.8751 52.6575 43.2052 52.6455 44.5552C52.9168 43.93 53.2471 43.4582 55.1462 43.7884C56.7032 44.0715 56.8212 44.048 57.8828 44.2839L58.331 44.39L58.5669 43.3992L58.1187 43.293C57.0571 43.0335 56.9391 42.9863 55.4529 42.5263C53.601 41.9129 53.5184 41.335 53.5656 40.6626Z" fill="#64CF83"/>
<path opacity="0.2" d="M57.942 43.187C57.8768 43.3475 57.8255 43.5132 57.7886 43.6824C57.7448 43.8485 57.7172 44.0183 57.7061 44.1896L58.3312 44.3312L58.5671 43.3404L57.942 43.187Z" fill="black"/>
<path d="M59.688 41.9958C59.8296 42.0272 59.9601 42.0965 60.0654 42.1963L60.1362 42.3024C60.1401 42.3298 60.1401 42.3576 60.1362 42.385C60.3331 42.9705 60.3331 43.6043 60.1362 44.1897C60.0271 44.8051 59.7207 45.3682 59.2633 45.794H59.1808C59.1417 45.8003 59.1019 45.8003 59.0628 45.794H58.992C58.8759 45.8234 58.7543 45.8234 58.6382 45.794C58.5255 45.7736 58.42 45.7249 58.3315 45.6524C57.9186 45.3811 57.7771 44.4728 58.013 43.5174C58.2489 42.5619 58.7679 41.807 59.1926 41.748C59.375 41.7901 59.5448 41.875 59.688 41.9958Z" fill="#64CF83"/>
<path opacity="0.3" d="M59.7703 42.8686C59.4519 42.786 59.0626 43.2696 58.9093 43.942C58.7559 44.6143 58.9093 45.2277 59.1924 45.2985C59.4754 45.3692 59.617 45.1805 59.7939 44.8856C59.5108 45.1569 59.1923 45.0154 59.1216 44.5789C59.1049 44.1035 59.2235 43.6331 59.4636 43.2224C59.6288 42.9983 59.8057 42.8804 59.9827 43.0219C59.9596 42.9832 59.9289 42.9497 59.8924 42.9233C59.8558 42.8969 59.8143 42.8783 59.7703 42.8686Z" fill="black"/>
<path d="M51.0888 47.646C50.2474 48.3838 49.5616 49.2821 49.0718 50.2882C49.4846 49.8872 50.3339 49.9579 51.5725 50.7954C51.982 51.0118 52.3761 51.2562 52.752 51.5268L53.0351 51.7391L53.5541 51.0549L53.2828 50.8426C52.9189 50.5656 52.5795 50.2578 52.2684 49.9226C51.1124 48.9435 50.8175 48.0942 51.0888 47.646Z" fill="#64CF83"/>
<path opacity="0.2" d="M53.0938 50.7246C52.9866 50.8222 52.888 50.9287 52.7989 51.0431C52.7045 51.1728 52.6338 51.2908 52.563 51.4088L52.9994 51.739L53.5184 51.0549L53.0938 50.7246Z" fill="black"/>
<path d="M54.5567 50.5237C54.6213 50.5821 54.6769 50.6497 54.7218 50.7243C54.7288 50.7514 54.7288 50.7798 54.7218 50.8068V50.8776C54.6688 51.3123 54.501 51.7249 54.2356 52.0732C53.9703 52.4215 53.6169 52.6928 53.212 52.8593H52.9879C52.9045 52.8463 52.8266 52.8094 52.7637 52.7531C52.6967 52.7018 52.6406 52.6376 52.5986 52.5644C52.4217 52.2813 52.5986 51.6561 53.0114 51.0899C53.4243 50.5238 54.0023 50.2053 54.3326 50.2996C54.4218 50.3582 54.4981 50.4345 54.5567 50.5237Z" fill="#64CF83"/>
<path opacity="0.3" d="M54.3679 51.1141C54.1792 50.9725 53.7781 51.1141 53.4833 51.5741C53.1884 52.0341 53.094 52.388 53.2827 52.5295C53.4715 52.6711 53.5894 52.5295 53.7899 52.4352C53.5304 52.5295 53.3535 52.3526 53.4479 52.0459C53.5691 51.7305 53.7829 51.4591 54.0612 51.2674C54.2382 51.1613 54.3797 51.1377 54.4505 51.2674C54.4424 51.208 54.4131 51.1535 54.3679 51.1141Z" fill="black"/>
<path d="M46.441 52.6592C45.1536 53.0003 43.9678 53.6479 42.9849 54.5465C43.6336 54.3342 44.6009 54.9829 45.7215 56.8112C46.6415 58.2975 47.479 59.7602 48.0806 60.8218L48.3283 61.27L49.2248 60.7746C49.1422 60.633 49.0596 60.4915 48.9771 60.3264C48.4109 59.2647 47.6324 57.7667 46.8774 56.1861C45.9102 54.2516 45.9102 53.0838 46.441 52.6592Z" fill="#64CF83"/>
<path opacity="0.2" d="M48.9063 60.2085C48.7448 60.2694 48.5872 60.3403 48.4345 60.4208C48.2805 60.5013 48.1343 60.5961 47.998 60.7039L48.3165 61.2701L49.213 60.7747L48.9063 60.2085Z" fill="black"/>
<path opacity="0.3" d="M50.4638 61.3876C50.2986 61.0809 49.6499 61.1163 49.0011 61.4702C48.3524 61.824 47.9867 62.343 48.1518 62.6497C48.317 62.9564 48.5411 62.8974 48.8949 62.8267C48.4821 62.8267 48.3641 62.4492 48.659 62.0835C49.0175 61.73 49.4735 61.4918 49.9684 61.3994C50.2632 61.3994 50.4638 61.3994 50.4874 61.6589C50.5022 61.6145 50.5078 61.5675 50.5037 61.5208C50.4997 61.4741 50.4861 61.4288 50.4638 61.3876Z" fill="black"/>
<path d="M39.8003 55.5251C38.5463 55.4582 37.289 55.5574 36.061 55.82C36.698 55.82 37.2406 56.3272 37.4529 57.436C37.6063 58.3325 37.7124 59.2054 37.7714 59.7951C37.7766 59.8855 37.7766 59.9761 37.7714 60.0664L38.7386 59.9839C38.7386 59.9013 38.7386 59.8187 38.7386 59.7244C38.7386 59.0874 38.6561 58.2145 38.6679 57.2945C38.7033 56.2211 39.1633 55.6313 39.8003 55.5251Z" fill="#64CF83"/>
<path opacity="0.2" d="M38.7388 59.6068C38.5739 59.5953 38.4083 59.5953 38.2434 59.6068H37.7598C37.7598 59.7641 37.7598 59.9056 37.7598 60.0315L38.727 59.9489C38.7624 59.8899 38.7506 59.7484 38.7388 59.6068Z" fill="black"/>
<path d="M39.9418 60.5741C39.9653 60.663 39.9653 60.7565 39.9418 60.8454C39.9479 60.8726 39.9479 60.9008 39.9418 60.928C39.5731 61.2142 39.1227 61.3753 38.6561 61.388C38.193 61.4475 37.7229 61.3609 37.3114 61.1403H37.2524V61.0695C37.2109 60.9923 37.183 60.9085 37.1698 60.8218C37.1576 60.7357 37.1576 60.6484 37.1698 60.5623C37.276 60.2084 37.8776 59.9017 38.6325 59.8428C39.3874 59.7838 40.0244 59.9843 40.1777 60.3146C40.1239 60.4208 40.0424 60.5104 39.9418 60.5741Z" fill="#64CF83"/>
<path opacity="0.3" d="M39.3519 60.8454C39.3519 60.5977 38.8919 60.4325 38.3729 60.4797C37.8539 60.5269 37.4528 60.751 37.4646 60.9987C37.4764 61.2465 37.6533 61.27 37.9011 61.329C37.6415 61.1993 37.6651 60.928 37.9718 60.7864C38.3074 60.6623 38.6708 60.6338 39.0216 60.7039C39.2222 60.7746 39.3401 60.869 39.2811 61.0341C39.3245 60.9805 39.3494 60.9143 39.3519 60.8454Z" fill="black"/>
<path d="M32.7346 55.4192C31.6199 54.6893 30.345 54.2401 29.019 54.1099C29.6088 54.4401 29.7739 55.5961 29.1723 57.6486C28.6887 59.3235 28.1579 60.916 27.7687 62.0483C27.7097 62.2253 27.6507 62.3786 27.6035 62.532L28.5708 62.874C28.5708 62.7207 28.6769 62.5556 28.7359 62.3904C29.1487 61.2109 29.7385 59.6892 30.3991 58.085C31.213 56.1033 32.0623 55.3012 32.7346 55.4192Z" fill="#64CF83"/>
<path opacity="0.2" d="M28.7831 62.2488C28.6312 62.1666 28.4735 62.0957 28.3113 62.0365C28.1492 61.9822 27.9837 61.9389 27.8158 61.9067C27.7451 62.1309 27.6743 62.3314 27.6035 62.5201L28.5708 62.8622C28.6297 62.6617 28.7005 62.4611 28.7831 62.2488Z" fill="black"/>
<path opacity="0.3" d="M29.0191 64.372C29.1489 64.0063 28.6416 63.5109 27.8395 63.1924C27.0374 62.8739 26.3887 63.0037 26.2589 63.3693C26.1292 63.735 26.3415 63.8648 26.66 64.1007C26.3887 63.7468 26.5774 63.3929 27.0846 63.3693C27.6322 63.398 28.1584 63.5912 28.5945 63.9237C28.8422 64.1479 28.9483 64.3602 28.7714 64.5371C28.8222 64.5292 28.8707 64.5104 28.9135 64.4819C28.9562 64.4533 28.9923 64.4158 29.0191 64.372Z" fill="black"/>
<path d="M26.3293 52.4585C25.4888 51.357 24.4773 50.3973 23.3332 49.6157C23.7814 50.1583 23.6871 51.0784 22.7434 52.2461C21.9767 53.1898 21.1982 54.0745 20.6202 54.6996L20.3843 54.9592L21.1628 55.7023C21.2391 55.61 21.3219 55.5233 21.4105 55.4428C22.0003 54.8294 22.826 54.0037 23.7696 53.178C24.8548 52.1754 25.7631 52.0338 26.3293 52.4585Z" fill="#64CF83"/>
<path opacity="0.2" d="M21.5049 55.3364C21.3869 55.2066 21.2689 55.0769 21.1274 54.9471C20.9983 54.8196 20.8603 54.7014 20.7146 54.5933L20.3843 54.9589L21.1628 55.702L21.5049 55.3364Z" fill="black"/>
<path opacity="0.3" d="M20.8563 56.8232C21.045 56.6108 20.8563 56.1272 20.4316 55.7262C20.007 55.3251 19.5116 55.16 19.3228 55.3723C19.1341 55.5846 19.2285 55.7262 19.3228 55.9857C19.2403 55.6672 19.488 55.4785 19.83 55.62C20.1849 55.8048 20.4796 56.0872 20.6793 56.4339C20.7737 56.658 20.7855 56.835 20.6086 56.9057C20.6988 56.912 20.7879 56.8824 20.8563 56.8232Z" fill="black"/>
<path d="M21.3047 46.6197C20.9679 45.6689 20.574 44.7393 20.1251 43.8359C20.2666 44.2252 20.2902 44.815 19.9599 45.0155C19.7074 45.2064 19.4344 45.3686 19.146 45.4991H19.0635L19.2994 46.0889H19.3938C19.6864 45.9824 19.9918 45.915 20.302 45.8884C20.5247 45.8897 20.7414 45.961 20.9213 46.0923C21.1013 46.2235 21.2354 46.408 21.3047 46.6197Z" fill="#64CF83"/>
<path opacity="0.2" d="M19.5469 46.0891L19.4408 45.7352C19.3984 45.6386 19.3511 45.5441 19.2992 45.4521L19.0869 45.5347L19.3228 46.1245L19.5469 46.0891Z" fill="black"/>
<path d="M19.0754 47.3981C18.9977 47.4147 18.9173 47.4147 18.8395 47.3981H18.7805H18.7098H18.6508C18.3291 47.1565 18.0775 46.8335 17.922 46.4624C17.7665 46.0913 17.7127 45.6855 17.7661 45.2867V45.2159C17.816 45.1535 17.881 45.1048 17.9549 45.0744C18.0252 45.0631 18.0969 45.0631 18.1672 45.0744C18.4857 45.0744 18.8985 45.4754 19.158 46.077C19.4175 46.6786 19.4057 47.2565 19.158 47.4807C19.1265 47.4575 19.0987 47.4296 19.0754 47.3981Z" fill="#64CF83"/>
<path opacity="0.3" d="M18.6979 46.9733C18.8867 46.8907 18.9103 46.4897 18.6979 46.0768C18.4856 45.664 18.2261 45.3927 18.0256 45.4753C17.8251 45.5578 17.8487 45.6994 17.8722 45.9235C17.8722 45.6758 18.1435 45.6168 18.3441 45.8291C18.5367 46.0694 18.6555 46.3603 18.6861 46.6666C18.6861 46.8553 18.6861 46.9851 18.4856 46.9733C18.5182 46.9909 18.5547 47 18.5918 47C18.6288 47 18.6653 46.9909 18.6979 46.9733Z" fill="black"/>
<path d="M19.3584 39.8958C19.6902 38.6088 19.7465 37.2663 19.5235 35.9561C19.3937 36.6166 19.1578 37.1356 17.2705 37.1356C15.7371 37.1356 15.6309 37.2182 14.5693 37.1356H14.1211V38.1618H14.5693C15.6309 38.1618 15.7489 38.2444 17.2705 38.3978C19.0871 38.6573 19.2758 39.2235 19.3584 39.8958Z" fill="#64CF83"/>
<path opacity="0.2" d="M14.7225 38.245C14.7225 38.0798 14.7225 37.9147 14.7225 37.7378C14.7346 37.565 14.7346 37.3915 14.7225 37.2188H14.0737V38.245H14.7225Z" fill="black"/>
<path d="M13.2364 39.7426C13.1162 39.7408 12.9985 39.7083 12.8943 39.6483H12.8235L12.7292 39.5657L12.6702 39.4949C12.3716 38.9469 12.2282 38.3278 12.2552 37.7043C12.2822 37.0808 12.4787 36.4764 12.8235 35.9562L12.8943 35.8855C12.9174 35.8524 12.9505 35.8276 12.9887 35.8147H13.0595C13.1716 35.7857 13.2893 35.7857 13.4015 35.8147C13.5202 35.8169 13.637 35.8451 13.7436 35.8973C14.1918 36.086 14.4985 36.9353 14.4513 37.9379C14.4042 38.9405 14.0267 39.7545 13.5667 39.896C13.4447 39.8757 13.3306 39.8227 13.2364 39.7426Z" fill="#64CF83"/>
<path opacity="0.3" d="M12.9885 38.9051C13.3188 38.9051 13.6019 38.3743 13.6373 37.7256C13.6727 37.0768 13.425 36.4634 13.0947 36.4516C12.7644 36.4398 12.7054 36.6522 12.5757 36.9707C12.7998 36.6522 13.1537 36.7347 13.2952 37.1476C13.406 37.6087 13.3814 38.092 13.2244 38.5395C13.0947 38.799 12.9531 38.9405 12.7526 38.8344C12.7845 38.8625 12.8221 38.8833 12.8628 38.8956C12.9036 38.9078 12.9464 38.911 12.9885 38.9051Z" fill="black"/>
<path d="M20.5497 32.5476C21.2307 31.6566 21.7352 30.6437 22.0359 29.5633C21.7056 30.0351 20.8563 30.1295 19.5234 29.5633C19.0963 29.4257 18.6786 29.2602 18.2731 29.0679L17.9546 28.9146L17.5771 29.6813L17.8838 29.8464C18.2981 30.0407 18.693 30.2738 19.0634 30.5424C20.2901 31.2737 20.7266 31.9932 20.5497 32.5476Z" fill="#64CF83"/>
<path opacity="0.2" d="M18.0608 29.929C18.2276 29.6897 18.3587 29.4275 18.45 29.1505L17.9546 28.9146L17.5771 29.6813L18.0608 29.929Z" fill="black"/>
<path d="M16.657 30.4005C16.5816 30.3617 16.5167 30.305 16.4683 30.2353C16.4622 30.2082 16.4622 30.18 16.4683 30.1528C16.4683 30.1528 16.4683 30.1528 16.4683 30.082C16.4143 29.6418 16.501 29.1959 16.716 28.8081C16.896 28.4043 17.1968 28.0663 17.5771 27.8408H17.6478H17.8484C17.9348 27.8479 18.019 27.872 18.0961 27.9116C18.1713 27.9453 18.2364 27.9982 18.2848 28.0649C18.5207 28.3126 18.4735 28.9496 18.1551 29.5866C17.8366 30.2235 17.3648 30.6482 16.9755 30.6128C16.8497 30.5771 16.7384 30.5028 16.657 30.4005Z" fill="#64CF83"/>
<path opacity="0.3" d="M16.7396 29.7869C16.9401 29.8813 17.294 29.61 17.5181 29.1736C17.7422 28.7371 17.7422 28.2889 17.5181 28.1827C17.294 28.0766 17.2114 28.1827 17.0345 28.3715C17.2704 28.2299 17.4827 28.3715 17.4474 28.7017C17.3866 29.0338 17.2309 29.3411 16.9991 29.5864C16.8458 29.7162 16.7042 29.7634 16.6099 29.5864C16.6139 29.6278 16.6277 29.6676 16.6503 29.7025C16.6729 29.7374 16.7035 29.7664 16.7396 29.7869Z" fill="black"/>
<path d="M24.1827 26.7204C25.3763 26.1376 26.415 25.2807 27.2142 24.2197C26.6244 24.55 25.551 24.09 24.1119 22.533C22.9324 21.2472 21.859 19.9851 21.0805 19.065L20.762 18.6758L19.9717 19.3245L20.2902 19.7138C21.0451 20.6457 22.0831 21.955 23.1093 23.3587C24.3715 25.069 24.6781 26.2014 24.1827 26.7204Z" fill="#64CF83"/>
<path opacity="0.2" d="M20.3727 19.7843C20.5223 19.6981 20.6644 19.5995 20.7974 19.4894C20.9389 19.3715 21.0569 19.2535 21.1748 19.1356L20.762 18.6401L19.9717 19.2889L20.3727 19.7843Z" fill="black"/>
<path d="M18.155 19.7846C18.0758 19.6866 18.0157 19.5746 17.978 19.4543C17.978 19.4543 17.978 19.4543 17.978 19.3718V19.1359C17.978 19.1359 17.978 19.0769 17.978 19.0415C18.1625 18.3998 18.5467 17.8337 19.075 17.4255C19.5596 16.9873 20.171 16.7147 20.8208 16.647H20.9859H21.1157H21.1864C21.3005 16.6979 21.4014 16.7744 21.4811 16.8705C21.5609 16.9666 21.6175 17.0799 21.6465 17.2014C21.8234 17.685 21.3752 18.5107 20.5613 19.183C19.7474 19.8554 18.8391 20.1385 18.4027 19.879C18.3164 19.8582 18.2332 19.8265 18.155 19.7846Z" fill="#64CF83"/>
<path opacity="0.3" d="M18.6272 18.9587C18.8395 19.23 19.4764 19.0648 20.0426 18.6048C20.6088 18.1448 20.8801 17.555 20.656 17.2837C20.4319 17.0124 20.2314 17.1186 19.8893 17.2837C20.3021 17.2837 20.4791 17.555 20.255 17.9678C19.9643 18.3872 19.5529 18.7081 19.0754 18.8879C18.7923 18.9705 18.58 18.9587 18.521 18.7346C18.5259 18.8202 18.564 18.9006 18.6272 18.9587Z" fill="black"/>
<path d="M30.1987 22.6624C31.4397 22.4833 32.6526 22.1463 33.8082 21.6598C33.1712 21.7659 32.5343 21.3885 32.145 20.3504C31.8147 19.5129 31.5552 18.6873 31.3783 18.0857L31.3075 17.8262L30.3639 18.0857L30.4346 18.3452C30.5998 18.9468 30.8003 19.796 30.9537 20.7043C31.1424 21.7777 30.7885 22.4265 30.1987 22.6624Z" fill="#64CF83"/>
<path opacity="0.2" d="M30.4817 18.4867L30.9536 18.3806C31.1113 18.3437 31.2653 18.2924 31.4136 18.2272L31.3074 17.8262L30.3638 18.0857C30.3992 18.2154 30.4345 18.3452 30.4817 18.4867Z" fill="black"/>
<path d="M29.1017 17.7674C29.0842 17.6778 29.0842 17.5857 29.1017 17.4961C29.1017 17.4961 29.1017 17.4961 29.1017 17.4371C29.0966 17.4099 29.0966 17.3819 29.1017 17.3546V17.2956C29.4084 16.9411 29.8226 16.6966 30.2813 16.5997C30.7262 16.457 31.2046 16.457 31.6496 16.5997H31.7203C31.7476 16.5942 31.7756 16.5942 31.8029 16.5997C31.856 16.6706 31.8959 16.7505 31.9209 16.8356C31.9383 16.9212 31.9383 17.0095 31.9209 17.0951C31.9209 17.4607 31.3547 17.8736 30.6233 18.0741C30.3616 18.1865 30.0752 18.2293 29.7921 18.1983C29.5089 18.1673 29.2386 18.0635 29.0073 17.8972C29.0335 17.8503 29.0652 17.8068 29.1017 17.7674Z" fill="#64CF83"/>
<path opacity="0.3" d="M29.6442 17.4253C29.7032 17.6612 30.1632 17.7438 30.6704 17.6023C31.1777 17.4607 31.5197 17.154 31.4608 16.9181C31.4018 16.6822 31.2248 16.6822 30.9653 16.6704C31.2484 16.7648 31.272 17.0243 30.9653 17.2248C30.6627 17.4165 30.3088 17.5112 29.9509 17.4961C29.7386 17.4961 29.597 17.4017 29.6206 17.2248C29.6103 17.258 29.607 17.293 29.6111 17.3276C29.6151 17.3621 29.6264 17.3954 29.6442 17.4253Z" fill="black"/>
<path d="M37.2524 21.5067C38.4686 22.1202 39.8447 22.3426 41.1922 22.1437C40.5552 21.896 40.2249 20.5159 40.508 17.8383C40.5788 17.2013 40.5906 15.7386 40.8147 14.2288C40.8147 13.9929 40.8147 13.7806 40.9091 13.58L39.8947 13.4385C39.8947 13.6272 39.8947 13.8395 39.8003 14.0754C39.5644 15.5853 39.3049 17.2013 39.2223 17.6141C38.6679 20.2328 37.9366 21.4477 37.2524 21.5067Z" fill="#64CF83"/>
<path opacity="0.2" d="M39.7529 14.0162C39.9148 14.0652 40.0806 14.1007 40.2483 14.1223C40.4209 14.1393 40.5948 14.1393 40.7674 14.1223C40.7674 13.8864 40.7674 13.6741 40.8617 13.4736L39.8473 13.332C39.8119 13.5679 39.7883 13.7803 39.7529 14.0162Z" fill="black"/>
<path d="M38.1255 12.1645C38.1496 12.0293 38.2018 11.9007 38.2788 11.787V11.7162L38.385 11.6219H38.4794C39.1263 11.3167 39.8548 11.2298 40.5554 11.3742C41.2638 11.4483 41.9316 11.741 42.4663 12.2117L42.5371 12.306C42.5421 12.3254 42.5421 12.3457 42.5371 12.365L42.6078 12.483C42.6131 12.5142 42.6131 12.5461 42.6078 12.5773C42.6381 12.7093 42.6381 12.8464 42.6078 12.9784C42.5858 13.1122 42.5377 13.2405 42.4663 13.3558C42.195 13.8395 41.1924 14.0872 40.0482 13.922C38.904 13.7569 38.0193 13.2143 37.9014 12.6717C37.9439 12.4902 38.0199 12.3181 38.1255 12.1645Z" fill="#64CF83"/>
<path opacity="0.3" d="M39.1162 11.9758C39.1162 12.3533 39.647 12.7543 40.4373 12.8723C41.2276 12.9902 41.9118 12.7779 41.959 12.4005C42.0062 12.023 41.782 11.9286 41.4282 11.7517C41.7702 12.0466 41.6405 12.4358 41.1451 12.5538C40.6003 12.6229 40.0473 12.5328 39.5527 12.2943C39.2814 12.1292 39.128 11.9404 39.2813 11.7163C39.1958 11.7791 39.1369 11.8717 39.1162 11.9758Z" fill="black"/>
<path d="M43.9053 23.2051C44.9161 24.1845 46.1218 24.9401 47.444 25.4227C46.9132 24.9509 46.9485 23.8539 47.8922 22.1435C48.6589 20.7634 48.5999 20.9639 49.1897 19.9731C49.2684 19.8316 49.3509 19.7018 49.4374 19.5838L48.5292 19.0059L48.2815 19.3951C47.6799 20.3152 47.6799 20.1264 46.748 21.4122C45.5331 22.9928 44.554 23.4882 43.9053 23.2051Z" fill="#64CF83"/>
<path opacity="0.2" d="M48.2695 19.4187C48.5465 19.6492 48.8517 19.8435 49.1778 19.9967L49.4373 19.5838L48.529 19.0059L48.2695 19.4187Z" fill="black"/>
<path opacity="0.3" d="M48.5642 17.85C48.4109 18.0859 48.694 18.5223 49.1776 18.8408C49.6612 19.1593 50.192 19.2183 50.3572 18.9823C50.5223 18.7464 50.3572 18.6167 50.192 18.3926C50.3336 18.6875 50.1331 18.9116 49.7674 18.8408C49.3806 18.7266 49.0359 18.501 48.7766 18.192C48.635 17.9915 48.5996 17.8264 48.7766 17.7202C48.7339 17.7251 48.6927 17.7392 48.6561 17.7616C48.6194 17.784 48.588 17.8142 48.5642 17.85Z" fill="black"/>
<path d="M50.0391 27.9473C50.5476 28.8169 51.1069 29.6558 51.714 30.4597C51.5996 30.2867 51.5327 30.0866 51.5203 29.8795C51.5079 29.6724 51.5503 29.4657 51.6433 29.2802C51.8523 29.0476 52.0856 28.838 52.3392 28.655H52.4218L52.0797 28.0416H51.9853C51.7223 28.2056 51.4359 28.3289 51.1361 28.4073C50.9282 28.4473 50.7132 28.425 50.518 28.3431C50.3228 28.2613 50.1562 28.1236 50.0391 27.9473Z" fill="#64CF83"/>
<path opacity="0.2" d="M51.8789 28.1359C51.8789 28.2302 51.9851 28.3128 52.044 28.4072C52.0973 28.5003 52.1606 28.5873 52.2328 28.6667L52.4215 28.5369L52.0794 28.0415L51.8789 28.1359Z" fill="black"/>
<path d="M52.0913 26.7554C52.1553 26.7129 52.2277 26.6847 52.3036 26.6729H52.5631C52.9345 26.8346 53.2474 27.1063 53.4596 27.4514C53.7025 27.7963 53.8305 28.2091 53.8253 28.6309V28.7135C53.7943 28.7843 53.7402 28.8425 53.6719 28.8786C53.6079 28.9212 53.5355 28.9494 53.4596 28.9612C53.1529 29.032 52.6693 28.7135 52.28 28.1591C51.8908 27.6047 51.8082 27.0385 51.9969 26.7908C52.0275 26.7767 52.059 26.7648 52.0913 26.7554Z" fill="#64CF83"/>
<path opacity="0.3" d="M52.5513 27.0976C52.3626 27.2156 52.4215 27.6166 52.6693 27.9941C52.917 28.3715 53.2708 28.5839 53.4478 28.4659C53.6247 28.348 53.5775 28.2064 53.5185 27.9941C53.5185 28.2418 53.3062 28.3362 53.0703 28.171C52.8339 27.9693 52.6617 27.7027 52.5749 27.4043C52.5749 27.2274 52.5749 27.0976 52.7164 27.074C52.6603 27.0615 52.6016 27.0699 52.5513 27.0976Z" fill="black"/>
<path opacity="0.1" d="M27.7806 23.7363C23.428 26.4375 17.1646 37.8911 24.584 48.1179C32.0035 58.3448 44.8608 54.0158 48.3287 51.291C46.5517 52.9517 44.4443 54.2189 42.1442 55.0098C39.8441 55.8006 37.4031 56.0974 34.9805 55.8806C32.558 55.6639 30.2084 54.9386 28.0852 53.752C25.962 52.5654 24.1131 50.9443 22.6591 48.9945C21.2051 47.0447 20.1787 44.8101 19.6471 42.4366C19.1155 40.0632 19.0906 37.6043 19.5739 35.2206C20.0573 32.8368 21.038 30.5819 22.4522 28.603C23.8663 26.6241 25.682 24.9658 27.7806 23.7363Z" fill="black"/>
<path d="M32.2393 48.094C31.8212 47.7362 31.2811 47.5536 30.7317 47.5844C30.1822 47.6152 29.6659 47.8569 29.2904 48.2592C29.1264 48.7663 29.132 49.313 29.3064 49.8167C29.4808 50.3203 29.8144 50.7535 30.2569 51.0506C30.6993 51.3478 31.2265 51.4929 31.7587 51.4638C32.2908 51.4347 32.7991 51.2332 33.2065 50.8896C33.4345 50.3885 33.4613 49.8189 33.2813 49.2986C33.1012 48.7783 32.7282 48.3471 32.2393 48.094Z" fill="#64CF83"/>
<path opacity="0.15" d="M32.2393 48.094C31.8212 47.7362 31.2811 47.5536 30.7317 47.5844C30.1822 47.6152 29.6659 47.8569 29.2904 48.2592C29.1264 48.7663 29.132 49.313 29.3064 49.8167C29.4808 50.3203 29.8144 50.7535 30.2569 51.0506C30.6993 51.3478 31.2265 51.4929 31.7587 51.4638C32.2908 51.4347 32.7991 51.2332 33.2065 50.8896C33.4345 50.3885 33.4613 49.8189 33.2813 49.2986C33.1012 48.7783 32.7282 48.3471 32.2393 48.094Z" fill="black"/>
<path opacity="0.15" d="M32.2276 50.9608C32.8409 50.8428 32.8999 49.7812 31.9445 49.0616C31.6569 48.7934 31.298 48.614 30.9108 48.5449C30.5237 48.4758 30.1248 48.5201 29.7623 48.6724C29.6855 48.734 29.622 48.8105 29.5755 48.8972C29.529 48.984 29.5005 49.0792 29.4917 49.1772C29.4829 49.2752 29.494 49.374 29.5242 49.4677C29.5545 49.5613 29.6034 49.6479 29.6679 49.7222C29.5735 49.3329 29.8213 48.9909 30.3992 48.9791C30.768 48.9873 31.1292 49.085 31.4518 49.2638C31.7744 49.4426 32.0487 49.697 32.2512 50.0053C32.3673 50.1387 32.4294 50.3108 32.425 50.4876C32.4206 50.6645 32.3502 50.8333 32.2276 50.9608Z" fill="black"/>
<path d="M37.5357 27.9706C37.8828 27.9838 38.2266 27.8991 38.5279 27.7262C38.8291 27.5533 39.0757 27.2991 39.2394 26.9928C39.4031 26.6864 39.4774 26.3402 39.4537 25.9936C39.43 25.6471 39.3093 25.3142 39.1054 25.033C38.9015 24.7517 38.6226 24.5335 38.3006 24.4033C37.9786 24.273 37.6265 24.2359 37.2844 24.2962C36.9423 24.3565 36.6241 24.5119 36.3661 24.7444C36.1081 24.977 35.9207 25.2774 35.8253 25.6114C35.5304 26.4961 36.2972 27.5695 37.5357 27.9706Z" fill="#64CF83"/>
<path opacity="0.15" d="M37.5357 27.9706C37.8828 27.9838 38.2266 27.8991 38.5279 27.7262C38.8291 27.5533 39.0757 27.2991 39.2394 26.9928C39.4031 26.6864 39.4774 26.3402 39.4537 25.9936C39.43 25.6471 39.3093 25.3142 39.1054 25.033C38.9015 24.7517 38.6226 24.5335 38.3006 24.4033C37.9786 24.273 37.6265 24.2359 37.2844 24.2962C36.9423 24.3565 36.6241 24.5119 36.3661 24.7444C36.1081 24.977 35.9207 25.2774 35.8253 25.6114C35.5304 26.4961 36.2972 27.5695 37.5357 27.9706Z" fill="black"/>
<path opacity="0.15" d="M36.7451 25.2339C36.1907 25.517 36.4148 26.5314 37.5472 26.9796C37.8992 27.1571 38.2952 27.2282 38.687 27.1842C39.0787 27.1402 39.4491 26.983 39.753 26.7319C39.8082 26.6517 39.8469 26.5613 39.8668 26.4659C39.8866 26.3706 39.8872 26.2722 39.8686 26.1766C39.8499 26.081 39.8123 25.9901 39.758 25.9093C39.7037 25.8284 39.6338 25.7592 39.5524 25.7057C39.753 26.0478 39.5524 26.4488 39.057 26.614C38.6996 26.711 38.3239 26.7199 37.9623 26.6397C37.6007 26.5596 37.264 26.3929 36.981 26.1539C36.6389 25.8473 36.5681 25.4698 36.7451 25.2339Z" fill="black"/>
<path d="M41.1094 41.5828C40.9952 41.8473 40.9567 42.1382 40.9981 42.4233C41.0394 42.7084 41.1591 42.9764 41.3437 43.1976C41.5283 43.4187 41.7706 43.5843 42.0438 43.6759C42.3169 43.7676 42.6101 43.7816 42.8907 43.7166C43.1713 43.6515 43.4284 43.5098 43.6333 43.3074C43.8382 43.1049 43.983 42.8495 44.0514 42.5697C44.1198 42.2899 44.1093 41.9966 44.021 41.7224C43.9327 41.4482 43.77 41.2038 43.5511 41.0166C43.1516 40.7702 42.671 40.6915 42.2138 40.7975C41.7566 40.9035 41.3597 41.1857 41.1094 41.5828Z" fill="#64CF83"/>
<path opacity="0.15" d="M41.1094 41.5828C40.9952 41.8473 40.9567 42.1382 40.9981 42.4233C41.0394 42.7084 41.1591 42.9764 41.3437 43.1976C41.5283 43.4187 41.7706 43.5843 42.0438 43.6759C42.3169 43.7676 42.6101 43.7816 42.8907 43.7166C43.1713 43.6515 43.4284 43.5098 43.6333 43.3074C43.8382 43.1049 43.983 42.8495 44.0514 42.5697C44.1198 42.2899 44.1093 41.9966 44.021 41.7224C43.9327 41.4482 43.77 41.2038 43.5511 41.0166C43.1516 40.7702 42.671 40.6915 42.2138 40.7975C41.7566 40.9035 41.3597 41.1857 41.1094 41.5828Z" fill="black"/>
<path opacity="0.15" d="M43.4804 41.8776C43.4804 41.3586 42.584 41.1935 41.8762 41.8776C41.6209 42.0885 41.4334 42.3698 41.3369 42.6865C41.2404 43.0033 41.2393 43.3414 41.3336 43.6587C41.3768 43.7287 41.4337 43.7893 41.5008 43.8368C41.5679 43.8844 41.6438 43.918 41.7242 43.9356C41.8045 43.9532 41.8875 43.9545 41.9684 43.9393C42.0492 43.9242 42.1262 43.893 42.1947 43.8475C41.8526 43.8475 41.5931 43.6352 41.6521 43.1633C41.6931 42.855 41.8091 42.5614 41.9901 42.3084C42.1711 42.0554 42.4115 41.8508 42.6901 41.7125C43.044 41.5945 43.3625 41.6653 43.4804 41.8776Z" fill="black"/>
<path d="M31.6375 39.0115C31.5786 37.7021 30.7411 36.6523 29.762 36.7231C29.2251 36.8372 28.7523 37.1527 28.4408 37.6046C28.1293 38.0565 28.0027 38.6106 28.087 39.153C28.087 40.4623 28.9835 41.5121 29.9626 41.4414C30.5009 41.3299 30.9755 41.0151 31.2875 40.5624C31.5995 40.1098 31.7249 39.5542 31.6375 39.0115Z" fill="#64CF83"/>
<path opacity="0.15" d="M31.6375 39.0115C31.5786 37.7021 30.7411 36.6523 29.762 36.7231C29.2251 36.8372 28.7523 37.1527 28.4408 37.6046C28.1293 38.0565 28.0027 38.6106 28.087 39.153C28.087 40.4623 28.9835 41.5121 29.9626 41.4414C30.5009 41.3299 30.9755 41.0151 31.2875 40.5624C31.5995 40.1098 31.7249 39.5542 31.6375 39.0115Z" fill="black"/>
<path opacity="0.15" d="M29.3965 40.6864C29.8565 41.1111 30.7294 40.5449 30.7648 39.3417C30.7648 38.3863 30.3165 37.5016 29.7739 37.3482C29.6794 37.3237 29.5809 37.3183 29.4842 37.3324C29.3876 37.3465 29.2948 37.3798 29.2112 37.4304C29.1276 37.481 29.055 37.5478 28.9977 37.6268C28.9404 37.7059 28.8995 37.7957 28.8774 37.8908C29.1369 37.5842 29.5616 37.5842 29.9037 38.0442C30.1194 38.3441 30.258 38.6925 30.3074 39.0586C30.3568 39.4248 30.3153 39.7975 30.1868 40.1438C29.9508 40.5685 29.6324 40.769 29.3965 40.6864Z" fill="black"/>
<path d="M44.6013 46.089C44.4738 46.4087 44.4381 46.7577 44.498 47.0967C44.5579 47.4356 44.7111 47.7512 44.9403 48.008C45.1696 48.2647 45.4659 48.4525 45.796 48.5502C46.1261 48.6479 46.4768 48.6517 46.8089 48.5611C47.141 48.4705 47.4413 48.2892 47.676 48.0374C47.9108 47.7857 48.0708 47.4735 48.138 47.1359C48.2051 46.7983 48.1769 46.4486 48.0564 46.1262C47.9359 45.8037 47.7279 45.5213 47.4558 45.3104C46.9716 45.0464 46.4039 44.9799 45.8718 45.125C45.3397 45.2702 44.8844 45.6156 44.6013 46.089Z" fill="#64CF83"/>
<path opacity="0.15" d="M44.6013 46.089C44.4738 46.4087 44.4381 46.7577 44.498 47.0967C44.5579 47.4356 44.7111 47.7512 44.9403 48.008C45.1696 48.2647 45.4659 48.4525 45.796 48.5502C46.1261 48.6479 46.4768 48.6517 46.8089 48.5611C47.141 48.4705 47.4413 48.2892 47.676 48.0374C47.9108 47.7857 48.0708 47.4735 48.138 47.1359C48.2051 46.7983 48.1769 46.4486 48.0564 46.1262C47.9359 45.8037 47.7279 45.5213 47.4558 45.3104C46.9716 45.0464 46.4039 44.9799 45.8718 45.125C45.3397 45.2702 44.8844 45.6156 44.6013 46.089Z" fill="black"/>
<path opacity="0.15" d="M47.4436 46.2776C47.3728 45.6643 46.3348 45.5345 45.5327 46.431C45.2425 46.6992 45.0375 47.0468 44.9431 47.4306C44.8487 47.8143 44.8692 48.2173 45.0019 48.5896C45.0592 48.6686 45.1315 48.7356 45.2147 48.7866C45.2979 48.8377 45.3903 48.8718 45.4867 48.8872C45.5831 48.9025 45.6816 48.8987 45.7765 48.876C45.8714 48.8533 45.9609 48.8121 46.0399 48.7547C45.6389 48.8255 45.3204 48.5542 45.344 47.9762C45.3799 47.6055 45.5062 47.2492 45.7119 46.9387C45.9175 46.6282 46.1962 46.3728 46.5235 46.1951C46.901 45.9828 47.2785 46.0299 47.4436 46.2776Z" fill="black"/>
<path d="M35.424 33.3258C35.6651 33.2558 35.8868 33.131 36.0716 32.961C36.2565 32.7911 36.3996 32.5808 36.4896 32.3464C36.5797 32.112 36.6143 31.8599 36.5907 31.6099C36.5672 31.36 36.4861 31.1188 36.3539 30.9054C36.2217 30.6919 36.0418 30.5119 35.8285 30.3795C35.6152 30.2471 35.3741 30.1658 35.1241 30.1421C34.8742 30.1183 34.6221 30.1527 34.3876 30.2426C34.1531 30.3324 33.9426 30.4753 33.7726 30.66C33.5314 30.73 33.3098 30.8549 33.1249 31.0248C32.94 31.1947 32.797 31.4051 32.7069 31.6395C32.6169 31.8738 32.5823 32.1259 32.6058 32.3759C32.6293 32.6259 32.7104 32.867 32.8426 33.0805C32.9749 33.2939 33.1547 33.4739 33.368 33.6063C33.5814 33.7387 33.8224 33.82 34.0724 33.8437C34.3224 33.8675 34.5744 33.8331 34.8089 33.7433C35.0434 33.6534 35.2539 33.5105 35.424 33.3258Z" fill="#64CF83"/>
<path opacity="0.15" d="M35.424 33.3258C35.6651 33.2558 35.8868 33.131 36.0716 32.961C36.2565 32.7911 36.3996 32.5808 36.4896 32.3464C36.5797 32.112 36.6143 31.8599 36.5907 31.6099C36.5672 31.36 36.4861 31.1188 36.3539 30.9054C36.2217 30.6919 36.0418 30.5119 35.8285 30.3795C35.6152 30.2471 35.3741 30.1658 35.1241 30.1421C34.8742 30.1183 34.6221 30.1527 34.3876 30.2426C34.1531 30.3324 33.9426 30.4753 33.7726 30.66C33.5314 30.73 33.3098 30.8549 33.1249 31.0248C32.94 31.1947 32.797 31.4051 32.7069 31.6395C32.6169 31.8738 32.5823 32.1259 32.6058 32.3759C32.6293 32.6259 32.7104 32.867 32.8426 33.0805C32.9749 33.2939 33.1547 33.4739 33.368 33.6063C33.5814 33.7387 33.8224 33.82 34.0724 33.8437C34.3224 33.8675 34.5744 33.8331 34.8089 33.7433C35.0434 33.6534 35.2539 33.5105 35.424 33.3258Z" fill="black"/>
<path opacity="0.15" d="M33.1357 32.2879C33.006 32.8187 33.8199 33.2551 34.7635 32.7479C35.5067 32.3469 35.9431 31.5684 35.8723 31.1319C35.8519 31.0478 35.8146 30.9688 35.7627 30.8996C35.7107 30.8304 35.6452 30.7725 35.5702 30.7294C35.4951 30.6864 35.4121 30.6591 35.3261 30.6492C35.2402 30.6393 35.1531 30.647 35.0702 30.6719C35.4123 30.6719 35.601 31.0611 35.4005 31.533C35.2674 31.8379 35.061 32.1051 34.7996 32.3109C34.5383 32.5167 34.2301 32.6547 33.9024 32.7125C33.4896 32.7597 33.1947 32.5356 33.1357 32.2879Z" fill="black"/>
<path d="M43.8343 32.1699C44.7897 33.7033 46.5119 34.3521 47.6561 33.6326C48.8003 32.913 48.9654 31.0847 47.9981 29.5513C47.0309 28.0178 45.3205 27.3691 44.1764 28.1004C43.0322 28.8317 42.867 30.6483 43.8343 32.1699Z" fill="#64CF83"/>
<path opacity="0.15" d="M43.8343 32.1699C44.7897 33.7033 46.5119 34.3521 47.6561 33.6326C48.8003 32.913 48.9654 31.0847 47.9981 29.5513C47.0309 28.0178 45.3205 27.3691 44.1764 28.1004C43.0322 28.8317 42.867 30.6483 43.8343 32.1699Z" fill="black"/>
<path opacity="0.15" d="M45.4384 28.5605C44.6009 28.3717 43.9285 29.6575 44.7306 31.1319C45.3676 32.3115 46.5353 33.0428 47.2903 32.8541C47.4207 32.8174 47.5426 32.7553 47.6489 32.6712C47.7551 32.5872 47.8437 32.483 47.9095 32.3646C47.9753 32.2461 48.017 32.1158 48.0322 31.9812C48.0474 31.8466 48.0358 31.7103 47.998 31.5801C47.8918 32.1227 47.3846 32.4176 46.6533 32.0992C46.1842 31.8843 45.7759 31.5562 45.465 31.1444C45.1541 30.7326 44.9504 30.25 44.8722 29.74C44.7896 29.1267 45.0373 28.6666 45.4384 28.5605Z" fill="black"/>
<path d="M26.0229 43.2696C25.8712 43.0628 25.6649 42.9023 25.4271 42.8062C25.1893 42.71 24.9294 42.6821 24.6766 42.7254C24.4238 42.7688 24.1881 42.8817 23.9959 43.0516C23.8037 43.2214 23.6627 43.4415 23.5886 43.6871C23.5145 43.9326 23.5103 44.194 23.5765 44.4418C23.6427 44.6896 23.7766 44.914 23.9633 45.09C24.15 45.2659 24.3819 45.3863 24.6332 45.4377C24.8845 45.4892 25.1451 45.4695 25.3859 45.3811C25.7419 45.1773 26.0063 44.8449 26.1247 44.4522C26.2432 44.0595 26.2068 43.6363 26.0229 43.2696Z" fill="#64CF83"/>
<path opacity="0.15" d="M26.0229 43.2696C25.8712 43.0628 25.6649 42.9023 25.4271 42.8062C25.1893 42.71 24.9294 42.6821 24.6766 42.7254C24.4238 42.7688 24.1881 42.8817 23.9959 43.0516C23.8037 43.2214 23.6627 43.4415 23.5886 43.6871C23.5145 43.9326 23.5103 44.194 23.5765 44.4418C23.6427 44.6896 23.7766 44.914 23.9633 45.09C24.15 45.2659 24.3819 45.3863 24.6332 45.4377C24.8845 45.4892 25.1451 45.4695 25.3859 45.3811C25.7419 45.1773 26.0063 44.8449 26.1247 44.4522C26.2432 44.0595 26.2068 43.6363 26.0229 43.2696Z" fill="black"/>
<path opacity="0.15" d="M24.7726 44.9916C25.1855 45.1803 25.6927 44.5787 25.4332 43.7177C25.1737 42.8566 24.7018 42.5381 24.2536 42.5381C24.1808 42.5426 24.1095 42.5614 24.044 42.5935C23.9784 42.6256 23.9198 42.6704 23.8716 42.7252C23.8234 42.78 23.7865 42.8438 23.7629 42.9129C23.7394 42.982 23.7298 43.055 23.7346 43.1279C23.8526 42.8448 24.1592 42.7504 24.5013 42.9981C24.7221 43.1658 24.8994 43.384 25.0185 43.6344C25.1375 43.8848 25.1948 44.1601 25.1855 44.4372C25.1737 44.7675 24.9967 44.9798 24.7726 44.9916Z" fill="black"/>
<path d="M26.6597 34.9062C26.6799 34.5556 26.6019 34.2063 26.4345 33.8976C26.267 33.5889 26.0168 33.3331 25.7118 33.1588C25.4069 32.9846 25.0594 32.8989 24.7085 32.9113C24.3575 32.9238 24.017 33.034 23.7252 33.2294C23.4334 33.4249 23.2019 33.6978 23.0568 34.0176C22.9117 34.3375 22.8587 34.6914 22.9038 35.0397C22.9489 35.388 23.0902 35.7168 23.312 35.9891C23.5337 36.2614 23.827 36.4665 24.159 36.5812C25.1026 36.9115 26.2114 36.1684 26.6597 34.9062Z" fill="#64CF83"/>
<path opacity="0.15" d="M26.6597 34.9062C26.6799 34.5556 26.6019 34.2063 26.4345 33.8976C26.267 33.5889 26.0168 33.3331 25.7118 33.1588C25.4069 32.9846 25.0594 32.8989 24.7085 32.9113C24.3575 32.9238 24.017 33.034 23.7252 33.2294C23.4334 33.4249 23.2019 33.6978 23.0568 34.0176C22.9117 34.3375 22.8587 34.6914 22.9038 35.0397C22.9489 35.388 23.0902 35.7168 23.312 35.9891C23.5337 36.2614 23.827 36.4665 24.159 36.5812C25.1026 36.9115 26.2114 36.1684 26.6597 34.9062Z" fill="black"/>
<path opacity="0.15" d="M23.8525 35.6377C24.1238 36.2039 25.1619 36.0034 25.6455 34.871C25.8353 34.5181 25.9196 34.118 25.8882 33.7185C25.8568 33.319 25.7111 32.937 25.4685 32.618C25.3038 32.5022 25.1001 32.4558 24.9015 32.489C24.7028 32.5221 24.5252 32.632 24.4069 32.795C24.7726 32.6063 25.1737 32.795 25.327 33.3258C25.4106 33.6909 25.4061 34.0708 25.3138 34.4338C25.2215 34.7969 25.0441 35.1328 24.7962 35.4136C24.4659 35.7557 24.0885 35.8265 23.8525 35.6377Z" fill="black"/>
<path d="M30.3991 28.5012C30.5673 28.4571 30.7237 28.3764 30.857 28.2647C30.9904 28.1531 31.0974 28.0134 31.1705 27.8555C31.2435 27.6977 31.2807 27.5257 31.2795 27.3518C31.2782 27.1779 31.2385 27.0064 31.1632 26.8496C31.0879 26.6928 30.9789 26.5546 30.844 26.4449C30.709 26.3352 30.5515 26.2567 30.3827 26.2151C30.2138 26.1734 30.0378 26.1695 29.8673 26.2038C29.6968 26.2381 29.536 26.3097 29.3964 26.4134C29.2301 26.4599 29.076 26.5424 28.945 26.6551C28.8141 26.7677 28.7095 26.9078 28.6386 27.0653C28.5677 27.2228 28.5323 27.394 28.5348 27.5667C28.5373 27.7394 28.5778 27.9095 28.6533 28.0648C28.7288 28.2202 28.8375 28.3571 28.9717 28.4659C29.1059 28.5746 29.2624 28.6525 29.43 28.6942C29.5976 28.7358 29.7724 28.7401 29.9419 28.7067C30.1114 28.6734 30.2715 28.6032 30.4109 28.5012H30.3991Z" fill="#64CF83"/>
<path opacity="0.15" d="M30.3991 28.5012C30.5673 28.4571 30.7237 28.3764 30.857 28.2647C30.9904 28.1531 31.0974 28.0134 31.1705 27.8555C31.2435 27.6977 31.2807 27.5257 31.2795 27.3518C31.2782 27.1779 31.2385 27.0064 31.1632 26.8496C31.0879 26.6928 30.9789 26.5546 30.844 26.4449C30.709 26.3352 30.5515 26.2567 30.3827 26.2151C30.2138 26.1734 30.0378 26.1695 29.8673 26.2038C29.6968 26.2381 29.536 26.3097 29.3964 26.4134C29.2301 26.4599 29.076 26.5424 28.945 26.6551C28.8141 26.7677 28.7095 26.9078 28.6386 27.0653C28.5677 27.2228 28.5323 27.394 28.5348 27.5667C28.5373 27.7394 28.5778 27.9095 28.6533 28.0648C28.7288 28.2202 28.8375 28.3571 28.9717 28.4659C29.1059 28.5746 29.2624 28.6525 29.43 28.6942C29.5976 28.7358 29.7724 28.7401 29.9419 28.7067C30.1114 28.6734 30.2715 28.6032 30.4109 28.5012H30.3991Z" fill="black"/>
<path opacity="0.15" d="M28.7947 27.5696C28.6532 27.9471 29.2194 28.3245 29.9743 28.0297C30.7292 27.7348 30.9651 27.2865 30.9062 26.9209C30.8961 26.8581 30.8738 26.798 30.8405 26.7438C30.8072 26.6897 30.7636 26.6427 30.7121 26.6055C30.6606 26.5682 30.6023 26.5415 30.5404 26.5268C30.4786 26.5121 30.4145 26.5097 30.3518 26.5198C30.5995 26.6024 30.7174 26.8501 30.5287 27.1804C30.406 27.3867 30.234 27.5594 30.0281 27.6829C29.8223 27.8064 29.5889 27.877 29.3491 27.8881C29.0189 27.8999 28.8183 27.7584 28.7947 27.5696Z" fill="black"/>
<path d="M48.4583 39.7074C48.3719 40.0607 48.4272 40.4338 48.6124 40.7469C48.7976 41.0599 49.0979 41.288 49.4492 41.3824C50.0861 41.465 50.6287 40.8516 50.7939 40.0023C50.8792 39.6555 50.8291 39.2891 50.6538 38.9779C50.4785 38.6667 50.1911 38.4341 49.8502 38.3273C49.1779 38.2566 48.5763 38.8699 48.4583 39.7074Z" fill="#64CF83"/>
<path opacity="0.15" d="M48.4583 39.7074C48.3719 40.0607 48.4272 40.4338 48.6124 40.7469C48.7976 41.0599 49.0979 41.288 49.4492 41.3824C50.0861 41.465 50.6287 40.8516 50.7939 40.0023C50.8792 39.6555 50.8291 39.2891 50.6538 38.9779C50.4785 38.6667 50.1911 38.4341 49.8502 38.3273C49.1779 38.2566 48.5763 38.8699 48.4583 39.7074Z" fill="black"/>
<path opacity="0.15" d="M50.1335 38.8817C49.8858 38.5632 49.2488 38.8817 49.1072 39.6012C49.0262 39.8504 49.0211 40.1179 49.0925 40.37C49.1639 40.622 49.3087 40.8471 49.5083 41.0167C49.6277 41.0657 49.7612 41.0673 49.8817 41.0213C50.0023 40.9753 50.1007 40.8851 50.1571 40.769C49.9565 40.9341 49.6734 40.887 49.5083 40.5567C49.3986 40.3432 49.3414 40.1066 49.3414 39.8666C49.3414 39.6266 49.3986 39.3901 49.5083 39.1766C49.7206 38.8935 49.9565 38.7991 50.1335 38.8817Z" fill="black"/>
<path d="M36.0727 44.2368C35.8594 44.199 35.6397 44.2208 35.4379 44.2996C35.2361 44.3784 35.0599 44.5113 34.9286 44.6837C34.7973 44.8561 34.7161 45.0613 34.6938 45.2768C34.6715 45.4923 34.7089 45.7098 34.8021 45.9055C34.8952 46.1011 35.0405 46.2673 35.2218 46.3858C35.4032 46.5043 35.6138 46.5706 35.8303 46.5773C36.0469 46.5841 36.2611 46.531 36.4495 46.424C36.638 46.317 36.7933 46.1602 36.8984 45.9708C37.0098 45.631 36.9863 45.2614 36.8325 44.9386C36.6788 44.6157 36.4067 44.3645 36.0727 44.2368Z" fill="#64CF83"/>
<path opacity="0.15" d="M36.0727 44.2368C35.8594 44.199 35.6397 44.2208 35.4379 44.2996C35.2361 44.3784 35.0599 44.5113 34.9286 44.6837C34.7973 44.8561 34.7161 45.0613 34.6938 45.2768C34.6715 45.4923 34.7089 45.7098 34.8021 45.9055C34.8952 46.1011 35.0405 46.2673 35.2218 46.3858C35.4032 46.5043 35.6138 46.5706 35.8303 46.5773C36.0469 46.5841 36.2611 46.531 36.4495 46.424C36.638 46.317 36.7933 46.1602 36.8984 45.9708C37.0098 45.631 36.9863 45.2614 36.8325 44.9386C36.6788 44.6157 36.4067 44.3645 36.0727 44.2368Z" fill="black"/>
<path opacity="0.15" d="M36.2735 46.0887C36.6627 45.9707 36.6273 45.2866 35.955 44.9091C35.7464 44.7586 35.4997 44.67 35.2431 44.6533C34.9865 44.6366 34.7304 44.6925 34.5041 44.8147C34.4126 44.9075 34.3613 45.0325 34.3613 45.1627C34.3613 45.293 34.4126 45.418 34.5041 45.5107C34.4097 45.263 34.5041 45.0153 34.917 44.9681C35.158 44.948 35.4004 44.9857 35.624 45.078C35.8476 45.1703 36.046 45.3146 36.2027 45.4989C36.2803 45.5742 36.3296 45.6739 36.3425 45.7812C36.3554 45.8886 36.331 45.9971 36.2735 46.0887Z" fill="black"/>
<path d="M41.3102 35.4848C41.3745 35.6407 41.4714 35.781 41.5945 35.8963C41.7176 36.0115 41.8639 36.0991 42.0237 36.153C42.1835 36.2069 42.353 36.2259 42.5208 36.2087C42.6885 36.1916 42.8506 36.1386 42.9962 36.0535C43.1418 35.9684 43.2674 35.853 43.3646 35.7152C43.4618 35.5775 43.5283 35.4204 43.5597 35.2547C43.5911 35.0891 43.5866 34.9186 43.5465 34.7548C43.5064 34.591 43.4316 34.4377 43.3272 34.3052C43.263 34.1493 43.166 34.009 43.043 33.8938C42.9199 33.7785 42.7735 33.691 42.6137 33.6371C42.4539 33.5832 42.2844 33.5642 42.1167 33.5813C41.9489 33.5985 41.7868 33.6514 41.6412 33.7365C41.4957 33.8216 41.37 33.937 41.2728 34.0748C41.1756 34.2126 41.1091 34.3696 41.0777 34.5353C41.0464 34.701 41.0509 34.8715 41.091 35.0353C41.1311 35.1991 41.2058 35.3523 41.3102 35.4848Z" fill="#64CF83"/>
<path opacity="0.15" d="M41.3102 35.4848C41.3745 35.6407 41.4714 35.781 41.5945 35.8963C41.7176 36.0115 41.8639 36.0991 42.0237 36.153C42.1835 36.2069 42.353 36.2259 42.5208 36.2087C42.6885 36.1916 42.8506 36.1386 42.9962 36.0535C43.1418 35.9684 43.2674 35.853 43.3646 35.7152C43.4618 35.5775 43.5283 35.4204 43.5597 35.2547C43.5911 35.0891 43.5866 34.9186 43.5465 34.7548C43.5064 34.591 43.4316 34.4377 43.3272 34.3052C43.263 34.1493 43.166 34.009 43.043 33.8938C42.9199 33.7785 42.7735 33.691 42.6137 33.6371C42.4539 33.5832 42.2844 33.5642 42.1167 33.5813C41.9489 33.5985 41.7868 33.6514 41.6412 33.7365C41.4957 33.8216 41.37 33.937 41.2728 34.0748C41.1756 34.2126 41.1091 34.3696 41.0777 34.5353C41.0464 34.701 41.0509 34.8715 41.091 35.0353C41.1311 35.1991 41.2058 35.3523 41.3102 35.4848Z" fill="black"/>
<path opacity="0.15" d="M42.1475 33.821C41.7582 33.7149 41.4161 34.3046 41.7582 35.0006C42.1003 35.6965 42.5603 35.9324 42.9378 35.8617C42.9999 35.8465 43.0584 35.8192 43.1099 35.7812C43.1614 35.7433 43.2049 35.6955 43.2378 35.6406C43.2707 35.5858 43.2924 35.525 43.3017 35.4617C43.3109 35.3984 43.3075 35.3338 43.2916 35.2719C43.2916 35.5314 42.9849 35.6611 42.6547 35.496C42.4343 35.3818 42.2463 35.2138 42.1082 35.0076C41.97 34.8014 41.8862 34.5637 41.8644 34.3164C41.829 34.0687 41.9469 33.8564 42.1475 33.821Z" fill="black"/>
<path d="M39.5761 50.6774C38.7386 50.8544 38.1724 51.5031 38.3022 52.1283C38.4297 52.462 38.6816 52.7333 39.005 52.885C39.3284 53.0368 39.698 53.0573 40.0361 52.9422C40.8736 52.7771 41.4398 52.1283 41.3101 51.5031C41.1874 51.1654 40.9367 50.8895 40.6123 50.735C40.2879 50.5805 39.9157 50.5598 39.5761 50.6774Z" fill="#64CF83"/>
<path opacity="0.15" d="M39.5761 50.6774C38.7386 50.8544 38.1724 51.5031 38.3022 52.1283C38.4297 52.462 38.6816 52.7333 39.005 52.885C39.3284 53.0368 39.698 53.0573 40.0361 52.9422C40.8736 52.7771 41.4398 52.1283 41.3101 51.5031C41.1874 51.1654 40.9367 50.8895 40.6123 50.735C40.2879 50.5805 39.9157 50.5598 39.5761 50.6774Z" fill="black"/>
<path opacity="0.15" d="M40.897 51.9747C41.1212 51.6444 40.6611 51.1372 39.8826 51.2433C39.1041 51.3495 38.703 51.727 38.703 52.0926C38.6982 52.1562 38.706 52.22 38.726 52.2806C38.7459 52.3411 38.7776 52.3971 38.8193 52.4453C38.8609 52.4935 38.9117 52.5331 38.9687 52.5616C39.0256 52.5902 39.0877 52.6072 39.1513 52.6116C38.9272 52.4819 38.88 52.1988 39.1513 51.9275C39.3237 51.7604 39.5336 51.6369 39.7633 51.5671C39.9931 51.4974 40.2362 51.4834 40.4724 51.5264C40.7555 51.6326 40.9206 51.7859 40.897 51.9747Z" fill="black"/>
<path d="M35.8488 36.2982C35.4239 36.5243 35.0783 36.8748 34.8584 37.3028C34.6385 37.7309 34.5547 38.216 34.6184 38.693C34.682 39.17 34.89 39.6161 35.2145 39.9715C35.5389 40.3269 35.9643 40.5746 36.4336 40.6813C36.9028 40.7881 37.3935 40.7487 37.8397 40.5686C38.286 40.3885 38.6665 40.0762 38.9302 39.6737C39.1939 39.2711 39.3282 38.7976 39.315 38.3165C39.3019 37.8355 39.1419 37.3699 38.8566 36.9824C38.5483 36.493 38.0583 36.146 37.4943 36.0177C36.9303 35.8894 36.3384 35.9903 35.8488 36.2982Z" fill="#64CF83"/>
<path opacity="0.15" d="M35.8488 36.2982C35.4239 36.5243 35.0783 36.8748 34.8584 37.3028C34.6385 37.7309 34.5547 38.216 34.6184 38.693C34.682 39.17 34.89 39.6161 35.2145 39.9715C35.5389 40.3269 35.9643 40.5746 36.4336 40.6813C36.9028 40.7881 37.3935 40.7487 37.8397 40.5686C38.286 40.3885 38.6665 40.0762 38.9302 39.6737C39.1939 39.2711 39.3282 38.7976 39.315 38.3165C39.3019 37.8355 39.1419 37.3699 38.8566 36.9824C38.5483 36.493 38.0583 36.146 37.4943 36.0177C36.9303 35.8894 36.3384 35.9903 35.8488 36.2982Z" fill="black"/>
<path opacity="0.15" d="M38.6322 39.0585C38.5261 39.2405 38.3803 39.3962 38.2057 39.5142C38.0311 39.6322 37.8321 39.7093 37.6237 39.7399C37.4152 39.7705 37.2025 39.7537 37.0014 39.6909C36.8002 39.6281 36.6158 39.5208 36.4618 39.377C35.5654 38.7282 35.4002 37.0179 36.3675 36.6758C36.2408 37.0281 36.2089 37.4076 36.2752 37.7761C36.3414 38.1446 36.5034 38.4893 36.7449 38.7754C36.8499 38.9184 36.9821 39.0393 37.1339 39.131C37.2858 39.2227 37.4542 39.2835 37.6297 39.3098C37.8051 39.3361 37.984 39.3274 38.1561 39.2843C38.3281 39.2412 38.49 39.1644 38.6322 39.0585Z" fill="black"/>
<path d="M0.49707 38.1147C0.497076 45.4748 2.68022 52.6696 6.77028 58.7887C10.8603 64.9078 16.6735 69.6762 23.4743 72.4907C30.2751 75.3052 37.7579 76.0391 44.976 74.5998C52.194 73.1605 58.823 69.6125 64.0241 64.4048C69.2252 59.1971 72.7648 52.5636 74.1949 45.3437C75.6251 38.1239 74.8816 30.642 72.0585 23.8448C69.2355 17.0476 64.4597 11.2404 58.3354 7.15813C52.2111 3.07584 45.0135 0.901828 37.6534 0.911163C27.7984 0.93612 18.3549 4.86528 11.3908 11.8382C4.42669 18.8112 0.509521 28.2597 0.49707 38.1147ZM37.6534 71.4964C29.7347 71.5045 22.0741 68.6805 16.0555 63.5343L63.073 16.5286C67.199 21.3807 69.8497 27.3125 70.7118 33.623C71.5739 39.9335 70.6114 46.359 67.938 52.1399C65.2646 57.9208 60.9922 62.8156 55.6256 66.2457C50.2589 69.6757 44.0225 71.4978 37.6534 71.4964ZM4.27168 38.1147C4.25824 31.5989 6.154 25.2219 9.72473 19.7717C13.2955 14.3214 18.3847 10.0367 24.3637 7.44683C30.3427 4.85699 36.9494 4.07553 43.3676 5.19899C49.7858 6.32246 55.7342 9.30163 60.478 13.7684L13.2954 60.9511C7.49927 54.7629 4.28795 46.5932 4.31886 38.1147H4.27168Z" fill="#455A64"/>
<path d="M39.7057 85.5567L44.424 73.2656H30.918L35.6362 85.5567C35.7852 85.9773 36.0608 86.3414 36.4252 86.5989C36.7896 86.8564 37.2248 86.9946 37.671 86.9946C38.1172 86.9946 38.5524 86.8564 38.9168 86.5989C39.2811 86.3414 39.5568 85.9773 39.7057 85.5567Z" fill="#455A64"/>
</svg>
