<svg width="280" height="280" viewBox="0 0 280 280" fill="none" xmlns="http://www.w3.org/2000/svg">
<path d="M0.434083 139.568C0.439687 170.786 10.9132 201.1 30.1798 225.663C49.4463 250.227 76.3931 267.62 106.711 275.062C137.029 282.504 168.967 279.565 197.417 266.715C225.867 253.865 249.187 231.845 263.647 204.178C278.107 176.511 282.872 144.794 277.18 114.1C271.488 83.4052 255.668 55.5057 232.249 34.8629C208.831 14.22 179.167 2.02602 148 0.230975C116.834 -1.56407 85.9661 7.14348 60.3324 24.9612C41.8427 37.8143 26.7379 54.9509 16.3076 74.9079C5.87718 94.8649 0.431037 117.049 0.434083 139.568Z" fill="#64CF83"/>
<path opacity="0.55" d="M12.5124 196.329C25.2173 224.84 47.1153 248.268 74.705 262.867C102.295 277.465 133.983 282.391 164.702 276.856C195.421 271.322 223.398 255.647 244.158 232.338C264.918 209.028 277.263 179.431 279.219 148.279C281.174 117.126 272.628 86.2176 254.946 60.495C237.264 34.7724 211.468 15.7215 181.682 6.38853C151.896 -2.94444 119.841 -2.02047 90.642 9.0127C61.4431 20.0459 36.787 40.551 20.616 67.2494C8.94884 86.5138 2.11797 108.316 0.706821 130.794C-0.704329 153.272 3.34618 175.757 12.5124 196.329Z" fill="white"/>
<path d="M118.768 21.2456C112.398 21.5995 104.294 24.1709 110.357 27.5681C116.42 30.9652 120.218 31.1068 120.443 35.825C120.667 40.5433 117.789 45.58 119.428 48.8002C121.068 52.0205 123.698 55.8776 126.081 54.6981C128.464 53.5185 134.833 45.8159 138.631 46.0165C142.43 46.217 155.358 46.2996 157.068 42.0059C158.778 37.7123 160.701 37.9246 163.615 33.1238C166.528 28.323 166.127 22.0595 162.353 22.1774C158.578 22.2954 158.141 23.9232 151.819 23.6991C145.497 23.475 142.382 19.4291 136.32 20.762C130.257 22.0949 123.486 20.9271 118.768 21.2456Z" fill="#455A64"/>
<path d="M95.176 23.7698C88.0986 27.9101 73.0709 34.3151 65.9464 32.6284C62.4077 31.7673 58.1848 30.5287 53.7025 29.88C27.2654 50.697 9.21962 80.3475 2.875 113.393C4.68846 116.833 6.92755 120.031 9.53954 122.912C15.3076 129.188 21.0521 129.789 28.0941 130.874C35.1361 131.96 32.1754 134.578 35.7731 138.565C37.5326 140.745 39.7789 142.483 42.3315 143.637C46.342 145.69 41.1519 150.066 39.819 154.643C38.4861 159.219 38.0968 161.72 41.6709 170.803C45.245 179.885 54.8702 186.939 57.7838 190.383C60.6973 193.828 56.156 198.133 57.6304 205.517C59.1049 212.901 59.4823 232.647 67.0669 243.499C74.6516 254.351 78.8626 252.853 77.9897 245.398C77.1168 237.944 74.451 230.949 78.5559 225.157C82.6608 219.365 91.5311 220.533 94.1026 210.141C96.674 199.749 98.6203 200.174 103.256 196.494C107.892 192.813 105.615 189.912 109.744 181.808C111.36 178.623 113.672 174.377 112.339 170.803C111.088 167.453 107.915 164.999 104.801 163.489C100.732 161.543 96.1904 160.623 92.2625 158.405C85.362 154.513 81.1628 147.105 74.7813 142.411C69.8625 139.023 64.1962 136.878 58.2674 136.159C52.9712 135.345 47.0851 137.539 41.9304 136.253C36.7757 134.967 36.6931 128.621 36.8819 124.811C37.0706 121.001 33.2134 120.188 29.5568 121.273C25.9001 122.358 23.7415 120.093 22.4794 115.151C21.2172 110.208 28.7193 103.709 34.9592 102.989C41.1991 102.27 44.6434 105.042 46.1886 113.051C46.7056 116.283 48.2212 119.272 50.5227 121.599C52.8243 123.926 55.7964 125.474 59.0223 126.026C64.8376 127.206 61.004 121.391 56.7693 117.451C52.5347 113.511 52.1101 109.807 54.8466 100.666C57.5832 91.5241 65.1796 91.9133 70.5113 83.3969C75.8429 74.8804 77.164 81.0377 82.9085 81.6865C88.653 82.3352 87.6268 79.2448 89.5848 73.9839C91.5429 68.7231 98.9152 72.9105 104.707 68.4636C110.499 64.0166 97.83 57.8475 98.4198 52.1738C99.0096 46.5 104.695 46.4293 101.204 38.019C97.7121 29.6087 102.076 29.0897 104.211 25.8223C106.346 22.5549 102.253 19.6177 95.176 23.7698ZM87.5324 45.002C85.8102 49.3074 84.1589 48.5407 81.2453 53.259C78.3318 57.9772 73.6017 60.7492 70.4995 61.2564C67.3972 61.7636 62.0656 56.4084 61.6645 52.9995C61.2635 49.5905 66.1823 48.3756 71.7498 47.4437C77.3174 46.5118 82.0003 43.905 86.919 39.7058C90.7644 36.3676 89.2074 40.6612 87.4852 44.943L87.5324 45.002Z" fill="#455A64"/>
<path d="M278.634 123.667V124.056C277.409 124.595 276.306 125.379 275.393 126.358C274.481 127.338 273.777 128.493 273.326 129.754C270.448 137.645 269.788 134.271 262.498 139.827C255.208 145.383 258.251 149.441 258.853 154.725C259.455 160.01 251.068 166.332 246.88 168.385C242.693 170.437 241.266 182.539 242.882 188.437C244.498 194.335 237.562 196.918 233.445 202.439C229.328 207.959 227.241 217.006 224.587 221.406C223.31 223.609 221.424 225.396 219.155 226.554C216.887 227.711 214.333 228.188 211.8 227.929C206.681 227.245 201.632 219 198.601 211.792C195.447 204.463 194.409 196.397 195.605 188.508C197.634 175.851 197.48 159.62 182.217 156.294C177.392 155.244 172.379 155.456 167.531 154.572C162.683 153.687 157.682 151.363 155.511 146.928C153.695 143.224 154.214 138.789 152.834 134.897C151.288 130.52 147.36 126.486 148.516 121.992C149.248 119.149 151.819 117.274 154.225 115.564C158.731 112.438 162.919 109.725 166.387 105.49C169.513 101.656 174.196 99.2738 178.878 97.7993C186.781 95.3222 192.349 97.1977 197.339 99.4625C202.328 101.727 204.876 107.059 208.415 107.354C211.953 107.649 214.843 105.679 218.358 106.174C221.874 106.67 224.256 108.333 227.653 107.625C231.051 106.917 228.727 103.096 228.161 100.949C227.594 98.8019 224.528 99.4743 220.446 99.604C216.365 99.7338 215.28 98.6486 213.735 95.9946C212.189 93.3405 209.925 95.8058 207.919 94.815C205.914 93.8242 206.48 98.7665 206.386 100.713C206.292 102.659 204.652 99.3091 204.652 99.3091C204.652 99.3091 203.071 101.999 202.293 100.831C201.514 99.663 203.083 96.6551 202.741 93.6708C202.399 90.6865 198.094 91.5594 195.31 89.3418C192.526 87.1242 188.74 86.9827 185.107 88.3274C181.473 89.6721 180.766 88.8228 179.209 92.1374C177.652 95.452 169.772 97.9408 167.224 97.6106C164.676 97.2803 166.269 92.0548 168.274 87.4191C170.279 82.7834 174.809 84.1281 177.428 79.4217C180.046 74.7152 176.248 74.2198 173.594 73.5238C170.94 72.8279 170.055 70.4452 172.556 64.5002C175.057 58.5551 178.654 60.0178 180.235 62.6718C181.816 65.3259 185.083 66.529 188.551 66.4346C192.019 66.3403 191.099 63.9576 190.816 58.9326C190.533 53.9077 192.762 51.1475 197.244 49.0714C201.727 46.9954 209.229 43.5865 212.06 40.7437C214.891 37.901 220.092 39.5641 222.935 42.3361C225.778 45.1081 231.865 46.0282 238.27 46.8657C239.088 46.9583 239.916 46.8559 240.687 46.5668C241.458 46.2777 242.149 45.8102 242.705 45.2025C262.711 66.8774 275.296 94.36 278.634 123.667Z" fill="#455A64"/>
<path d="M255.137 193.285C251.717 192.837 252.059 193.946 250.171 196.694C248.284 199.443 245.453 202.592 246.126 205.341C246.798 208.089 247.152 211.533 249.428 209.375C251.705 207.216 250.785 204.81 254.064 203.17C257.343 201.531 260.316 193.958 255.137 193.285Z" fill="#455A64"/>
<path opacity="0.1" d="M219.703 38.2435C146.723 -18.5998 108.824 31.4727 138.313 84.4234C167.802 137.374 238.128 179.06 257.579 159.727C277.03 140.394 273.951 80.5073 219.703 38.2435Z" fill="white"/>
<path opacity="0.1" d="M52.2519 200.221C-11.1498 80.3181 99.7294 5.91113 99.7294 5.91113C81.6787 11.359 64.9188 20.4076 50.4613 32.5108C36.0038 44.6141 24.1484 59.521 15.6105 76.3321C7.07259 93.1432 2.02926 111.51 0.78482 130.324C-0.459622 149.137 2.12064 168.008 8.3699 185.798C14.6192 203.587 24.4079 219.925 37.1452 233.827C49.8826 247.729 65.3046 258.907 82.4805 266.685C99.6564 274.463 118.23 278.68 137.081 279.082C155.931 279.484 174.668 276.063 192.16 269.025C192.16 269.025 93.9967 279.157 52.2519 200.221Z" fill="black"/>
</svg>
